<svg width="452" height="281" viewBox="0 0 452 281" fill="none" xmlns="http://www.w3.org/2000/svg">
<g clip-path="url(#clip0_393_1258)">
<path d="M451.33 0H0V281H451.33V0Z" fill="#F4F4F6"/>
<path d="M33.8497 0V281" stroke="#E2E2E6" stroke-width="0.8"/>
<path d="M417.48 0V281" stroke="#E2E2E6" stroke-width="0.8"/>
<path d="M0 31.6123H451.33" stroke="#E2E2E6" stroke-width="0.8"/>
<path d="M0 249.388H451.33" stroke="#E2E2E6" stroke-width="0.8"/>
<rect x="33.5" y="29.5" width="384" height="222" rx="11.5" fill="white"/>
<rect x="33.5" y="29.5" width="384" height="222" rx="11.5" stroke="#E2E0E0"/>
<path d="M128.858 89.093V87.3182H137.221V89.093H134.104V97.5H131.976V89.093H128.858ZM137.765 97.5V89.8636H139.818V91.196H139.898C140.037 90.7221 140.271 90.3641 140.599 90.1222C140.927 89.8769 141.305 89.7543 141.732 89.7543C141.838 89.7543 141.953 89.7609 142.075 89.7741C142.198 89.7874 142.306 89.8056 142.399 89.8288V91.7081C142.299 91.6783 142.162 91.6518 141.986 91.6286C141.81 91.6054 141.65 91.5938 141.504 91.5938C141.192 91.5938 140.914 91.6617 140.669 91.7976C140.427 91.9302 140.234 92.1158 140.092 92.3544C139.953 92.593 139.883 92.8681 139.883 93.1797V97.5H137.765ZM148.391 94.2486V89.8636H150.509V97.5H148.475V96.1129H148.396C148.223 96.5604 147.937 96.92 147.536 97.1918C147.138 97.4635 146.652 97.5994 146.079 97.5994C145.568 97.5994 145.119 97.4834 144.732 97.2514C144.344 97.0194 144.04 96.6896 143.822 96.2621C143.606 95.8345 143.497 95.3224 143.494 94.7259V89.8636H145.612V94.348C145.615 94.7988 145.736 95.1551 145.974 95.4169C146.213 95.6787 146.533 95.8097 146.934 95.8097C147.189 95.8097 147.428 95.7517 147.65 95.6357C147.872 95.5163 148.051 95.3407 148.187 95.1087C148.326 94.8767 148.394 94.59 148.391 94.2486ZM158.556 92.0412L156.617 92.1605C156.584 91.9948 156.513 91.8456 156.404 91.7131C156.294 91.5772 156.15 91.4695 155.971 91.3899C155.795 91.3071 155.585 91.2656 155.34 91.2656C155.012 91.2656 154.735 91.3352 154.509 91.4744C154.284 91.6103 154.171 91.7926 154.171 92.0213C154.171 92.2036 154.244 92.3577 154.39 92.4837C154.536 92.6096 154.786 92.7107 155.141 92.7869L156.523 93.0653C157.265 93.2178 157.819 93.4631 158.183 93.8011C158.548 94.1392 158.73 94.5833 158.73 95.1335C158.73 95.634 158.583 96.0732 158.288 96.451C157.996 96.8288 157.595 97.1238 157.085 97.3359C156.578 97.5447 155.993 97.6491 155.33 97.6491C154.319 97.6491 153.513 97.4387 152.914 97.0178C152.317 96.5935 151.967 96.0168 151.865 95.2876L153.948 95.1783C154.011 95.4865 154.163 95.7218 154.405 95.8842C154.647 96.0433 154.957 96.1229 155.335 96.1229C155.706 96.1229 156.004 96.0516 156.23 95.9091C156.458 95.7633 156.574 95.576 156.578 95.3473C156.574 95.1551 156.493 94.9976 156.334 94.875C156.175 94.7491 155.93 94.6529 155.598 94.5866L154.276 94.3232C153.53 94.174 152.975 93.9155 152.61 93.5476C152.249 93.1797 152.068 92.7107 152.068 92.1406C152.068 91.6501 152.201 91.2275 152.466 90.8729C152.735 90.5182 153.111 90.2448 153.595 90.0526C154.082 89.8603 154.652 89.7642 155.305 89.7642C156.269 89.7642 157.028 89.968 157.582 90.3757C158.139 90.7834 158.463 91.3385 158.556 92.0412ZM164.126 89.8636V91.4545H159.527V89.8636H164.126ZM160.571 88.0341H162.689V95.1534C162.689 95.349 162.719 95.5014 162.778 95.6108C162.838 95.7169 162.921 95.7914 163.027 95.8345C163.136 95.8776 163.262 95.8991 163.405 95.8991C163.504 95.8991 163.604 95.8909 163.703 95.8743C163.803 95.8544 163.879 95.8395 163.932 95.8295L164.265 97.4055C164.159 97.4387 164.01 97.4768 163.817 97.5199C163.625 97.5663 163.392 97.5945 163.116 97.6044C162.606 97.6243 162.159 97.5563 161.774 97.4006C161.393 97.2448 161.096 97.0028 160.884 96.6747C160.672 96.3466 160.568 95.9323 160.571 95.4318V88.0341ZM168.903 97.6491C168.118 97.6491 167.442 97.4901 166.875 97.1719C166.312 96.8504 165.877 96.3963 165.572 95.8097C165.268 95.2197 165.115 94.522 165.115 93.7166C165.115 92.9311 165.268 92.2417 165.572 91.6484C165.877 91.0552 166.307 90.5928 166.86 90.2614C167.417 89.9299 168.07 89.7642 168.819 89.7642C169.323 89.7642 169.792 89.8454 170.226 90.0078C170.663 90.1669 171.045 90.4072 171.369 90.7287C171.697 91.0502 171.953 91.4545 172.135 91.9418C172.317 92.4257 172.408 92.9924 172.408 93.642V94.2237H165.96V92.9112H170.415C170.415 92.6063 170.348 92.3362 170.216 92.1009C170.083 91.8655 169.899 91.6816 169.664 91.549C169.432 91.4131 169.162 91.3452 168.854 91.3452C168.532 91.3452 168.247 91.4197 167.999 91.5689C167.753 91.7147 167.561 91.9119 167.422 92.1605C167.283 92.4058 167.211 92.6792 167.208 92.9808V94.2287C167.208 94.6065 167.278 94.933 167.417 95.2081C167.559 95.4832 167.76 95.6953 168.018 95.8445C168.277 95.9936 168.584 96.0682 168.938 96.0682C169.174 96.0682 169.389 96.035 169.585 95.9688C169.78 95.9025 169.947 95.803 170.087 95.6705C170.226 95.5379 170.332 95.3755 170.405 95.1832L172.364 95.3125C172.264 95.7831 172.06 96.1941 171.752 96.5455C171.447 96.8935 171.053 97.1652 170.569 97.3608C170.088 97.553 169.533 97.6491 168.903 97.6491ZM176.604 97.6243C176.024 97.6243 175.499 97.4751 175.028 97.1768C174.561 96.8752 174.19 96.4328 173.915 95.8494C173.643 95.2628 173.507 94.5436 173.507 93.6918C173.507 92.8168 173.648 92.0893 173.93 91.5092C174.211 90.9259 174.586 90.4901 175.053 90.2017C175.524 89.91 176.039 89.7642 176.599 89.7642C177.027 89.7642 177.383 89.8371 177.668 89.983C177.957 90.1255 178.189 90.3045 178.364 90.5199C178.543 90.732 178.679 90.9408 178.772 91.1463H178.837V87.3182H180.95V97.5H178.862V96.277H178.772C178.673 96.4891 178.532 96.6996 178.349 96.9084C178.17 97.1139 177.937 97.2846 177.648 97.4205C177.363 97.5563 177.015 97.6243 176.604 97.6243ZM177.276 95.9389C177.617 95.9389 177.905 95.8461 178.141 95.6605C178.379 95.4716 178.562 95.2081 178.688 94.87C178.817 94.532 178.881 94.1359 178.881 93.6818C178.881 93.2277 178.818 92.8333 178.692 92.4986C178.567 92.1638 178.384 91.9053 178.146 91.723C177.907 91.5407 177.617 91.4496 177.276 91.4496C176.928 91.4496 176.634 91.544 176.396 91.733C176.157 91.9219 175.976 92.1837 175.854 92.5185C175.731 92.8532 175.67 93.241 175.67 93.6818C175.67 94.1259 175.731 94.5187 175.854 94.8601C175.98 95.1982 176.16 95.4633 176.396 95.6555C176.634 95.8445 176.928 95.9389 177.276 95.9389ZM185.971 97.5V87.3182H188.089V91.1463H188.153C188.246 90.9408 188.38 90.732 188.556 90.5199C188.735 90.3045 188.967 90.1255 189.252 89.983C189.54 89.8371 189.898 89.7642 190.326 89.7642C190.883 89.7642 191.397 89.91 191.867 90.2017C192.338 90.4901 192.714 90.9259 192.996 91.5092C193.277 92.0893 193.418 92.8168 193.418 93.6918C193.418 94.5436 193.281 95.2628 193.006 95.8494C192.734 96.4328 192.363 96.8752 191.892 97.1768C191.425 97.4751 190.901 97.6243 190.321 97.6243C189.91 97.6243 189.56 97.5563 189.272 97.4205C188.987 97.2846 188.753 97.1139 188.571 96.9084C188.389 96.6996 188.25 96.4891 188.153 96.277H188.059V97.5H185.971ZM188.044 93.6818C188.044 94.1359 188.107 94.532 188.233 94.87C188.359 95.2081 188.541 95.4716 188.78 95.6605C189.018 95.8461 189.308 95.9389 189.65 95.9389C189.995 95.9389 190.286 95.8445 190.525 95.6555C190.763 95.4633 190.944 95.1982 191.067 94.8601C191.193 94.5187 191.256 94.1259 191.256 93.6818C191.256 93.241 191.194 92.8532 191.072 92.5185C190.949 92.1837 190.768 91.9219 190.53 91.733C190.291 91.544 189.998 91.4496 189.65 91.4496C189.305 91.4496 189.013 91.5407 188.775 91.723C188.54 91.9053 188.359 92.1638 188.233 92.4986C188.107 92.8333 188.044 93.2277 188.044 93.6818ZM195.893 100.364C195.624 100.364 195.373 100.342 195.137 100.299C194.905 100.259 194.713 100.208 194.561 100.145L195.038 98.5639C195.286 98.6402 195.51 98.6816 195.709 98.6882C195.911 98.6948 196.085 98.6484 196.231 98.549C196.38 98.4496 196.501 98.2805 196.594 98.0419L196.718 97.7188L193.979 89.8636H196.206L197.787 95.4716H197.867L199.463 89.8636H201.705L198.737 98.3253C198.594 98.7363 198.4 99.0942 198.155 99.3991C197.913 99.7074 197.606 99.9444 197.235 100.11C196.864 100.279 196.417 100.364 195.893 100.364ZM210.091 89.8636V91.4545H205.492V89.8636H210.091ZM206.536 88.0341H208.654V95.1534C208.654 95.349 208.684 95.5014 208.743 95.6108C208.803 95.7169 208.886 95.7914 208.992 95.8345C209.101 95.8776 209.227 95.8991 209.37 95.8991C209.469 95.8991 209.569 95.8909 209.668 95.8743C209.767 95.8544 209.844 95.8395 209.897 95.8295L210.23 97.4055C210.124 97.4387 209.975 97.4768 209.782 97.5199C209.59 97.5663 209.356 97.5945 209.081 97.6044C208.571 97.6243 208.123 97.5563 207.739 97.4006C207.358 97.2448 207.061 97.0028 206.849 96.6747C206.637 96.3466 206.533 95.9323 206.536 95.4318V88.0341ZM214.868 97.6491C214.083 97.6491 213.407 97.4901 212.84 97.1719C212.276 96.8504 211.842 96.3963 211.537 95.8097C211.232 95.2197 211.08 94.522 211.08 93.7166C211.08 92.9311 211.232 92.2417 211.537 91.6484C211.842 91.0552 212.271 90.5928 212.825 90.2614C213.382 89.9299 214.035 89.7642 214.784 89.7642C215.288 89.7642 215.757 89.8454 216.191 90.0078C216.628 90.1669 217.009 90.4072 217.334 90.7287C217.662 91.0502 217.917 91.4545 218.1 91.9418C218.282 92.4257 218.373 92.9924 218.373 93.642V94.2237H211.925V92.9112H216.38C216.38 92.6063 216.313 92.3362 216.181 92.1009C216.048 91.8655 215.864 91.6816 215.629 91.549C215.397 91.4131 215.127 91.3452 214.819 91.3452C214.497 91.3452 214.212 91.4197 213.963 91.5689C213.718 91.7147 213.526 91.9119 213.387 92.1605C213.248 92.4058 213.176 92.6792 213.173 92.9808V94.2287C213.173 94.6065 213.243 94.933 213.382 95.2081C213.524 95.4832 213.725 95.6953 213.983 95.8445C214.242 95.9936 214.548 96.0682 214.903 96.0682C215.138 96.0682 215.354 96.035 215.549 95.9688C215.745 95.9025 215.912 95.803 216.051 95.6705C216.191 95.5379 216.297 95.3755 216.37 95.1832L218.328 95.3125C218.229 95.7831 218.025 96.1941 217.717 96.5455C217.412 96.8935 217.018 97.1652 216.534 97.3608C216.053 97.553 215.498 97.6491 214.868 97.6491ZM221.933 97.6442C221.446 97.6442 221.011 97.5597 220.63 97.3906C220.249 97.2183 219.948 96.9647 219.725 96.63C219.507 96.2919 219.397 95.871 219.397 95.3672C219.397 94.9429 219.475 94.5866 219.631 94.2983C219.787 94.0099 219.999 93.7779 220.267 93.6023C220.536 93.4266 220.841 93.294 221.182 93.2045C221.527 93.1151 221.888 93.0521 222.266 93.0156C222.71 92.9692 223.068 92.9261 223.34 92.8864C223.612 92.8433 223.809 92.7803 223.931 92.6974C224.054 92.6146 224.115 92.492 224.115 92.3295V92.2997C224.115 91.9848 224.016 91.7412 223.817 91.5689C223.622 91.3965 223.343 91.3104 222.982 91.3104C222.601 91.3104 222.297 91.3949 222.072 91.5639C221.847 91.7296 221.698 91.9384 221.625 92.1903L219.666 92.0312C219.765 91.5672 219.961 91.1662 220.252 90.8281C220.544 90.4867 220.92 90.2249 221.381 90.0426C221.845 89.857 222.382 89.7642 222.992 89.7642C223.416 89.7642 223.822 89.8139 224.21 89.9134C224.601 90.0128 224.947 90.1669 225.249 90.3757C225.554 90.5845 225.794 90.853 225.97 91.1811C226.145 91.5059 226.233 91.8954 226.233 92.3494V97.5H224.225V96.4411H224.165C224.042 96.6797 223.878 96.8902 223.673 97.0724C223.467 97.2514 223.221 97.3923 222.932 97.495C222.644 97.5945 222.311 97.6442 221.933 97.6442ZM222.539 96.1825C222.851 96.1825 223.126 96.1212 223.365 95.9986C223.603 95.8726 223.791 95.7036 223.926 95.4915C224.062 95.2794 224.13 95.0391 224.13 94.7706V93.9602C224.064 94.0033 223.973 94.0431 223.857 94.0795C223.744 94.1127 223.617 94.1442 223.474 94.174C223.332 94.2005 223.189 94.2254 223.047 94.2486C222.904 94.2685 222.775 94.2867 222.659 94.3033C222.41 94.3397 222.193 94.3977 222.007 94.4773C221.822 94.5568 221.678 94.6645 221.575 94.8004C221.472 94.933 221.421 95.0987 221.421 95.2976C221.421 95.5859 221.525 95.8063 221.734 95.9588C221.946 96.108 222.215 96.1825 222.539 96.1825ZM227.876 97.5V89.8636H229.895V91.2109H229.984C230.143 90.7635 230.409 90.4105 230.78 90.152C231.151 89.8935 231.595 89.7642 232.112 89.7642C232.636 89.7642 233.082 89.8951 233.45 90.157C233.817 90.4155 234.063 90.7668 234.185 91.2109H234.265C234.421 90.7734 234.702 90.4238 235.11 90.1619C235.521 89.8968 236.007 89.7642 236.567 89.7642C237.279 89.7642 237.858 89.9912 238.302 90.4453C238.749 90.8961 238.973 91.5357 238.973 92.3643V97.5H236.86V92.782C236.86 92.3577 236.747 92.0395 236.522 91.8274C236.297 91.6153 236.015 91.5092 235.677 91.5092C235.292 91.5092 234.992 91.6319 234.777 91.8771C234.562 92.1191 234.454 92.4389 234.454 92.8366V97.5H232.401V92.7372C232.401 92.3627 232.293 92.0644 232.077 91.8423C231.865 91.6203 231.585 91.5092 231.237 91.5092C231.002 91.5092 230.79 91.5689 230.601 91.6882C230.415 91.8042 230.268 91.9683 230.158 92.1804C230.049 92.3892 229.994 92.6345 229.994 92.9162V97.5H227.876ZM247 92.0412L245.061 92.1605C245.028 91.9948 244.956 91.8456 244.847 91.7131C244.738 91.5772 244.593 91.4695 244.414 91.3899C244.239 91.3071 244.028 91.2656 243.783 91.2656C243.455 91.2656 243.178 91.3352 242.953 91.4744C242.727 91.6103 242.615 91.7926 242.615 92.0213C242.615 92.2036 242.688 92.3577 242.833 92.4837C242.979 92.6096 243.23 92.7107 243.584 92.7869L244.966 93.0653C245.709 93.2178 246.262 93.4631 246.627 93.8011C246.991 94.1392 247.174 94.5833 247.174 95.1335C247.174 95.634 247.026 96.0732 246.731 96.451C246.44 96.8288 246.038 97.1238 245.528 97.3359C245.021 97.5447 244.436 97.6491 243.773 97.6491C242.762 97.6491 241.957 97.4387 241.357 97.0178C240.76 96.5935 240.411 96.0168 240.308 95.2876L242.391 95.1783C242.454 95.4865 242.606 95.7218 242.848 95.8842C243.09 96.0433 243.4 96.1229 243.778 96.1229C244.149 96.1229 244.448 96.0516 244.673 95.9091C244.902 95.7633 245.018 95.576 245.021 95.3473C245.018 95.1551 244.936 94.9976 244.777 94.875C244.618 94.7491 244.373 94.6529 244.042 94.5866L242.719 94.3232C241.973 94.174 241.418 93.9155 241.054 93.5476C240.692 93.1797 240.512 92.7107 240.512 92.1406C240.512 91.6501 240.644 91.2275 240.909 90.8729C241.178 90.5182 241.554 90.2448 242.038 90.0526C242.525 89.8603 243.095 89.7642 243.748 89.7642C244.713 89.7642 245.472 89.968 246.025 90.3757C246.582 90.7834 246.907 91.3385 247 92.0412ZM253.254 97.5L251.176 89.8636H253.319L254.502 94.9943H254.571L255.804 89.8636H257.907L259.16 94.9645H259.225L260.388 89.8636H262.526L260.453 97.5H258.211L256.898 92.6974H256.804L255.491 97.5H253.254ZM266.915 97.6491C266.142 97.6491 265.474 97.4851 264.911 97.157C264.351 96.8255 263.918 96.3648 263.613 95.7749C263.309 95.1816 263.156 94.4938 263.156 93.7116C263.156 92.9228 263.309 92.2334 263.613 91.6435C263.918 91.0502 264.351 90.5895 264.911 90.2614C265.474 89.9299 266.142 89.7642 266.915 89.7642C267.687 89.7642 268.353 89.9299 268.913 90.2614C269.477 90.5895 269.911 91.0502 270.216 91.6435C270.521 92.2334 270.673 92.9228 270.673 93.7116C270.673 94.4938 270.521 95.1816 270.216 95.7749C269.911 96.3648 269.477 96.8255 268.913 97.157C268.353 97.4851 267.687 97.6491 266.915 97.6491ZM266.925 96.0085C267.276 96.0085 267.569 95.9091 267.805 95.7102C268.04 95.508 268.217 95.233 268.336 94.8849C268.459 94.5369 268.52 94.1409 268.52 93.6967C268.52 93.2526 268.459 92.8565 268.336 92.5085C268.217 92.1605 268.04 91.8854 267.805 91.6832C267.569 91.4811 267.276 91.38 266.925 91.38C266.57 91.38 266.272 91.4811 266.03 91.6832C265.791 91.8854 265.61 92.1605 265.488 92.5085C265.368 92.8565 265.309 93.2526 265.309 93.6967C265.309 94.1409 265.368 94.5369 265.488 94.8849C265.61 95.233 265.791 95.508 266.03 95.7102C266.272 95.9091 266.57 96.0085 266.925 96.0085ZM272.05 97.5V89.8636H274.104V91.196H274.183C274.322 90.7221 274.556 90.3641 274.884 90.1222C275.212 89.8769 275.59 89.7543 276.018 89.7543C276.124 89.7543 276.238 89.7609 276.361 89.7741C276.483 89.7874 276.591 89.8056 276.684 89.8288V91.7081C276.584 91.6783 276.447 91.6518 276.271 91.6286C276.095 91.6054 275.935 91.5938 275.789 91.5938C275.477 91.5938 275.199 91.6617 274.954 91.7976C274.712 91.9302 274.519 92.1158 274.377 92.3544C274.238 92.593 274.168 92.8681 274.168 93.1797V97.5H272.05ZM279.897 87.3182V97.5H277.779V87.3182H279.897ZM284.407 97.6243C283.827 97.6243 283.302 97.4751 282.831 97.1768C282.364 96.8752 281.993 96.4328 281.718 95.8494C281.446 95.2628 281.31 94.5436 281.31 93.6918C281.31 92.8168 281.451 92.0893 281.732 91.5092C282.014 90.9259 282.389 90.4901 282.856 90.2017C283.327 89.91 283.842 89.7642 284.402 89.7642C284.83 89.7642 285.186 89.8371 285.471 89.983C285.759 90.1255 285.991 90.3045 286.167 90.5199C286.346 90.732 286.482 90.9408 286.575 91.1463H286.639V87.3182H288.752V97.5H286.664V96.277H286.575C286.475 96.4891 286.334 96.6996 286.152 96.9084C285.973 97.1139 285.74 97.2846 285.451 97.4205C285.166 97.5563 284.818 97.6243 284.407 97.6243ZM285.078 95.9389C285.42 95.9389 285.708 95.8461 285.943 95.6605C286.182 95.4716 286.364 95.2081 286.49 94.87C286.619 94.532 286.684 94.1359 286.684 93.6818C286.684 93.2277 286.621 92.8333 286.495 92.4986C286.369 92.1638 286.187 91.9053 285.948 91.723C285.71 91.5407 285.42 91.4496 285.078 91.4496C284.73 91.4496 284.437 91.544 284.198 91.733C283.96 91.9219 283.779 92.1837 283.656 92.5185C283.534 92.8532 283.472 93.241 283.472 93.6818C283.472 94.1259 283.534 94.5187 283.656 94.8601C283.782 95.1982 283.963 95.4633 284.198 95.6555C284.437 95.8445 284.73 95.9389 285.078 95.9389ZM292 97.5L289.922 89.8636H292.065L293.248 94.9943H293.317L294.55 89.8636H296.653L297.906 94.9645H297.971L299.134 89.8636H301.272L299.199 97.5H296.957L295.644 92.6974H295.55L294.237 97.5H292ZM302.402 97.5V89.8636H304.52V97.5H302.402ZM303.466 88.8793C303.151 88.8793 302.881 88.7749 302.655 88.5661C302.433 88.3539 302.322 88.1004 302.322 87.8054C302.322 87.5137 302.433 87.2635 302.655 87.0547C302.881 86.8426 303.151 86.7365 303.466 86.7365C303.781 86.7365 304.049 86.8426 304.271 87.0547C304.497 87.2635 304.609 87.5137 304.609 87.8054C304.609 88.1004 304.497 88.3539 304.271 88.5661C304.049 88.7749 303.781 88.8793 303.466 88.8793ZM309.03 97.6243C308.45 97.6243 307.925 97.4751 307.454 97.1768C306.987 96.8752 306.616 96.4328 306.341 95.8494C306.069 95.2628 305.933 94.5436 305.933 93.6918C305.933 92.8168 306.074 92.0893 306.355 91.5092C306.637 90.9259 307.012 90.4901 307.479 90.2017C307.95 89.91 308.465 89.7642 309.025 89.7642C309.453 89.7642 309.809 89.8371 310.094 89.983C310.382 90.1255 310.614 90.3045 310.79 90.5199C310.969 90.732 311.105 90.9408 311.198 91.1463H311.262V87.3182H313.375V97.5H311.287V96.277H311.198C311.098 96.4891 310.958 96.6996 310.775 96.9084C310.596 97.1139 310.363 97.2846 310.074 97.4205C309.789 97.5563 309.441 97.6243 309.03 97.6243ZM309.701 95.9389C310.043 95.9389 310.331 95.8461 310.566 95.6605C310.805 95.4716 310.987 95.2081 311.113 94.87C311.243 94.532 311.307 94.1359 311.307 93.6818C311.307 93.2277 311.244 92.8333 311.118 92.4986C310.992 92.1638 310.81 91.9053 310.571 91.723C310.333 91.5407 310.043 91.4496 309.701 91.4496C309.353 91.4496 309.06 91.544 308.821 91.733C308.583 91.9219 308.402 92.1837 308.279 92.5185C308.157 92.8532 308.096 93.241 308.096 93.6818C308.096 94.1259 308.157 94.5187 308.279 94.8601C308.405 95.1982 308.586 95.4633 308.821 95.6555C309.06 95.8445 309.353 95.9389 309.701 95.9389ZM318.597 97.6491C317.811 97.6491 317.135 97.4901 316.568 97.1719C316.005 96.8504 315.571 96.3963 315.266 95.8097C314.961 95.2197 314.808 94.522 314.808 93.7166C314.808 92.9311 314.961 92.2417 315.266 91.6484C315.571 91.0552 316 90.5928 316.553 90.2614C317.11 89.9299 317.763 89.7642 318.512 89.7642C319.016 89.7642 319.485 89.8454 319.919 90.0078C320.357 90.1669 320.738 90.4072 321.063 90.7287C321.391 91.0502 321.646 91.4545 321.828 91.9418C322.011 92.4257 322.102 92.9924 322.102 93.642V94.2237H315.654V92.9112H320.108C320.108 92.6063 320.042 92.3362 319.909 92.1009C319.777 91.8655 319.593 91.6816 319.357 91.549C319.125 91.4131 318.855 91.3452 318.547 91.3452C318.226 91.3452 317.941 91.4197 317.692 91.5689C317.447 91.7147 317.254 91.9119 317.115 92.1605C316.976 92.4058 316.905 92.6792 316.901 92.9808V94.2287C316.901 94.6065 316.971 94.933 317.11 95.2081C317.253 95.4832 317.453 95.6953 317.712 95.8445C317.97 95.9936 318.277 96.0682 318.632 96.0682C318.867 96.0682 319.082 96.035 319.278 95.9688C319.473 95.9025 319.641 95.803 319.78 95.6705C319.919 95.5379 320.025 95.3755 320.098 95.1832L322.057 95.3125C321.958 95.7831 321.754 96.1941 321.445 96.5455C321.141 96.8935 320.746 97.1652 320.262 97.3608C319.782 97.553 319.227 97.6491 318.597 97.6491Z" fill="#525252"/>
<rect x="154.5" y="114.5" width="142" height="4" rx="2" fill="#E2E2E6"/>
<g clip-path="url(#clip1_393_1258)">
<path d="M105.596 145C94.6097 145 85.8027 148.327 85.8027 152.499C85.8027 156.646 94.6823 159.999 105.596 159.999C116.511 159.999 125.39 156.635 125.39 152.499C125.39 148.364 116.511 145 105.596 145Z" fill="#C5C5CC"/>
<path d="M113.393 154.088C113.398 154.122 113.443 154.155 113.486 154.171C113.502 154.176 113.51 154.187 113.493 154.223C113.37 154.49 113.257 154.644 113.102 154.876C112.96 155.09 112.8 155.258 112.606 155.418C112.314 155.663 111.908 155.929 111.572 155.75C111.423 155.672 111.358 155.461 111.361 155.29C111.368 154.81 111.58 154.318 111.97 153.833C112.446 153.242 112.972 152.935 113.317 153.102C113.674 153.275 113.56 153.692 113.4 154.02C113.388 154.046 113.388 154.067 113.393 154.088ZM117.225 150.348C117.25 150.302 117.223 150.269 117.166 150.269C116.868 150.269 116.477 150.269 116.166 150.269C116.092 150.269 116.054 150.278 116.019 150.348C115.904 150.57 114.506 152.687 114.246 153.098C114.202 153.161 114.149 153.152 114.142 153.08C114.116 152.836 113.907 152.555 113.579 152.421C113.328 152.318 113.083 152.3 112.828 152.334C112.369 152.396 111.959 152.641 111.599 152.918C111.056 153.335 110.588 153.875 109.983 154.274C109.653 154.492 109.201 154.681 108.899 154.398C108.625 154.142 108.656 153.573 109.075 153.132C109.119 153.086 109.172 153.125 109.164 153.166C109.124 153.365 109.172 153.563 109.322 153.702C109.505 153.868 109.766 153.886 109.99 153.776C110.254 153.644 110.409 153.388 110.454 153.099C110.524 152.649 110.182 152.253 109.754 152.221C109.406 152.196 109.072 152.319 108.747 152.59C108.584 152.727 108.491 152.828 108.35 153.03C108.316 153.08 108.263 153.085 108.264 153.011C108.28 152.436 108.045 152.112 107.574 152.102C107.209 152.093 106.819 152.293 106.514 152.538C106.181 152.809 105.889 153.168 105.576 153.505C105.537 153.546 105.503 153.544 105.492 153.464C105.484 153.083 105.388 152.713 105.214 152.451C105.152 152.36 105.022 152.315 104.912 152.376C104.862 152.404 104.686 152.486 104.559 152.59C104.495 152.643 104.47 152.719 104.499 152.817C104.667 153.386 104.63 154.034 104.401 154.581C104.191 155.082 103.783 155.534 103.304 155.687C102.988 155.788 102.659 155.738 102.456 155.455C102.177 155.065 102.289 154.385 102.706 153.821C103.073 153.324 103.604 153.009 104.134 152.805C104.196 152.781 104.209 152.741 104.192 152.687C104.163 152.599 104.117 152.479 104.098 152.425C104.05 152.294 103.913 152.273 103.747 152.291C103.362 152.336 103.015 152.47 102.672 152.655C101.774 153.141 101.323 154.082 101.126 154.585C101.031 154.827 100.949 154.978 100.844 155.112C100.703 155.292 100.525 155.455 100.2 155.744C100.17 155.77 100.148 155.825 100.173 155.877C100.206 155.946 100.375 156.187 100.423 156.209C100.476 156.235 100.538 156.198 100.562 156.181C100.79 156.025 101.062 155.778 101.195 155.61C101.242 155.553 101.29 155.577 101.314 155.664C101.439 156.112 101.764 156.478 102.214 156.631C103.038 156.912 103.892 156.506 104.537 155.798C104.947 155.349 105.095 155.06 105.252 154.863C105.518 154.53 106.044 153.784 106.669 153.305C106.899 153.129 107.17 152.994 107.306 153.084C107.416 153.155 107.451 153.322 107.276 153.645C106.638 154.822 105.7 156.204 105.527 156.54C105.496 156.598 105.524 156.644 105.584 156.644C105.917 156.642 106.248 156.643 106.551 156.643C106.602 156.641 106.624 156.617 106.65 156.581C107.139 155.807 107.6 155.07 108.093 154.308C108.121 154.263 108.146 154.298 108.147 154.317C108.158 154.494 108.201 154.736 108.305 154.894C108.491 155.188 108.756 155.314 109.049 155.316C109.282 155.32 109.4 155.283 109.652 155.188C109.857 155.111 110.021 155.01 110.147 154.919C110.221 154.867 110.234 154.954 110.232 154.967C110.119 155.582 110.259 156.31 110.863 156.612C111.587 156.972 112.381 156.466 112.839 156.009C112.884 155.965 112.931 155.969 112.936 156.064C112.947 156.239 113.024 156.446 113.167 156.591C113.55 156.98 114.323 156.826 115.099 156.219C115.598 155.83 116.119 155.281 116.59 154.7C116.608 154.677 116.62 154.641 116.586 154.604C116.515 154.528 116.411 154.442 116.34 154.375C116.307 154.347 116.26 154.355 116.233 154.376C115.75 154.84 115.315 155.369 114.687 155.806C114.475 155.956 114.138 156.076 113.986 155.869C113.927 155.788 113.934 155.677 113.992 155.531C114.175 155.069 117.074 150.61 117.224 150.347" fill="white"/>
<path d="M103.586 150.886C103.598 150.952 103.624 150.965 103.653 150.96C103.801 150.93 103.963 150.807 104.058 150.665C104.145 150.536 104.186 150.35 104.1 150.275C104.022 150.208 103.897 150.227 103.804 150.31C103.618 150.476 103.562 150.711 103.586 150.886ZM96.1969 156.627C95.116 156.634 94.1637 155.959 94.0545 154.791C93.9937 154.144 94.1749 153.567 94.5375 153.091C94.8593 152.668 95.4037 152.316 95.8646 152.23C96.0145 152.202 96.216 152.219 96.2993 152.32C96.43 152.474 96.3924 152.642 96.2618 152.71C95.9102 152.891 95.4871 153.202 95.2778 153.626C95.108 153.972 95.0737 154.389 95.333 154.786C95.7671 155.448 96.9771 155.467 98.1021 154.41C98.3807 154.152 98.63 153.904 98.8835 153.609C99.379 153.037 99.5438 152.828 100.202 151.905C100.21 151.895 100.213 151.881 100.21 151.874C100.204 151.861 100.195 151.859 100.176 151.858C99.7361 151.87 99.3527 152.002 98.9801 152.284C98.8728 152.363 98.7183 152.352 98.6507 152.248C98.5755 152.13 98.6295 151.977 98.7532 151.89C99.3527 151.469 100.007 151.393 100.676 151.279C100.676 151.279 100.723 151.28 100.761 151.229C101.035 150.874 101.243 150.552 101.535 150.192C101.83 149.827 102.211 149.492 102.502 149.24C102.908 148.887 103.169 148.768 103.433 148.623C103.503 148.586 103.424 148.542 103.403 148.542C101.925 148.261 100.389 147.898 98.921 148.447C97.9045 148.83 97.459 149.645 97.6732 150.189C97.8257 150.575 98.3282 150.638 98.7987 150.405C99.1895 150.212 99.5511 149.9 99.8075 149.499C99.9509 149.276 100.253 149.437 100.09 149.824C99.6603 150.844 98.8397 151.653 97.8401 151.687C96.9894 151.715 96.4406 151.083 96.4424 150.303C96.4459 148.764 98.1411 147.75 99.9228 147.599C102.068 147.42 104.101 147.997 106.231 148.258C107.863 148.458 109.428 148.462 111.069 148.081C111.263 148.039 111.399 148.164 111.386 148.362C111.37 148.648 111.151 148.923 110.61 149.221C109.996 149.562 109.353 149.665 108.682 149.671C107.058 149.685 105.546 149.045 103.981 148.701C103.982 148.77 104 148.853 103.943 148.897C103.076 149.543 102.293 150.199 101.768 151.12C101.75 151.142 101.759 151.162 101.79 151.16C102.246 151.135 102.656 151.123 103.081 151.089C103.155 151.082 103.158 151.064 103.152 151.009C103.114 150.691 103.206 150.329 103.482 150.08C103.765 149.824 104.12 149.795 104.355 149.979C104.622 150.19 104.598 150.568 104.452 150.851C104.303 151.139 104.058 151.293 103.822 151.368C103.822 151.368 103.772 151.378 103.78 151.424C103.789 151.496 104.11 151.676 104.138 151.724C104.164 151.77 104.15 151.841 104.102 151.895C104.068 151.934 104.015 151.971 103.946 151.97C103.891 151.969 103.858 151.949 103.787 151.911C103.643 151.832 103.463 151.702 103.343 151.549C103.302 151.498 103.281 151.497 103.179 151.502C102.719 151.529 102.001 151.599 101.515 151.661C101.397 151.675 101.379 151.698 101.355 151.739C100.58 153.031 99.7519 154.424 98.843 155.357C97.868 156.357 97.0576 156.62 96.1973 156.627" fill="white"/>
<path d="M105.596 146.226C95.4886 146.226 87.2957 149.048 87.2957 152.502C87.2957 155.955 95.4886 158.778 105.596 158.778C115.703 158.778 123.896 155.955 123.896 152.502C123.896 149.048 115.703 146.226 105.596 146.226ZM105.596 159.346C95.1206 159.346 86.6288 156.282 86.6288 152.502C86.6288 148.721 95.1206 145.657 105.596 145.657C116.07 145.657 124.562 148.721 124.562 152.502C124.562 156.282 116.07 159.346 105.596 159.346Z" fill="white"/>
</g>
<g clip-path="url(#clip2_393_1258)">
<path d="M195.742 151.268C195 151.44 193.038 151.536 193.038 151.536L192.797 152.313C192.797 152.313 193.768 152.23 194.479 152.301C194.479 152.301 194.708 152.281 194.733 152.555C194.746 152.836 194.714 153.129 194.714 153.129C194.714 153.129 194.695 153.301 194.46 153.345C194.187 153.39 192.346 153.473 192.346 153.473L192.048 154.48C192.048 154.48 191.94 154.709 192.188 154.645C192.416 154.581 194.346 154.212 194.6 154.263C194.866 154.327 195.171 154.696 195.082 155.027C194.981 155.429 193.051 156.665 191.883 156.582C191.883 156.582 191.267 156.62 190.753 155.786C190.258 154.989 190.925 153.492 190.925 153.492C190.925 153.492 190.626 152.791 190.848 152.536C190.848 152.536 190.975 152.428 191.356 152.396L191.832 151.415C191.832 151.415 191.293 151.447 190.975 151.052C190.683 150.669 190.658 150.504 190.886 150.402C191.128 150.274 193.362 149.873 194.898 149.924C194.898 149.924 195.438 149.86 195.914 150.797C195.914 150.797 196.129 151.179 195.749 151.268M189.953 155.04C189.763 155.505 189.236 155.996 188.601 155.696C187.954 155.391 186.932 153.301 186.932 153.301C186.932 153.301 186.551 152.524 186.475 152.549C186.475 152.549 186.393 152.396 186.348 153.25C186.285 154.097 186.361 155.747 186.012 156.009C185.694 156.263 185.314 156.155 185.098 155.856C184.92 155.556 184.844 154.836 184.945 153.581C185.06 152.326 185.345 150.988 185.707 150.574C186.088 150.153 186.393 150.459 186.507 150.574C186.507 150.574 186.996 151.02 187.821 152.339L187.96 152.581C187.96 152.581 188.709 153.836 188.786 153.83C188.786 153.83 188.849 153.893 188.9 153.842C188.976 153.823 188.951 153.415 188.951 153.415C188.951 153.415 188.811 152.058 188.113 149.765C188.113 149.765 188.011 149.472 188.081 149.191C188.144 148.936 188.417 149.064 188.417 149.064C188.417 149.064 189.471 149.574 189.985 151.294C190.493 153.014 190.15 154.575 189.96 155.04M184.787 150.625C184.685 150.803 184.641 151.052 184.203 151.122C184.203 151.122 179.95 151.421 179.741 151.721C179.741 151.721 179.601 151.899 179.829 151.944C180.071 151.995 181.035 152.122 181.492 152.148C181.988 152.148 183.651 152.16 184.26 152.912C184.26 152.912 184.609 153.269 184.596 154.078C184.584 154.906 184.438 155.199 184.114 155.499C183.778 155.779 180.896 157.079 179.036 155.091C179.036 155.091 178.186 154.135 179.334 153.409C179.334 153.409 180.16 152.899 182.273 153.492C182.273 153.492 182.908 153.721 182.883 153.957C182.844 154.212 182.356 154.467 181.645 154.454C180.959 154.435 180.452 154.104 180.553 154.161C180.648 154.193 179.81 153.753 179.55 154.053C179.296 154.333 179.36 154.499 179.614 154.671C180.248 155.04 182.743 154.906 183.486 154.072C183.486 154.072 183.784 153.734 183.333 153.46C182.889 153.205 181.594 153.046 181.093 153.027C180.617 153.001 178.833 153.027 178.566 152.562C178.566 152.562 178.312 152.23 178.592 151.326C178.884 150.37 180.959 150 181.861 149.924C181.861 149.924 184.336 149.822 184.799 150.332C184.799 150.332 184.863 150.446 184.787 150.618M177.767 156.225C177.468 156.448 176.834 156.353 176.649 156.098C176.472 155.875 176.408 154.996 176.44 153.613C176.484 152.199 176.503 150.466 176.821 150.185C177.138 149.911 177.329 150.153 177.456 150.338C177.583 150.529 177.748 150.74 177.773 151.179C177.811 151.625 177.919 153.919 177.919 153.919C177.919 153.919 178.059 156.009 177.773 156.225M178.401 148.771C177.525 149.07 176.929 148.975 176.421 148.752C176.199 149.153 176.066 149.274 175.9 149.3C175.647 149.325 175.424 148.917 175.393 148.79C175.342 148.694 175.221 148.522 175.367 148.134C174.872 147.688 174.834 147.089 174.923 146.687C175.037 146.216 175.875 144.445 178.414 144.234C178.414 144.234 179.658 144.145 179.874 144.808H179.912C179.912 144.808 181.118 144.808 181.093 145.891C181.093 146.974 179.76 148.325 178.401 148.79M179.531 145.687C178.731 145.814 177.5 146.885 176.91 147.77C177.817 147.936 179.404 147.872 180.115 146.432C180.115 146.432 180.452 145.528 179.531 145.687ZM176.021 146.388C175.767 146.802 175.755 147.051 175.875 147.216C176.173 146.77 176.7 146.069 177.494 145.521C176.884 145.585 176.37 145.84 176.021 146.388ZM197.646 156.181C197.062 157.621 196.567 159.08 196.282 161.265C196.282 161.265 196.218 161.692 195.869 161.552C195.52 161.424 194.949 160.851 194.822 160.042C194.695 158.984 195.165 157.2 196.123 155.149C195.844 154.703 195.647 154.04 195.806 153.11C195.806 153.11 196.06 151.389 197.773 149.835C197.773 149.835 197.976 149.663 198.091 149.72C198.23 149.784 198.173 150.332 198.059 150.612C197.957 150.88 197.196 152.205 197.196 152.205C197.196 152.205 196.72 153.11 196.853 153.817C197.754 152.428 199.804 149.612 201.074 150.504C201.88 151.077 201.88 152.925 201.277 153.995C200.801 154.843 199.455 156.595 197.659 156.187M200.3 151.855C199.83 152.364 198.992 153.333 198.332 154.645C199.03 154.569 199.709 154.18 199.919 153.983C200.255 153.683 201.03 152.874 200.909 151.804C200.909 151.804 200.833 151.243 200.3 151.855ZM171.864 156.932C169.617 157.621 167.497 157.302 166.341 156.996C166.31 157.468 166.259 157.665 166.183 157.742C166.094 157.844 165.358 158.264 164.951 157.665C164.774 157.378 164.685 156.862 164.634 156.391C162.032 155.206 160.826 153.46 160.788 153.396C160.724 153.333 160.134 152.715 160.724 151.95C161.276 151.262 163.104 150.567 164.742 150.294C164.805 148.892 164.958 147.809 165.154 147.331C165.389 146.757 165.688 147.267 165.954 147.649C166.17 147.936 166.303 149.166 166.316 150.147C167.382 150.096 168.03 150.172 169.217 150.402C170.778 150.669 171.819 151.472 171.737 152.377C171.66 153.269 170.848 153.638 170.531 153.664C170.213 153.689 169.706 153.454 169.706 153.454C169.35 153.288 169.674 153.135 170.086 152.957C170.543 152.734 170.442 152.511 170.442 152.511C170.277 152.001 168.252 151.663 166.24 151.663C166.24 152.778 166.284 154.626 166.316 155.703C167.725 155.97 168.779 155.913 168.779 155.913C168.779 155.913 173.92 155.767 174.066 152.473C174.225 149.172 168.925 146.012 165.021 145.018C161.124 143.992 158.915 144.719 158.725 144.814C158.515 144.916 158.706 144.954 158.706 144.954C158.706 144.954 158.915 144.986 159.296 145.114C159.677 145.241 159.372 145.432 159.372 145.432C158.706 145.662 157.963 145.528 157.817 145.222C157.671 144.922 157.912 144.649 158.198 144.247C158.464 143.833 158.769 143.846 158.769 143.846C163.593 142.157 169.483 145.184 169.483 145.184C174.993 147.974 175.932 151.256 175.831 152.53C175.742 153.785 175.259 155.907 171.864 156.939M161.264 152.377C160.718 152.632 161.099 153.04 161.099 153.04C162.127 154.142 163.384 154.836 164.59 155.27C164.729 153.358 164.717 152.676 164.717 151.714C162.85 151.842 161.771 152.148 161.264 152.377Z" fill="#C5C5CC"/>
</g>
<g clip-path="url(#clip3_393_1258)">
<path d="M251.962 156.989V150.925H252.068L256.421 156.989H257.791V148.083H256.269V154.133H256.163L251.81 148.083H250.44V156.989H251.962ZM262.098 157.127C264.107 157.127 265.34 155.813 265.34 153.613C265.34 151.429 264.107 150.1 262.098 150.1C260.104 150.1 258.856 151.429 258.856 153.613C258.872 155.813 260.089 157.127 262.098 157.127ZM262.098 155.844C261.033 155.844 260.424 155.034 260.424 153.613C260.424 152.208 261.033 151.383 262.098 151.383C263.164 151.383 263.772 152.208 263.772 153.613C263.772 155.034 263.164 155.844 262.098 155.844ZM266.725 148.588V150.283H265.66V151.505H266.725V155.187C266.725 156.501 267.334 157.02 268.886 157.02C269.175 157.02 269.465 156.989 269.693 156.944V155.752C269.51 155.767 269.389 155.783 269.175 155.783C268.536 155.783 268.247 155.492 268.247 154.82V151.505H269.693V150.283H268.247V148.588H266.725ZM270.606 156.989H272.128V150.237H270.606V156.989ZM271.367 149.122C271.869 149.122 272.28 148.71 272.28 148.206C272.28 147.686 271.869 147.274 271.367 147.274C270.865 147.274 270.454 147.686 270.454 148.206C270.454 148.71 270.865 149.122 271.367 149.122ZM276.298 157.127C278.307 157.127 279.54 155.813 279.54 153.613C279.54 151.429 278.307 150.1 276.298 150.1C274.304 150.1 273.056 151.429 273.056 153.613C273.056 155.813 274.274 157.127 276.298 157.127ZM276.298 155.844C275.233 155.844 274.624 155.034 274.624 153.613C274.624 152.208 275.233 151.383 276.298 151.383C277.348 151.383 277.972 152.208 277.972 153.613C277.957 155.034 277.348 155.844 276.298 155.844ZM280.438 156.989H281.96V153.063C281.96 152.07 282.538 151.444 283.436 151.444C284.365 151.444 284.791 151.964 284.791 152.987V156.989H286.313V152.62C286.313 151.001 285.491 150.1 283.999 150.1C282.995 150.1 282.325 150.558 282.006 151.322H281.899V150.237H280.423C280.438 150.237 280.438 156.989 280.438 156.989Z" fill="#C5C5CC"/>
<path fill-rule="evenodd" clip-rule="evenodd" d="M235.847 147.513C236.29 147.876 236.45 147.847 237.279 147.79L245.093 147.313C245.262 147.313 245.121 147.141 245.064 147.122L243.764 146.178C243.519 145.987 243.179 145.759 242.548 145.816L234.989 146.378C234.716 146.407 234.659 146.55 234.772 146.655L235.847 147.513ZM236.318 149.354V157.671C236.318 158.119 236.535 158.281 237.034 158.252L245.62 157.747C246.12 157.718 246.177 157.413 246.177 157.051V148.791C246.177 148.429 246.035 148.229 245.734 148.257L236.761 148.791C236.431 148.82 236.318 148.992 236.318 149.354ZM244.791 149.802C244.848 150.05 244.791 150.308 244.546 150.336L244.131 150.422V156.564C243.773 156.755 243.443 156.869 243.161 156.869C242.718 156.869 242.605 156.726 242.275 156.307L239.57 152.005V156.164L240.427 156.354C240.427 156.354 240.427 156.86 239.739 156.86L237.835 156.974C237.779 156.86 237.835 156.583 238.024 156.526L238.523 156.383V150.89L237.835 150.832C237.779 150.584 237.92 150.222 238.307 150.193L240.352 150.05L243.17 154.399V150.556L242.454 150.47C242.397 150.165 242.623 149.936 242.897 149.907L244.791 149.802ZM234.358 145.615L242.228 145.034C243.189 144.948 243.443 145.005 244.047 145.453L246.554 147.237C246.968 147.542 247.11 147.628 247.11 147.962V157.756C247.11 158.367 246.893 158.729 246.12 158.786L236.987 159.349C236.403 159.378 236.13 159.292 235.828 158.901L233.971 156.469C233.641 156.021 233.5 155.687 233.5 155.296V146.588C233.5 146.083 233.726 145.673 234.358 145.615Z" fill="#C5C5CC"/>
</g>
<g clip-path="url(#clip4_393_1258)">
<path d="M323.575 147.961V151.748H320.134V147.961H318.5V157H320.134V153.336H323.575V157H325.208V147.961H323.575Z" fill="#C5C5CC"/>
<path d="M330.436 154.078C330.436 154.44 330.294 154.788 330.041 155.044C329.787 155.3 329.443 155.444 329.085 155.444C328.727 155.444 328.383 155.3 328.129 155.044C327.876 154.788 327.733 154.44 327.733 154.078V150.206H326.184V154.078C326.184 154.855 326.489 155.6 327.033 156.149C327.576 156.698 328.313 157.007 329.082 157.007C329.851 157.007 330.588 156.698 331.132 156.149C331.675 155.6 331.98 154.855 331.98 154.078V150.206H330.436V154.078Z" fill="#C5C5CC"/>
<path d="M341.918 150.605C341.918 149.812 342.437 149.56 343.006 149.56C343.465 149.56 344.071 149.913 344.467 150.341L345.482 149.132C344.975 148.44 343.948 147.961 343.106 147.961C341.426 147.961 340.21 148.956 340.21 150.605C340.21 153.666 343.911 152.695 343.911 154.407C343.911 154.936 343.403 155.402 342.822 155.402C341.906 155.402 341.609 154.949 341.188 154.47L340.062 155.654C340.782 156.548 341.67 157.002 342.735 157.002C344.332 157.002 345.616 155.994 345.616 154.42C345.616 151.023 341.915 152.078 341.915 150.605" fill="#C5C5CC"/>
<path d="M364.814 155.556C363.899 155.556 363.638 155.156 363.638 154.542V151.828H365.062V150.453H363.638V148.639L362.067 149.352V154.88C362.067 156.294 363.033 157.006 364.356 157.006C364.564 157.01 364.772 156.993 364.976 156.956L365.359 155.53C365.186 155.542 364.988 155.554 364.814 155.554" fill="#C5C5CC"/>
<path d="M336.335 150.252C335.567 150.252 335.032 150.477 334.514 150.991V148.015H332.962V153.53C332.962 155.594 334.439 157.008 336.098 157.008C337.939 157.008 339.558 155.569 339.558 153.631C339.558 151.717 338.068 150.253 336.335 150.253V150.252ZM336.325 155.43C335.977 155.43 335.637 155.326 335.347 155.13C335.058 154.935 334.832 154.657 334.699 154.331C334.565 154.006 334.53 153.648 334.598 153.303C334.666 152.958 334.834 152.641 335.08 152.392C335.327 152.143 335.64 151.974 335.982 151.905C336.323 151.836 336.678 151.872 336.999 152.006C337.321 152.141 337.596 152.369 337.79 152.662C337.983 152.954 338.086 153.298 338.086 153.65C338.086 154.122 337.901 154.575 337.571 154.909C337.24 155.242 336.792 155.43 336.325 155.43Z" fill="#C5C5CC"/>
<path d="M353.187 153.548C353.187 151.607 351.571 150.171 349.727 150.171C348.067 150.171 346.591 151.585 346.591 153.649V159.167H348.143V156.188C348.66 156.7 349.196 156.926 349.963 156.926C351.696 156.926 353.186 155.463 353.186 153.548H353.187ZM351.717 153.529C351.717 153.881 351.614 154.225 351.42 154.517C351.227 154.81 350.952 155.038 350.63 155.173C350.308 155.308 349.954 155.343 349.613 155.274C349.271 155.205 348.957 155.036 348.711 154.787C348.465 154.538 348.297 154.221 348.229 153.876C348.161 153.531 348.196 153.173 348.329 152.848C348.463 152.522 348.688 152.245 348.978 152.049C349.268 151.853 349.608 151.749 349.956 151.749C350.423 151.749 350.871 151.937 351.201 152.27C351.532 152.604 351.717 153.057 351.717 153.529Z" fill="#C5C5CC"/>
<path d="M358.185 150.146V148.586C358.389 148.49 358.561 148.337 358.683 148.146C358.804 147.954 358.869 147.731 358.87 147.504V147.468C358.869 147.15 358.744 146.845 358.521 146.62C358.299 146.395 357.998 146.269 357.683 146.268H357.647C357.332 146.269 357.031 146.395 356.809 146.62C356.586 146.845 356.461 147.15 356.46 147.468V147.504C356.461 147.731 356.526 147.954 356.647 148.146C356.768 148.337 356.941 148.49 357.145 148.586V150.146C356.559 150.236 356.007 150.482 355.544 150.858L351.307 147.526C351.337 147.416 351.353 147.302 351.355 147.188C351.355 146.921 351.277 146.659 351.13 146.436C350.983 146.214 350.774 146.04 350.53 145.937C350.285 145.834 350.016 145.807 349.756 145.859C349.496 145.911 349.258 146.04 349.07 146.229C348.883 146.418 348.755 146.659 348.703 146.921C348.651 147.184 348.677 147.456 348.778 147.703C348.879 147.951 349.051 148.162 349.271 148.311C349.491 148.46 349.749 148.54 350.014 148.54C350.247 148.539 350.475 148.476 350.676 148.358L354.842 151.636C354.467 152.208 354.271 152.881 354.281 153.568C354.29 154.254 354.504 154.922 354.894 155.483L353.627 156.764C353.525 156.732 353.419 156.714 353.312 156.713C353.094 156.713 352.882 156.778 352.701 156.9C352.52 157.022 352.378 157.196 352.295 157.399C352.212 157.603 352.19 157.826 352.233 158.042C352.275 158.258 352.38 158.456 352.534 158.611C352.688 158.767 352.884 158.873 353.097 158.916C353.311 158.959 353.532 158.937 353.733 158.853C353.934 158.768 354.106 158.626 354.227 158.443C354.348 158.26 354.413 158.045 354.413 157.825C354.411 157.717 354.394 157.61 354.361 157.507L355.616 156.239C356.025 156.555 356.5 156.773 357.006 156.875C357.511 156.977 358.032 156.961 358.531 156.828C359.029 156.695 359.49 156.449 359.88 156.109C360.27 155.768 360.577 155.342 360.779 154.863C360.981 154.384 361.072 153.865 361.045 153.345C361.018 152.825 360.874 152.318 360.624 151.863C360.374 151.408 360.024 151.017 359.601 150.719C359.178 150.421 358.694 150.225 358.185 150.146ZM357.665 155.276C357.322 155.276 356.987 155.173 356.701 154.98C356.416 154.788 356.194 154.514 356.062 154.193C355.931 153.873 355.896 153.52 355.963 153.18C356.03 152.84 356.196 152.527 356.438 152.282C356.681 152.037 356.99 151.87 357.327 151.802C357.663 151.735 358.012 151.769 358.329 151.902C358.646 152.035 358.918 152.26 359.108 152.548C359.299 152.836 359.401 153.175 359.401 153.522C359.401 153.987 359.218 154.433 358.892 154.762C358.567 155.091 358.126 155.276 357.665 155.276Z" fill="#C5C5CC"/>
</g>
<g clip-path="url(#clip5_393_1258)">
<path fill-rule="evenodd" clip-rule="evenodd" d="M197.21 190.235C195.297 193.525 192.267 192.571 191.357 191.823C190.97 192.09 190.291 192.674 189.385 192.606C187.457 192.463 186.766 189.667 186.766 189.667C186.78 189.678 186.192 189.873 185.874 189.87C185.87 190.689 185.171 192.648 183.286 192.623C181.17 192.595 180.74 189.397 180.74 189.397C180.74 189.397 180.53 189.694 179.729 189.989C179.769 189.359 179.74 192.527 177.204 192.574C175.2 192.61 174.659 189.348 174.659 189.348C174.659 189.348 174.311 189.714 173.637 189.842C173.68 189.201 173.61 192.584 171.074 192.574C169.36 192.566 168.775 190.564 168.82 190.286C168.878 189.932 168.241 192.623 166.576 192.581C165.889 192.561 165.377 192.056 165.056 191.384C164.626 191.883 164.001 192.581 163.3 192.581C162.043 192.581 161.488 191.514 161.582 188.466C161.59 188.104 161.564 187.962 161.21 187.908C160.998 187.872 160.78 187.804 160.549 187.768C160.475 188.018 159.849 192.5 157.695 192.585C156.973 192.614 156.578 191.979 156.253 191.507C155.756 192.175 155.099 192.606 154.164 192.606C152.579 192.606 151.5 191.307 151.5 189.704C151.5 188.101 152.579 186.802 154.164 186.802C154.444 186.802 154.523 186.843 154.779 186.918C154.252 182.057 155.495 181.297 156.583 181.297C157.626 181.297 159.41 183.755 156.9 189.99C157.458 191.849 158.659 191.744 159.236 187.916C159.353 187.138 159.039 186.088 159.528 185.941C160.421 185.673 160.515 186.477 160.934 186.611C161.377 186.752 161.635 186.739 162.06 186.829C162.787 186.973 163.07 187.368 162.982 188.25C162.875 189.365 162.689 190.989 163.256 191.187C163.665 191.331 164.411 190.471 164.542 190C164.673 189.53 164.7 189.369 164.712 189.024C164.73 188.286 164.752 187.745 164.876 187.188C164.929 186.972 164.989 186.829 165.23 186.819C165.428 186.814 165.79 186.753 165.95 186.879C166.162 187.041 166.136 187.206 166.111 187.638C165.864 193.807 167.767 190.727 168.334 188.262C168.132 185.474 168.27 181.348 169.993 181.279C170.888 181.243 171.284 181.971 171.328 182.514C171.451 184.049 170.761 186.591 169.853 188.3C169.335 191.788 172.121 192.478 172.567 189.694C171.838 189.342 171.05 187.919 171.691 187.225C172.051 186.836 173.548 187.395 173.573 188.615C174.307 188.415 174.405 187.995 174.415 188.064C174.213 185.276 174.401 181.348 176.123 181.279C177.018 181.243 177.414 181.971 177.458 182.514C177.581 184.049 176.891 186.591 175.984 188.3C175.465 191.788 178.251 192.478 178.697 189.694C178.157 189.588 177.018 188.074 177.675 187.225C178.026 186.771 179.518 187.715 179.685 188.655C180.391 188.452 180.487 188.045 180.497 188.114C180.295 185.326 180.482 181.398 182.205 181.329C183.1 181.293 183.496 182.02 183.539 182.564C183.663 184.098 182.973 186.64 182.065 188.35C181.547 191.837 184.333 192.527 184.778 189.743C184.037 189.618 182.983 188.019 183.831 187.202C184.17 186.875 185.465 187.723 185.768 188.69C186.19 188.674 186.452 188.527 186.508 188.512C185.835 185.239 186.336 181.312 188.189 181.279C189.19 181.261 190.169 181.828 189.739 184.942C189.329 187.913 187.855 189.16 187.858 189.179C187.944 189.535 188.701 192.513 190.606 190.942C190.507 190.715 190.408 190.484 190.353 190.203C190.037 188.57 190.658 186.725 192.343 186.427C193.309 186.256 194.219 186.733 194.363 187.809C194.6 189.569 193.033 190.843 192.438 191.12C192.171 190.966 194.856 192.713 196.449 189.212C196.542 189.012 196.653 189.029 196.798 189.132C196.899 189.205 197.48 189.763 197.21 190.235ZM155.316 189.272C155.235 189.026 155.069 188.484 155.01 188.249C154.686 187.963 154.455 187.917 154.039 187.917C153.114 187.917 152.57 188.784 152.57 189.719C152.57 190.654 153.163 191.521 154.087 191.521C154.889 191.521 155.498 190.968 155.684 190.186C155.554 189.881 155.425 189.601 155.316 189.272ZM156.56 182.584C155.91 182.584 155.69 184.156 155.733 185.497C155.771 186.683 156.097 187.726 156.267 188.194C156.31 188.253 156.302 188.214 156.34 188.277C157.468 185.77 157 182.584 156.56 182.584ZM170.085 182.633C169.246 182.536 169.251 186.084 169.355 186.879C169.791 186.172 170.549 182.824 170.085 182.633ZM176.216 182.633C175.376 182.536 175.381 186.084 175.486 186.879C175.922 186.172 176.679 182.824 176.216 182.633ZM182.297 182.683C181.458 182.585 181.463 186.133 181.567 186.929C182.003 186.221 182.761 182.873 182.297 182.683ZM188.281 182.426C186.973 182.692 187.278 187.116 187.477 187.892C189.017 185.746 189.049 182.345 188.281 182.426ZM193.183 187.954C193.117 187.672 192.784 187.522 192.555 187.559C191.898 187.65 191.261 188.48 191.508 189.743C191.562 190.024 191.7 190.283 191.698 190.275C193.167 189.274 193.292 188.486 193.183 187.954ZM165.488 185.843C165.3 185.843 165.116 185.786 164.96 185.68C164.804 185.575 164.683 185.424 164.611 185.248C164.539 185.072 164.52 184.879 164.557 184.692C164.593 184.505 164.684 184.334 164.816 184.199C164.949 184.064 165.118 183.973 165.302 183.936C165.486 183.898 165.677 183.918 165.851 183.99C166.024 184.063 166.172 184.187 166.276 184.345C166.381 184.503 166.436 184.689 166.436 184.88C166.436 185.006 166.412 185.131 166.364 185.248C166.317 185.365 166.247 185.471 166.159 185.561C166.07 185.65 165.966 185.721 165.851 185.769C165.736 185.818 165.612 185.843 165.488 185.843Z" fill="#C5C5CC"/>
</g>
<g clip-path="url(#clip6_393_1258)">
<path d="M247.322 187.349C247.322 192.098 243.496 195.949 238.775 195.949C234.054 195.949 230.227 192.098 230.227 187.349C230.227 182.6 234.054 178.75 238.775 178.75C243.496 178.75 247.322 182.6 247.322 187.349Z" fill="#C5C5CC"/>
<path d="M238.843 192.144C236.495 192.152 234.051 190.136 234.04 186.897C234.032 184.757 235.182 182.695 236.649 181.472C238.081 180.281 240.043 179.515 241.82 179.508C242.05 179.508 242.29 179.527 242.436 179.578C240.881 179.902 239.644 181.358 239.648 183.009C239.648 183.065 239.653 183.123 239.659 183.15C242.262 183.788 243.443 185.368 243.451 187.553C243.457 189.74 241.742 192.135 238.843 192.144Z" fill="white"/>
<path d="M297.921 187.019C297.904 186.803 297.859 186.613 297.785 186.454C297.711 186.292 297.62 186.163 297.512 186.063C297.403 185.962 297.287 185.889 297.161 185.841C297.034 185.793 296.907 185.769 296.777 185.769C296.499 185.769 296.235 185.874 295.983 186.082C295.732 186.291 295.584 186.602 295.541 187.019H297.921ZM295.503 188.177C295.537 188.706 295.701 189.089 295.996 189.323C296.29 189.556 296.671 189.675 297.138 189.675C297.354 189.675 297.559 189.654 297.749 189.616C297.939 189.577 298.108 189.528 298.256 189.466C298.404 189.406 298.529 189.345 298.633 189.285C298.737 189.223 298.814 189.166 298.867 189.114L299.294 190.43C299.233 190.473 299.135 190.531 299.002 190.605C298.868 190.68 298.702 190.748 298.504 190.814C298.306 190.879 298.072 190.934 297.805 190.983C297.538 191.03 297.245 191.054 296.926 191.054C296.519 191.054 296.134 190.989 295.767 190.86C295.401 190.729 295.079 190.526 294.804 190.253C294.528 189.98 294.308 189.64 294.144 189.232C293.979 188.825 293.898 188.338 293.898 187.774C293.898 187.245 293.973 186.776 294.124 186.368C294.275 185.961 294.482 185.618 294.744 185.34C295.008 185.063 295.314 184.85 295.663 184.701C296.013 184.554 296.385 184.48 296.783 184.48C297.18 184.48 297.546 184.547 297.884 184.676C298.22 184.806 298.51 185.008 298.757 185.281C299.002 185.555 299.197 185.908 299.338 186.343C299.481 186.776 299.552 187.292 299.552 187.891V188.177L295.503 188.177Z" fill="#C5C5CC"/>
<path d="M252.842 190.91L250.229 184.637H251.936L253.566 188.803L255.146 184.637H256.777L254.24 190.91H252.842Z" fill="#C5C5CC"/>
<path d="M261.325 187.741C261.325 187.48 261.295 187.232 261.234 186.997C261.174 186.762 261.083 186.559 260.962 186.39C260.841 186.22 260.695 186.085 260.522 185.986C260.35 185.885 260.147 185.834 259.915 185.834C259.682 185.834 259.478 185.885 259.307 185.986C259.134 186.085 258.986 186.22 258.867 186.39C258.746 186.559 258.655 186.762 258.595 186.997C258.534 187.232 258.504 187.48 258.504 187.741C258.504 188.011 258.534 188.262 258.595 188.493C258.655 188.724 258.743 188.926 258.859 189.1C258.975 189.274 259.123 189.411 259.3 189.512C259.476 189.612 259.682 189.662 259.915 189.662C260.147 189.662 260.35 189.612 260.522 189.512C260.695 189.411 260.841 189.274 260.962 189.1C261.083 188.926 261.174 188.724 261.234 188.493C261.295 188.262 261.325 188.011 261.325 187.741ZM262.903 187.748C262.903 188.157 262.84 188.558 262.716 188.953C262.591 189.348 262.405 189.701 262.159 190.014C261.914 190.326 261.603 190.578 261.228 190.769C260.852 190.96 260.414 191.055 259.915 191.055C259.414 191.055 258.975 190.96 258.602 190.769C258.226 190.578 257.915 190.326 257.669 190.014C257.424 189.701 257.238 189.348 257.113 188.953C256.989 188.558 256.926 188.157 256.926 187.748C256.926 187.34 256.989 186.942 257.113 186.55C257.238 186.16 257.424 185.811 257.669 185.503C257.915 185.195 258.226 184.948 258.602 184.762C258.975 184.576 259.414 184.481 259.915 184.481C260.414 184.481 260.851 184.576 261.221 184.762C261.592 184.948 261.903 185.195 262.153 185.503C262.404 185.811 262.591 186.16 262.716 186.55C262.84 186.942 262.903 187.34 262.903 187.748Z" fill="#C5C5CC"/>
<path d="M267.723 186.017C267.414 185.896 267.126 185.834 266.859 185.834C266.586 185.834 266.349 185.888 266.153 185.992C265.955 186.096 265.792 186.237 265.663 186.416C265.534 186.594 265.438 186.795 265.374 187.017C265.309 187.239 265.276 187.468 265.276 187.703C265.276 187.964 265.305 188.213 265.361 188.454C265.416 188.692 265.503 188.902 265.619 189.081C265.733 189.259 265.879 189.403 266.055 189.512C266.231 189.62 266.44 189.675 266.68 189.675C266.878 189.675 267.079 189.62 267.285 189.512C267.491 189.403 267.637 189.274 267.723 189.127L267.723 186.017ZM267.852 190.91L267.788 190.43C267.642 190.594 267.448 190.74 267.207 190.864C266.966 190.991 266.682 191.054 266.355 191.054C265.927 191.054 265.546 190.962 265.221 190.781C264.893 190.599 264.618 190.356 264.395 190.052C264.172 189.749 264.001 189.397 263.885 188.997C263.77 188.599 263.712 188.182 263.712 187.747C263.712 187.34 263.772 186.94 263.891 186.55C264.012 186.16 264.194 185.81 264.439 185.502C264.686 185.194 264.992 184.948 265.363 184.761C265.732 184.575 266.167 184.48 266.665 184.48C266.991 184.48 267.345 184.542 267.723 184.662V182.229H269.327V190.91H267.852Z" fill="#C5C5CC"/>
<path d="M273.844 187.969C273.671 187.978 273.492 187.994 273.31 188.014C273.127 188.037 272.955 188.065 272.79 188.1C272.441 188.169 272.201 188.288 272.066 188.457C271.932 188.627 271.865 188.811 271.865 189.011C271.865 189.218 271.94 189.386 272.092 189.512C272.245 189.637 272.458 189.7 272.736 189.7C272.945 189.7 273.148 189.658 273.343 189.571C273.537 189.484 273.705 189.375 273.844 189.245V187.969ZM273.972 190.906L273.91 190.436C273.735 190.629 273.515 190.781 273.247 190.89C272.978 190.999 272.685 191.054 272.364 191.054C272.096 191.054 271.836 191.008 271.591 190.917C271.343 190.827 271.125 190.696 270.935 190.526C270.745 190.357 270.591 190.15 270.475 189.902C270.357 189.654 270.299 189.375 270.299 189.062C270.299 188.751 270.359 188.474 270.481 188.236C270.602 187.997 270.765 187.796 270.974 187.631C271.182 187.466 271.42 187.332 271.689 187.228C271.956 187.123 272.239 187.044 272.532 186.992C272.74 186.95 272.967 186.918 273.214 186.896C273.46 186.874 273.666 186.855 273.831 186.837V186.746C273.831 186.398 273.743 186.152 273.564 186.003C273.387 185.856 273.142 185.782 272.831 185.782C272.648 185.782 272.474 185.804 272.309 185.848C272.144 185.891 271.998 185.945 271.868 186.01C271.738 186.076 271.623 186.141 271.522 186.205C271.423 186.27 271.343 186.329 271.282 186.381L270.751 185.25C270.82 185.188 270.926 185.115 271.068 185.028C271.211 184.942 271.383 184.856 271.587 184.774C271.789 184.692 272.017 184.622 272.272 184.566C272.526 184.509 272.801 184.48 273.093 184.48C273.438 184.48 273.754 184.526 274.038 184.618C274.323 184.709 274.569 184.852 274.777 185.047C274.982 185.242 275.144 185.488 275.262 185.788C275.378 186.087 275.436 186.449 275.436 186.874V190.906H273.972Z" fill="#C5C5CC"/>
<path d="M280.393 183.66C280.341 183.635 280.24 183.597 280.09 183.55C279.937 183.502 279.738 183.479 279.487 183.479C279.264 183.479 279.075 183.547 278.924 183.681C278.774 183.815 278.698 184.035 278.698 184.338V184.637H280.044V185.938H278.711V190.91H277.106V185.938H276.278V184.637H277.106V184.299C277.106 183.891 277.157 183.547 277.261 183.264C277.365 182.982 277.509 182.752 277.695 182.575C277.88 182.396 278.098 182.265 278.348 182.183C278.599 182.101 278.871 182.06 279.165 182.06C279.553 182.06 279.873 182.096 280.127 182.17C280.382 182.245 280.531 182.294 280.573 182.321L280.393 183.66Z" fill="#C5C5CC"/>
<path d="M284.767 187.741C284.767 187.48 284.735 187.232 284.676 186.997C284.616 186.762 284.525 186.559 284.404 186.39C284.283 186.22 284.137 186.085 283.964 185.986C283.791 185.885 283.589 185.834 283.356 185.834C283.124 185.834 282.92 185.885 282.749 185.986C282.576 186.085 282.428 186.22 282.307 186.39C282.188 186.559 282.097 186.762 282.035 186.997C281.976 187.232 281.946 187.48 281.946 187.741C281.946 188.011 281.976 188.262 282.035 188.493C282.097 188.724 282.185 188.926 282.301 189.1C282.417 189.274 282.565 189.411 282.741 189.512C282.918 189.612 283.124 189.662 283.356 189.662C283.589 189.662 283.791 189.612 283.964 189.512C284.137 189.411 284.283 189.274 284.404 189.1C284.525 188.926 284.616 188.724 284.676 188.493C284.735 188.262 284.767 188.011 284.767 187.741ZM286.345 187.748C286.345 188.157 286.282 188.558 286.157 188.953C286.033 189.348 285.847 189.701 285.601 190.014C285.356 190.326 285.045 190.578 284.669 190.769C284.294 190.96 283.856 191.055 283.356 191.055C282.855 191.055 282.417 190.96 282.043 190.769C281.668 190.578 281.357 190.326 281.11 190.014C280.865 189.701 280.68 189.348 280.554 188.953C280.429 188.558 280.368 188.157 280.368 187.748C280.368 187.34 280.429 186.942 280.554 186.55C280.68 186.16 280.865 185.811 281.11 185.503C281.357 185.195 281.668 184.948 282.043 184.762C282.417 184.576 282.855 184.481 283.356 184.481C283.856 184.481 284.292 184.576 284.663 184.762C285.034 184.948 285.345 185.195 285.594 185.503C285.846 185.811 286.033 186.16 286.157 186.55C286.282 186.942 286.345 187.34 286.345 187.748Z" fill="#C5C5CC"/>
<path d="M291.325 190.91V187.332C291.325 186.855 291.226 186.485 291.028 186.224C290.829 185.965 290.554 185.834 290.199 185.834C289.949 185.834 289.719 185.899 289.508 186.03C289.296 186.16 289.112 186.303 288.957 186.46V190.91H287.353V184.637H288.816L288.892 185.131C289.144 184.924 289.425 184.763 289.741 184.651C290.055 184.537 290.372 184.482 290.691 184.482C291.019 184.482 291.32 184.531 291.597 184.63C291.873 184.731 292.11 184.889 292.308 185.106C292.508 185.322 292.66 185.605 292.769 185.951C292.875 186.299 292.93 186.716 292.93 187.201V190.91H291.325Z" fill="#C5C5CC"/>
</g>
</g>
<defs>
<clipPath id="clip0_393_1258">
<rect width="451.33" height="281" fill="white"/>
</clipPath>
<clipPath id="clip1_393_1258">
<rect width="40" height="20" fill="white" transform="translate(85.5 142.5)"/>
</clipPath>
<clipPath id="clip2_393_1258">
<rect width="44" height="20" fill="white" transform="translate(157.5 142.5)"/>
</clipPath>
<clipPath id="clip3_393_1258">
<rect width="53" height="20" fill="white" transform="translate(233.5 142.5)"/>
</clipPath>
<clipPath id="clip4_393_1258">
<rect width="47" height="20" fill="white" transform="translate(318.5 142.5)"/>
</clipPath>
<clipPath id="clip5_393_1258">
<rect width="46" height="20" fill="white" transform="translate(151.5 177.5)"/>
</clipPath>
<clipPath id="clip6_393_1258">
<rect width="70" height="20" fill="white" transform="translate(229.5 177.5)"/>
</clipPath>
</defs>
</svg>
