<svg width="452" height="281" viewBox="0 0 452 281" fill="none" xmlns="http://www.w3.org/2000/svg">
<g clip-path="url(#clip0_3669_679)">
<path d="M451.33 0H0V281H451.33V0Z" fill="#F4F4F6"/>
<path d="M33.8497 0V281" stroke="#E2E2E6" stroke-width="0.8"/>
<path d="M417.48 0V281" stroke="#E2E2E6" stroke-width="0.8"/>
<path d="M0 31.6125H451.33" stroke="#E2E2E6" stroke-width="0.8"/>
<path d="M0 249.387H451.33" stroke="#E2E2E6" stroke-width="0.8"/>
<rect x="33.5" y="29.5" width="384" height="222" rx="11.5" fill="white"/>
<rect x="33.5" y="29.5" width="384" height="222" rx="11.5" stroke="#E2E0E0"/>
<path d="M53.4972 74.593V72.8182H61.8594V74.593H58.7422V83H56.6143V74.593H53.4972ZM65.5694 83.1491C64.7839 83.1491 64.1078 82.9901 63.541 82.6719C62.9776 82.3504 62.5434 81.8963 62.2385 81.3097C61.9335 80.7197 61.7811 80.022 61.7811 79.2166C61.7811 78.4311 61.9335 77.7417 62.2385 77.1484C62.5434 76.5552 62.9726 76.0928 63.5261 75.7614C64.0829 75.4299 64.7359 75.2642 65.4849 75.2642C65.9887 75.2642 66.4577 75.3454 66.8919 75.5078C67.3294 75.6669 67.7105 75.9072 68.0353 76.2287C68.3635 76.5502 68.6187 76.9545 68.801 77.4418C68.9833 77.9257 69.0744 78.4924 69.0744 79.142V79.7237H62.6262V78.4112H67.0808C67.0808 78.1063 67.0145 77.8362 66.8819 77.6009C66.7493 77.3655 66.5654 77.1816 66.3301 77.049C66.0981 76.9131 65.8279 76.8452 65.5197 76.8452C65.1982 76.8452 64.9132 76.9197 64.6646 77.0689C64.4193 77.2147 64.2271 77.4119 64.0879 77.6605C63.9487 77.9058 63.8774 78.1792 63.8741 78.4808V79.7287C63.8741 80.1065 63.9437 80.433 64.0829 80.7081C64.2254 80.9832 64.426 81.1953 64.6845 81.3445C64.943 81.4936 65.2496 81.5682 65.6042 81.5682C65.8395 81.5682 66.055 81.535 66.2505 81.4688C66.4461 81.4025 66.6135 81.303 66.7527 81.1705C66.8919 81.0379 66.9979 80.8755 67.0708 80.6832L69.0297 80.8125C68.9302 81.2831 68.7264 81.6941 68.4181 82.0455C68.1132 82.3935 67.7188 82.6652 67.2349 82.8608C66.7543 83.053 66.1992 83.1491 65.5694 83.1491ZM72.5744 72.8182V83H70.4565V72.8182H72.5744ZM76.3888 72.8182V83H74.271V72.8182H76.3888ZM82.6332 85.8636C82.3647 85.8636 82.1128 85.8421 81.8775 85.799C81.6455 85.7592 81.4532 85.7079 81.3008 85.6449L81.7781 84.0639C82.0266 84.1402 82.2504 84.1816 82.4492 84.1882C82.6514 84.1948 82.8254 84.1484 82.9712 84.049C83.1204 83.9496 83.2414 83.7805 83.3342 83.5419L83.4585 83.2188L80.7191 75.3636H82.9464L84.5273 80.9716H84.6069L86.2028 75.3636H88.445L85.4769 83.8253C85.3344 84.2363 85.1405 84.5942 84.8952 84.8991C84.6533 85.2074 84.3467 85.4444 83.9755 85.6101C83.6043 85.7791 83.1568 85.8636 82.6332 85.8636ZM92.733 83.1491C91.9607 83.1491 91.2929 82.9851 90.7294 82.657C90.1693 82.3255 89.7367 81.8648 89.4318 81.2749C89.1269 80.6816 88.9744 79.9938 88.9744 79.2116C88.9744 78.4228 89.1269 77.7334 89.4318 77.1435C89.7367 76.5502 90.1693 76.0895 90.7294 75.7614C91.2929 75.4299 91.9607 75.2642 92.733 75.2642C93.5052 75.2642 94.1714 75.4299 94.7315 75.7614C95.295 76.0895 95.7292 76.5502 96.0341 77.1435C96.339 77.7334 96.4915 78.4228 96.4915 79.2116C96.4915 79.9938 96.339 80.6816 96.0341 81.2749C95.7292 81.8648 95.295 82.3255 94.7315 82.657C94.1714 82.9851 93.5052 83.1491 92.733 83.1491ZM92.7429 81.5085C93.0942 81.5085 93.3875 81.4091 93.6229 81.2102C93.8582 81.008 94.0355 80.733 94.1548 80.3849C94.2775 80.0369 94.3388 79.6409 94.3388 79.1967C94.3388 78.7526 94.2775 78.3565 94.1548 78.0085C94.0355 77.6605 93.8582 77.3854 93.6229 77.1832C93.3875 76.9811 93.0942 76.88 92.7429 76.88C92.3883 76.88 92.09 76.9811 91.848 77.1832C91.6094 77.3854 91.4287 77.6605 91.3061 78.0085C91.1868 78.3565 91.1271 78.7526 91.1271 79.1967C91.1271 79.6409 91.1868 80.0369 91.3061 80.3849C91.4287 80.733 91.6094 81.008 91.848 81.2102C92.09 81.4091 92.3883 81.5085 92.7429 81.5085ZM102.766 79.7486V75.3636H104.884V83H102.85V81.6129H102.771C102.598 82.0604 102.312 82.42 101.911 82.6918C101.513 82.9635 101.027 83.0994 100.454 83.0994C99.9434 83.0994 99.4943 82.9834 99.1065 82.7514C98.7188 82.5194 98.4155 82.1896 98.1967 81.7621C97.9813 81.3345 97.8719 80.8224 97.8686 80.2259V75.3636H99.9865V79.848C99.9898 80.2988 100.111 80.6551 100.349 80.9169C100.588 81.1787 100.908 81.3097 101.309 81.3097C101.564 81.3097 101.803 81.2517 102.025 81.1357C102.247 81.0163 102.426 80.8407 102.562 80.6087C102.701 80.3767 102.769 80.09 102.766 79.7486ZM106.578 83V75.3636H108.631V76.696H108.71C108.85 76.2221 109.083 75.8641 109.411 75.6222C109.74 75.3769 110.117 75.2543 110.545 75.2543C110.651 75.2543 110.765 75.2609 110.888 75.2741C111.011 75.2874 111.118 75.3056 111.211 75.3288V77.2081C111.112 77.1783 110.974 77.1518 110.798 77.1286C110.623 77.1054 110.462 77.0938 110.316 77.0938C110.005 77.0938 109.726 77.1617 109.481 77.2976C109.239 77.4302 109.047 77.6158 108.904 77.8544C108.765 78.093 108.695 78.3681 108.695 78.6797V83H106.578ZM121.9 77.5412L119.961 77.6605C119.928 77.4948 119.857 77.3456 119.747 77.2131C119.638 77.0772 119.494 76.9695 119.315 76.8899C119.139 76.8071 118.929 76.7656 118.683 76.7656C118.355 76.7656 118.079 76.8352 117.853 76.9744C117.628 77.1103 117.515 77.2926 117.515 77.5213C117.515 77.7036 117.588 77.8577 117.734 77.9837C117.88 78.1096 118.13 78.2107 118.485 78.2869L119.867 78.5653C120.609 78.7178 121.163 78.9631 121.527 79.3011C121.892 79.6392 122.074 80.0833 122.074 80.6335C122.074 81.134 121.927 81.5732 121.632 81.951C121.34 82.3288 120.939 82.6238 120.428 82.8359C119.921 83.0447 119.336 83.1491 118.673 83.1491C117.663 83.1491 116.857 82.9387 116.257 82.5178C115.661 82.0935 115.311 81.5168 115.208 80.7876L117.291 80.6783C117.354 80.9865 117.507 81.2218 117.749 81.3842C117.991 81.5433 118.301 81.6229 118.678 81.6229C119.05 81.6229 119.348 81.5516 119.573 81.4091C119.802 81.2633 119.918 81.076 119.921 80.8473C119.918 80.6551 119.837 80.4976 119.678 80.375C119.519 80.2491 119.273 80.1529 118.942 80.0866L117.619 79.8232C116.874 79.674 116.319 79.4155 115.954 79.0476C115.593 78.6797 115.412 78.2107 115.412 77.6406C115.412 77.1501 115.545 76.7275 115.81 76.3729C116.078 76.0182 116.454 75.7448 116.938 75.5526C117.426 75.3603 117.996 75.2642 118.649 75.2642C119.613 75.2642 120.372 75.468 120.926 75.8757C121.482 76.2834 121.807 76.8385 121.9 77.5412ZM127.469 75.3636V76.9545H122.871V75.3636H127.469ZM123.915 73.5341H126.033V80.6534C126.033 80.849 126.063 81.0014 126.122 81.1108C126.182 81.2169 126.265 81.2914 126.371 81.3345C126.48 81.3776 126.606 81.3991 126.749 81.3991C126.848 81.3991 126.947 81.3909 127.047 81.3743C127.146 81.3544 127.223 81.3395 127.276 81.3295L127.609 82.9055C127.503 82.9387 127.353 82.9768 127.161 83.0199C126.969 83.0663 126.735 83.0945 126.46 83.1044C125.95 83.1243 125.502 83.0563 125.118 82.9006C124.737 82.7448 124.44 82.5028 124.228 82.1747C124.016 81.8466 123.911 81.4323 123.915 80.9318V73.5341ZM132.217 83.1491C131.445 83.1491 130.777 82.9851 130.214 82.657C129.654 82.3255 129.221 81.8648 128.916 81.2749C128.611 80.6816 128.459 79.9938 128.459 79.2116C128.459 78.4228 128.611 77.7334 128.916 77.1435C129.221 76.5502 129.654 76.0895 130.214 75.7614C130.777 75.4299 131.445 75.2642 132.217 75.2642C132.99 75.2642 133.656 75.4299 134.216 75.7614C134.779 76.0895 135.214 76.5502 135.518 77.1435C135.823 77.7334 135.976 78.4228 135.976 79.2116C135.976 79.9938 135.823 80.6816 135.518 81.2749C135.214 81.8648 134.779 82.3255 134.216 82.657C133.656 82.9851 132.99 83.1491 132.217 83.1491ZM132.227 81.5085C132.579 81.5085 132.872 81.4091 133.107 81.2102C133.343 81.008 133.52 80.733 133.639 80.3849C133.762 80.0369 133.823 79.6409 133.823 79.1967C133.823 78.7526 133.762 78.3565 133.639 78.0085C133.52 77.6605 133.343 77.3854 133.107 77.1832C132.872 76.9811 132.579 76.88 132.227 76.88C131.873 76.88 131.574 76.9811 131.332 77.1832C131.094 77.3854 130.913 77.6605 130.79 78.0085C130.671 78.3565 130.612 78.7526 130.612 79.1967C130.612 79.6409 130.671 80.0369 130.79 80.3849C130.913 80.733 131.094 81.008 131.332 81.2102C131.574 81.4091 131.873 81.5085 132.227 81.5085ZM137.353 83V75.3636H139.406V76.696H139.486C139.625 76.2221 139.859 75.8641 140.187 75.6222C140.515 75.3769 140.893 75.2543 141.32 75.2543C141.426 75.2543 141.541 75.2609 141.663 75.2741C141.786 75.2874 141.894 75.3056 141.987 75.3288V77.2081C141.887 77.1783 141.75 77.1518 141.574 77.1286C141.398 77.1054 141.237 77.0938 141.092 77.0938C140.78 77.0938 140.502 77.1617 140.256 77.2976C140.014 77.4302 139.822 77.6158 139.68 77.8544C139.54 78.093 139.471 78.3681 139.471 78.6797V83H137.353ZM144.621 85.8636C144.353 85.8636 144.101 85.8421 143.866 85.799C143.634 85.7592 143.442 85.7079 143.289 85.6449L143.766 84.0639C144.015 84.1402 144.239 84.1816 144.438 84.1882C144.64 84.1948 144.814 84.1484 144.96 84.049C145.109 83.9496 145.23 83.7805 145.322 83.5419L145.447 83.2188L142.707 75.3636H144.935L146.516 80.9716H146.595L148.191 75.3636H150.433L147.465 83.8253C147.323 84.2363 147.129 84.5942 146.884 84.8991C146.642 85.2074 146.335 85.4444 145.964 85.6101C145.593 85.7791 145.145 85.8636 144.621 85.8636ZM156.264 83L154.186 75.3636H156.328L157.512 80.4943H157.581L158.814 75.3636H160.917L162.17 80.4645H162.235L163.398 75.3636H165.536L163.463 83H161.22L159.908 78.1974H159.813L158.501 83H156.264ZM166.665 83V75.3636H168.783V83H166.665ZM167.729 74.3793C167.415 74.3793 167.144 74.2749 166.919 74.0661C166.697 73.8539 166.586 73.6004 166.586 73.3054C166.586 73.0137 166.697 72.7635 166.919 72.5547C167.144 72.3426 167.415 72.2365 167.729 72.2365C168.044 72.2365 168.313 72.3426 168.535 72.5547C168.76 72.7635 168.873 73.0137 168.873 73.3054C168.873 73.6004 168.76 73.8539 168.535 74.0661C168.313 74.2749 168.044 74.3793 167.729 74.3793ZM174.542 75.3636V76.9545H169.943V75.3636H174.542ZM170.987 73.5341H173.105V80.6534C173.105 80.849 173.135 81.0014 173.194 81.1108C173.254 81.2169 173.337 81.2914 173.443 81.3345C173.552 81.3776 173.678 81.3991 173.821 81.3991C173.92 81.3991 174.02 81.3909 174.119 81.3743C174.219 81.3544 174.295 81.3395 174.348 81.3295L174.681 82.9055C174.575 82.9387 174.426 82.9768 174.233 83.0199C174.041 83.0663 173.808 83.0945 173.532 83.1044C173.022 83.1243 172.575 83.0563 172.19 82.9006C171.809 82.7448 171.512 82.5028 171.3 82.1747C171.088 81.8466 170.984 81.4323 170.987 80.9318V73.5341ZM178.203 78.5852V83H176.085V72.8182H178.144V76.7109H178.233C178.405 76.2602 178.684 75.9072 179.068 75.652C179.453 75.3935 179.935 75.2642 180.515 75.2642C181.045 75.2642 181.508 75.3802 181.902 75.6122C182.3 75.8409 182.608 76.1707 182.827 76.6016C183.049 77.0291 183.158 77.5412 183.155 78.1378V83H181.037V78.5156C181.04 78.045 180.921 77.6787 180.679 77.4169C180.441 77.1551 180.106 77.0241 179.675 77.0241C179.387 77.0241 179.131 77.0855 178.909 77.2081C178.691 77.3307 178.518 77.5097 178.392 77.745C178.27 77.977 178.207 78.2571 178.203 78.5852ZM188.062 83V75.3636H190.18V83H188.062ZM189.126 74.3793C188.811 74.3793 188.541 74.2749 188.316 74.0661C188.093 73.8539 187.982 73.6004 187.982 73.3054C187.982 73.0137 188.093 72.7635 188.316 72.5547C188.541 72.3426 188.811 72.2365 189.126 72.2365C189.441 72.2365 189.709 72.3426 189.931 72.5547C190.157 72.7635 190.269 73.0137 190.269 73.3054C190.269 73.6004 190.157 73.8539 189.931 74.0661C189.709 74.2749 189.441 74.3793 189.126 74.3793ZM191.876 83V75.3636H193.895V76.7109H193.984C194.143 76.2635 194.409 75.9105 194.78 75.652C195.151 75.3935 195.595 75.2642 196.112 75.2642C196.636 75.2642 197.082 75.3951 197.45 75.657C197.817 75.9155 198.063 76.2668 198.185 76.7109H198.265C198.421 76.2734 198.702 75.9238 199.11 75.6619C199.521 75.3968 200.007 75.2642 200.567 75.2642C201.279 75.2642 201.858 75.4912 202.302 75.9453C202.749 76.3961 202.973 77.0357 202.973 77.8643V83H200.86V78.282C200.86 77.8577 200.747 77.5395 200.522 77.3274C200.297 77.1153 200.015 77.0092 199.677 77.0092C199.292 77.0092 198.992 77.1319 198.777 77.3771C198.562 77.6191 198.454 77.9389 198.454 78.3366V83H196.401V78.2372C196.401 77.8627 196.293 77.5644 196.077 77.3423C195.865 77.1203 195.585 77.0092 195.237 77.0092C195.002 77.0092 194.79 77.0689 194.601 77.1882C194.415 77.3042 194.268 77.4683 194.158 77.6804C194.049 77.8892 193.994 78.1345 193.994 78.4162V83H191.876ZM204.646 85.8636V75.3636H206.734V76.6463H206.828C206.921 76.4408 207.056 76.232 207.231 76.0199C207.41 75.8045 207.642 75.6255 207.927 75.483C208.216 75.3371 208.574 75.2642 209.001 75.2642C209.558 75.2642 210.072 75.41 210.542 75.7017C211.013 75.9901 211.389 76.4259 211.671 77.0092C211.953 77.5893 212.093 78.3168 212.093 79.1918C212.093 80.0436 211.956 80.7628 211.681 81.3494C211.409 81.9328 211.038 82.3752 210.567 82.6768C210.1 82.9751 209.576 83.1243 208.996 83.1243C208.585 83.1243 208.235 83.0563 207.947 82.9205C207.662 82.7846 207.428 82.6139 207.246 82.4084C207.064 82.1996 206.925 81.9891 206.828 81.777H206.764V85.8636H204.646ZM206.719 79.1818C206.719 79.6359 206.782 80.032 206.908 80.37C207.034 80.7081 207.216 80.9716 207.455 81.1605C207.694 81.3461 207.984 81.4389 208.325 81.4389C208.67 81.4389 208.961 81.3445 209.2 81.1555C209.439 80.9633 209.619 80.6982 209.742 80.3601C209.868 80.0187 209.931 79.6259 209.931 79.1818C209.931 78.741 209.869 78.3532 209.747 78.0185C209.624 77.6837 209.444 77.4219 209.205 77.233C208.966 77.044 208.673 76.9496 208.325 76.9496C207.98 76.9496 207.689 77.0407 207.45 77.223C207.215 77.4053 207.034 77.6638 206.908 77.9986C206.782 78.3333 206.719 78.7277 206.719 79.1818ZM215.683 83.1442C215.196 83.1442 214.761 83.0597 214.38 82.8906C213.999 82.7183 213.698 82.4647 213.475 82.13C213.257 81.7919 213.147 81.371 213.147 80.8672C213.147 80.4429 213.225 80.0866 213.381 79.7983C213.537 79.5099 213.749 79.2779 214.017 79.1023C214.286 78.9266 214.591 78.794 214.932 78.7045C215.277 78.6151 215.638 78.5521 216.016 78.5156C216.46 78.4692 216.818 78.4261 217.09 78.3864C217.362 78.3433 217.559 78.2803 217.681 78.1974C217.804 78.1146 217.865 77.992 217.865 77.8295V77.7997C217.865 77.4848 217.766 77.2412 217.567 77.0689C217.372 76.8965 217.093 76.8104 216.732 76.8104C216.351 76.8104 216.047 76.8949 215.822 77.0639C215.597 77.2296 215.448 77.4384 215.375 77.6903L213.416 77.5312C213.515 77.0672 213.711 76.6662 214.002 76.3281C214.294 75.9867 214.67 75.7249 215.131 75.5426C215.595 75.357 216.132 75.2642 216.742 75.2642C217.166 75.2642 217.572 75.3139 217.96 75.4134C218.351 75.5128 218.697 75.6669 218.999 75.8757C219.304 76.0845 219.544 76.353 219.72 76.6811C219.895 77.0059 219.983 77.3954 219.983 77.8494V83H217.975V81.9411H217.915C217.792 82.1797 217.628 82.3902 217.423 82.5724C217.217 82.7514 216.971 82.8923 216.682 82.995C216.394 83.0945 216.061 83.1442 215.683 83.1442ZM216.289 81.6825C216.601 81.6825 216.876 81.6212 217.115 81.4986C217.353 81.3726 217.541 81.2036 217.676 80.9915C217.812 80.7794 217.88 80.5391 217.88 80.2706V79.4602C217.814 79.5033 217.723 79.5431 217.607 79.5795C217.494 79.6127 217.367 79.6442 217.224 79.674C217.082 79.7005 216.939 79.7254 216.797 79.7486C216.654 79.7685 216.525 79.7867 216.409 79.8033C216.16 79.8397 215.943 79.8977 215.757 79.9773C215.572 80.0568 215.428 80.1645 215.325 80.3004C215.222 80.433 215.171 80.5987 215.171 80.7976C215.171 81.0859 215.275 81.3063 215.484 81.4588C215.696 81.608 215.965 81.6825 216.289 81.6825ZM225.077 83.1491C224.295 83.1491 223.622 82.9834 223.058 82.652C222.498 82.3172 222.067 81.8532 221.766 81.2599C221.467 80.6667 221.318 79.9839 221.318 79.2116C221.318 78.4295 221.469 77.7434 221.771 77.1534C222.076 76.5601 222.508 76.0978 223.068 75.7663C223.628 75.4316 224.295 75.2642 225.067 75.2642C225.733 75.2642 226.316 75.3852 226.817 75.6271C227.317 75.8691 227.713 76.2088 228.005 76.6463C228.297 77.0838 228.457 77.5975 228.487 78.1875H226.489C226.432 77.8063 226.283 77.4998 226.041 77.2678C225.803 77.0324 225.489 76.9148 225.102 76.9148C224.773 76.9148 224.487 77.0043 224.241 77.1832C224 77.3589 223.811 77.6158 223.675 77.9538C223.539 78.2919 223.471 78.7012 223.471 79.1818C223.471 79.669 223.537 80.0833 223.67 80.4247C223.806 80.7661 223.996 81.0263 224.241 81.2053C224.487 81.3842 224.773 81.4737 225.102 81.4737C225.344 81.4737 225.561 81.424 225.753 81.3246C225.948 81.2251 226.109 81.081 226.235 80.892C226.364 80.6998 226.449 80.4695 226.489 80.201H228.487C228.454 80.7843 228.295 81.2981 228.01 81.7422C227.728 82.183 227.339 82.5277 226.842 82.7763C226.344 83.0249 225.756 83.1491 225.077 83.1491ZM233.905 75.3636V76.9545H229.306V75.3636H233.905ZM230.35 73.5341H232.468V80.6534C232.468 80.849 232.498 81.0014 232.558 81.1108C232.617 81.2169 232.7 81.2914 232.806 81.3345C232.916 81.3776 233.042 81.3991 233.184 81.3991C233.284 81.3991 233.383 81.3909 233.482 81.3743C233.582 81.3544 233.658 81.3395 233.711 81.3295L234.044 82.9055C233.938 82.9387 233.789 82.9768 233.597 83.0199C233.405 83.0663 233.171 83.0945 232.896 83.1044C232.385 83.1243 231.938 83.0563 231.553 82.9006C231.172 82.7448 230.876 82.5028 230.664 82.1747C230.451 81.8466 230.347 81.4323 230.35 80.9318V73.5341Z" fill="#525252"/>
<rect x="53" y="106" width="164" height="4" rx="2" fill="#E2E2E6"/>
<rect x="53" y="118" width="162" height="4" rx="2" fill="#E2E2E6"/>
<rect x="53" y="142" width="157" height="4" rx="2" fill="#E2E2E6"/>
<rect x="53" y="154" width="177" height="4" rx="2" fill="#E2E2E6"/>
<rect x="53" y="166" width="145" height="4" rx="2" fill="#E2E2E6"/>
<rect x="53" y="190" width="48" height="22" rx="6" fill="#303030"/>
<path d="M68 201H86" stroke="white" stroke-width="2" stroke-linecap="round"/>
<rect x="113.7" y="190.7" width="46.6" height="20.6" rx="5.3" stroke="#C5C5CC" stroke-width="1.4"/>
<path d="M128 201H146" stroke="#C5C5CC" stroke-width="2" stroke-linecap="round"/>
<rect x="264" y="92.5" width="134" height="96" rx="8" fill="#F3F4F6"/>
<path fill-rule="evenodd" clip-rule="evenodd" d="M337.462 131.357H323.749C316.795 131.357 313.318 131.357 311.365 133.38C309.412 135.403 309.871 138.529 310.79 144.78L311.662 150.708C312.383 155.61 312.743 158.061 314.592 159.529C316.44 160.996 319.167 160.996 324.62 160.996H336.591C342.044 160.996 344.771 160.996 346.62 159.529C348.469 158.061 348.829 155.61 349.55 150.708L350.421 144.78C351.34 138.529 351.8 135.403 349.847 133.38C347.893 131.357 344.416 131.357 337.462 131.357ZM335.924 148.275C337.075 147.565 337.075 145.728 335.924 145.018L328.977 140.733C327.859 140.044 326.485 140.941 326.485 142.362V150.931C326.485 152.351 327.859 153.249 328.977 152.559L335.924 148.275Z" fill="#D9DADB"/>
<path opacity="0.4" d="M323.413 120H337.796C338.275 120 338.643 120 338.964 120.031C341.246 120.253 343.115 121.619 343.907 123.458H317.303C318.095 121.619 319.963 120.253 322.246 120.031C322.567 120 322.934 120 323.413 120Z" fill="#D9DADB"/>
<path opacity="0.7" d="M318.882 125.586C316.017 125.586 313.667 127.307 312.883 129.591C312.867 129.639 312.851 129.687 312.836 129.735C313.656 129.488 314.51 129.326 315.375 129.216C317.601 128.932 320.414 128.932 323.682 128.932H337.884C341.152 128.932 343.965 128.932 346.191 129.216C347.056 129.326 347.91 129.488 348.73 129.735C348.715 129.687 348.699 129.639 348.683 129.591C347.899 127.307 345.549 125.586 342.684 125.586H318.882Z" fill="#D9DADB"/>
</g>
<defs>
<clipPath id="clip0_3669_679">
<rect width="451.33" height="281" fill="white"/>
</clipPath>
</defs>
</svg>
