<svg width="452" height="281" viewBox="0 0 452 281" fill="none" xmlns="http://www.w3.org/2000/svg">
<g clip-path="url(#clip0_3605_5684)">
<path d="M451.33 0H0V281H451.33V0Z" fill="#F4F4F6"/>
<path d="M33.8497 0V281" stroke="#E2E2E6" stroke-width="0.8"/>
<path d="M417.48 0V281" stroke="#E2E2E6" stroke-width="0.8"/>
<path d="M0 31.6125H451.33" stroke="#E2E2E6" stroke-width="0.8"/>
<path d="M0 249.387H451.33" stroke="#E2E2E6" stroke-width="0.8"/>
<rect x="33.5" y="29.5" width="384" height="222" rx="11.5" fill="white"/>
<rect x="33.5" y="29.5" width="384" height="222" rx="11.5" stroke="#E2E0E0"/>
<path d="M53.5682 54.392V52.3636H63.125V54.392H59.5625V64H57.1307V54.392H53.5682ZM67.0739 58.9545V64H64.6534V52.3636H67.0057V56.8125H67.108C67.3049 56.2973 67.6231 55.8939 68.0625 55.6023C68.5019 55.3068 69.053 55.1591 69.7159 55.1591C70.322 55.1591 70.8504 55.2917 71.3011 55.5568C71.7557 55.8182 72.108 56.1951 72.358 56.6875C72.6117 57.1761 72.7367 57.7614 72.733 58.4432V64H70.3125V58.875C70.3163 58.3371 70.1799 57.9186 69.9034 57.6193C69.6307 57.3201 69.2481 57.1705 68.7557 57.1705C68.4261 57.1705 68.1345 57.2405 67.8807 57.3807C67.6307 57.5208 67.4337 57.7254 67.2898 57.9943C67.1496 58.2595 67.0777 58.5795 67.0739 58.9545ZM78.6151 64.1705C77.7173 64.1705 76.9446 63.9886 76.2969 63.625C75.6529 63.2576 75.1567 62.7386 74.8082 62.0682C74.4598 61.3939 74.2855 60.5966 74.2855 59.6761C74.2855 58.7784 74.4598 57.9905 74.8082 57.3125C75.1567 56.6345 75.6473 56.1061 76.2798 55.7273C76.9162 55.3485 77.6624 55.1591 78.5185 55.1591C79.0942 55.1591 79.6302 55.2519 80.1264 55.4375C80.6264 55.6193 81.062 55.8939 81.4332 56.2614C81.8082 56.6288 82.0999 57.0909 82.3082 57.6477C82.5166 58.2008 82.6207 58.8485 82.6207 59.5909V60.2557H75.2514V58.7557H80.3423C80.3423 58.4072 80.2666 58.0985 80.1151 57.8295C79.9635 57.5606 79.7533 57.3504 79.4844 57.1989C79.2192 57.0436 78.9105 56.9659 78.5582 56.9659C78.1908 56.9659 77.8651 57.0511 77.581 57.2216C77.3007 57.3883 77.081 57.6136 76.9219 57.8977C76.7628 58.178 76.6813 58.4905 76.6776 58.8352V60.2614C76.6776 60.6932 76.7571 61.0663 76.9162 61.3807C77.0791 61.6951 77.3082 61.9375 77.6037 62.108C77.8991 62.2784 78.2495 62.3636 78.6548 62.3636C78.9238 62.3636 79.17 62.3258 79.3935 62.25C79.617 62.1742 79.8082 62.0606 79.9673 61.9091C80.1264 61.7576 80.2476 61.572 80.331 61.3523L82.5696 61.5C82.456 62.0379 82.223 62.5076 81.8707 62.9091C81.5223 63.3068 81.0715 63.6174 80.5185 63.8409C79.9692 64.0606 79.3348 64.1705 78.6151 64.1705ZM91.1193 64.142C90.4564 64.142 89.8561 63.9716 89.3182 63.6307C88.7841 63.286 88.3598 62.7803 88.0455 62.1136C87.7348 61.4432 87.5795 60.6212 87.5795 59.6477C87.5795 58.6477 87.7405 57.8163 88.0625 57.1534C88.3845 56.4867 88.8125 55.9886 89.3466 55.6591C89.8845 55.3258 90.4735 55.1591 91.1136 55.1591C91.6023 55.1591 92.0095 55.2424 92.3352 55.4091C92.6648 55.572 92.9299 55.7765 93.1307 56.0227C93.3352 56.2652 93.4905 56.5038 93.5966 56.7386H93.6705V52.3636H96.0852V64H93.6989V62.6023H93.5966C93.483 62.8447 93.322 63.0852 93.1136 63.3239C92.9091 63.5587 92.642 63.7538 92.3125 63.9091C91.9867 64.0644 91.589 64.142 91.1193 64.142ZM91.8864 62.2159C92.2765 62.2159 92.6061 62.1098 92.875 61.8977C93.1477 61.6818 93.3561 61.3807 93.5 60.9943C93.6477 60.608 93.7216 60.1553 93.7216 59.6364C93.7216 59.1174 93.6496 58.6667 93.5057 58.2841C93.3617 57.9015 93.1534 57.6061 92.8807 57.3977C92.608 57.1894 92.2765 57.0852 91.8864 57.0852C91.4886 57.0852 91.1534 57.1932 90.8807 57.4091C90.608 57.625 90.4015 57.9242 90.2614 58.3068C90.1212 58.6894 90.0511 59.1326 90.0511 59.6364C90.0511 60.1439 90.1212 60.5928 90.2614 60.983C90.4053 61.3693 90.6117 61.6723 90.8807 61.892C91.1534 62.108 91.4886 62.2159 91.8864 62.2159ZM102.053 64.1705C101.155 64.1705 100.382 63.9886 99.7344 63.625C99.0904 63.2576 98.5942 62.7386 98.2457 62.0682C97.8973 61.3939 97.723 60.5966 97.723 59.6761C97.723 58.7784 97.8973 57.9905 98.2457 57.3125C98.5942 56.6345 99.0848 56.1061 99.7173 55.7273C100.354 55.3485 101.1 55.1591 101.956 55.1591C102.532 55.1591 103.068 55.2519 103.564 55.4375C104.064 55.6193 104.5 55.8939 104.871 56.2614C105.246 56.6288 105.537 57.0909 105.746 57.6477C105.954 58.2008 106.058 58.8485 106.058 59.5909V60.2557H98.6889V58.7557H103.78C103.78 58.4072 103.704 58.0985 103.553 57.8295C103.401 57.5606 103.191 57.3504 102.922 57.1989C102.657 57.0436 102.348 56.9659 101.996 56.9659C101.628 56.9659 101.303 57.0511 101.018 57.2216C100.738 57.3883 100.518 57.6136 100.359 57.8977C100.2 58.178 100.119 58.4905 100.115 58.8352V60.2614C100.115 60.6932 100.195 61.0663 100.354 61.3807C100.517 61.6951 100.746 61.9375 101.041 62.108C101.337 62.2784 101.687 62.3636 102.092 62.3636C102.361 62.3636 102.607 62.3258 102.831 62.25C103.054 62.1742 103.246 62.0606 103.405 61.9091C103.564 61.7576 103.685 61.572 103.768 61.3523L106.007 61.5C105.893 62.0379 105.661 62.5076 105.308 62.9091C104.96 63.3068 104.509 63.6174 103.956 63.8409C103.407 64.0606 102.772 64.1705 102.053 64.1705ZM114.899 57.7614L112.683 57.8977C112.645 57.7083 112.564 57.5379 112.439 57.3864C112.314 57.2311 112.149 57.108 111.945 57.017C111.744 56.9223 111.503 56.875 111.223 56.875C110.848 56.875 110.532 56.9545 110.274 57.1136C110.017 57.2689 109.888 57.4773 109.888 57.7386C109.888 57.947 109.971 58.1231 110.138 58.267C110.304 58.411 110.59 58.5265 110.996 58.6136L112.575 58.9318C113.424 59.1061 114.056 59.3864 114.473 59.7727C114.89 60.1591 115.098 60.6667 115.098 61.2955C115.098 61.8674 114.929 62.3693 114.592 62.8011C114.259 63.233 113.801 63.5701 113.217 63.8125C112.638 64.0511 111.969 64.1705 111.212 64.1705C110.056 64.1705 109.136 63.9299 108.45 63.4489C107.768 62.964 107.369 62.3049 107.251 61.4716L109.632 61.3466C109.704 61.6989 109.878 61.9678 110.155 62.1534C110.431 62.3352 110.786 62.4261 111.217 62.4261C111.642 62.4261 111.982 62.3447 112.24 62.1818C112.501 62.0152 112.634 61.8011 112.638 61.5398C112.634 61.3201 112.541 61.1402 112.359 61C112.178 60.8561 111.897 60.7462 111.518 60.6705L110.007 60.3693C109.155 60.1989 108.52 59.9034 108.104 59.483C107.691 59.0625 107.484 58.5265 107.484 57.875C107.484 57.3144 107.636 56.8314 107.939 56.4261C108.246 56.0208 108.676 55.7083 109.229 55.4886C109.786 55.2689 110.437 55.1591 111.183 55.1591C112.286 55.1591 113.153 55.392 113.786 55.858C114.422 56.3239 114.793 56.9583 114.899 57.7614ZM116.622 64V55.2727H119.043V64H116.622ZM117.838 54.1477C117.478 54.1477 117.17 54.0284 116.912 53.7898C116.658 53.5473 116.531 53.2576 116.531 52.9205C116.531 52.5871 116.658 52.3011 116.912 52.0625C117.17 51.8201 117.478 51.6989 117.838 51.6989C118.198 51.6989 118.505 51.8201 118.759 52.0625C119.016 52.3011 119.145 52.5871 119.145 52.9205C119.145 53.2576 119.016 53.5473 118.759 53.7898C118.505 54.0284 118.198 54.1477 117.838 54.1477ZM124.913 67.4545C124.129 67.4545 123.457 67.3466 122.896 67.1307C122.339 66.9186 121.896 66.6288 121.567 66.2614C121.237 65.8939 121.023 65.4811 120.925 65.0227L123.163 64.7216C123.232 64.8958 123.339 65.0587 123.487 65.2102C123.635 65.3617 123.83 65.483 124.072 65.5739C124.319 65.6686 124.618 65.7159 124.97 65.7159C125.497 65.7159 125.93 65.5871 126.271 65.3295C126.616 65.0758 126.788 64.6496 126.788 64.0511V62.4545H126.686C126.58 62.697 126.421 62.9261 126.209 63.142C125.997 63.358 125.724 63.5341 125.391 63.6705C125.057 63.8068 124.66 63.875 124.197 63.875C123.542 63.875 122.946 63.7235 122.408 63.4205C121.874 63.1136 121.447 62.6458 121.129 62.017C120.815 61.3845 120.658 60.5852 120.658 59.6193C120.658 58.6307 120.819 57.8049 121.141 57.142C121.463 56.4792 121.891 55.983 122.425 55.6534C122.963 55.3239 123.552 55.1591 124.192 55.1591C124.68 55.1591 125.089 55.2424 125.419 55.4091C125.749 55.572 126.014 55.7765 126.214 56.0227C126.419 56.2652 126.576 56.5038 126.686 56.7386H126.777V55.2727H129.18V64.0852C129.18 64.8277 128.999 65.4489 128.635 65.9489C128.271 66.4489 127.768 66.8239 127.124 67.0739C126.483 67.3277 125.747 67.4545 124.913 67.4545ZM124.964 62.0568C125.355 62.0568 125.684 61.9602 125.953 61.767C126.226 61.5701 126.434 61.2898 126.578 60.9261C126.726 60.5587 126.8 60.1193 126.8 59.608C126.8 59.0966 126.728 58.6534 126.584 58.2784C126.44 57.8996 126.232 57.6061 125.959 57.3977C125.686 57.1894 125.355 57.0852 124.964 57.0852C124.567 57.0852 124.232 57.1932 123.959 57.4091C123.686 57.6212 123.48 57.9167 123.339 58.2955C123.199 58.6742 123.129 59.1117 123.129 59.608C123.129 60.1117 123.199 60.5473 123.339 60.9148C123.483 61.2784 123.69 61.5606 123.959 61.7614C124.232 61.9583 124.567 62.0568 124.964 62.0568ZM133.527 58.9545V64H131.107V55.2727H133.413V56.8125H133.516C133.709 56.3049 134.033 55.9034 134.487 55.608C134.942 55.3087 135.493 55.1591 136.141 55.1591C136.747 55.1591 137.275 55.2917 137.726 55.5568C138.177 55.822 138.527 56.2008 138.777 56.6932C139.027 57.1818 139.152 57.7652 139.152 58.4432V64H136.732V58.875C136.735 58.3409 136.599 57.9242 136.322 57.625C136.046 57.322 135.665 57.1705 135.18 57.1705C134.855 57.1705 134.567 57.2405 134.317 57.3807C134.071 57.5208 133.877 57.7254 133.737 57.9943C133.601 58.2595 133.531 58.5795 133.527 58.9545ZM147.183 52.3636V64H144.763V52.3636H147.183ZM151.611 64.1648C151.054 64.1648 150.558 64.0682 150.122 63.875C149.687 63.678 149.342 63.3883 149.088 63.0057C148.838 62.6193 148.713 62.1383 148.713 61.5625C148.713 61.0777 148.802 60.6705 148.98 60.3409C149.158 60.0114 149.401 59.7462 149.707 59.5455C150.014 59.3447 150.363 59.1932 150.753 59.0909C151.147 58.9886 151.56 58.9167 151.991 58.875C152.499 58.822 152.908 58.7727 153.219 58.7273C153.529 58.678 153.755 58.6061 153.895 58.5114C154.035 58.4167 154.105 58.2765 154.105 58.0909V58.0568C154.105 57.697 153.991 57.4186 153.764 57.2216C153.541 57.0246 153.223 56.9261 152.81 56.9261C152.374 56.9261 152.027 57.0227 151.77 57.2159C151.512 57.4053 151.342 57.6439 151.259 57.9318L149.02 57.75C149.134 57.2197 149.357 56.7614 149.69 56.375C150.024 55.9848 150.454 55.6856 150.98 55.4773C151.51 55.2652 152.124 55.1591 152.821 55.1591C153.306 55.1591 153.77 55.2159 154.213 55.3295C154.66 55.4432 155.056 55.6193 155.401 55.858C155.749 56.0966 156.024 56.4034 156.224 56.7784C156.425 57.1496 156.526 57.5947 156.526 58.1136V64H154.23V62.7898H154.162C154.022 63.0625 153.834 63.303 153.599 63.5114C153.365 63.7159 153.082 63.8769 152.753 63.9943C152.423 64.108 152.043 64.1648 151.611 64.1648ZM152.304 62.4943C152.66 62.4943 152.974 62.4242 153.247 62.2841C153.52 62.1402 153.734 61.947 153.889 61.7045C154.045 61.4621 154.122 61.1875 154.122 60.8807V59.9545C154.046 60.0038 153.942 60.0492 153.81 60.0909C153.681 60.1288 153.535 60.1648 153.372 60.1989C153.209 60.2292 153.046 60.2576 152.884 60.2841C152.721 60.3068 152.573 60.3277 152.44 60.3466C152.156 60.3883 151.908 60.4545 151.696 60.5455C151.484 60.6364 151.319 60.7595 151.202 60.9148C151.084 61.0663 151.026 61.2557 151.026 61.483C151.026 61.8125 151.145 62.0644 151.384 62.2386C151.626 62.4091 151.933 62.4943 152.304 62.4943ZM159.585 67.2727C159.278 67.2727 158.991 67.2481 158.722 67.1989C158.456 67.1534 158.237 67.0947 158.062 67.0227L158.608 65.2159C158.892 65.303 159.148 65.3504 159.375 65.358C159.606 65.3655 159.805 65.3125 159.972 65.1989C160.142 65.0852 160.28 64.892 160.386 64.6193L160.528 64.25L157.398 55.2727H159.943L161.75 61.6818H161.841L163.665 55.2727H166.227L162.835 64.9432C162.672 65.4129 162.451 65.822 162.17 66.1705C161.894 66.5227 161.544 66.7936 161.119 66.983C160.695 67.1761 160.184 67.2727 159.585 67.2727ZM171.162 64.1705C170.264 64.1705 169.491 63.9886 168.844 63.625C168.2 63.2576 167.704 62.7386 167.355 62.0682C167.007 61.3939 166.832 60.5966 166.832 59.6761C166.832 58.7784 167.007 57.9905 167.355 57.3125C167.704 56.6345 168.194 56.1061 168.827 55.7273C169.463 55.3485 170.209 55.1591 171.065 55.1591C171.641 55.1591 172.177 55.2519 172.673 55.4375C173.173 55.6193 173.609 55.8939 173.98 56.2614C174.355 56.6288 174.647 57.0909 174.855 57.6477C175.063 58.2008 175.168 58.8485 175.168 59.5909V60.2557H167.798V58.7557H172.889C172.889 58.4072 172.813 58.0985 172.662 57.8295C172.51 57.5606 172.3 57.3504 172.031 57.1989C171.766 57.0436 171.457 56.9659 171.105 56.9659C170.738 56.9659 170.412 57.0511 170.128 57.2216C169.848 57.3883 169.628 57.6136 169.469 57.8977C169.31 58.178 169.228 58.4905 169.224 58.8352V60.2614C169.224 60.6932 169.304 61.0663 169.463 61.3807C169.626 61.6951 169.855 61.9375 170.151 62.108C170.446 62.2784 170.796 62.3636 171.202 62.3636C171.471 62.3636 171.717 62.3258 171.94 62.25C172.164 62.1742 172.355 62.0606 172.514 61.9091C172.673 61.7576 172.795 61.572 172.878 61.3523L175.116 61.5C175.003 62.0379 174.77 62.5076 174.418 62.9091C174.069 63.3068 173.618 63.6174 173.065 63.8409C172.516 64.0606 171.882 64.1705 171.162 64.1705ZM176.747 64V55.2727H179.094V56.7955H179.185C179.344 56.2538 179.611 55.8447 179.986 55.5682C180.361 55.2879 180.793 55.1477 181.281 55.1477C181.402 55.1477 181.533 55.1553 181.673 55.1705C181.813 55.1856 181.937 55.2064 182.043 55.233V57.3807C181.929 57.3466 181.772 57.3163 181.571 57.2898C181.37 57.2633 181.187 57.25 181.02 57.25C180.664 57.25 180.346 57.3277 180.065 57.483C179.789 57.6345 179.569 57.8466 179.406 58.1193C179.247 58.392 179.168 58.7064 179.168 59.0625V64H176.747Z" fill="#525252"/>
<rect x="53" y="82" width="193" height="4" rx="2" fill="#E2E2E6"/>
<rect x="53" y="94" width="105" height="4" rx="2" fill="#E2E2E6"/>
<rect x="53" y="118" width="18" height="18" rx="4" fill="#F3F4F6"/>
<path fill-rule="evenodd" clip-rule="evenodd" d="M61.1232 123.271C61.5705 122.705 62.4295 122.705 62.8768 123.271C62.9379 123.349 63.0348 123.389 63.1327 123.377C63.8495 123.293 64.4569 123.9 64.3727 124.617C64.3612 124.715 64.4013 124.812 64.4787 124.873C65.0451 125.321 65.0451 126.179 64.4787 126.627C64.4013 126.688 64.3612 126.785 64.3727 126.883C64.3844 126.983 64.3828 127.08 64.3692 127.174C64.3815 127.196 64.392 127.22 64.4004 127.245L65.2978 129.916C65.3481 130.066 65.3094 130.231 65.1978 130.343C65.0862 130.455 64.9209 130.494 64.771 130.444L63.9588 130.173L63.4821 130.885C63.3943 131.016 63.2401 131.086 63.0837 131.066C62.9272 131.046 62.7954 130.94 62.743 130.791L61.9968 128.673L61.2506 130.791C61.1982 130.94 61.0663 131.046 60.9099 131.066C60.7535 131.086 60.5992 131.016 60.5115 130.885L60.0348 130.173L59.2225 130.444C59.0726 130.494 58.9074 130.455 58.7958 130.343C58.6842 130.231 58.6455 130.066 58.6958 129.916L59.5932 127.245C59.6027 127.217 59.6149 127.19 59.6295 127.165C59.6172 127.074 59.6159 126.979 59.6273 126.883C59.6388 126.785 59.5987 126.688 59.5213 126.627C58.9549 126.179 58.9549 125.321 59.5213 124.873C59.5987 124.812 59.6388 124.715 59.6273 124.617C59.5431 123.9 60.1505 123.293 60.8673 123.377C60.9652 123.389 61.0621 123.349 61.1232 123.271ZM60.2176 128.003L59.7519 129.389L60.0724 129.282C60.2503 129.223 60.4459 129.29 60.5503 129.446L60.7408 129.73L61.2252 128.355C61.2264 128.352 61.2276 128.348 61.2288 128.345C61.1916 128.309 61.1563 128.271 61.1232 128.229C61.0621 128.151 60.9652 128.111 60.8673 128.123C60.6321 128.15 60.4087 128.104 60.2176 128.003ZM62.7664 128.35C62.8054 128.313 62.8423 128.272 62.8768 128.229C62.9379 128.151 63.0348 128.111 63.1327 128.123C63.3657 128.15 63.587 128.104 63.7769 128.006L64.2417 129.389L63.9211 129.282C63.7433 129.223 63.5477 129.29 63.4433 129.446L63.2527 129.73L62.7684 128.355C62.7677 128.353 62.7671 128.351 62.7664 128.35ZM62.2228 123.788C62.1091 123.644 61.8909 123.644 61.7772 123.788C61.5367 124.092 61.1554 124.25 60.77 124.205C60.5879 124.184 60.4335 124.338 60.4549 124.52C60.5002 124.905 60.3423 125.287 60.0378 125.527C59.8938 125.641 59.8938 125.859 60.0378 125.973C60.3423 126.213 60.5002 126.595 60.4549 126.98C60.4335 127.162 60.5879 127.316 60.77 127.295C61.1554 127.25 61.5367 127.408 61.7772 127.712C61.8909 127.856 62.1091 127.856 62.2228 127.712C62.4633 127.408 62.8446 127.25 63.23 127.295C63.4121 127.316 63.5665 127.162 63.5451 126.98C63.4998 126.595 63.6577 126.213 63.9622 125.973C64.1062 125.859 64.1062 125.641 63.9622 125.527C63.6577 125.287 63.4998 124.905 63.5451 124.52C63.5665 124.338 63.4121 124.184 63.23 124.205C62.8446 124.25 62.4633 124.092 62.2228 123.788ZM62 125.333C61.7699 125.333 61.5833 125.52 61.5833 125.75C61.5833 125.98 61.7699 126.167 62 126.167C62.2301 126.167 62.4167 125.98 62.4167 125.75C62.4167 125.52 62.2301 125.333 62 125.333ZM60.75 125.75C60.75 125.06 61.3096 124.5 62 124.5C62.6904 124.5 63.25 125.06 63.25 125.75C63.25 126.44 62.6904 127 62 127C61.3096 127 60.75 126.44 60.75 125.75Z" fill="#B2B2B2"/>
<rect x="53" y="146" width="99" height="3" rx="1.5" fill="#E2E2E6"/>
<rect x="53" y="157" width="81" height="3" rx="1.5" fill="#E2E2E6"/>
<rect x="174.667" y="118" width="18" height="18" rx="4" fill="#F3F4F6"/>
<path fill-rule="evenodd" clip-rule="evenodd" d="M184.663 123.798C184.213 123.668 183.74 123.634 183.276 123.699C182.811 123.763 182.366 123.925 181.969 124.174C181.774 124.296 181.517 124.237 181.395 124.042C181.272 123.847 181.332 123.59 181.527 123.468C182.023 123.157 182.58 122.954 183.16 122.873C183.741 122.792 184.332 122.835 184.895 122.998C185.457 123.161 185.98 123.441 186.427 123.819C186.874 124.198 187.236 124.667 187.49 125.195C187.59 125.402 187.502 125.651 187.295 125.751C187.087 125.85 186.838 125.763 186.739 125.556C186.536 125.133 186.246 124.758 185.888 124.455C185.531 124.152 185.113 123.928 184.663 123.798ZM183.843 124.921C183.466 124.901 183.09 124.984 182.757 125.162C182.423 125.339 182.144 125.604 181.949 125.928C181.755 126.252 181.652 126.622 181.651 127C181.651 127.23 181.465 127.417 181.235 127.417C181.005 127.417 180.818 127.23 180.818 127C180.818 126.471 180.962 125.952 181.235 125.499C181.507 125.045 181.898 124.674 182.365 124.426C182.832 124.178 183.358 124.061 183.886 124.088C184.415 124.116 184.926 124.287 185.364 124.582C185.555 124.711 185.606 124.97 185.477 125.16C185.348 125.351 185.09 125.402 184.899 125.273C184.585 125.062 184.22 124.94 183.843 124.921ZM180.978 124.447C181.155 124.593 181.18 124.856 181.034 125.034C180.574 125.591 180.426 126.393 180.426 127.179V128.301C180.426 128.531 180.24 128.717 180.009 128.717C179.779 128.717 179.593 128.531 179.593 128.301V127.179C179.593 126.325 179.746 125.285 180.391 124.503C180.538 124.326 180.8 124.301 180.978 124.447ZM183.735 126.167C183.514 126.167 183.302 126.255 183.146 126.411C182.989 126.567 182.901 126.779 182.901 127C182.901 127.016 182.901 127.033 182.901 127.049C182.902 128.198 182.902 129.248 182.206 130.288C182.078 130.48 181.82 130.531 181.628 130.403C181.437 130.275 181.386 130.017 181.513 129.825C182.058 129.01 182.068 128.202 182.068 127C182.068 126.558 182.244 126.134 182.556 125.822C182.869 125.509 183.293 125.333 183.735 125.333C184.177 125.333 184.601 125.509 184.913 125.822C185.226 126.134 185.401 126.558 185.401 127V127.004C185.401 127.314 185.401 127.642 185.388 127.979C185.379 128.209 185.185 128.388 184.956 128.379C184.726 128.37 184.547 128.177 184.556 127.947C184.568 127.627 184.568 127.313 184.568 127C184.568 126.779 184.48 126.567 184.324 126.411C184.168 126.255 183.956 126.167 183.735 126.167ZM185.903 125.689C186.117 125.603 186.36 125.708 186.445 125.921C186.581 126.263 186.651 126.627 186.651 126.994C186.678 127.891 186.611 128.788 186.452 129.671C186.411 129.897 186.194 130.048 185.967 130.007C185.741 129.966 185.591 129.749 185.631 129.523C185.781 128.695 185.844 127.854 185.818 127.013C185.818 127.008 185.818 127.004 185.818 127C185.818 126.736 185.768 126.475 185.671 126.23C185.585 126.016 185.69 125.774 185.903 125.689ZM187.468 126.584C187.697 126.574 187.892 126.753 187.901 126.983C187.956 128.294 187.797 129.606 187.43 130.866C187.366 131.087 187.135 131.214 186.914 131.15C186.693 131.086 186.566 130.855 186.63 130.634C186.971 129.46 187.119 128.239 187.069 127.017C187.059 126.788 187.238 126.593 187.468 126.584ZM183.735 126.583C183.965 126.583 184.151 126.77 184.151 127C184.151 127.011 184.151 127.022 184.151 127.033C184.152 128.266 184.152 129.626 183.248 130.981C183.121 131.173 182.862 131.224 182.67 131.097C182.479 130.969 182.427 130.71 182.555 130.519C183.31 129.386 183.318 128.258 183.318 127C183.318 126.77 183.505 126.583 183.735 126.583ZM181.226 128.151C181.452 128.193 181.602 128.411 181.559 128.637C181.496 128.98 181.363 129.306 181.168 129.595C180.94 129.937 180.818 130.339 180.818 130.75C180.818 130.98 180.632 131.167 180.402 131.167C180.172 131.167 179.985 130.981 179.985 130.751C179.984 130.174 180.155 129.61 180.476 129.131L180.476 129.131C180.607 128.936 180.697 128.716 180.74 128.485C180.782 128.259 181 128.109 181.226 128.151ZM184.858 129.192C185.081 129.247 185.218 129.473 185.163 129.697C185.061 130.11 184.917 130.511 184.733 130.895C184.634 131.102 184.385 131.19 184.177 131.091C183.97 130.991 183.882 130.742 183.981 130.535C184.141 130.202 184.265 129.855 184.354 129.497C184.409 129.274 184.635 129.137 184.858 129.192Z" fill="#B2B2B2"/>
<rect x="174.667" y="146" width="98" height="3" rx="1.5" fill="#E2E2E6"/>
<rect x="174.667" y="157" width="83" height="3" rx="1.5" fill="#E2E2E6"/>
<rect x="296.333" y="118" width="18" height="18" rx="4" fill="#F3F4F6"/>
<path fill-rule="evenodd" clip-rule="evenodd" d="M304.327 123.077C304.484 122.921 304.696 122.833 304.917 122.833H305.75C305.971 122.833 306.183 122.921 306.339 123.077C306.496 123.234 306.583 123.446 306.583 123.667V123.704L306.78 123.785L306.807 123.759C306.807 123.759 306.807 123.759 306.807 123.759C306.963 123.603 307.175 123.515 307.396 123.515C307.617 123.515 307.829 123.603 307.985 123.759L308.574 124.348C308.73 124.505 308.818 124.717 308.818 124.938C308.818 125.158 308.731 125.37 308.575 125.526L308.548 125.553L308.63 125.75H308.667C308.888 125.75 309.1 125.838 309.256 125.994C309.412 126.15 309.5 126.362 309.5 126.583V127.417C309.5 127.638 309.412 127.85 309.256 128.006C309.1 128.162 308.888 128.25 308.667 128.25H308.63L308.548 128.447L308.574 128.473C308.731 128.63 308.818 128.842 308.818 129.063C308.818 129.283 308.731 129.495 308.574 129.652L307.985 130.241C307.829 130.397 307.617 130.485 307.396 130.485C307.175 130.485 306.963 130.397 306.807 130.241L306.78 130.215L306.583 130.296V130.333C306.583 130.554 306.496 130.766 306.339 130.923C306.183 131.079 305.971 131.167 305.75 131.167H304.917C304.696 131.167 304.484 131.079 304.327 130.923C304.171 130.766 304.083 130.554 304.083 130.333V130.296L303.886 130.215L303.86 130.241C303.704 130.397 303.492 130.485 303.271 130.485C303.05 130.485 302.838 130.397 302.682 130.241L302.092 129.652C301.936 129.495 301.848 129.283 301.848 129.063C301.848 128.842 301.936 128.63 302.092 128.474C302.092 128.474 302.092 128.473 302.092 128.474L302.119 128.447L302.037 128.25H302C301.779 128.25 301.567 128.162 301.411 128.006C301.254 127.85 301.167 127.638 301.167 127.417V126.583C301.167 126.362 301.254 126.15 301.411 125.994C301.567 125.838 301.779 125.75 302 125.75H302.037L302.119 125.553L302.092 125.527C301.936 125.37 301.848 125.158 301.848 124.938C301.848 124.717 301.936 124.505 302.092 124.348L302.682 123.759C302.838 123.603 303.05 123.515 303.271 123.515C303.492 123.515 303.704 123.603 303.86 123.759L303.886 123.785L304.083 123.704V123.667C304.083 123.446 304.171 123.234 304.327 123.077ZM305.75 123.667H304.917V123.982C304.917 124.151 304.815 124.303 304.659 124.367L303.948 124.662C303.793 124.726 303.614 124.691 303.494 124.572L303.271 124.349L302.682 124.938L302.905 125.161C303.024 125.28 303.06 125.459 302.995 125.615L302.7 126.326C302.636 126.482 302.484 126.583 302.315 126.583H302V127.417H302.315C302.484 127.417 302.636 127.518 302.7 127.674L302.995 128.385C303.059 128.541 303.024 128.72 302.905 128.839L302.682 129.062L303.271 129.652L303.494 129.428C303.614 129.309 303.793 129.274 303.948 129.338L304.659 129.633C304.815 129.697 304.917 129.849 304.917 130.018V130.333H305.75V130.018C305.75 129.849 305.851 129.698 306.007 129.633L306.718 129.338C306.874 129.273 307.053 129.309 307.173 129.428L307.396 129.652L307.985 129.063L307.762 128.839C307.643 128.72 307.607 128.541 307.672 128.385L307.966 127.674C308.031 127.518 308.183 127.417 308.351 127.417H308.667V126.583H308.351C308.183 126.583 308.031 126.482 307.966 126.326L307.672 125.615C307.607 125.459 307.643 125.28 307.762 125.161L307.985 124.938L307.396 124.348L307.172 124.572C307.053 124.691 306.874 124.726 306.718 124.662L306.007 124.367C305.852 124.303 305.75 124.151 305.75 123.982V123.667ZM305.333 126.167C304.873 126.167 304.5 126.54 304.5 127C304.5 127.46 304.873 127.833 305.333 127.833C305.794 127.833 306.167 127.46 306.167 127C306.167 126.54 305.794 126.167 305.333 126.167ZM303.667 127C303.667 126.08 304.413 125.333 305.333 125.333C306.254 125.333 307 126.08 307 127C307 127.92 306.254 128.667 305.333 128.667C304.413 128.667 303.667 127.92 303.667 127Z" fill="#B2B2B2"/>
<rect x="296.333" y="146" width="101" height="3" rx="1.5" fill="#E2E2E6"/>
<rect x="296.333" y="157" width="43" height="3" rx="1.5" fill="#E2E2E6"/>
<rect x="53" y="180" width="18" height="18" rx="4" fill="#F3F4F6"/>
<path fill-rule="evenodd" clip-rule="evenodd" d="M63.3914 185.257C63.9394 185.228 64.485 185.298 64.8354 185.358C65.0368 185.393 65.2227 185.489 65.3672 185.633C65.5119 185.778 65.6079 185.964 65.642 186.166C65.7023 186.516 65.7722 187.062 65.7432 187.61C65.7151 188.139 65.5902 188.77 65.1699 189.191L65.1694 189.191C64.9652 189.395 64.6409 189.636 64.2802 189.881C64.1973 189.937 64.1111 189.995 64.0226 190.052L63.9059 191.423C63.8976 191.521 63.8549 191.613 63.7855 191.682L62.9545 192.514C62.8483 192.62 62.7146 192.694 62.5684 192.729C62.4222 192.763 62.2694 192.756 62.127 192.708C61.9846 192.661 61.8582 192.574 61.7621 192.459C61.6665 192.344 61.6045 192.205 61.5831 192.057L61.5074 191.554C61.2608 191.693 61.051 191.809 60.9 191.891C60.7465 191.975 60.5696 192.007 60.3965 191.982C60.2239 191.957 60.0642 191.876 59.9414 191.752L59.594 191.405L59.25 191.059C59.1265 190.936 59.0461 190.776 59.0209 190.604C58.9956 190.431 59.0273 190.254 59.1113 190.101C59.1955 189.947 59.314 189.732 59.4557 189.48L58.9565 189.421L58.9482 189.42C58.7987 189.4 58.658 189.338 58.542 189.241C58.4259 189.145 58.3392 189.018 58.2915 188.875C58.2438 188.732 58.2371 188.578 58.2721 188.431C58.307 188.285 58.3821 188.151 58.4888 188.045L59.3192 187.215C59.3887 187.146 59.4806 187.103 59.5785 187.095L60.9492 186.978C61.0073 186.889 61.0647 186.803 61.1211 186.72C61.3658 186.359 61.6072 186.034 61.8114 185.83M61.5358 187.605C61.538 187.602 61.5401 187.599 61.5423 187.595C61.6339 187.453 61.7238 187.316 61.8108 187.187C62.0528 186.83 62.2569 186.563 62.4008 186.419C62.5947 186.225 62.9573 186.114 63.4352 186.089C63.8945 186.065 64.371 186.124 64.6939 186.18L64.6955 186.18C64.7267 186.185 64.7555 186.2 64.7779 186.222C64.8003 186.245 64.8151 186.274 64.8204 186.305L64.8206 186.306C64.8762 186.629 64.9354 187.106 64.911 187.566C64.8857 188.043 64.7746 188.407 64.5803 188.602C64.4362 188.746 64.1691 188.949 63.8125 189.191C63.688 189.276 63.5553 189.363 63.4169 189.452C63.4056 189.458 63.3945 189.466 63.3838 189.473C63.1427 189.627 62.8853 189.786 62.6249 189.943C62.2927 190.143 61.9576 190.339 61.6479 190.516C61.6302 190.525 61.6132 190.535 61.597 190.545C61.1517 190.8 60.7631 191.016 60.5181 191.15L60.1855 190.818L60.1842 190.817L59.8524 190.483C59.9895 190.232 60.2112 189.832 60.4732 189.375C60.4857 189.356 60.4968 189.337 60.5064 189.317C60.6785 189.017 60.8668 188.695 61.0592 188.375C61.2182 188.111 61.3793 187.85 61.5358 187.605ZM60.3958 187.861L59.8008 187.912L59.1123 188.601L59.904 188.693C60.0446 188.451 60.1936 188.197 60.3452 187.945C60.362 187.917 60.3789 187.889 60.3958 187.861ZM62.2836 191.112L62.4006 191.889L63.0885 191.201L63.1391 190.606C63.111 190.623 63.0829 190.64 63.0547 190.657C62.7948 190.813 62.5334 190.967 62.2836 191.112ZM63.3914 185.257C62.8619 185.285 62.2318 185.409 61.8114 185.83ZM63.2141 187.42C63.0117 187.42 62.8475 187.584 62.8475 187.787C62.8475 187.989 63.0117 188.153 63.2141 188.153C63.4165 188.153 63.5807 187.989 63.5807 187.787C63.5807 187.584 63.4165 187.42 63.2141 187.42ZM62.0142 187.787C62.0142 187.124 62.5513 186.587 63.2141 186.587C63.8769 186.587 64.414 187.124 64.414 187.787C64.414 188.449 63.8769 188.987 63.2141 188.987C62.5513 188.987 62.0142 188.449 62.0142 187.787Z" fill="#B2B2B2"/>
<rect x="53" y="208" width="99" height="3" rx="1.5" fill="#E2E2E6"/>
<rect x="53" y="219" width="87" height="3" rx="1.5" fill="#E2E2E6"/>
<rect x="174.667" y="180" width="18" height="18" rx="4" fill="#F3F4F6"/>
<path fill-rule="evenodd" clip-rule="evenodd" d="M182.624 184.833L182.625 184.833C182.816 184.833 183.006 184.871 183.183 184.944C183.36 185.018 183.521 185.125 183.656 185.26C183.66 185.264 183.663 185.267 183.667 185.271C183.67 185.268 183.674 185.264 183.677 185.26C183.951 184.987 184.322 184.833 184.708 184.833H184.709C185.049 184.834 185.379 184.954 185.64 185.172C185.831 185.331 185.977 185.535 186.066 185.765C186.181 185.808 186.289 185.866 186.39 185.937C186.565 186.062 186.71 186.223 186.815 186.41C186.92 186.597 186.982 186.806 186.997 187.02C187.004 187.127 186.999 187.234 186.983 187.339C187.16 187.512 187.29 187.728 187.36 187.969C187.428 188.207 187.435 188.456 187.38 188.694C187.517 188.838 187.627 189.007 187.705 189.193C187.824 189.478 187.861 189.791 187.812 190.096C187.763 190.401 187.63 190.686 187.428 190.92C187.305 191.061 187.16 191.18 187 191.272C187.002 191.372 186.994 191.472 186.976 191.57C186.934 191.792 186.841 192.001 186.705 192.181C186.568 192.36 186.391 192.505 186.188 192.604C186.045 192.674 185.893 192.719 185.737 192.739C185.571 192.905 185.366 193.03 185.14 193.101C184.848 193.192 184.535 193.189 184.244 193.092C184.025 193.019 183.827 192.895 183.667 192.731C183.506 192.895 183.308 193.019 183.089 193.092C182.799 193.189 182.485 193.192 182.193 193.101C181.967 193.03 181.762 192.905 181.597 192.738C181.44 192.719 181.288 192.673 181.145 192.604C180.943 192.505 180.766 192.36 180.629 192.18C180.493 192.001 180.4 191.792 180.359 191.57C180.341 191.471 180.333 191.372 180.335 191.272C180.174 191.18 180.029 191.061 179.907 190.92C179.704 190.687 179.571 190.402 179.521 190.097C179.472 189.791 179.509 189.479 179.628 189.193C179.706 189.008 179.816 188.839 179.953 188.694C179.899 188.456 179.905 188.207 179.974 187.969C180.043 187.728 180.174 187.512 180.35 187.339C180.334 187.234 180.329 187.127 180.337 187.02C180.351 186.806 180.413 186.597 180.518 186.41C180.623 186.223 180.768 186.062 180.943 185.937C181.044 185.866 181.153 185.808 181.267 185.765C181.356 185.535 181.502 185.331 181.693 185.172C181.954 184.954 182.284 184.834 182.624 184.833ZM181.2 186.92C181.212 186.885 181.227 186.85 181.245 186.818C181.29 186.738 181.351 186.67 181.426 186.617C181.5 186.564 181.585 186.529 181.675 186.513C181.846 186.483 181.981 186.349 182.012 186.178C182.039 186.035 182.115 185.905 182.227 185.812C182.339 185.718 182.48 185.667 182.625 185.667C182.707 185.667 182.788 185.683 182.864 185.714C182.94 185.746 183.009 185.792 183.067 185.85C183.125 185.908 183.171 185.977 183.202 186.052C183.234 186.128 183.25 186.21 183.25 186.292V191.708C183.25 191.71 183.25 191.712 183.25 191.715C183.249 191.844 183.209 191.969 183.133 192.074C183.057 192.181 182.949 192.26 182.825 192.302C182.701 192.343 182.567 192.344 182.442 192.305C182.317 192.266 182.208 192.189 182.13 192.084C182.051 191.979 181.927 191.917 181.796 191.917H181.792L181.787 191.917C181.691 191.918 181.597 191.897 181.511 191.855C181.425 191.813 181.35 191.751 181.293 191.675C181.252 191.622 181.221 191.563 181.199 191.499C181.423 191.497 181.645 191.451 181.854 191.359C182.064 191.267 182.16 191.021 182.068 190.811C181.976 190.6 181.73 190.504 181.519 190.596C181.331 190.679 181.118 190.688 180.923 190.624L180.915 190.621C180.768 190.576 180.637 190.49 180.536 190.374C180.435 190.258 180.369 190.116 180.344 189.964C180.32 189.812 180.338 189.657 180.397 189.515C180.457 189.373 180.554 189.25 180.68 189.161C180.845 189.043 180.901 188.822 180.812 188.639C180.745 188.503 180.732 188.346 180.774 188.201C180.816 188.055 180.911 187.93 181.04 187.85C181.044 187.848 181.047 187.846 181.051 187.843C181.137 187.786 181.236 187.752 181.339 187.742C181.442 187.733 181.546 187.749 181.641 187.79C181.852 187.88 182.097 187.782 182.187 187.57C182.278 187.359 182.179 187.114 181.968 187.024C181.746 186.929 181.504 186.891 181.264 186.913C181.242 186.914 181.221 186.917 181.2 186.92ZM184.083 191.715C184.084 191.844 184.125 191.969 184.2 192.074C184.276 192.181 184.384 192.26 184.508 192.302C184.632 192.343 184.766 192.344 184.891 192.305C185.016 192.266 185.125 192.189 185.204 192.084C185.282 191.979 185.406 191.917 185.537 191.917H185.547C185.643 191.918 185.737 191.897 185.823 191.855C185.909 191.813 185.984 191.752 186.042 191.676C186.082 191.622 186.114 191.563 186.135 191.499C185.912 191.497 185.689 191.451 185.481 191.359C185.27 191.267 185.174 191.021 185.266 190.811C185.359 190.6 185.604 190.504 185.815 190.596C186.004 190.679 186.216 190.688 186.412 190.624L186.419 190.621C186.566 190.576 186.697 190.49 186.798 190.374C186.899 190.258 186.965 190.116 186.99 189.964C187.014 189.812 186.995 189.656 186.936 189.515C186.877 189.373 186.779 189.25 186.654 189.161C186.488 189.043 186.432 188.822 186.521 188.639C186.588 188.503 186.601 188.346 186.559 188.201C186.517 188.055 186.422 187.93 186.293 187.85C186.289 187.848 186.286 187.846 186.282 187.843C186.196 187.786 186.097 187.752 185.994 187.742C185.891 187.733 185.788 187.749 185.693 187.79C185.481 187.88 185.236 187.782 185.146 187.57C185.056 187.359 185.154 187.114 185.366 187.024C185.587 186.929 185.829 186.891 186.069 186.913C186.091 186.914 186.112 186.917 186.134 186.92C186.122 186.885 186.106 186.85 186.088 186.818C186.044 186.738 185.982 186.67 185.908 186.617C185.833 186.564 185.748 186.529 185.658 186.513C185.487 186.483 185.353 186.349 185.321 186.178C185.295 186.035 185.219 185.905 185.107 185.812C184.995 185.718 184.854 185.667 184.708 185.667C184.542 185.667 184.383 185.733 184.266 185.85C184.149 185.967 184.083 186.126 184.083 186.292V191.708C184.083 191.71 184.083 191.712 184.083 191.715Z" fill="#B2B2B2"/>
<rect x="174.667" y="208" width="90" height="3" rx="1.5" fill="#E2E2E6"/>
<rect x="174.667" y="219" width="101" height="3" rx="1.5" fill="#E2E2E6"/>
<rect x="296.333" y="180" width="18" height="18" rx="4" fill="#F3F4F6"/>
<path fill-rule="evenodd" clip-rule="evenodd" d="M303.227 185.407C303.864 185.032 304.591 184.832 305.334 184.832C306.077 184.832 306.804 185.032 307.44 185.406C307.487 185.377 307.537 185.352 307.589 185.33C307.715 185.278 307.851 185.251 307.987 185.251C308.124 185.251 308.26 185.278 308.386 185.33C308.513 185.383 308.627 185.459 308.724 185.556C308.724 185.556 308.724 185.556 308.724 185.556L308.777 185.609C308.874 185.706 308.951 185.821 309.003 185.947C309.055 186.073 309.082 186.209 309.082 186.346C309.082 186.483 309.055 186.618 309.003 186.745C308.981 186.797 308.956 186.846 308.926 186.894C309.302 187.531 309.501 188.258 309.501 189.001C309.501 189.743 309.302 190.47 308.927 191.107C308.956 191.154 308.982 191.204 309.003 191.255C309.055 191.382 309.082 191.517 309.082 191.654C309.082 191.791 309.055 191.927 309.003 192.053C308.951 192.179 308.874 192.294 308.777 192.391L308.776 192.392L308.724 192.443C308.724 192.444 308.724 192.444 308.724 192.444C308.627 192.54 308.512 192.617 308.386 192.669C308.26 192.722 308.124 192.749 307.987 192.749C307.851 192.749 307.715 192.722 307.589 192.669C307.537 192.648 307.487 192.622 307.44 192.593C306.803 192.968 306.076 193.168 305.332 193.168C304.59 193.168 303.863 192.968 303.226 192.593C303.179 192.623 303.129 192.648 303.078 192.669C302.952 192.722 302.816 192.749 302.679 192.749C302.542 192.749 302.407 192.722 302.28 192.669C302.154 192.617 302.04 192.54 301.943 192.444C301.943 192.444 301.943 192.444 301.942 192.443L301.891 192.392L301.89 192.391C301.793 192.294 301.716 192.179 301.664 192.053C301.611 191.927 301.584 191.791 301.584 191.654C301.584 191.517 301.611 191.382 301.664 191.255C301.685 191.203 301.711 191.154 301.74 191.106C301.365 190.469 301.166 189.742 301.166 188.999C301.166 188.257 301.365 187.53 301.74 186.893C301.71 186.846 301.685 186.796 301.664 186.745C301.611 186.618 301.584 186.483 301.584 186.346C301.584 186.209 301.611 186.073 301.664 185.947C301.716 185.821 301.793 185.706 301.89 185.609L301.942 185.556C301.942 185.556 301.942 185.556 301.942 185.556C302.039 185.46 302.154 185.383 302.28 185.33C302.407 185.278 302.542 185.251 302.679 185.251C302.816 185.251 302.952 185.278 303.078 185.33C303.13 185.352 303.18 185.377 303.227 185.407ZM304.044 187.363L302.827 186.145C302.807 186.126 302.784 186.111 302.759 186.1C302.734 186.09 302.707 186.084 302.679 186.084C302.652 186.084 302.625 186.09 302.599 186.1C302.574 186.111 302.551 186.126 302.532 186.145L302.479 186.198C302.459 186.218 302.444 186.241 302.433 186.266C302.423 186.291 302.418 186.318 302.418 186.346C302.418 186.373 302.423 186.4 302.433 186.426C302.444 186.451 302.459 186.474 302.479 186.493L302.54 186.554C302.543 186.558 302.547 186.561 302.551 186.565L303.697 187.71C303.799 187.581 303.915 187.465 304.044 187.363ZM302.34 187.533L303.31 188.502C303.271 188.662 303.25 188.829 303.25 189C303.25 189.171 303.271 189.337 303.309 189.496L302.341 190.465C302.117 190.011 301.999 189.51 301.999 188.999C301.999 188.489 302.117 187.987 302.34 187.533ZM303.697 190.289L302.479 191.507C302.459 191.526 302.444 191.549 302.433 191.574C302.423 191.6 302.418 191.627 302.418 191.654C302.418 191.682 302.423 191.709 302.433 191.734C302.444 191.759 302.459 191.782 302.478 191.801C302.478 191.801 302.479 191.801 302.479 191.802L302.531 191.853L302.532 191.854C302.551 191.874 302.574 191.889 302.599 191.899C302.625 191.91 302.652 191.915 302.679 191.915C302.707 191.915 302.734 191.91 302.759 191.899C302.784 191.889 302.807 191.874 302.827 191.854L304.043 190.636C303.915 190.534 303.798 190.418 303.697 190.289ZM303.867 191.993C304.321 192.216 304.822 192.334 305.332 192.334C305.843 192.334 306.344 192.216 306.798 191.993L305.83 191.024C305.671 191.063 305.504 191.083 305.333 191.083C305.162 191.083 304.995 191.063 304.836 191.024L303.867 191.993ZM304.933 190.184C305.058 190.227 305.193 190.25 305.333 190.25C305.489 190.25 305.638 190.222 305.775 190.17C305.78 190.167 305.786 190.165 305.791 190.163C305.95 190.099 306.094 190.004 306.214 189.882C306.334 189.761 306.428 189.616 306.491 189.457C306.498 189.438 306.507 189.419 306.518 189.401C306.56 189.275 306.583 189.14 306.583 189C306.583 188.845 306.555 188.696 306.503 188.558C306.501 188.553 306.498 188.548 306.496 188.542C306.433 188.383 306.337 188.24 306.216 188.119C306.094 187.999 305.949 187.905 305.79 187.843C305.77 187.835 305.751 187.826 305.733 187.815C305.608 187.773 305.473 187.75 305.333 187.75C305.178 187.75 305.029 187.778 304.892 187.83C304.886 187.833 304.881 187.835 304.875 187.837C304.717 187.901 304.573 187.996 304.453 188.118C304.332 188.239 304.238 188.384 304.176 188.543C304.168 188.562 304.159 188.581 304.149 188.599C304.106 188.725 304.083 188.86 304.083 189C304.083 189.155 304.112 189.304 304.164 189.442C304.166 189.447 304.168 189.452 304.171 189.458C304.234 189.617 304.329 189.76 304.451 189.881C304.572 190.001 304.717 190.095 304.876 190.157C304.896 190.165 304.915 190.174 304.933 190.184ZM304.837 186.976C304.996 186.937 305.162 186.917 305.333 186.917C305.505 186.917 305.671 186.937 305.831 186.976L306.8 186.007C306.346 185.784 305.845 185.666 305.334 185.666C304.824 185.666 304.322 185.784 303.868 186.007L304.837 186.976ZM307.357 188.504C307.396 188.663 307.417 188.829 307.417 189C307.417 189.171 307.396 189.338 307.357 189.498L308.326 190.467C308.55 190.013 308.668 189.511 308.668 189.001C308.668 188.49 308.55 187.989 308.326 187.535L307.357 188.504ZM306.97 187.711L308.188 186.493C308.207 186.474 308.223 186.451 308.233 186.426C308.244 186.4 308.249 186.373 308.249 186.346C308.249 186.318 308.244 186.291 308.233 186.266C308.223 186.241 308.207 186.218 308.188 186.198L308.135 186.145C308.116 186.126 308.093 186.111 308.067 186.1C308.042 186.09 308.015 186.084 307.987 186.084C307.96 186.084 307.933 186.09 307.908 186.1C307.882 186.111 307.859 186.126 307.84 186.145L307.779 186.206C307.776 186.21 307.772 186.214 307.768 186.218L306.622 187.363C306.751 187.465 306.868 187.582 306.97 187.711ZM306.623 190.637L307.84 191.854C307.859 191.873 307.882 191.889 307.908 191.899C307.933 191.91 307.96 191.915 307.987 191.915C308.015 191.915 308.042 191.91 308.067 191.899C308.093 191.889 308.116 191.874 308.135 191.854L308.136 191.853L308.188 191.802C308.188 191.801 308.188 191.801 308.188 191.801C308.208 191.782 308.223 191.759 308.233 191.734C308.244 191.709 308.249 191.682 308.249 191.654C308.249 191.627 308.244 191.6 308.233 191.574C308.223 191.549 308.207 191.526 308.188 191.507L308.127 191.446C308.123 191.442 308.119 191.439 308.116 191.435L306.97 190.289C306.868 190.418 306.752 190.535 306.623 190.637Z" fill="#B2B2B2"/>
<rect x="296.333" y="208" width="95" height="3" rx="1.5" fill="#E2E2E6"/>
<rect x="296.333" y="219" width="77" height="3" rx="1.5" fill="#E2E2E6"/>
</g>
<defs>
<clipPath id="clip0_3605_5684">
<rect width="451.33" height="281" fill="white"/>
</clipPath>
</defs>
</svg>
