<svg width="452" height="281" viewBox="0 0 452 281" fill="none" xmlns="http://www.w3.org/2000/svg">
<g clip-path="url(#clip0_381_7531)">
<path d="M451.33 0H0V281H451.33V0Z" fill="#F4F4F6"/>
<path d="M33.8497 0V281" stroke="#E2E2E6" stroke-width="0.8"/>
<path d="M417.48 0V281" stroke="#E2E2E6" stroke-width="0.8"/>
<path d="M0 31.6123H451.33" stroke="#E2E2E6" stroke-width="0.8"/>
<path d="M0 249.388H451.33" stroke="#E2E2E6" stroke-width="0.8"/>
<rect x="33.5" y="29.5" width="384" height="222" rx="11.5" fill="white"/>
<rect x="33.5" y="29.5" width="384" height="222" rx="11.5" stroke="#E2E0E0"/>
<path d="M186.727 57.125C186.648 56.8485 186.536 56.6042 186.392 56.392C186.248 56.1761 186.072 55.9943 185.864 55.8466C185.659 55.6951 185.424 55.5795 185.159 55.5C184.898 55.4205 184.608 55.3807 184.29 55.3807C183.695 55.3807 183.172 55.5284 182.722 55.8239C182.275 56.1193 181.926 56.5492 181.676 57.1136C181.426 57.6742 181.301 58.3598 181.301 59.1705C181.301 59.9811 181.424 60.6705 181.67 61.2386C181.917 61.8068 182.265 62.2405 182.716 62.5398C183.167 62.8352 183.699 62.983 184.312 62.983C184.869 62.983 185.345 62.8845 185.739 62.6875C186.136 62.4867 186.439 62.2045 186.648 61.8409C186.86 61.4773 186.966 61.0473 186.966 60.5511L187.466 60.625H184.466V58.7727H189.335V60.2386C189.335 61.2614 189.119 62.1402 188.688 62.875C188.256 63.6061 187.661 64.1705 186.903 64.5682C186.146 64.9621 185.278 65.1591 184.301 65.1591C183.21 65.1591 182.252 64.9186 181.426 64.4375C180.6 63.9527 179.956 63.2652 179.494 62.375C179.036 61.4811 178.807 60.4205 178.807 59.1932C178.807 58.25 178.943 57.4091 179.216 56.6705C179.492 55.928 179.879 55.2992 180.375 54.7841C180.871 54.2689 181.449 53.8769 182.108 53.608C182.767 53.339 183.481 53.2045 184.25 53.2045C184.909 53.2045 185.523 53.3011 186.091 53.4943C186.659 53.6837 187.163 53.9527 187.602 54.3011C188.045 54.6496 188.407 55.0644 188.688 55.5455C188.968 56.0227 189.148 56.5492 189.227 57.125H186.727ZM195.115 65.1705C194.217 65.1705 193.445 64.9886 192.797 64.625C192.153 64.2576 191.657 63.7386 191.308 63.0682C190.96 62.3939 190.786 61.5966 190.786 60.6761C190.786 59.7784 190.96 58.9905 191.308 58.3125C191.657 57.6345 192.147 57.1061 192.78 56.7273C193.416 56.3485 194.162 56.1591 195.018 56.1591C195.594 56.1591 196.13 56.2519 196.626 56.4375C197.126 56.6193 197.562 56.8939 197.933 57.2614C198.308 57.6288 198.6 58.0909 198.808 58.6477C199.017 59.2008 199.121 59.8485 199.121 60.5909V61.2557H191.751V59.7557H196.842C196.842 59.4072 196.767 59.0985 196.615 58.8295C196.464 58.5606 196.253 58.3504 195.984 58.1989C195.719 58.0436 195.411 57.9659 195.058 57.9659C194.691 57.9659 194.365 58.0511 194.081 58.2216C193.801 58.3883 193.581 58.6136 193.422 58.8977C193.263 59.178 193.181 59.4905 193.178 59.8352V61.2614C193.178 61.6932 193.257 62.0663 193.416 62.3807C193.579 62.6951 193.808 62.9375 194.104 63.108C194.399 63.2784 194.75 63.3636 195.155 63.3636C195.424 63.3636 195.67 63.3258 195.893 63.25C196.117 63.1742 196.308 63.0606 196.467 62.9091C196.626 62.7576 196.748 62.572 196.831 62.3523L199.07 62.5C198.956 63.0379 198.723 63.5076 198.371 63.9091C198.022 64.3068 197.571 64.6174 197.018 64.8409C196.469 65.0606 195.835 65.1705 195.115 65.1705ZM205.342 56.2727V58.0909H200.087V56.2727H205.342ZM201.28 54.1818H203.7V62.3182C203.7 62.5417 203.734 62.7159 203.803 62.8409C203.871 62.9621 203.965 63.0473 204.087 63.0966C204.212 63.1458 204.356 63.1705 204.518 63.1705C204.632 63.1705 204.746 63.161 204.859 63.142C204.973 63.1193 205.06 63.1023 205.121 63.0909L205.501 64.892C205.38 64.9299 205.21 64.9735 204.99 65.0227C204.77 65.0758 204.503 65.108 204.189 65.1193C203.606 65.142 203.094 65.0644 202.655 64.8864C202.219 64.7083 201.88 64.4318 201.638 64.0568C201.395 63.6818 201.276 63.2083 201.28 62.6364V54.1818ZM210.622 65V56.2727H213.043V65H210.622ZM211.838 55.1477C211.478 55.1477 211.17 55.0284 210.912 54.7898C210.658 54.5473 210.531 54.2576 210.531 53.9205C210.531 53.5871 210.658 53.3011 210.912 53.0625C211.17 52.8201 211.478 52.6989 211.838 52.6989C212.198 52.6989 212.505 52.8201 212.759 53.0625C213.016 53.3011 213.145 53.5871 213.145 53.9205C213.145 54.2576 213.016 54.5473 212.759 54.7898C212.505 55.0284 212.198 55.1477 211.838 55.1477ZM217.402 59.9545V65H214.982V56.2727H217.288V57.8125H217.391C217.584 57.3049 217.908 56.9034 218.362 56.608C218.817 56.3087 219.368 56.1591 220.016 56.1591C220.622 56.1591 221.15 56.2917 221.601 56.5568C222.052 56.822 222.402 57.2008 222.652 57.6932C222.902 58.1818 223.027 58.7652 223.027 59.4432V65H220.607V59.875C220.61 59.3409 220.474 58.9242 220.197 58.625C219.921 58.322 219.54 58.1705 219.055 58.1705C218.73 58.1705 218.442 58.2405 218.192 58.3807C217.946 58.5208 217.752 58.7254 217.612 58.9943C217.476 59.2595 217.406 59.5795 217.402 59.9545ZM233.28 56.2727V58.0909H228.024V56.2727H233.28ZM229.217 54.1818H231.638V62.3182C231.638 62.5417 231.672 62.7159 231.74 62.8409C231.808 62.9621 231.903 63.0473 232.024 63.0966C232.149 63.1458 232.293 63.1705 232.456 63.1705C232.57 63.1705 232.683 63.161 232.797 63.142C232.911 63.1193 232.998 63.1023 233.058 63.0909L233.439 64.892C233.318 64.9299 233.147 64.9735 232.928 65.0227C232.708 65.0758 232.441 65.108 232.126 65.1193C231.543 65.142 231.032 65.0644 230.592 64.8864C230.157 64.7083 229.818 64.4318 229.575 64.0568C229.333 63.6818 229.214 63.2083 229.217 62.6364V54.1818ZM238.706 65.1705C237.823 65.1705 237.06 64.983 236.416 64.608C235.776 64.2292 235.282 63.7027 234.933 63.0284C234.585 62.3504 234.411 61.5644 234.411 60.6705C234.411 59.7689 234.585 58.9811 234.933 58.3068C235.282 57.6288 235.776 57.1023 236.416 56.7273C237.06 56.3485 237.823 56.1591 238.706 56.1591C239.589 56.1591 240.35 56.3485 240.99 56.7273C241.634 57.1023 242.13 57.6288 242.479 58.3068C242.827 58.9811 243.001 59.7689 243.001 60.6705C243.001 61.5644 242.827 62.3504 242.479 63.0284C242.13 63.7027 241.634 64.2292 240.99 64.608C240.35 64.983 239.589 65.1705 238.706 65.1705ZM238.717 63.2955C239.119 63.2955 239.454 63.1818 239.723 62.9545C239.992 62.7235 240.195 62.4091 240.331 62.0114C240.471 61.6136 240.541 61.161 240.541 60.6534C240.541 60.1458 240.471 59.6932 240.331 59.2955C240.195 58.8977 239.992 58.5833 239.723 58.3523C239.454 58.1212 239.119 58.0057 238.717 58.0057C238.312 58.0057 237.971 58.1212 237.695 58.3523C237.422 58.5833 237.215 58.8977 237.075 59.2955C236.939 59.6932 236.871 60.1458 236.871 60.6534C236.871 61.161 236.939 61.6136 237.075 62.0114C237.215 62.4091 237.422 62.7235 237.695 62.9545C237.971 63.1818 238.312 63.2955 238.717 63.2955ZM250.172 61.2841V56.2727H252.592V65H250.268V63.4148H250.178C249.981 63.9261 249.653 64.3371 249.195 64.6477C248.74 64.9583 248.185 65.1136 247.53 65.1136C246.946 65.1136 246.433 64.9811 245.99 64.7159C245.547 64.4508 245.2 64.0739 244.95 63.5852C244.704 63.0966 244.579 62.5114 244.575 61.8295V56.2727H246.996V61.3977C247 61.9129 247.138 62.3201 247.411 62.6193C247.683 62.9186 248.049 63.0682 248.507 63.0682C248.799 63.0682 249.071 63.0019 249.325 62.8693C249.579 62.733 249.784 62.5322 249.939 62.267C250.098 62.0019 250.176 61.6742 250.172 61.2841ZM258.472 65.1705C257.578 65.1705 256.809 64.9811 256.165 64.6023C255.525 64.2197 255.032 63.6894 254.688 63.0114C254.347 62.3333 254.176 61.553 254.176 60.6705C254.176 59.7765 254.348 58.9924 254.693 58.3182C255.042 57.6402 255.536 57.1117 256.176 56.733C256.816 56.3504 257.578 56.1591 258.46 56.1591C259.222 56.1591 259.888 56.2973 260.46 56.5739C261.032 56.8504 261.485 57.2386 261.818 57.7386C262.152 58.2386 262.335 58.8258 262.369 59.5H260.085C260.021 59.0644 259.85 58.714 259.574 58.4489C259.301 58.1799 258.943 58.0455 258.5 58.0455C258.125 58.0455 257.797 58.1477 257.517 58.3523C257.241 58.553 257.025 58.8466 256.869 59.233C256.714 59.6193 256.636 60.0871 256.636 60.6364C256.636 61.1932 256.712 61.6667 256.864 62.0568C257.019 62.447 257.237 62.7443 257.517 62.9489C257.797 63.1534 258.125 63.2557 258.5 63.2557C258.777 63.2557 259.025 63.1989 259.244 63.0852C259.468 62.9716 259.652 62.8068 259.795 62.5909C259.943 62.3712 260.04 62.108 260.085 61.8011H262.369C262.331 62.4678 262.15 63.0549 261.824 63.5625C261.502 64.0663 261.057 64.4602 260.489 64.7443C259.92 65.0284 259.248 65.1705 258.472 65.1705ZM266.339 59.9545V65H263.919V53.3636H266.271V57.8125H266.374C266.571 57.2973 266.889 56.8939 267.328 56.6023C267.768 56.3068 268.319 56.1591 268.982 56.1591C269.588 56.1591 270.116 56.2917 270.567 56.5568C271.021 56.8182 271.374 57.1951 271.624 57.6875C271.877 58.1761 272.002 58.7614 271.999 59.4432V65H269.578V59.875C269.582 59.3371 269.446 58.9186 269.169 58.6193C268.896 58.3201 268.514 58.1705 268.021 58.1705C267.692 58.1705 267.4 58.2405 267.146 58.3807C266.896 58.5208 266.699 58.7254 266.555 58.9943C266.415 59.2595 266.343 59.5795 266.339 59.9545Z" fill="#525252"/>
<rect x="169" y="85" width="113" height="4" rx="2" fill="#E2E2E6"/>
<rect x="108.5" y="109.5" width="111.5" height="21" rx="7.5" fill="#FAFAFC"/>
<rect x="108.5" y="109.5" width="111.5" height="21" rx="7.5" stroke="#E2E2E6"/>
<rect x="116" y="119" width="28" height="2" rx="1" fill="#E2E2E6"/>
<rect x="231" y="109.5" width="111.5" height="21" rx="7.5" fill="#FAFAFC"/>
<rect x="231" y="109.5" width="111.5" height="21" rx="7.5" stroke="#E2E2E6"/>
<rect x="238.5" y="119" width="28" height="2" rx="1" fill="#E2E2E6"/>
<rect x="108.5" y="141.5" width="234" height="47" rx="7.5" fill="#FAFAFC"/>
<rect x="108.5" y="141.5" width="234" height="47" rx="7.5" stroke="#E2E2E6"/>
<rect x="120" y="153" width="28" height="2" rx="1" fill="#E2E2E6"/>
<rect x="108.7" y="209.7" width="110.1" height="20.6" rx="5.3" stroke="#C5C5CC" stroke-width="1.4"/>
<path d="M154.75 220H172.75" stroke="#C5C5CC" stroke-width="2" stroke-linecap="round"/>
<rect x="231.5" y="209" width="111.5" height="22" rx="6" fill="#303030"/>
<path d="M278.25 220H296.25" stroke="white" stroke-width="2" stroke-linecap="round"/>
</g>
<defs>
<clipPath id="clip0_381_7531">
<rect width="451.33" height="281" fill="white"/>
</clipPath>
</defs>
</svg>
