<svg width="144" height="144" viewBox="0 0 144 144" fill="none" xmlns="http://www.w3.org/2000/svg">
<path d="M48.5108 2.7546C54.2913 0.376359 60.5843 -0.482886 66.7909 0.258658C74.7909 1.17864 81.9189 4.57856 88.175 10.4584C88.255 10.5384 88.367 10.5944 88.471 10.6264C88.584 10.6542 88.702 10.6542 88.815 10.6264C96.9482 8.52614 105.558 9.30339 113.183 12.8264L113.559 13.0024L114.487 13.4584C122.469 17.5039 128.695 24.3302 131.991 32.6499C133.663 36.7298 134.495 40.9777 134.511 45.4096C134.631 48.7057 134.27 52.0016 133.439 55.1934C133.398 55.3546 133.399 55.5234 133.441 55.6843C133.483 55.8452 133.565 55.9928 133.679 56.1134C138.431 60.9693 141.583 66.7532 143.143 73.473C145.455 84.8728 143.087 95.1525 136.047 104.304L134.959 105.632C130.297 110.969 124.177 114.829 117.351 116.736C117.203 116.779 117.067 116.857 116.955 116.963C116.842 117.068 116.756 117.199 116.703 117.344C115.175 121.752 113.639 125.528 110.783 129.296C103.583 138.792 93.007 144.063 81.0949 143.999C71.5989 143.951 63.1828 140.48 55.8388 133.584C55.7283 133.48 55.5923 133.408 55.4447 133.374C55.2972 133.341 55.1433 133.347 54.9988 133.392C51.8948 134.392 48.7588 134.536 45.3668 134.496C39.9641 134.452 34.6424 133.177 29.8067 130.768C24.7413 128.258 20.3311 124.601 16.9266 120.088C15.7106 118.472 14.5026 116.952 13.6146 115.152C12.4023 112.682 11.4118 110.109 10.6546 107.464C9.05618 101.445 9.01764 95.1185 10.5426 89.0807C10.5927 88.937 10.6092 88.7837 10.5906 88.6327C10.5632 88.4843 10.4872 88.3492 10.3746 88.2487C6.67911 84.5083 3.8546 79.9985 2.10253 75.041C0.937334 71.9873 0.259717 68.7694 0.0945249 65.5052C-0.196109 61.2059 0.184451 56.8876 1.22253 52.7055C3.91854 43.8097 9.07857 36.8258 16.6866 31.7619C18.3826 30.634 19.9906 29.754 21.4946 29.122C23.2146 28.41 24.9347 27.81 26.6627 27.306C26.7862 27.2677 26.8983 27.1995 26.989 27.1074C27.0797 27.0153 27.1462 26.9021 27.1827 26.7781C28.4948 22.0665 30.7512 17.6709 33.8147 13.8584C37.6766 8.95453 42.7384 5.13002 48.5108 2.7546ZM76.3669 87.2727C75.0668 87.3456 73.844 87.9135 72.9494 88.8596C72.0548 89.8058 71.5563 91.0585 71.5563 92.3606C71.5563 93.6627 72.0548 94.9154 72.9494 95.8616C73.844 96.8077 75.0668 97.3755 76.3669 97.4485H105.455C106.147 97.4873 106.84 97.3845 107.491 97.1464C108.142 96.9082 108.738 96.5397 109.242 96.0635C109.745 95.5872 110.147 95.0132 110.421 94.3765C110.695 93.7398 110.837 93.0538 110.837 92.3606C110.837 91.6673 110.695 90.9814 110.421 90.3447C110.147 89.708 109.745 89.134 109.242 88.6577C108.738 88.1814 108.142 87.813 107.491 87.5748C106.84 87.3367 106.147 87.2339 105.455 87.2727H76.3669ZM43.6947 49.8415C43.0024 48.714 41.8987 47.8999 40.6169 47.5714C39.3352 47.243 37.9759 47.426 36.8266 48.0817C35.6773 48.7373 34.8282 49.8143 34.4587 51.0848C34.0892 52.3553 34.2283 53.7197 34.8467 54.8894L45.0228 72.681L34.8947 89.7686C34.5538 90.3438 34.3295 90.9805 34.2347 91.6424C34.1398 92.3042 34.1763 92.9783 34.3419 93.626C34.5076 94.2738 34.7992 94.8826 35.2002 95.4177C35.6011 95.9527 36.1035 96.4036 36.6787 96.7445C37.2539 97.0854 37.8906 97.3097 38.5525 97.4045C39.2144 97.4994 39.8884 97.4629 40.5362 97.2973C41.184 97.1316 41.7928 96.84 42.3279 96.439C42.863 96.0381 43.3138 95.5357 43.6547 94.9605L55.2868 75.321C55.7454 74.5473 55.9907 73.6658 55.9978 72.7664C56.0048 71.867 55.7733 70.9819 55.3268 70.2011L43.6947 49.8415Z" fill="url(#paint0_linear_567_286)"/>
<defs>
<linearGradient id="paint0_linear_567_286" x1="71.9989" y1="0.00266388" x2="71.9989" y2="143.999" gradientUnits="userSpaceOnUse">
<stop stop-color="#B1A7FF"/>
<stop offset="0.5" stop-color="#7A9DFF"/>
<stop offset="1" stop-color="#3941FF"/>
</linearGradient>
</defs>
</svg>
