<svg width="144" height="144" viewBox="0 0 132 144" fill="none" xmlns="http://www.w3.org/2000/svg">
<path d="M123.135 36.2174L68.623 4.72148C66.8725 3.70986 64.7126 3.70986 62.9621 4.72148L8.45251 36.2174C6.98101 37.0677 6.07251 38.6401 6.07251 40.3432V103.855C6.07251 105.556 6.98101 107.131 8.45251 107.981L62.9647 139.477C64.7152 140.488 66.8752 140.488 68.6256 139.477L123.138 107.981C124.609 107.131 125.518 105.558 125.518 103.855V40.3432C125.518 38.6427 124.609 37.0677 123.138 36.2174H123.135ZM119.711 42.889L67.0874 134.104C66.7318 134.718 65.7927 134.467 65.7927 133.755V74.0289C65.7927 72.8354 65.1553 71.7315 64.1214 71.1323L12.4371 41.2704C11.8229 40.9145 12.0737 39.9744 12.7851 39.9744H118.032C119.527 39.9744 120.461 41.5956 119.714 42.8916H119.711V42.889Z" fill="black"/>
</svg>
