<svg width="144" height="144" viewBox="0 0 144 144" fill="none" xmlns="http://www.w3.org/2000/svg">
<g clip-path="url(#clip0_567_722)">
<path fill-rule="evenodd" clip-rule="evenodd" d="M129.569 141.66C136.571 140.136 143.999 135.996 143.999 135.996L130.997 125.292C124.572 120.001 119.103 113.647 114.827 106.506C108.919 96.6393 100.756 88.3138 91.0074 82.212L86.2434 79.44C85.4253 78.8908 84.7387 78.1677 84.2326 77.3224C83.7264 76.4771 83.4132 75.5304 83.3154 74.55C83.1941 73.3259 83.5226 72.0996 84.2394 71.1C86.7174 67.608 99.5274 52.41 101.879 50.46C104.897 47.964 108.269 45.888 111.395 43.506C111.839 43.17 112.283 42.834 112.721 42.486C112.739 42.474 112.763 42.462 112.775 42.444C113.777 41.658 114.725 40.812 115.475 39.816C118.193 36.672 118.853 33.888 119.015 32.658C118.649 31.476 117.551 28.824 114.497 25.77C116.411 25.89 118.727 27.402 120.833 29.184C122.243 26.928 123.719 24.546 125.195 22.158C126.185 20.562 124.715 19.368 124.679 19.332H124.673V19.32C124.631 19.278 123.437 17.82 121.847 18.804C118.445 20.904 115.043 23.016 112.013 24.93C112.013 24.93 108.431 24.858 104.183 28.524C103.196 29.3082 102.313 30.2156 101.555 31.224L101.513 31.278C101.165 31.71 100.829 32.16 100.493 32.604C98.1114 35.73 96.0354 39.102 93.5334 42.126C91.5954 44.472 76.3914 57.282 72.8934 59.766C71.895 60.4803 70.6708 60.8066 69.4494 60.684C68.469 60.5862 67.5223 60.273 66.6769 59.7668C65.8316 59.2606 65.1085 58.574 64.5594 57.756L61.7874 52.992C55.6863 43.2431 47.3606 35.0798 37.4934 29.172C30.3552 24.895 24.0032 19.4257 18.7134 13.002L7.99136 0C7.99136 0 3.85736 7.428 2.33936 14.43C4.45136 16.998 9.95936 23.37 16.3794 28.242C9.47936 25.002 4.37936 22.5 0.359362 20.4C-0.258638 24.99 -0.018638 31.92 0.617362 37.296C4.97336 39.198 12.3834 42.132 19.9314 43.692C13.8954 45.108 7.27136 45.36 2.16536 45.264C3.06536 48.588 4.31336 51.978 6.00536 55.392C6.71936 56.97 7.50536 58.512 8.34536 60.012C11.0574 60.762 21.6774 62.31 27.3294 61.038L12.2694 66.42C16.9853 72.2077 22.0848 77.672 27.5334 82.776C39.7194 76.224 42.4974 75.33 51.6414 69.348C36.8394 81.396 32.9934 86.316 28.8414 91.368L25.9434 95.436C24.4434 97.542 23.1294 99.786 22.0434 102.138C18.3834 109.998 13.2234 126.738 13.2234 126.738C12.2994 129.654 14.4354 131.79 17.2674 130.782C17.2674 130.782 34.0074 125.616 41.8674 121.962C44.2194 120.87 46.4634 119.562 48.5754 118.062L52.6374 115.164C53.9994 114.042 55.3554 112.944 56.8434 111.648C56.8434 111.648 67.0734 123.768 77.5914 131.742L82.9674 116.676C81.7014 122.328 83.2434 132.948 83.9874 135.654C85.4994 136.506 87.0414 137.286 88.6194 138.006C92.0334 139.686 95.4234 140.946 98.7474 141.846C98.6514 136.728 98.9034 130.11 100.313 124.074C101.873 131.622 104.813 139.032 106.715 143.388C112.085 144.024 119.021 144.264 123.611 143.646C120.888 138.359 118.272 133.018 115.763 127.626C120.629 134.046 127.007 139.554 129.575 141.666L129.569 141.66Z" fill="black"/>
</g>
<defs>
<clipPath id="clip0_567_722">
<rect width="144" height="144" fill="white"/>
</clipPath>
</defs>
</svg>
