<svg width="207" height="144" viewBox="0 0 207 144" fill="none" xmlns="http://www.w3.org/2000/svg">
<path d="M56.6747 0H28.3369V26.4486H56.6747V0Z" fill="black"/>
<path d="M170.024 0H141.686V26.4486H170.024V0Z" fill="black"/>
<path d="M113.351 88.1587H85.0132V114.607H113.351V88.1587Z" fill="black"/>
<path d="M56.6747 88.1587H28.3369V114.607H56.6747V88.1587Z" fill="black"/>
<path d="M170.024 88.1587H141.686V114.607H170.024V88.1587Z" fill="black"/>
<path d="M85.0125 29.3906H28.3369V55.8393H85.0125V29.3906Z" fill="black"/>
<path d="M85.0136 117.549H0V143.998H85.0136V117.549Z" fill="black"/>
<path d="M198.366 117.549H113.352V143.998H198.366V117.549Z" fill="black"/>
<path d="M170.026 58.7769H28.3369V85.2255H170.026V58.7769Z" fill="black"/>
<path d="M170.027 29.3906H113.352V55.8393H170.027V29.3906Z" fill="black"/>
</svg>
