<svg width="452" height="281" viewBox="0 0 452 281" fill="none" xmlns="http://www.w3.org/2000/svg">
<g clip-path="url(#clip0_3641_7501)">
<path d="M451.33 0H0V281H451.33V0Z" fill="#F4F4F6"/>
<path d="M33.8497 0V281" stroke="#E2E2E6" stroke-width="0.8"/>
<path d="M417.48 0V281" stroke="#E2E2E6" stroke-width="0.8"/>
<path d="M0 31.6125H451.33" stroke="#E2E2E6" stroke-width="0.8"/>
<path d="M0 249.387H451.33" stroke="#E2E2E6" stroke-width="0.8"/>
<rect x="33.5" y="29.5" width="384" height="222" rx="11.5" fill="white"/>
<rect x="33.5" y="29.5" width="384" height="222" rx="11.5" stroke="#E2E0E0"/>
<path d="M147.73 97.5V85.8636H152.389C153.245 85.8636 153.959 85.9905 154.531 86.2443C155.103 86.4981 155.533 86.8504 155.821 87.3011C156.109 87.7481 156.253 88.2633 156.253 88.8466C156.253 89.3011 156.162 89.7008 155.98 90.0455C155.798 90.3864 155.548 90.6667 155.23 90.8864C154.916 91.1023 154.556 91.2557 154.151 91.3466V91.4602C154.594 91.4792 155.009 91.6042 155.395 91.8352C155.785 92.0663 156.101 92.3902 156.344 92.8068C156.586 93.2197 156.707 93.7121 156.707 94.2841C156.707 94.9015 156.554 95.4527 156.247 95.9375C155.944 96.4186 155.495 96.7992 154.901 97.0795C154.306 97.3598 153.573 97.5 152.702 97.5H147.73ZM150.19 95.4886H152.196C152.882 95.4886 153.382 95.358 153.696 95.0966C154.01 94.8314 154.168 94.4792 154.168 94.0398C154.168 93.7178 154.09 93.4337 153.935 93.1875C153.779 92.9413 153.558 92.7481 153.27 92.608C152.986 92.4678 152.647 92.3977 152.253 92.3977H150.19V95.4886ZM150.19 90.733H152.014C152.351 90.733 152.651 90.6742 152.912 90.5568C153.177 90.4356 153.385 90.2652 153.537 90.0455C153.692 89.8258 153.77 89.5625 153.77 89.2557C153.77 88.8352 153.62 88.4962 153.321 88.2386C153.026 87.9811 152.605 87.8523 152.06 87.8523H150.19V90.733ZM163.859 93.7841V88.7727H166.28V97.5H163.956V95.9148H163.865C163.668 96.4261 163.34 96.8371 162.882 97.1477C162.428 97.4583 161.873 97.6136 161.217 97.6136C160.634 97.6136 160.121 97.4811 159.678 97.2159C159.234 96.9508 158.888 96.5739 158.638 96.0852C158.392 95.5966 158.267 95.0114 158.263 94.3295V88.7727H160.683V93.8977C160.687 94.4129 160.825 94.8201 161.098 95.1193C161.371 95.4186 161.736 95.5682 162.195 95.5682C162.486 95.5682 162.759 95.5019 163.013 95.3693C163.267 95.233 163.471 95.0322 163.626 94.767C163.786 94.5019 163.863 94.1742 163.859 93.7841ZM168.216 97.5V88.7727H170.636V97.5H168.216ZM169.432 87.6477C169.072 87.6477 168.763 87.5284 168.506 87.2898C168.252 87.0473 168.125 86.7576 168.125 86.4205C168.125 86.0871 168.252 85.8011 168.506 85.5625C168.763 85.3201 169.072 85.1989 169.432 85.1989C169.792 85.1989 170.098 85.3201 170.352 85.5625C170.61 85.8011 170.739 86.0871 170.739 86.4205C170.739 86.7576 170.61 87.0473 170.352 87.2898C170.098 87.5284 169.792 87.6477 169.432 87.6477ZM174.996 85.8636V97.5H172.575V85.8636H174.996ZM180.151 97.642C179.488 97.642 178.887 97.4716 178.349 97.1307C177.815 96.786 177.391 96.2803 177.077 95.6136C176.766 94.9432 176.611 94.1212 176.611 93.1477C176.611 92.1477 176.772 91.3163 177.094 90.6534C177.416 89.9867 177.844 89.4886 178.378 89.1591C178.916 88.8258 179.505 88.6591 180.145 88.6591C180.634 88.6591 181.041 88.7424 181.366 88.9091C181.696 89.072 181.961 89.2765 182.162 89.5227C182.366 89.7652 182.522 90.0038 182.628 90.2386H182.702V85.8636H185.116V97.5H182.73V96.1023H182.628C182.514 96.3447 182.353 96.5852 182.145 96.8239C181.94 97.0587 181.673 97.2538 181.344 97.4091C181.018 97.5644 180.62 97.642 180.151 97.642ZM180.918 95.7159C181.308 95.7159 181.637 95.6098 181.906 95.3977C182.179 95.1818 182.387 94.8807 182.531 94.4943C182.679 94.108 182.753 93.6553 182.753 93.1364C182.753 92.6174 182.681 92.1667 182.537 91.7841C182.393 91.4015 182.185 91.1061 181.912 90.8977C181.639 90.6894 181.308 90.5852 180.918 90.5852C180.52 90.5852 180.185 90.6932 179.912 90.9091C179.639 91.125 179.433 91.4242 179.293 91.8068C179.152 92.1894 179.082 92.6326 179.082 93.1364C179.082 93.6439 179.152 94.0928 179.293 94.483C179.437 94.8693 179.643 95.1723 179.912 95.392C180.185 95.608 180.52 95.7159 180.918 95.7159ZM195.503 88.7727V90.5909H190.116V88.7727H195.503ZM191.349 97.5V88.142C191.349 87.5095 191.473 86.9848 191.719 86.5682C191.969 86.1515 192.31 85.839 192.741 85.6307C193.173 85.4223 193.664 85.3182 194.213 85.3182C194.584 85.3182 194.923 85.3466 195.23 85.4034C195.541 85.4602 195.772 85.5114 195.923 85.5568L195.491 87.375C195.397 87.3447 195.279 87.3163 195.139 87.2898C195.003 87.2633 194.863 87.25 194.719 87.25C194.363 87.25 194.115 87.3333 193.974 87.5C193.834 87.6629 193.764 87.892 193.764 88.1875V97.5H191.349ZM199.158 97.6648C198.601 97.6648 198.105 97.5682 197.669 97.375C197.233 97.178 196.889 96.8883 196.635 96.5057C196.385 96.1193 196.26 95.6383 196.26 95.0625C196.26 94.5777 196.349 94.1705 196.527 93.8409C196.705 93.5114 196.947 93.2462 197.254 93.0455C197.561 92.8447 197.91 92.6932 198.3 92.5909C198.694 92.4886 199.107 92.4167 199.538 92.375C200.046 92.322 200.455 92.2727 200.766 92.2273C201.076 92.178 201.302 92.1061 201.442 92.0114C201.582 91.9167 201.652 91.7765 201.652 91.5909V91.5568C201.652 91.197 201.538 90.9186 201.311 90.7216C201.088 90.5246 200.769 90.4261 200.357 90.4261C199.921 90.4261 199.574 90.5227 199.317 90.7159C199.059 90.9053 198.889 91.1439 198.805 91.4318L196.567 91.25C196.68 90.7197 196.904 90.2614 197.237 89.875C197.571 89.4848 198 89.1856 198.527 88.9773C199.057 88.7652 199.671 88.6591 200.368 88.6591C200.853 88.6591 201.317 88.7159 201.76 88.8295C202.207 88.9432 202.603 89.1193 202.947 89.358C203.296 89.5966 203.571 89.9034 203.771 90.2784C203.972 90.6496 204.072 91.0947 204.072 91.6136V97.5H201.777V96.2898H201.709C201.569 96.5625 201.381 96.803 201.146 97.0114C200.911 97.2159 200.629 97.3769 200.3 97.4943C199.97 97.608 199.589 97.6648 199.158 97.6648ZM199.851 95.9943C200.207 95.9943 200.521 95.9242 200.794 95.7841C201.067 95.6402 201.281 95.447 201.436 95.2045C201.591 94.9621 201.669 94.6875 201.669 94.3807V93.4545C201.593 93.5038 201.489 93.5492 201.357 93.5909C201.228 93.6288 201.082 93.6648 200.919 93.6989C200.756 93.7292 200.593 93.7576 200.43 93.7841C200.268 93.8068 200.12 93.8277 199.987 93.8466C199.703 93.8883 199.455 93.9545 199.243 94.0455C199.031 94.1364 198.866 94.2595 198.749 94.4148C198.631 94.5663 198.572 94.7557 198.572 94.983C198.572 95.3125 198.692 95.5644 198.93 95.7386C199.173 95.9091 199.48 95.9943 199.851 95.9943ZM213.212 91.2614L210.996 91.3977C210.958 91.2083 210.876 91.0379 210.751 90.8864C210.626 90.7311 210.462 90.608 210.257 90.517C210.056 90.4223 209.816 90.375 209.536 90.375C209.161 90.375 208.844 90.4545 208.587 90.6136C208.329 90.7689 208.2 90.9773 208.2 91.2386C208.2 91.447 208.284 91.6231 208.45 91.767C208.617 91.911 208.903 92.0265 209.308 92.1136L210.888 92.4318C211.736 92.6061 212.369 92.8864 212.786 93.2727C213.202 93.6591 213.411 94.1667 213.411 94.7955C213.411 95.3674 213.242 95.8693 212.905 96.3011C212.571 96.733 212.113 97.0701 211.53 97.3125C210.95 97.5511 210.282 97.6705 209.524 97.6705C208.369 97.6705 207.448 97.4299 206.763 96.9489C206.081 96.464 205.681 95.8049 205.564 94.9716L207.945 94.8466C208.017 95.1989 208.191 95.4678 208.467 95.6534C208.744 95.8352 209.098 95.9261 209.53 95.9261C209.954 95.9261 210.295 95.8447 210.553 95.6818C210.814 95.5152 210.946 95.3011 210.95 95.0398C210.946 94.8201 210.854 94.6402 210.672 94.5C210.49 94.3561 210.21 94.2462 209.831 94.1705L208.32 93.8693C207.467 93.6989 206.833 93.4034 206.416 92.983C206.003 92.5625 205.797 92.0265 205.797 91.375C205.797 90.8144 205.948 90.3314 206.251 89.9261C206.558 89.5208 206.988 89.2083 207.541 88.9886C208.098 88.7689 208.75 88.6591 209.496 88.6591C210.598 88.6591 211.465 88.892 212.098 89.358C212.734 89.8239 213.106 90.4583 213.212 91.2614ZM219.577 88.7727V90.5909H214.321V88.7727H219.577ZM215.514 86.6818H217.935V94.8182C217.935 95.0417 217.969 95.2159 218.037 95.3409C218.105 95.4621 218.2 95.5473 218.321 95.5966C218.446 95.6458 218.59 95.6705 218.753 95.6705C218.866 95.6705 218.98 95.661 219.094 95.642C219.207 95.6193 219.295 95.6023 219.355 95.5909L219.736 97.392C219.615 97.4299 219.444 97.4735 219.224 97.5227C219.005 97.5758 218.738 97.608 218.423 97.6193C217.84 97.642 217.329 97.5644 216.889 97.3864C216.454 97.2083 216.115 96.9318 215.872 96.5568C215.63 96.1818 215.51 95.7083 215.514 95.1364V86.6818ZM225.037 97.6705C224.139 97.6705 223.366 97.4886 222.719 97.125C222.075 96.7576 221.579 96.2386 221.23 95.5682C220.882 94.8939 220.707 94.0966 220.707 93.1761C220.707 92.2784 220.882 91.4905 221.23 90.8125C221.579 90.1345 222.069 89.6061 222.702 89.2273C223.338 88.8485 224.084 88.6591 224.94 88.6591C225.516 88.6591 226.052 88.7519 226.548 88.9375C227.048 89.1193 227.484 89.3939 227.855 89.7614C228.23 90.1288 228.522 90.5909 228.73 91.1477C228.938 91.7008 229.043 92.3485 229.043 93.0909V93.7557H221.673V92.2557H226.764C226.764 91.9072 226.688 91.5985 226.537 91.3295C226.385 91.0606 226.175 90.8504 225.906 90.6989C225.641 90.5436 225.332 90.4659 224.98 90.4659C224.613 90.4659 224.287 90.5511 224.003 90.7216C223.723 90.8883 223.503 91.1136 223.344 91.3977C223.185 91.678 223.103 91.9905 223.099 92.3352V93.7614C223.099 94.1932 223.179 94.5663 223.338 94.8807C223.501 95.1951 223.73 95.4375 224.026 95.608C224.321 95.7784 224.671 95.8636 225.077 95.8636C225.346 95.8636 225.592 95.8258 225.815 95.75C226.039 95.6742 226.23 95.5606 226.389 95.4091C226.548 95.2576 226.67 95.072 226.753 94.8523L228.991 95C228.878 95.5379 228.645 96.0076 228.293 96.4091C227.944 96.8068 227.493 97.1174 226.94 97.3409C226.391 97.5606 225.757 97.6705 225.037 97.6705ZM230.622 97.5V88.7727H232.969V90.2955H233.06C233.219 89.7538 233.486 89.3447 233.861 89.0682C234.236 88.7879 234.668 88.6477 235.156 88.6477C235.277 88.6477 235.408 88.6553 235.548 88.6705C235.688 88.6856 235.812 88.7064 235.918 88.733V90.8807C235.804 90.8466 235.647 90.8163 235.446 90.7898C235.245 90.7633 235.062 90.75 234.895 90.75C234.539 90.75 234.221 90.8277 233.94 90.983C233.664 91.1345 233.444 91.3466 233.281 91.6193C233.122 91.892 233.043 92.2064 233.043 92.5625V97.5H230.622ZM242.594 97.5L240.219 88.7727H242.668L244.02 94.6364H244.099L245.509 88.7727H247.912L249.344 94.6023H249.418L250.747 88.7727H253.19L250.821 97.5H248.259L246.759 92.0114H246.651L245.151 97.5H242.594ZM254.482 97.5V88.7727H256.902V97.5H254.482ZM255.697 87.6477C255.338 87.6477 255.029 87.5284 254.771 87.2898C254.518 87.0473 254.391 86.7576 254.391 86.4205C254.391 86.0871 254.518 85.8011 254.771 85.5625C255.029 85.3201 255.338 85.1989 255.697 85.1989C256.057 85.1989 256.364 85.3201 256.618 85.5625C256.875 85.8011 257.004 86.0871 257.004 86.4205C257.004 86.7576 256.875 87.0473 256.618 87.2898C256.364 87.5284 256.057 87.6477 255.697 87.6477ZM263.483 88.7727V90.5909H258.227V88.7727H263.483ZM259.42 86.6818H261.841V94.8182C261.841 95.0417 261.875 95.2159 261.943 95.3409C262.011 95.4621 262.106 95.5473 262.227 95.5966C262.352 95.6458 262.496 95.6705 262.659 95.6705C262.773 95.6705 262.886 95.661 263 95.642C263.114 95.6193 263.201 95.6023 263.261 95.5909L263.642 97.392C263.521 97.4299 263.35 97.4735 263.131 97.5227C262.911 97.5758 262.644 97.608 262.33 97.6193C261.746 97.642 261.235 97.5644 260.795 97.3864C260.36 97.2083 260.021 96.9318 259.778 96.5568C259.536 96.1818 259.417 95.7083 259.42 95.1364V86.6818ZM267.668 92.4545V97.5H265.247V85.8636H267.599V90.3125H267.702C267.899 89.7973 268.217 89.3939 268.656 89.1023C269.096 88.8068 269.647 88.6591 270.31 88.6591C270.916 88.6591 271.444 88.7917 271.895 89.0568C272.349 89.3182 272.702 89.6951 272.952 90.1875C273.205 90.6761 273.33 91.2614 273.327 91.9432V97.5H270.906V92.375C270.91 91.8371 270.774 91.4186 270.497 91.1193C270.224 90.8201 269.842 90.6705 269.349 90.6705C269.02 90.6705 268.728 90.7405 268.474 90.8807C268.224 91.0208 268.027 91.2254 267.884 91.4943C267.743 91.7595 267.671 92.0795 267.668 92.4545ZM282.878 97.6705C281.995 97.6705 281.232 97.483 280.588 97.108C279.948 96.7292 279.454 96.2027 279.105 95.5284C278.757 94.8504 278.582 94.0644 278.582 93.1705C278.582 92.2689 278.757 91.4811 279.105 90.8068C279.454 90.1288 279.948 89.6023 280.588 89.2273C281.232 88.8485 281.995 88.6591 282.878 88.6591C283.76 88.6591 284.522 88.8485 285.162 89.2273C285.806 89.6023 286.302 90.1288 286.651 90.8068C286.999 91.4811 287.173 92.2689 287.173 93.1705C287.173 94.0644 286.999 94.8504 286.651 95.5284C286.302 96.2027 285.806 96.7292 285.162 97.108C284.522 97.483 283.76 97.6705 282.878 97.6705ZM282.889 95.7955C283.291 95.7955 283.626 95.6818 283.895 95.4545C284.164 95.2235 284.366 94.9091 284.503 94.5114C284.643 94.1136 284.713 93.661 284.713 93.1534C284.713 92.6458 284.643 92.1932 284.503 91.7955C284.366 91.3977 284.164 91.0833 283.895 90.8523C283.626 90.6212 283.291 90.5057 282.889 90.5057C282.484 90.5057 282.143 90.6212 281.866 90.8523C281.594 91.0833 281.387 91.3977 281.247 91.7955C281.111 92.1932 281.043 92.6458 281.043 93.1534C281.043 93.661 281.111 94.1136 281.247 94.5114C281.387 94.9091 281.594 95.2235 281.866 95.4545C282.143 95.6818 282.484 95.7955 282.889 95.7955ZM294.344 93.7841V88.7727H296.764V97.5H294.44V95.9148H294.349C294.152 96.4261 293.825 96.8371 293.366 97.1477C292.912 97.4583 292.357 97.6136 291.702 97.6136C291.118 97.6136 290.605 97.4811 290.162 97.2159C289.719 96.9508 289.372 96.5739 289.122 96.0852C288.876 95.5966 288.751 95.0114 288.747 94.3295V88.7727H291.168V93.8977C291.171 94.4129 291.31 94.8201 291.582 95.1193C291.855 95.4186 292.221 95.5682 292.679 95.5682C292.971 95.5682 293.243 95.5019 293.497 95.3693C293.751 95.233 293.955 95.0322 294.111 94.767C294.27 94.5019 294.348 94.1742 294.344 93.7841ZM298.7 97.5V88.7727H301.047V90.2955H301.138C301.297 89.7538 301.564 89.3447 301.939 89.0682C302.314 88.7879 302.746 88.6477 303.234 88.6477C303.356 88.6477 303.486 88.6553 303.626 88.6705C303.767 88.6856 303.89 88.7064 303.996 88.733V90.8807C303.882 90.8466 303.725 90.8163 303.524 90.7898C303.323 90.7633 303.14 90.75 302.973 90.75C302.617 90.75 302.299 90.8277 302.018 90.983C301.742 91.1345 301.522 91.3466 301.359 91.6193C301.2 91.892 301.121 92.2064 301.121 92.5625V97.5H298.7ZM176.138 119.773V107.773H178.524V109.239H178.632C178.738 109.004 178.892 108.765 179.092 108.523C179.297 108.277 179.562 108.072 179.888 107.909C180.217 107.742 180.626 107.659 181.115 107.659C181.751 107.659 182.339 107.826 182.876 108.159C183.414 108.489 183.844 108.987 184.166 109.653C184.488 110.316 184.649 111.148 184.649 112.148C184.649 113.121 184.492 113.943 184.178 114.614C183.867 115.28 183.443 115.786 182.905 116.131C182.371 116.472 181.772 116.642 181.109 116.642C180.64 116.642 180.24 116.564 179.911 116.409C179.585 116.254 179.318 116.059 179.109 115.824C178.901 115.585 178.742 115.345 178.632 115.102H178.558V119.773H176.138ZM178.507 112.136C178.507 112.655 178.579 113.108 178.723 113.494C178.867 113.881 179.075 114.182 179.348 114.398C179.621 114.61 179.952 114.716 180.342 114.716C180.736 114.716 181.07 114.608 181.342 114.392C181.615 114.172 181.821 113.869 181.962 113.483C182.106 113.093 182.178 112.644 182.178 112.136C182.178 111.633 182.107 111.189 181.967 110.807C181.827 110.424 181.621 110.125 181.348 109.909C181.075 109.693 180.74 109.585 180.342 109.585C179.948 109.585 179.615 109.689 179.342 109.898C179.073 110.106 178.867 110.402 178.723 110.784C178.579 111.167 178.507 111.617 178.507 112.136ZM190.206 116.67C189.323 116.67 188.56 116.483 187.916 116.108C187.276 115.729 186.782 115.203 186.433 114.528C186.085 113.85 185.911 113.064 185.911 112.17C185.911 111.269 186.085 110.481 186.433 109.807C186.782 109.129 187.276 108.602 187.916 108.227C188.56 107.848 189.323 107.659 190.206 107.659C191.089 107.659 191.85 107.848 192.49 108.227C193.134 108.602 193.63 109.129 193.979 109.807C194.327 110.481 194.501 111.269 194.501 112.17C194.501 113.064 194.327 113.85 193.979 114.528C193.63 115.203 193.134 115.729 192.49 116.108C191.85 116.483 191.089 116.67 190.206 116.67ZM190.217 114.795C190.619 114.795 190.954 114.682 191.223 114.455C191.492 114.223 191.695 113.909 191.831 113.511C191.971 113.114 192.041 112.661 192.041 112.153C192.041 111.646 191.971 111.193 191.831 110.795C191.695 110.398 191.492 110.083 191.223 109.852C190.954 109.621 190.619 109.506 190.217 109.506C189.812 109.506 189.471 109.621 189.195 109.852C188.922 110.083 188.715 110.398 188.575 110.795C188.439 111.193 188.371 111.646 188.371 112.153C188.371 112.661 188.439 113.114 188.575 113.511C188.715 113.909 188.922 114.223 189.195 114.455C189.471 114.682 189.812 114.795 190.217 114.795ZM197.578 116.5L195.203 107.773H197.652L199.004 113.636H199.084L200.493 107.773H202.896L204.328 113.602H204.402L205.732 107.773H208.175L205.805 116.5H203.243L201.743 111.011H201.635L200.135 116.5H197.578ZM213.224 116.67C212.327 116.67 211.554 116.489 210.906 116.125C210.262 115.758 209.766 115.239 209.418 114.568C209.069 113.894 208.895 113.097 208.895 112.176C208.895 111.278 209.069 110.491 209.418 109.812C209.766 109.134 210.257 108.606 210.889 108.227C211.526 107.848 212.272 107.659 213.128 107.659C213.704 107.659 214.24 107.752 214.736 107.938C215.236 108.119 215.671 108.394 216.043 108.761C216.418 109.129 216.709 109.591 216.918 110.148C217.126 110.701 217.23 111.348 217.23 112.091V112.756H209.861V111.256H214.952C214.952 110.907 214.876 110.598 214.724 110.33C214.573 110.061 214.363 109.85 214.094 109.699C213.829 109.544 213.52 109.466 213.168 109.466C212.8 109.466 212.474 109.551 212.19 109.722C211.91 109.888 211.69 110.114 211.531 110.398C211.372 110.678 211.291 110.991 211.287 111.335V112.761C211.287 113.193 211.366 113.566 211.526 113.881C211.688 114.195 211.918 114.438 212.213 114.608C212.509 114.778 212.859 114.864 213.264 114.864C213.533 114.864 213.779 114.826 214.003 114.75C214.226 114.674 214.418 114.561 214.577 114.409C214.736 114.258 214.857 114.072 214.94 113.852L217.179 114C217.065 114.538 216.832 115.008 216.48 115.409C216.132 115.807 215.681 116.117 215.128 116.341C214.579 116.561 213.944 116.67 213.224 116.67ZM218.81 116.5V107.773H221.156V109.295H221.247C221.406 108.754 221.673 108.345 222.048 108.068C222.423 107.788 222.855 107.648 223.344 107.648C223.465 107.648 223.596 107.655 223.736 107.67C223.876 107.686 223.999 107.706 224.105 107.733V109.881C223.991 109.847 223.834 109.816 223.634 109.79C223.433 109.763 223.249 109.75 223.082 109.75C222.726 109.75 222.408 109.828 222.128 109.983C221.851 110.134 221.632 110.347 221.469 110.619C221.31 110.892 221.23 111.206 221.23 111.562V116.5H218.81ZM230.487 107.773V109.591H225.101V107.773H230.487ZM226.334 116.5V107.142C226.334 106.509 226.457 105.985 226.703 105.568C226.953 105.152 227.294 104.839 227.726 104.631C228.158 104.422 228.648 104.318 229.197 104.318C229.569 104.318 229.908 104.347 230.214 104.403C230.525 104.46 230.756 104.511 230.908 104.557L230.476 106.375C230.381 106.345 230.264 106.316 230.124 106.29C229.987 106.263 229.847 106.25 229.703 106.25C229.347 106.25 229.099 106.333 228.959 106.5C228.819 106.663 228.749 106.892 228.749 107.188V116.5H226.334ZM237.562 112.784V107.773H239.983V116.5H237.659V114.915H237.568C237.371 115.426 237.044 115.837 236.585 116.148C236.131 116.458 235.576 116.614 234.92 116.614C234.337 116.614 233.824 116.481 233.381 116.216C232.938 115.951 232.591 115.574 232.341 115.085C232.095 114.597 231.97 114.011 231.966 113.33V107.773H234.386V112.898C234.39 113.413 234.528 113.82 234.801 114.119C235.074 114.419 235.439 114.568 235.898 114.568C236.189 114.568 236.462 114.502 236.716 114.369C236.97 114.233 237.174 114.032 237.33 113.767C237.489 113.502 237.566 113.174 237.562 112.784ZM244.339 104.864V116.5H241.919V104.864H244.339ZM252.033 116.5H249.396L253.413 104.864H256.584L260.595 116.5H257.959L255.044 107.523H254.953L252.033 116.5ZM251.868 111.926H258.095V113.847H251.868V111.926ZM261.996 116.5V104.864H266.587C267.469 104.864 268.221 105.032 268.842 105.369C269.464 105.703 269.937 106.167 270.263 106.761C270.592 107.352 270.757 108.034 270.757 108.807C270.757 109.58 270.59 110.261 270.257 110.852C269.924 111.443 269.441 111.903 268.808 112.233C268.179 112.562 267.418 112.727 266.524 112.727H263.598V110.756H266.126C266.6 110.756 266.99 110.674 267.297 110.511C267.607 110.345 267.839 110.116 267.99 109.824C268.145 109.528 268.223 109.189 268.223 108.807C268.223 108.42 268.145 108.083 267.99 107.795C267.839 107.504 267.607 107.278 267.297 107.119C266.986 106.956 266.592 106.875 266.115 106.875H264.456V116.5H261.996ZM274.815 104.864V116.5H272.355V104.864H274.815Z" fill="#525252"/>
<rect x="128" y="140.5" width="195" height="4" rx="2" fill="#E2E2E6"/>
<rect x="151" y="152.5" width="149" height="4" rx="2" fill="#E2E2E6"/>
<rect x="171.5" y="176.5" width="48" height="22" rx="6" fill="#303030"/>
<path d="M186.5 187.5H204.5" stroke="white" stroke-width="2" stroke-linecap="round"/>
<rect x="232.2" y="177.2" width="46.6" height="20.6" rx="5.3" stroke="#C5C5CC" stroke-width="1.4"/>
<path d="M246.5 187.5H264.5" stroke="#C5C5CC" stroke-width="2" stroke-linecap="round"/>
</g>
<defs>
<clipPath id="clip0_3641_7501">
<rect width="451.33" height="281" fill="white"/>
</clipPath>
</defs>
</svg>
