<svg width="452" height="281" viewBox="0 0 452 281" fill="none" xmlns="http://www.w3.org/2000/svg">
<g clip-path="url(#clip0_3464_2566)">
<path d="M451.33 0H0V281H451.33V0Z" fill="#F4F4F6"/>
<path d="M33.8497 0V281" stroke="#E2E2E6" stroke-width="0.8"/>
<path d="M417.48 0V281" stroke="#E2E2E6" stroke-width="0.8"/>
<path d="M0 31.6125H451.33" stroke="#E2E2E6" stroke-width="0.8"/>
<path d="M0 249.387H451.33" stroke="#E2E2E6" stroke-width="0.8"/>
<rect x="33.5" y="29.5" width="384" height="222" rx="11.5" fill="white"/>
<rect x="33.5" y="29.5" width="384" height="222" rx="11.5" stroke="#E2E0E0"/>
<path d="M168.419 56.4375H165.93C165.885 56.1155 165.792 55.8295 165.652 55.5795C165.512 55.3258 165.332 55.1098 165.112 54.9318C164.893 54.7538 164.639 54.6174 164.351 54.5227C164.067 54.428 163.758 54.3807 163.425 54.3807C162.822 54.3807 162.298 54.5303 161.851 54.8295C161.404 55.125 161.057 55.5568 160.811 56.125C160.565 56.6894 160.442 57.375 160.442 58.1818C160.442 59.0114 160.565 59.7083 160.811 60.2727C161.061 60.8371 161.41 61.2633 161.857 61.5511C162.304 61.839 162.821 61.983 163.408 61.983C163.737 61.983 164.042 61.9394 164.322 61.8523C164.607 61.7652 164.858 61.6383 165.078 61.4716C165.298 61.3011 165.48 61.0947 165.624 60.8523C165.771 60.6098 165.874 60.3333 165.93 60.0227L168.419 60.0341C168.355 60.5682 168.194 61.0833 167.936 61.5795C167.682 62.072 167.339 62.5133 166.908 62.9034C166.48 63.2898 165.968 63.5966 165.374 63.8239C164.783 64.0473 164.114 64.1591 163.368 64.1591C162.33 64.1591 161.402 63.9242 160.584 63.4545C159.769 62.9848 159.125 62.3049 158.652 61.4148C158.182 60.5246 157.947 59.447 157.947 58.1818C157.947 56.9129 158.186 55.8333 158.663 54.9432C159.141 54.053 159.788 53.375 160.607 52.9091C161.425 52.4394 162.345 52.2045 163.368 52.2045C164.042 52.2045 164.667 52.2992 165.243 52.4886C165.822 52.678 166.336 52.9545 166.783 53.3182C167.23 53.678 167.593 54.1193 167.874 54.642C168.158 55.1648 168.339 55.7633 168.419 56.4375ZM172.558 58.9545V64H170.138V52.3636H172.49V56.8125H172.592C172.789 56.2973 173.107 55.8939 173.547 55.6023C173.986 55.3068 174.537 55.1591 175.2 55.1591C175.806 55.1591 176.335 55.2917 176.786 55.5568C177.24 55.8182 177.592 56.1951 177.842 56.6875C178.096 57.1761 178.221 57.7614 178.217 58.4432V64H175.797V58.875C175.801 58.3371 175.664 57.9186 175.388 57.6193C175.115 57.3201 174.732 57.1705 174.24 57.1705C173.911 57.1705 173.619 57.2405 173.365 57.3807C173.115 57.5208 172.918 57.7254 172.774 57.9943C172.634 58.2595 172.562 58.5795 172.558 58.9545ZM184.065 64.1705C183.183 64.1705 182.42 63.983 181.776 63.608C181.135 63.2292 180.641 62.7027 180.293 62.0284C179.944 61.3504 179.77 60.5644 179.77 59.6705C179.77 58.7689 179.944 57.9811 180.293 57.3068C180.641 56.6288 181.135 56.1023 181.776 55.7273C182.42 55.3485 183.183 55.1591 184.065 55.1591C184.948 55.1591 185.709 55.3485 186.349 55.7273C186.993 56.1023 187.49 56.6288 187.838 57.3068C188.187 57.9811 188.361 58.7689 188.361 59.6705C188.361 60.5644 188.187 61.3504 187.838 62.0284C187.49 62.7027 186.993 63.2292 186.349 63.608C185.709 63.983 184.948 64.1705 184.065 64.1705ZM184.077 62.2955C184.478 62.2955 184.813 62.1818 185.082 61.9545C185.351 61.7235 185.554 61.4091 185.69 61.0114C185.83 60.6136 185.901 60.161 185.901 59.6534C185.901 59.1458 185.83 58.6932 185.69 58.2955C185.554 57.8977 185.351 57.5833 185.082 57.3523C184.813 57.1212 184.478 57.0057 184.077 57.0057C183.671 57.0057 183.33 57.1212 183.054 57.3523C182.781 57.5833 182.575 57.8977 182.435 58.2955C182.298 58.6932 182.23 59.1458 182.23 59.6534C182.23 60.161 182.298 60.6136 182.435 61.0114C182.575 61.4091 182.781 61.7235 183.054 61.9545C183.33 62.1818 183.671 62.2955 184.077 62.2955ZM193.878 64.1705C192.995 64.1705 192.232 63.983 191.588 63.608C190.948 63.2292 190.454 62.7027 190.105 62.0284C189.757 61.3504 189.582 60.5644 189.582 59.6705C189.582 58.7689 189.757 57.9811 190.105 57.3068C190.454 56.6288 190.948 56.1023 191.588 55.7273C192.232 55.3485 192.995 55.1591 193.878 55.1591C194.76 55.1591 195.522 55.3485 196.162 55.7273C196.806 56.1023 197.302 56.6288 197.651 57.3068C197.999 57.9811 198.173 58.7689 198.173 59.6705C198.173 60.5644 197.999 61.3504 197.651 62.0284C197.302 62.7027 196.806 63.2292 196.162 63.608C195.522 63.983 194.76 64.1705 193.878 64.1705ZM193.889 62.2955C194.291 62.2955 194.626 62.1818 194.895 61.9545C195.164 61.7235 195.366 61.4091 195.503 61.0114C195.643 60.6136 195.713 60.161 195.713 59.6534C195.713 59.1458 195.643 58.6932 195.503 58.2955C195.366 57.8977 195.164 57.5833 194.895 57.3523C194.626 57.1212 194.291 57.0057 193.889 57.0057C193.484 57.0057 193.143 57.1212 192.866 57.3523C192.594 57.5833 192.387 57.8977 192.247 58.2955C192.111 58.6932 192.043 59.1458 192.043 59.6534C192.043 60.161 192.111 60.6136 192.247 61.0114C192.387 61.4091 192.594 61.7235 192.866 61.9545C193.143 62.1818 193.484 62.2955 193.889 62.2955ZM207.009 57.7614L204.793 57.8977C204.755 57.7083 204.673 57.5379 204.548 57.3864C204.423 57.2311 204.259 57.108 204.054 57.017C203.853 56.9223 203.613 56.875 203.332 56.875C202.957 56.875 202.641 56.9545 202.384 57.1136C202.126 57.2689 201.997 57.4773 201.997 57.7386C201.997 57.947 202.08 58.1231 202.247 58.267C202.414 58.411 202.7 58.5265 203.105 58.6136L204.685 58.9318C205.533 59.1061 206.166 59.3864 206.582 59.7727C206.999 60.1591 207.207 60.6667 207.207 61.2955C207.207 61.8674 207.039 62.3693 206.702 62.8011C206.368 63.233 205.91 63.5701 205.327 63.8125C204.747 64.0511 204.079 64.1705 203.321 64.1705C202.166 64.1705 201.245 63.9299 200.56 63.4489C199.878 62.964 199.478 62.3049 199.361 61.4716L201.741 61.3466C201.813 61.6989 201.988 61.9678 202.264 62.1534C202.541 62.3352 202.895 62.4261 203.327 62.4261C203.751 62.4261 204.092 62.3447 204.349 62.1818C204.611 62.0152 204.743 61.8011 204.747 61.5398C204.743 61.3201 204.651 61.1402 204.469 61C204.287 60.8561 204.007 60.7462 203.628 60.6705L202.116 60.3693C201.264 60.1989 200.63 59.9034 200.213 59.483C199.8 59.0625 199.594 58.5265 199.594 57.875C199.594 57.3144 199.745 56.8314 200.048 56.4261C200.355 56.0208 200.785 55.7083 201.338 55.4886C201.895 55.2689 202.546 55.1591 203.293 55.1591C204.395 55.1591 205.262 55.392 205.895 55.858C206.531 56.3239 206.902 56.9583 207.009 57.7614ZM212.709 64.1705C211.811 64.1705 211.038 63.9886 210.391 63.625C209.747 63.2576 209.25 62.7386 208.902 62.0682C208.554 61.3939 208.379 60.5966 208.379 59.6761C208.379 58.7784 208.554 57.9905 208.902 57.3125C209.25 56.6345 209.741 56.1061 210.374 55.7273C211.01 55.3485 211.756 55.1591 212.612 55.1591C213.188 55.1591 213.724 55.2519 214.22 55.4375C214.72 55.6193 215.156 55.8939 215.527 56.2614C215.902 56.6288 216.194 57.0909 216.402 57.6477C216.61 58.2008 216.714 58.8485 216.714 59.5909V60.2557H209.345V58.7557H214.436C214.436 58.4072 214.36 58.0985 214.209 57.8295C214.057 57.5606 213.847 57.3504 213.578 57.1989C213.313 57.0436 213.004 56.9659 212.652 56.9659C212.285 56.9659 211.959 57.0511 211.675 57.2216C211.394 57.3883 211.175 57.6136 211.016 57.8977C210.857 58.178 210.775 58.4905 210.771 58.8352V60.2614C210.771 60.6932 210.851 61.0663 211.01 61.3807C211.173 61.6951 211.402 61.9375 211.697 62.108C211.993 62.2784 212.343 62.3636 212.749 62.3636C213.018 62.3636 213.264 62.3258 213.487 62.25C213.711 62.1742 213.902 62.0606 214.061 61.9091C214.22 61.7576 214.341 61.572 214.425 61.3523L216.663 61.5C216.55 62.0379 216.317 62.5076 215.964 62.9091C215.616 63.3068 215.165 63.6174 214.612 63.8409C214.063 64.0606 213.429 64.1705 212.709 64.1705ZM223.491 67.2727C223.185 67.2727 222.897 67.2481 222.628 67.1989C222.363 67.1534 222.143 67.0947 221.969 67.0227L222.514 65.2159C222.798 65.303 223.054 65.3504 223.281 65.358C223.512 65.3655 223.711 65.3125 223.878 65.1989C224.048 65.0852 224.187 64.892 224.293 64.6193L224.435 64.25L221.304 55.2727H223.849L225.656 61.6818H225.747L227.571 55.2727H230.134L226.741 64.9432C226.579 65.4129 226.357 65.822 226.077 66.1705C225.8 66.5227 225.45 66.7936 225.026 66.983C224.601 67.1761 224.09 67.2727 223.491 67.2727ZM235.034 64.1705C234.152 64.1705 233.388 63.983 232.744 63.608C232.104 63.2292 231.61 62.7027 231.261 62.0284C230.913 61.3504 230.739 60.5644 230.739 59.6705C230.739 58.7689 230.913 57.9811 231.261 57.3068C231.61 56.6288 232.104 56.1023 232.744 55.7273C233.388 55.3485 234.152 55.1591 235.034 55.1591C235.917 55.1591 236.678 55.3485 237.318 55.7273C237.962 56.1023 238.458 56.6288 238.807 57.3068C239.155 57.9811 239.33 58.7689 239.33 59.6705C239.33 60.5644 239.155 61.3504 238.807 62.0284C238.458 62.7027 237.962 63.2292 237.318 63.608C236.678 63.983 235.917 64.1705 235.034 64.1705ZM235.045 62.2955C235.447 62.2955 235.782 62.1818 236.051 61.9545C236.32 61.7235 236.523 61.4091 236.659 61.0114C236.799 60.6136 236.869 60.161 236.869 59.6534C236.869 59.1458 236.799 58.6932 236.659 58.2955C236.523 57.8977 236.32 57.5833 236.051 57.3523C235.782 57.1212 235.447 57.0057 235.045 57.0057C234.64 57.0057 234.299 57.1212 234.023 57.3523C233.75 57.5833 233.544 57.8977 233.403 58.2955C233.267 58.6932 233.199 59.1458 233.199 59.6534C233.199 60.161 233.267 60.6136 233.403 61.0114C233.544 61.4091 233.75 61.7235 234.023 61.9545C234.299 62.1818 234.64 62.2955 235.045 62.2955ZM246.5 60.2841V55.2727H248.92V64H246.597V62.4148H246.506C246.309 62.9261 245.981 63.3371 245.523 63.6477C245.068 63.9583 244.513 64.1136 243.858 64.1136C243.275 64.1136 242.761 63.9811 242.318 63.7159C241.875 63.4508 241.528 63.0739 241.278 62.5852C241.032 62.0966 240.907 61.5114 240.903 60.8295V55.2727H243.324V60.3977C243.328 60.9129 243.466 61.3201 243.739 61.6193C244.011 61.9186 244.377 62.0682 244.835 62.0682C245.127 62.0682 245.4 62.0019 245.653 61.8693C245.907 61.733 246.112 61.5322 246.267 61.267C246.426 61.0019 246.504 60.6742 246.5 60.2841ZM250.857 64V55.2727H253.203V56.7955H253.294C253.453 56.2538 253.72 55.8447 254.095 55.5682C254.47 55.2879 254.902 55.1477 255.391 55.1477C255.512 55.1477 255.643 55.1553 255.783 55.1705C255.923 55.1856 256.046 55.2064 256.152 55.233V57.3807C256.038 57.3466 255.881 57.3163 255.68 57.2898C255.48 57.2633 255.296 57.25 255.129 57.25C254.773 57.25 254.455 57.3277 254.175 57.483C253.898 57.6345 253.679 57.8466 253.516 58.1193C253.357 58.392 253.277 58.7064 253.277 59.0625V64H250.857ZM261.107 67.2727V55.2727H263.493V56.7386H263.601C263.707 56.5038 263.86 56.2652 264.061 56.0227C264.266 55.7765 264.531 55.572 264.857 55.4091C265.186 55.2424 265.595 55.1591 266.084 55.1591C266.72 55.1591 267.307 55.3258 267.845 55.6591C268.383 55.9886 268.813 56.4867 269.135 57.1534C269.457 57.8163 269.618 58.6477 269.618 59.6477C269.618 60.6212 269.461 61.4432 269.146 62.1136C268.836 62.7803 268.411 63.286 267.874 63.6307C267.339 63.9716 266.741 64.142 266.078 64.142C265.608 64.142 265.209 64.0644 264.879 63.9091C264.554 63.7538 264.286 63.5587 264.078 63.3239C263.87 63.0852 263.711 62.8447 263.601 62.6023H263.527V67.2727H261.107ZM263.476 59.6364C263.476 60.1553 263.548 60.608 263.692 60.9943C263.836 61.3807 264.044 61.6818 264.317 61.8977C264.589 62.1098 264.921 62.2159 265.311 62.2159C265.705 62.2159 266.038 62.108 266.311 61.892C266.584 61.6723 266.79 61.3693 266.93 60.983C267.074 60.5928 267.146 60.1439 267.146 59.6364C267.146 59.1326 267.076 58.6894 266.936 58.3068C266.796 57.9242 266.589 57.625 266.317 57.4091C266.044 57.1932 265.709 57.0852 265.311 57.0852C264.917 57.0852 264.584 57.1894 264.311 57.3977C264.042 57.6061 263.836 57.9015 263.692 58.2841C263.548 58.6667 263.476 59.1174 263.476 59.6364ZM273.652 52.3636V64H271.232V52.3636H273.652ZM278.08 64.1648C277.523 64.1648 277.027 64.0682 276.591 63.875C276.155 63.678 275.811 63.3883 275.557 63.0057C275.307 62.6193 275.182 62.1383 275.182 61.5625C275.182 61.0777 275.271 60.6705 275.449 60.3409C275.627 60.0114 275.869 59.7462 276.176 59.5455C276.483 59.3447 276.831 59.1932 277.222 59.0909C277.616 58.9886 278.028 58.9167 278.46 58.875C278.968 58.822 279.377 58.7727 279.688 58.7273C279.998 58.678 280.223 58.6061 280.364 58.5114C280.504 58.4167 280.574 58.2765 280.574 58.0909V58.0568C280.574 57.697 280.46 57.4186 280.233 57.2216C280.009 57.0246 279.691 56.9261 279.278 56.9261C278.843 56.9261 278.496 57.0227 278.239 57.2159C277.981 57.4053 277.811 57.6439 277.727 57.9318L275.489 57.75C275.602 57.2197 275.826 56.7614 276.159 56.375C276.492 55.9848 276.922 55.6856 277.449 55.4773C277.979 55.2652 278.593 55.1591 279.29 55.1591C279.775 55.1591 280.239 55.2159 280.682 55.3295C281.129 55.4432 281.525 55.6193 281.869 55.858C282.218 56.0966 282.492 56.4034 282.693 56.7784C282.894 57.1496 282.994 57.5947 282.994 58.1136V64H280.699V62.7898H280.631C280.491 63.0625 280.303 63.303 280.068 63.5114C279.833 63.7159 279.551 63.8769 279.222 63.9943C278.892 64.108 278.511 64.1648 278.08 64.1648ZM278.773 62.4943C279.129 62.4943 279.443 62.4242 279.716 62.2841C279.989 62.1402 280.203 61.947 280.358 61.7045C280.513 61.4621 280.591 61.1875 280.591 60.8807V59.9545C280.515 60.0038 280.411 60.0492 280.278 60.0909C280.15 60.1288 280.004 60.1648 279.841 60.1989C279.678 60.2292 279.515 60.2576 279.352 60.2841C279.189 60.3068 279.042 60.3277 278.909 60.3466C278.625 60.3883 278.377 60.4545 278.165 60.5455C277.953 60.6364 277.788 60.7595 277.67 60.9148C277.553 61.0663 277.494 61.2557 277.494 61.483C277.494 61.8125 277.614 62.0644 277.852 62.2386C278.095 62.4091 278.402 62.4943 278.773 62.4943ZM287.293 58.9545V64H284.872V55.2727H287.179V56.8125H287.281C287.474 56.3049 287.798 55.9034 288.253 55.608C288.707 55.3087 289.259 55.1591 289.906 55.1591C290.512 55.1591 291.041 55.2917 291.491 55.5568C291.942 55.822 292.293 56.2008 292.543 56.6932C292.793 57.1818 292.918 57.7652 292.918 58.4432V64H290.497V58.875C290.501 58.3409 290.365 57.9242 290.088 57.625C289.812 57.322 289.431 57.1705 288.946 57.1705C288.62 57.1705 288.332 57.2405 288.082 57.3807C287.836 57.5208 287.643 57.7254 287.503 57.9943C287.366 58.2595 287.296 58.5795 287.293 58.9545Z" fill="#525252"/>
<rect x="151" y="84" width="149" height="4" rx="2" fill="#E2E2E6"/>
<rect x="70" y="108.5" width="95" height="119.2" rx="7.5" stroke="#EBEBEF"/>
<path d="M85.2358 123.781C85.2093 123.533 85.0975 123.34 84.9006 123.202C84.7055 123.063 84.4517 122.994 84.1392 122.994C83.9195 122.994 83.7311 123.027 83.5739 123.094C83.4167 123.16 83.2964 123.25 83.2131 123.364C83.1297 123.477 83.0871 123.607 83.0852 123.753C83.0852 123.874 83.1127 123.979 83.1676 124.068C83.2244 124.157 83.3011 124.233 83.3977 124.295C83.4943 124.356 83.6013 124.407 83.7188 124.449C83.8362 124.491 83.9545 124.526 84.0739 124.554L84.6193 124.69C84.839 124.741 85.0502 124.811 85.2528 124.898C85.4574 124.985 85.6402 125.095 85.8011 125.227C85.964 125.36 86.0928 125.52 86.1875 125.707C86.2822 125.895 86.3295 126.115 86.3295 126.366C86.3295 126.707 86.2424 127.008 86.0682 127.267C85.8939 127.525 85.642 127.726 85.3125 127.872C84.9848 128.016 84.5881 128.088 84.1222 128.088C83.6695 128.088 83.2765 128.018 82.9432 127.878C82.6117 127.738 82.3523 127.533 82.1648 127.264C81.9792 126.995 81.8788 126.668 81.8636 126.281H82.9006C82.9157 126.484 82.9782 126.652 83.0881 126.787C83.1979 126.921 83.3409 127.022 83.517 127.088C83.6951 127.154 83.8939 127.188 84.1136 127.188C84.3428 127.188 84.5436 127.153 84.7159 127.085C84.8902 127.015 85.0265 126.919 85.125 126.795C85.2235 126.67 85.2737 126.525 85.2756 126.358C85.2737 126.206 85.2292 126.081 85.142 125.983C85.0549 125.883 84.9328 125.799 84.7756 125.733C84.6203 125.665 84.4384 125.604 84.2301 125.551L83.5682 125.381C83.089 125.258 82.7102 125.071 82.4318 124.821C82.1553 124.569 82.017 124.235 82.017 123.818C82.017 123.475 82.1098 123.175 82.2955 122.918C82.483 122.66 82.7377 122.46 83.0597 122.318C83.3816 122.174 83.7462 122.102 84.1534 122.102C84.5663 122.102 84.928 122.174 85.2386 122.318C85.5511 122.46 85.7964 122.658 85.9744 122.912C86.1525 123.164 86.2443 123.454 86.25 123.781H85.2358ZM89.4027 123.636V124.432H86.8942V123.636H89.4027ZM87.5135 122.591H88.5419V126.688C88.5419 126.826 88.5627 126.932 88.6044 127.006C88.648 127.078 88.7048 127.127 88.7749 127.153C88.8449 127.18 88.9226 127.193 89.0078 127.193C89.0722 127.193 89.1309 127.188 89.1839 127.179C89.2389 127.17 89.2805 127.161 89.3089 127.153L89.4822 127.957C89.4273 127.976 89.3487 127.997 89.2464 128.02C89.1461 128.043 89.023 128.056 88.8771 128.06C88.6196 128.067 88.3875 128.028 88.1811 127.943C87.9747 127.856 87.8108 127.722 87.6896 127.54C87.5703 127.358 87.5116 127.131 87.5135 126.858V122.591ZM91.5185 128.088C91.242 128.088 90.9929 128.039 90.7713 127.94C90.5516 127.84 90.3774 127.692 90.2486 127.497C90.1217 127.302 90.0582 127.062 90.0582 126.776C90.0582 126.529 90.1037 126.326 90.1946 126.165C90.2855 126.004 90.4096 125.875 90.5668 125.778C90.724 125.682 90.901 125.609 91.098 125.56C91.2969 125.509 91.5024 125.472 91.7145 125.449C91.9702 125.422 92.1776 125.399 92.3366 125.378C92.4957 125.355 92.6113 125.321 92.6832 125.276C92.7571 125.228 92.794 125.155 92.794 125.057V125.04C92.794 124.826 92.7306 124.66 92.6037 124.543C92.4768 124.425 92.294 124.366 92.0554 124.366C91.8035 124.366 91.6037 124.421 91.456 124.531C91.3101 124.641 91.2116 124.771 91.1605 124.92L90.2003 124.784C90.276 124.519 90.401 124.297 90.5753 124.119C90.7495 123.939 90.9626 123.805 91.2145 123.716C91.4664 123.625 91.7448 123.58 92.0497 123.58C92.2599 123.58 92.4692 123.604 92.6776 123.653C92.8859 123.703 93.0762 123.784 93.2486 123.898C93.4209 124.009 93.5592 124.162 93.6634 124.355C93.7694 124.548 93.8224 124.79 93.8224 125.08V128H92.8338V127.401H92.7997C92.7372 127.522 92.6491 127.635 92.5355 127.741C92.4238 127.846 92.2827 127.93 92.1122 127.994C91.9437 128.057 91.7457 128.088 91.5185 128.088ZM91.7855 127.332C91.992 127.332 92.1709 127.292 92.3224 127.21C92.474 127.127 92.5904 127.017 92.6719 126.881C92.7552 126.744 92.7969 126.596 92.7969 126.435V125.92C92.7647 125.947 92.7098 125.972 92.6321 125.994C92.5563 126.017 92.4711 126.037 92.3764 126.054C92.2817 126.071 92.188 126.086 92.0952 126.099C92.0024 126.113 91.9219 126.124 91.8537 126.134C91.7003 126.154 91.563 126.188 91.4418 126.236C91.3205 126.283 91.2249 126.349 91.1548 126.435C91.0848 126.518 91.0497 126.626 91.0497 126.759C91.0497 126.948 91.1188 127.091 91.2571 127.188C91.3954 127.284 91.5715 127.332 91.7855 127.332ZM94.8565 128V123.636H95.8537V124.364H95.8991C95.9787 124.112 96.1151 123.918 96.3082 123.781C96.5033 123.643 96.7259 123.574 96.9759 123.574C97.0327 123.574 97.0961 123.577 97.1662 123.582C97.2382 123.586 97.2978 123.593 97.3452 123.602V124.548C97.3016 124.533 97.2325 124.52 97.1378 124.509C97.045 124.495 96.955 124.489 96.8679 124.489C96.6804 124.489 96.5118 124.529 96.3622 124.611C96.2145 124.69 96.098 124.801 96.0128 124.943C95.9276 125.085 95.8849 125.249 95.8849 125.435V128H94.8565ZM100.442 123.636V124.432H97.9332V123.636H100.442ZM98.5526 122.591H99.581V126.688C99.581 126.826 99.6018 126.932 99.6435 127.006C99.687 127.078 99.7438 127.127 99.8139 127.153C99.884 127.18 99.9616 127.193 100.047 127.193C100.111 127.193 100.17 127.188 100.223 127.179C100.278 127.17 100.32 127.161 100.348 127.153L100.521 127.957C100.466 127.976 100.388 127.997 100.286 128.02C100.185 128.043 100.062 128.056 99.9162 128.06C99.6586 128.067 99.4266 128.028 99.2202 127.943C99.0137 127.856 98.8499 127.722 98.7287 127.54C98.6094 127.358 98.5507 127.131 98.5526 126.858V122.591ZM103.187 128.085C102.749 128.085 102.371 127.994 102.053 127.812C101.737 127.629 101.494 127.369 101.323 127.034C101.153 126.697 101.067 126.3 101.067 125.844C101.067 125.395 101.153 125.001 101.323 124.662C101.496 124.321 101.736 124.056 102.045 123.866C102.353 123.675 102.716 123.58 103.133 123.58C103.402 123.58 103.656 123.623 103.894 123.71C104.135 123.795 104.347 123.928 104.531 124.108C104.716 124.288 104.862 124.517 104.968 124.795C105.074 125.072 105.127 125.402 105.127 125.784V126.099H101.55V125.406H104.141C104.139 125.209 104.097 125.034 104.013 124.881C103.93 124.725 103.814 124.603 103.664 124.514C103.516 124.425 103.344 124.381 103.147 124.381C102.937 124.381 102.752 124.432 102.593 124.534C102.434 124.634 102.31 124.767 102.221 124.932C102.134 125.095 102.089 125.274 102.087 125.469V126.074C102.087 126.328 102.134 126.545 102.227 126.727C102.319 126.907 102.449 127.045 102.616 127.142C102.782 127.237 102.978 127.284 103.201 127.284C103.351 127.284 103.486 127.263 103.607 127.222C103.728 127.178 103.834 127.115 103.923 127.031C104.012 126.948 104.079 126.845 104.124 126.722L105.085 126.83C105.024 127.083 104.908 127.305 104.738 127.494C104.569 127.682 104.353 127.828 104.09 127.932C103.827 128.034 103.526 128.085 103.187 128.085ZM105.997 128V123.636H106.994V124.364H107.04C107.119 124.112 107.256 123.918 107.449 123.781C107.644 123.643 107.866 123.574 108.116 123.574C108.173 123.574 108.237 123.577 108.307 123.582C108.379 123.586 108.438 123.593 108.486 123.602V124.548C108.442 124.533 108.373 124.52 108.278 124.509C108.186 124.495 108.096 124.489 108.009 124.489C107.821 124.489 107.652 124.529 107.503 124.611C107.355 124.69 107.239 124.801 107.153 124.943C107.068 125.085 107.026 125.249 107.026 125.435V128H105.997Z" fill="#525252"/>
<path d="M85.1946 152.291V141.382H85.8935V152.291H85.1946ZM86.8778 145.089C86.8494 144.777 86.723 144.534 86.4986 144.361C86.277 144.184 85.9602 144.096 85.5483 144.096C85.2756 144.096 85.0483 144.132 84.8665 144.203C84.6847 144.274 84.5483 144.372 84.4574 144.497C84.3665 144.619 84.3196 144.76 84.3168 144.919C84.3111 145.049 84.3366 145.164 84.3935 145.264C84.4531 145.363 84.5384 145.451 84.6491 145.528C84.7628 145.602 84.8991 145.667 85.0582 145.724C85.2173 145.781 85.3963 145.831 85.5952 145.873L86.3452 146.044C86.777 146.137 87.1577 146.262 87.4872 146.419C87.8196 146.575 88.098 146.761 88.3224 146.977C88.5497 147.193 88.7216 147.441 88.8381 147.723C88.9545 148.004 89.0142 148.319 89.017 148.669C89.0142 149.22 88.875 149.693 88.5994 150.088C88.3239 150.483 87.9276 150.785 87.4105 150.995C86.8963 151.206 86.2756 151.311 85.5483 151.311C84.8182 151.311 84.1818 151.201 83.6392 150.983C83.0966 150.764 82.6747 150.432 82.3736 149.986C82.0724 149.539 81.9176 148.976 81.9091 148.294H83.929C83.946 148.575 84.0213 148.809 84.1548 148.997C84.2884 149.184 84.4716 149.326 84.7045 149.423C84.9403 149.52 85.2131 149.568 85.5227 149.568C85.8068 149.568 86.0483 149.53 86.2472 149.453C86.4489 149.376 86.6037 149.27 86.7116 149.133C86.8196 148.997 86.875 148.841 86.8778 148.664C86.875 148.5 86.8239 148.359 86.7244 148.243C86.625 148.123 86.4716 148.021 86.2642 147.936C86.0597 147.848 85.7983 147.767 85.4801 147.693L84.5682 147.48C83.8125 147.307 83.2173 147.027 82.7827 146.64C82.348 146.251 82.1321 145.726 82.1349 145.064C82.1321 144.524 82.277 144.051 82.5696 143.645C82.8622 143.238 83.267 142.922 83.7841 142.694C84.3011 142.467 84.8906 142.353 85.5526 142.353C86.2287 142.353 86.8153 142.468 87.3125 142.699C87.8125 142.926 88.2003 143.245 88.4759 143.657C88.7514 144.069 88.892 144.547 88.8977 145.089H86.8778ZM94.1009 142.473V151.2H91.9957V144.441H91.9446L89.9929 145.635V143.811L92.1449 142.473H94.1009ZM99.3157 142.353C99.793 142.353 100.249 142.432 100.684 142.588C101.118 142.741 101.506 142.987 101.847 143.325C102.188 143.66 102.456 144.102 102.652 144.65C102.848 145.199 102.946 145.868 102.946 146.657C102.949 147.385 102.864 148.037 102.691 148.613C102.517 149.187 102.269 149.676 101.945 150.079C101.624 150.483 101.238 150.791 100.786 151.004C100.334 151.214 99.8299 151.319 99.2731 151.319C98.6594 151.319 98.1183 151.201 97.6495 150.966C97.1836 150.727 96.81 150.406 96.5288 150.003C96.2504 149.599 96.0842 149.147 96.0302 148.647H98.1055C98.1708 148.937 98.3086 149.156 98.5188 149.304C98.729 149.449 98.9805 149.521 99.2731 149.521C99.8072 149.521 100.206 149.289 100.471 148.826C100.735 148.363 100.867 147.734 100.867 146.939H100.816C100.694 147.2 100.52 147.424 100.296 147.612C100.074 147.799 99.8171 147.943 99.5245 148.042C99.2319 148.142 98.9237 148.191 98.5998 148.191C98.0771 148.191 97.6154 148.072 97.2148 147.834C96.8171 147.595 96.5046 147.267 96.2773 146.849C96.0529 146.432 95.9393 145.954 95.9364 145.417C95.9336 144.815 96.0742 144.284 96.3583 143.824C96.6424 143.361 97.0387 143 97.5472 142.741C98.0558 142.48 98.6452 142.351 99.3157 142.353ZM99.3285 143.973C99.0671 143.973 98.8342 144.034 98.6296 144.156C98.4279 144.278 98.2688 144.443 98.1523 144.65C98.0359 144.858 97.979 145.091 97.9819 145.349C97.9847 145.608 98.043 145.841 98.1566 146.048C98.2731 146.255 98.4308 146.42 98.6296 146.542C98.8313 146.664 99.0614 146.726 99.32 146.726C99.5131 146.726 99.6921 146.69 99.8569 146.619C100.022 146.548 100.165 146.45 100.287 146.325C100.409 146.197 100.505 146.049 100.573 145.882C100.644 145.714 100.678 145.535 100.675 145.345C100.672 145.092 100.613 144.862 100.496 144.655C100.38 144.447 100.219 144.282 100.015 144.16C99.8129 144.035 99.5842 143.973 99.3285 143.973Z" fill="#525252"/>
<path d="M110.287 143.609L108.412 150.575H107.653L109.528 143.609H110.287ZM111.009 149.7V145.336H111.824V146.047H111.878C111.969 145.806 112.117 145.619 112.324 145.484C112.53 145.348 112.777 145.28 113.065 145.28C113.357 145.28 113.601 145.348 113.798 145.484C113.997 145.62 114.144 145.808 114.239 146.047H114.284C114.388 145.814 114.554 145.628 114.781 145.49C115.009 145.35 115.279 145.28 115.594 145.28C115.99 145.28 116.312 145.404 116.562 145.652C116.814 145.9 116.94 146.274 116.94 146.774V149.7H116.091V146.853C116.091 146.558 116.01 146.344 115.849 146.211C115.688 146.079 115.496 146.012 115.273 146.012C114.996 146.012 114.781 146.098 114.628 146.268C114.474 146.437 114.398 146.654 114.398 146.919V149.7H113.551V146.799C113.551 146.563 113.477 146.372 113.33 146.228C113.182 146.084 112.99 146.012 112.753 146.012C112.592 146.012 112.443 146.055 112.307 146.14C112.172 146.224 112.063 146.34 111.98 146.49C111.899 146.639 111.858 146.813 111.858 147.01V149.7H111.009ZM119.917 149.788C119.508 149.788 119.151 149.694 118.846 149.507C118.541 149.319 118.304 149.057 118.136 148.72C117.967 148.383 117.883 147.989 117.883 147.538C117.883 147.085 117.967 146.69 118.136 146.351C118.304 146.012 118.541 145.748 118.846 145.561C119.151 145.373 119.508 145.28 119.917 145.28C120.326 145.28 120.683 145.373 120.988 145.561C121.293 145.748 121.53 146.012 121.698 146.351C121.867 146.69 121.951 147.085 121.951 147.538C121.951 147.989 121.867 148.383 121.698 148.72C121.53 149.057 121.293 149.319 120.988 149.507C120.683 149.694 120.326 149.788 119.917 149.788ZM119.92 149.075C120.185 149.075 120.405 149.005 120.579 148.865C120.753 148.725 120.882 148.538 120.965 148.305C121.05 148.072 121.093 147.816 121.093 147.535C121.093 147.257 121.05 147.001 120.965 146.768C120.882 146.533 120.753 146.345 120.579 146.203C120.405 146.061 120.185 145.99 119.92 145.99C119.653 145.99 119.431 146.061 119.255 146.203C119.081 146.345 118.951 146.533 118.866 146.768C118.782 147.001 118.741 147.257 118.741 147.535C118.741 147.816 118.782 148.072 118.866 148.305C118.951 148.538 119.081 148.725 119.255 148.865C119.431 149.005 119.653 149.075 119.92 149.075Z" fill="#C5C5CC"/>
<path fill-rule="evenodd" clip-rule="evenodd" d="M84.5 163.2C83.3954 163.2 82.5 164.095 82.5 165.2C82.5 166.305 83.3954 167.2 84.5 167.2C85.6046 167.2 86.5 166.305 86.5 165.2C86.5 164.095 85.6046 163.2 84.5 163.2ZM82 165.2C82 163.819 83.1193 162.7 84.5 162.7C85.8807 162.7 87 163.819 87 165.2C87 166.581 85.8807 167.7 84.5 167.7C83.1193 167.7 82 166.581 82 165.2ZM85.4268 164.523C85.5244 164.621 85.5244 164.779 85.4268 164.877L84.4268 165.877C84.3291 165.974 84.1709 165.974 84.0732 165.877L83.4482 165.252C83.3506 165.154 83.3506 164.996 83.4482 164.898C83.5459 164.801 83.7041 164.801 83.8018 164.898L84.25 165.346L85.0732 164.523C85.1709 164.426 85.3291 164.426 85.4268 164.523Z" fill="#C5C5CC"/>
<path d="M91.5 165.2H141.5" stroke="#C5C5CC" stroke-width="1.5" stroke-linecap="round"/>
<path fill-rule="evenodd" clip-rule="evenodd" d="M84.5 174.2C83.3954 174.2 82.5 175.095 82.5 176.2C82.5 177.305 83.3954 178.2 84.5 178.2C85.6046 178.2 86.5 177.305 86.5 176.2C86.5 175.095 85.6046 174.2 84.5 174.2ZM82 176.2C82 174.819 83.1193 173.7 84.5 173.7C85.8807 173.7 87 174.819 87 176.2C87 177.581 85.8807 178.7 84.5 178.7C83.1193 178.7 82 177.581 82 176.2ZM85.4268 175.523C85.5244 175.621 85.5244 175.779 85.4268 175.877L84.4268 176.877C84.3291 176.974 84.1709 176.974 84.0732 176.877L83.4482 176.252C83.3506 176.154 83.3506 175.996 83.4482 175.898C83.5459 175.801 83.7041 175.801 83.8018 175.898L84.25 176.346L85.0732 175.523C85.1709 175.426 85.3291 175.426 85.4268 175.523Z" fill="#C5C5CC"/>
<path d="M91.5 176.2H131.5" stroke="#C5C5CC" stroke-width="1.5" stroke-linecap="round"/>
<path fill-rule="evenodd" clip-rule="evenodd" d="M84.5 185.2C83.3954 185.2 82.5 186.095 82.5 187.2C82.5 188.305 83.3954 189.2 84.5 189.2C85.6046 189.2 86.5 188.305 86.5 187.2C86.5 186.095 85.6046 185.2 84.5 185.2ZM82 187.2C82 185.819 83.1193 184.7 84.5 184.7C85.8807 184.7 87 185.819 87 187.2C87 188.581 85.8807 189.7 84.5 189.7C83.1193 189.7 82 188.581 82 187.2ZM85.4268 186.523C85.5244 186.621 85.5244 186.779 85.4268 186.877L84.4268 187.877C84.3291 187.974 84.1709 187.974 84.0732 187.877L83.4482 187.252C83.3506 187.154 83.3506 186.996 83.4482 186.898C83.5459 186.801 83.7041 186.801 83.8018 186.898L84.25 187.346L85.0732 186.523C85.1709 186.426 85.3291 186.426 85.4268 186.523Z" fill="#C5C5CC"/>
<path d="M91.5 187.2H138.5" stroke="#C5C5CC" stroke-width="1.5" stroke-linecap="round"/>
<rect x="82.2" y="198.9" width="70.6" height="16.6" rx="5.3" stroke="#C5C5CC" stroke-width="1.4"/>
<path d="M108.5 207.2H126.5" stroke="#C5C5CC" stroke-width="2" stroke-linecap="round"/>
<rect x="178" y="109.1" width="95" height="118" rx="7.5" stroke="#EBEBEF"/>
<path d="M190.074 128.6V122.782H192.256C192.703 122.782 193.078 122.865 193.381 123.032C193.686 123.198 193.916 123.428 194.071 123.719C194.228 124.009 194.307 124.339 194.307 124.708C194.307 125.081 194.228 125.412 194.071 125.702C193.914 125.992 193.682 126.22 193.375 126.387C193.068 126.552 192.69 126.634 192.241 126.634H190.795V125.768H192.099C192.361 125.768 192.575 125.722 192.741 125.631C192.908 125.54 193.031 125.415 193.111 125.256C193.192 125.097 193.233 124.914 193.233 124.708C193.233 124.502 193.192 124.32 193.111 124.162C193.031 124.005 192.907 123.883 192.739 123.796C192.572 123.707 192.357 123.662 192.094 123.662H191.128V128.6H190.074ZM195.177 128.6V124.236H196.174V124.964H196.219C196.299 124.712 196.435 124.518 196.629 124.381C196.824 124.243 197.046 124.174 197.296 124.174C197.353 124.174 197.416 124.177 197.487 124.182C197.558 124.186 197.618 124.193 197.665 124.202V125.148C197.622 125.133 197.553 125.12 197.458 125.109C197.365 125.095 197.275 125.089 197.188 125.089C197.001 125.089 196.832 125.129 196.683 125.211C196.535 125.29 196.418 125.401 196.333 125.543C196.248 125.685 196.205 125.849 196.205 126.035V128.6H195.177ZM200.072 128.685C199.646 128.685 199.277 128.591 198.964 128.404C198.652 128.216 198.41 127.954 198.237 127.617C198.067 127.28 197.982 126.886 197.982 126.435C197.982 125.984 198.067 125.59 198.237 125.251C198.41 124.912 198.652 124.648 198.964 124.461C199.277 124.273 199.646 124.18 200.072 124.18C200.499 124.18 200.868 124.273 201.18 124.461C201.493 124.648 201.734 124.912 201.905 125.251C202.077 125.59 202.163 125.984 202.163 126.435C202.163 126.886 202.077 127.28 201.905 127.617C201.734 127.954 201.493 128.216 201.18 128.404C200.868 128.591 200.499 128.685 200.072 128.685ZM200.078 127.861C200.309 127.861 200.502 127.798 200.658 127.671C200.813 127.542 200.929 127.37 201.004 127.154C201.082 126.938 201.121 126.698 201.121 126.432C201.121 126.165 201.082 125.924 201.004 125.708C200.929 125.49 200.813 125.317 200.658 125.188C200.502 125.059 200.309 124.995 200.078 124.995C199.841 124.995 199.644 125.059 199.487 125.188C199.332 125.317 199.215 125.49 199.138 125.708C199.062 125.924 199.024 126.165 199.024 126.432C199.024 126.698 199.062 126.938 199.138 127.154C199.215 127.37 199.332 127.542 199.487 127.671C199.644 127.798 199.841 127.861 200.078 127.861ZM205.246 124.236V125.032H202.667V124.236H205.246ZM203.312 128.6V123.824C203.312 123.531 203.372 123.287 203.494 123.091C203.617 122.896 203.781 122.751 203.988 122.654C204.194 122.557 204.424 122.509 204.675 122.509C204.853 122.509 205.012 122.523 205.15 122.552C205.288 122.58 205.39 122.606 205.457 122.628L205.252 123.424C205.209 123.411 205.154 123.397 205.087 123.384C205.021 123.369 204.947 123.361 204.866 123.361C204.674 123.361 204.539 123.408 204.46 123.501C204.382 123.591 204.343 123.722 204.343 123.893V128.6H203.312ZM207.82 128.685C207.382 128.685 207.004 128.594 206.686 128.412C206.37 128.229 206.126 127.969 205.956 127.634C205.786 127.297 205.7 126.9 205.7 126.444C205.7 125.995 205.786 125.601 205.956 125.262C206.128 124.921 206.369 124.656 206.678 124.466C206.986 124.275 207.349 124.18 207.766 124.18C208.035 124.18 208.288 124.223 208.527 124.31C208.768 124.395 208.98 124.528 209.163 124.708C209.349 124.888 209.495 125.117 209.601 125.395C209.707 125.672 209.76 126.002 209.76 126.384V126.699H206.183V126.006H208.774C208.772 125.809 208.73 125.634 208.646 125.481C208.563 125.325 208.446 125.203 208.297 125.114C208.149 125.025 207.977 124.981 207.78 124.981C207.57 124.981 207.385 125.032 207.226 125.134C207.067 125.234 206.943 125.367 206.854 125.532C206.767 125.695 206.722 125.874 206.72 126.069V126.674C206.72 126.928 206.767 127.145 206.859 127.327C206.952 127.507 207.082 127.645 207.249 127.742C207.415 127.837 207.61 127.884 207.834 127.884C207.983 127.884 208.119 127.863 208.24 127.822C208.361 127.778 208.466 127.715 208.555 127.631C208.644 127.548 208.712 127.445 208.757 127.322L209.717 127.43C209.657 127.683 209.541 127.905 209.371 128.094C209.202 128.282 208.986 128.428 208.723 128.532C208.46 128.634 208.159 128.685 207.82 128.685ZM214.079 125.39L213.141 125.492C213.115 125.397 213.068 125.308 213.002 125.225C212.938 125.142 212.851 125.074 212.741 125.023C212.631 124.972 212.496 124.947 212.337 124.947C212.123 124.947 211.943 124.993 211.798 125.086C211.654 125.179 211.583 125.299 211.585 125.447C211.583 125.573 211.629 125.677 211.724 125.756C211.82 125.836 211.979 125.901 212.201 125.952L212.945 126.111C213.358 126.2 213.665 126.341 213.866 126.535C214.068 126.728 214.171 126.981 214.173 127.293C214.171 127.568 214.09 127.81 213.931 128.02C213.774 128.229 213.555 128.392 213.275 128.509C212.995 128.627 212.673 128.685 212.309 128.685C211.775 128.685 211.345 128.573 211.019 128.35C210.693 128.125 210.499 127.811 210.437 127.41L211.44 127.313C211.485 127.51 211.582 127.659 211.729 127.759C211.877 127.859 212.069 127.91 212.306 127.91C212.55 127.91 212.746 127.859 212.894 127.759C213.044 127.659 213.119 127.535 213.119 127.387C213.119 127.262 213.07 127.159 212.974 127.077C212.879 126.996 212.731 126.933 212.531 126.89L211.786 126.734C211.368 126.646 211.058 126.5 210.857 126.293C210.656 126.085 210.557 125.822 210.559 125.503C210.557 125.234 210.63 125.002 210.778 124.805C210.927 124.606 211.135 124.452 211.4 124.344C211.667 124.234 211.975 124.18 212.323 124.18C212.835 124.18 213.237 124.288 213.531 124.506C213.826 124.724 214.009 125.019 214.079 125.39ZM218.469 125.39L217.532 125.492C217.505 125.397 217.459 125.308 217.393 125.225C217.328 125.142 217.241 125.074 217.131 125.023C217.022 124.972 216.887 124.947 216.728 124.947C216.514 124.947 216.334 124.993 216.188 125.086C216.044 125.179 215.973 125.299 215.975 125.447C215.973 125.573 216.02 125.677 216.114 125.756C216.211 125.836 216.37 125.901 216.592 125.952L217.336 126.111C217.749 126.2 218.056 126.341 218.256 126.535C218.459 126.728 218.561 126.981 218.563 127.293C218.561 127.568 218.481 127.81 218.322 128.02C218.165 128.229 217.946 128.392 217.665 128.509C217.385 128.627 217.063 128.685 216.7 128.685C216.165 128.685 215.736 128.573 215.41 128.35C215.084 128.125 214.89 127.811 214.827 127.41L215.83 127.313C215.876 127.51 215.972 127.659 216.12 127.759C216.268 127.859 216.46 127.91 216.697 127.91C216.941 127.91 217.137 127.859 217.285 127.759C217.434 127.659 217.509 127.535 217.509 127.387C217.509 127.262 217.461 127.159 217.364 127.077C217.27 126.996 217.122 126.933 216.921 126.89L216.177 126.734C215.758 126.646 215.449 126.5 215.248 126.293C215.047 126.085 214.948 125.822 214.95 125.503C214.948 125.234 215.021 125.002 215.168 124.805C215.318 124.606 215.525 124.452 215.79 124.344C216.058 124.234 216.365 124.18 216.714 124.18C217.225 124.18 217.628 124.288 217.921 124.506C218.217 124.724 218.399 125.019 218.469 125.39ZM219.411 128.6V124.236H220.44V128.6H219.411ZM219.928 123.617C219.765 123.617 219.625 123.563 219.508 123.455C219.39 123.345 219.332 123.214 219.332 123.06C219.332 122.905 219.39 122.773 219.508 122.665C219.625 122.555 219.765 122.501 219.928 122.501C220.093 122.501 220.233 122.555 220.349 122.665C220.466 122.773 220.525 122.905 220.525 123.06C220.525 123.214 220.466 123.345 220.349 123.455C220.233 123.563 220.093 123.617 219.928 123.617ZM223.401 128.685C222.974 128.685 222.605 128.591 222.293 128.404C221.98 128.216 221.738 127.954 221.565 127.617C221.395 127.28 221.31 126.886 221.31 126.435C221.31 125.984 221.395 125.59 221.565 125.251C221.738 124.912 221.98 124.648 222.293 124.461C222.605 124.273 222.974 124.18 223.401 124.18C223.827 124.18 224.196 124.273 224.509 124.461C224.821 124.648 225.063 124.912 225.233 125.251C225.405 125.59 225.491 125.984 225.491 126.435C225.491 126.886 225.405 127.28 225.233 127.617C225.063 127.954 224.821 128.216 224.509 128.404C224.196 128.591 223.827 128.685 223.401 128.685ZM223.406 127.861C223.637 127.861 223.83 127.798 223.986 127.671C224.141 127.542 224.257 127.37 224.332 127.154C224.41 126.938 224.449 126.698 224.449 126.432C224.449 126.165 224.41 125.924 224.332 125.708C224.257 125.49 224.141 125.317 223.986 125.188C223.83 125.059 223.637 124.995 223.406 124.995C223.17 124.995 222.973 125.059 222.815 125.188C222.66 125.317 222.544 125.49 222.466 125.708C222.39 125.924 222.352 126.165 222.352 126.432C222.352 126.698 222.39 126.938 222.466 127.154C222.544 127.37 222.66 127.542 222.815 127.671C222.973 127.798 223.17 127.861 223.406 127.861ZM227.393 126.043V128.6H226.364V124.236H227.347V124.978H227.398C227.499 124.734 227.659 124.539 227.879 124.395C228.1 124.252 228.374 124.18 228.7 124.18C229.001 124.18 229.263 124.244 229.487 124.373C229.712 124.502 229.886 124.688 230.009 124.932C230.134 125.177 230.196 125.473 230.194 125.822V128.6H229.165V125.981C229.165 125.689 229.09 125.461 228.938 125.296C228.789 125.131 228.581 125.049 228.316 125.049C228.136 125.049 227.976 125.089 227.836 125.168C227.698 125.246 227.589 125.359 227.509 125.506C227.432 125.654 227.393 125.833 227.393 126.043ZM232.495 128.688C232.219 128.688 231.969 128.639 231.748 128.54C231.528 128.44 231.354 128.292 231.225 128.097C231.098 127.902 231.035 127.662 231.035 127.376C231.035 127.129 231.08 126.926 231.171 126.765C231.262 126.604 231.386 126.475 231.543 126.378C231.701 126.282 231.878 126.209 232.075 126.16C232.273 126.109 232.479 126.072 232.691 126.049C232.947 126.022 233.154 125.999 233.313 125.978C233.472 125.955 233.588 125.921 233.66 125.876C233.734 125.828 233.771 125.755 233.771 125.657V125.64C233.771 125.426 233.707 125.26 233.58 125.143C233.453 125.025 233.271 124.966 233.032 124.966C232.78 124.966 232.58 125.021 232.433 125.131C232.287 125.241 232.188 125.371 232.137 125.52L231.177 125.384C231.253 125.119 231.378 124.897 231.552 124.719C231.726 124.539 231.939 124.405 232.191 124.316C232.443 124.225 232.721 124.18 233.026 124.18C233.237 124.18 233.446 124.204 233.654 124.253C233.862 124.303 234.053 124.384 234.225 124.498C234.397 124.609 234.536 124.762 234.64 124.955C234.746 125.148 234.799 125.39 234.799 125.68V128.6H233.81V128.001H233.776C233.714 128.122 233.626 128.235 233.512 128.341C233.4 128.446 233.259 128.53 233.089 128.594C232.92 128.657 232.722 128.688 232.495 128.688ZM232.762 127.932C232.969 127.932 233.147 127.892 233.299 127.81C233.451 127.727 233.567 127.617 233.648 127.481C233.732 127.344 233.773 127.196 233.773 127.035V126.52C233.741 126.547 233.686 126.572 233.609 126.594C233.533 126.617 233.448 126.637 233.353 126.654C233.258 126.671 233.165 126.686 233.072 126.699C232.979 126.713 232.898 126.724 232.83 126.734C232.677 126.754 232.54 126.788 232.418 126.836C232.297 126.883 232.201 126.949 232.131 127.035C232.061 127.118 232.026 127.226 232.026 127.359C232.026 127.548 232.095 127.691 232.234 127.787C232.372 127.884 232.548 127.932 232.762 127.932ZM236.862 122.782V128.6H235.833V122.782H236.862Z" fill="#525252"/>
<path d="M193.195 151.691V140.782H193.893V151.691H193.195ZM194.878 144.489C194.849 144.177 194.723 143.934 194.499 143.761C194.277 143.584 193.96 143.496 193.548 143.496C193.276 143.496 193.048 143.532 192.866 143.603C192.685 143.674 192.548 143.772 192.457 143.897C192.366 144.019 192.32 144.16 192.317 144.319C192.311 144.449 192.337 144.564 192.393 144.664C192.453 144.763 192.538 144.851 192.649 144.928C192.763 145.002 192.899 145.067 193.058 145.124C193.217 145.181 193.396 145.231 193.595 145.273L194.345 145.444C194.777 145.538 195.158 145.663 195.487 145.819C195.82 145.975 196.098 146.161 196.322 146.377C196.55 146.593 196.722 146.841 196.838 147.123C196.955 147.404 197.014 147.719 197.017 148.069C197.014 148.62 196.875 149.093 196.599 149.488C196.324 149.883 195.928 150.185 195.411 150.395C194.896 150.606 194.276 150.711 193.548 150.711C192.818 150.711 192.182 150.601 191.639 150.383C191.097 150.164 190.675 149.832 190.374 149.386C190.072 148.939 189.918 148.376 189.909 147.694H191.929C191.946 147.975 192.021 148.209 192.155 148.397C192.288 148.584 192.472 148.726 192.705 148.823C192.94 148.92 193.213 148.968 193.523 148.968C193.807 148.968 194.048 148.93 194.247 148.853C194.449 148.776 194.604 148.67 194.712 148.533C194.82 148.397 194.875 148.241 194.878 148.064C194.875 147.9 194.824 147.759 194.724 147.643C194.625 147.523 194.472 147.421 194.264 147.336C194.06 147.248 193.798 147.167 193.48 147.093L192.568 146.88C191.812 146.707 191.217 146.427 190.783 146.04C190.348 145.651 190.132 145.126 190.135 144.464C190.132 143.924 190.277 143.451 190.57 143.045C190.862 142.638 191.267 142.322 191.784 142.094C192.301 141.867 192.891 141.753 193.553 141.753C194.229 141.753 194.815 141.868 195.312 142.099C195.812 142.326 196.2 142.645 196.476 143.057C196.751 143.469 196.892 143.947 196.898 144.489H194.878ZM197.959 149.151V147.506L201.534 141.873H202.996V144.106H202.148L200.055 147.421V147.489H205.233V149.151H197.959ZM202.173 150.6V148.648L202.216 147.928V141.873H204.189V150.6H202.173ZM209.624 141.753C210.102 141.753 210.558 141.832 210.992 141.988C211.427 142.141 211.815 142.387 212.156 142.725C212.496 143.06 212.765 143.502 212.961 144.05C213.157 144.599 213.255 145.268 213.255 146.057C213.258 146.785 213.173 147.437 212.999 148.013C212.826 148.587 212.577 149.076 212.254 149.479C211.933 149.883 211.546 150.191 211.094 150.404C210.643 150.614 210.138 150.719 209.582 150.719C208.968 150.719 208.427 150.601 207.958 150.366C207.492 150.127 207.119 149.806 206.837 149.403C206.559 148.999 206.393 148.547 206.339 148.047H208.414C208.479 148.337 208.617 148.556 208.827 148.704C209.038 148.849 209.289 148.921 209.582 148.921C210.116 148.921 210.515 148.689 210.779 148.226C211.043 147.763 211.175 147.134 211.175 146.339H211.124C211.002 146.6 210.829 146.824 210.604 147.012C210.383 147.199 210.126 147.343 209.833 147.442C209.54 147.542 209.232 147.591 208.908 147.591C208.386 147.591 207.924 147.472 207.523 147.234C207.126 146.995 206.813 146.667 206.586 146.249C206.362 145.832 206.248 145.354 206.245 144.817C206.242 144.215 206.383 143.684 206.667 143.224C206.951 142.761 207.347 142.4 207.856 142.141C208.364 141.88 208.954 141.751 209.624 141.753ZM209.637 143.373C209.376 143.373 209.143 143.434 208.938 143.556C208.737 143.678 208.577 143.843 208.461 144.05C208.344 144.258 208.288 144.491 208.29 144.749C208.293 145.008 208.352 145.241 208.465 145.448C208.582 145.655 208.739 145.82 208.938 145.942C209.14 146.064 209.37 146.126 209.629 146.126C209.822 146.126 210.001 146.09 210.165 146.019C210.33 145.948 210.474 145.85 210.596 145.725C210.718 145.597 210.813 145.449 210.881 145.282C210.952 145.114 210.987 144.935 210.984 144.745C210.981 144.492 210.921 144.262 210.805 144.055C210.688 143.847 210.528 143.682 210.323 143.56C210.121 143.435 209.893 143.373 209.637 143.373Z" fill="#525252"/>
<path d="M221.287 143.009L219.412 149.975H218.653L220.528 143.009H221.287ZM222.009 149.1V144.736H222.824V145.447H222.878C222.969 145.206 223.117 145.019 223.324 144.884C223.53 144.748 223.777 144.68 224.065 144.68C224.357 144.68 224.601 144.748 224.798 144.884C224.997 145.02 225.144 145.208 225.239 145.447H225.284C225.388 145.214 225.554 145.028 225.781 144.89C226.009 144.75 226.279 144.68 226.594 144.68C226.99 144.68 227.312 144.804 227.562 145.052C227.814 145.3 227.94 145.674 227.94 146.174V149.1H227.091V146.253C227.091 145.958 227.01 145.744 226.849 145.611C226.688 145.479 226.496 145.413 226.273 145.413C225.996 145.413 225.781 145.498 225.628 145.668C225.474 145.837 225.398 146.054 225.398 146.319V149.1H224.551V146.199C224.551 145.963 224.477 145.772 224.33 145.628C224.182 145.484 223.99 145.413 223.753 145.413C223.592 145.413 223.443 145.455 223.307 145.54C223.172 145.624 223.063 145.74 222.98 145.89C222.899 146.039 222.858 146.213 222.858 146.41V149.1H222.009ZM230.917 149.188C230.508 149.188 230.151 149.094 229.846 148.907C229.541 148.719 229.304 148.457 229.136 148.12C228.967 147.783 228.883 147.389 228.883 146.938C228.883 146.485 228.967 146.09 229.136 145.751C229.304 145.412 229.541 145.148 229.846 144.961C230.151 144.773 230.508 144.68 230.917 144.68C231.326 144.68 231.683 144.773 231.988 144.961C232.293 145.148 232.53 145.412 232.698 145.751C232.867 146.09 232.951 146.485 232.951 146.938C232.951 147.389 232.867 147.783 232.698 148.12C232.53 148.457 232.293 148.719 231.988 148.907C231.683 149.094 231.326 149.188 230.917 149.188ZM230.92 148.475C231.185 148.475 231.405 148.405 231.579 148.265C231.753 148.125 231.882 147.938 231.965 147.705C232.05 147.472 232.093 147.216 232.093 146.935C232.093 146.657 232.05 146.401 231.965 146.168C231.882 145.933 231.753 145.745 231.579 145.603C231.405 145.461 231.185 145.39 230.92 145.39C230.653 145.39 230.431 145.461 230.255 145.603C230.081 145.745 229.951 145.933 229.866 146.168C229.782 146.401 229.741 146.657 229.741 146.935C229.741 147.216 229.782 147.472 229.866 147.705C229.951 147.938 230.081 148.125 230.255 148.265C230.431 148.405 230.653 148.475 230.92 148.475Z" fill="#C5C5CC"/>
<path fill-rule="evenodd" clip-rule="evenodd" d="M192.5 162.6C191.395 162.6 190.5 163.495 190.5 164.6C190.5 165.705 191.395 166.6 192.5 166.6C193.605 166.6 194.5 165.705 194.5 164.6C194.5 163.495 193.605 162.6 192.5 162.6ZM190 164.6C190 163.219 191.119 162.1 192.5 162.1C193.881 162.1 195 163.219 195 164.6C195 165.981 193.881 167.1 192.5 167.1C191.119 167.1 190 165.981 190 164.6ZM193.427 163.923C193.524 164.021 193.524 164.179 193.427 164.277L192.427 165.277C192.329 165.374 192.171 165.374 192.073 165.277L191.448 164.652C191.351 164.554 191.351 164.396 191.448 164.298C191.546 164.201 191.704 164.201 191.802 164.298L192.25 164.746L193.073 163.923C193.171 163.826 193.329 163.826 193.427 163.923Z" fill="#C5C5CC"/>
<path d="M199.5 164.6H249.5" stroke="#C5C5CC" stroke-width="1.5" stroke-linecap="round"/>
<path fill-rule="evenodd" clip-rule="evenodd" d="M192.5 173.6C191.395 173.6 190.5 174.495 190.5 175.6C190.5 176.705 191.395 177.6 192.5 177.6C193.605 177.6 194.5 176.705 194.5 175.6C194.5 174.495 193.605 173.6 192.5 173.6ZM190 175.6C190 174.219 191.119 173.1 192.5 173.1C193.881 173.1 195 174.219 195 175.6C195 176.981 193.881 178.1 192.5 178.1C191.119 178.1 190 176.981 190 175.6ZM193.427 174.923C193.524 175.021 193.524 175.179 193.427 175.277L192.427 176.277C192.329 176.374 192.171 176.374 192.073 176.277L191.448 175.652C191.351 175.554 191.351 175.396 191.448 175.298C191.546 175.201 191.704 175.201 191.802 175.298L192.25 175.746L193.073 174.923C193.171 174.826 193.329 174.826 193.427 174.923Z" fill="#C5C5CC"/>
<path d="M199.5 175.6H239.5" stroke="#C5C5CC" stroke-width="1.5" stroke-linecap="round"/>
<path fill-rule="evenodd" clip-rule="evenodd" d="M192.5 184.6C191.395 184.6 190.5 185.495 190.5 186.6C190.5 187.705 191.395 188.6 192.5 188.6C193.605 188.6 194.5 187.705 194.5 186.6C194.5 185.495 193.605 184.6 192.5 184.6ZM190 186.6C190 185.219 191.119 184.1 192.5 184.1C193.881 184.1 195 185.219 195 186.6C195 187.981 193.881 189.1 192.5 189.1C191.119 189.1 190 187.981 190 186.6ZM193.427 185.923C193.524 186.021 193.524 186.179 193.427 186.277L192.427 187.277C192.329 187.374 192.171 187.374 192.073 187.277L191.448 186.652C191.351 186.554 191.351 186.396 191.448 186.298C191.546 186.201 191.704 186.201 191.802 186.298L192.25 186.746L193.073 185.923C193.171 185.826 193.329 185.826 193.427 185.923Z" fill="#C5C5CC"/>
<path d="M199.5 186.6H246.5" stroke="#C5C5CC" stroke-width="1.5" stroke-linecap="round"/>
<rect x="190.2" y="198.3" width="70.6" height="16.6" rx="5.3" stroke="#C5C5CC" stroke-width="1.4"/>
<path d="M216.5 206.6H234.5" stroke="#C5C5CC" stroke-width="2" stroke-linecap="round"/>
<rect x="286" y="109.1" width="95" height="118" rx="7.5" stroke="#EBEBEF"/>
<path d="M298.074 128.6V122.782H301.858V123.665H299.128V125.245H301.662V126.128H299.128V127.716H301.881V128.6H298.074ZM303.916 126.043V128.6H302.888V124.236H303.871V124.978H303.922C304.022 124.734 304.182 124.539 304.402 124.395C304.624 124.252 304.897 124.18 305.223 124.18C305.524 124.18 305.786 124.244 306.01 124.373C306.235 124.502 306.41 124.688 306.533 124.932C306.658 125.177 306.719 125.473 306.717 125.822V128.6H305.689V125.981C305.689 125.689 305.613 125.461 305.462 125.296C305.312 125.131 305.105 125.049 304.839 125.049C304.66 125.049 304.5 125.089 304.359 125.168C304.221 125.246 304.112 125.359 304.033 125.506C303.955 125.654 303.916 125.833 303.916 126.043ZM309.942 124.236V125.032H307.433V124.236H309.942ZM308.053 123.191H309.081V127.287C309.081 127.426 309.102 127.532 309.143 127.606C309.187 127.678 309.244 127.727 309.314 127.753C309.384 127.78 309.462 127.793 309.547 127.793C309.611 127.793 309.67 127.788 309.723 127.779C309.778 127.77 309.82 127.761 309.848 127.753L310.021 128.557C309.966 128.576 309.888 128.597 309.786 128.62C309.685 128.643 309.562 128.656 309.416 128.66C309.159 128.667 308.927 128.628 308.72 128.543C308.514 128.456 308.35 128.322 308.229 128.14C308.109 127.958 308.051 127.731 308.053 127.458V123.191ZM312.687 128.685C312.249 128.685 311.871 128.594 311.553 128.412C311.237 128.229 310.994 127.969 310.823 127.634C310.653 127.297 310.567 126.9 310.567 126.444C310.567 125.995 310.653 125.601 310.823 125.262C310.996 124.921 311.236 124.656 311.545 124.466C311.853 124.275 312.216 124.18 312.633 124.18C312.902 124.18 313.156 124.223 313.394 124.31C313.635 124.395 313.847 124.528 314.031 124.708C314.216 124.888 314.362 125.117 314.468 125.395C314.574 125.672 314.627 126.002 314.627 126.384V126.699H311.05V126.006H313.641C313.639 125.809 313.597 125.634 313.513 125.481C313.43 125.325 313.314 125.203 313.164 125.114C313.016 125.025 312.844 124.981 312.647 124.981C312.437 124.981 312.252 125.032 312.093 125.134C311.934 125.234 311.81 125.367 311.721 125.532C311.634 125.695 311.589 125.874 311.587 126.069V126.674C311.587 126.928 311.634 127.145 311.727 127.327C311.819 127.507 311.949 127.645 312.116 127.742C312.282 127.837 312.478 127.884 312.701 127.884C312.851 127.884 312.986 127.863 313.107 127.822C313.228 127.778 313.334 127.715 313.423 127.631C313.512 127.548 313.579 127.445 313.624 127.322L314.585 127.43C314.524 127.683 314.408 127.905 314.238 128.094C314.069 128.282 313.853 128.428 313.59 128.532C313.327 128.634 313.026 128.685 312.687 128.685ZM315.497 128.6V124.236H316.494V124.964H316.54C316.619 124.712 316.756 124.518 316.949 124.381C317.144 124.243 317.366 124.174 317.616 124.174C317.673 124.174 317.737 124.177 317.807 124.182C317.879 124.186 317.938 124.193 317.986 124.202V125.148C317.942 125.133 317.873 125.12 317.778 125.109C317.686 125.095 317.596 125.089 317.509 125.089C317.321 125.089 317.152 125.129 317.003 125.211C316.855 125.29 316.739 125.401 316.653 125.543C316.568 125.685 316.526 125.849 316.526 126.035V128.6H315.497ZM318.669 130.236V124.236H319.68V124.958H319.74C319.793 124.852 319.868 124.739 319.964 124.62C320.061 124.499 320.192 124.395 320.357 124.31C320.521 124.223 320.732 124.18 320.987 124.18C321.324 124.18 321.628 124.266 321.899 124.438C322.172 124.609 322.388 124.861 322.547 125.197C322.708 125.53 322.788 125.939 322.788 126.424C322.788 126.903 322.71 127.31 322.553 127.645C322.395 127.981 322.181 128.236 321.911 128.412C321.64 128.589 321.333 128.677 320.99 128.677C320.74 128.677 320.533 128.635 320.368 128.552C320.203 128.468 320.071 128.368 319.97 128.251C319.872 128.131 319.795 128.019 319.74 127.912H319.697V130.236H318.669ZM319.678 126.418C319.678 126.7 319.717 126.948 319.797 127.16C319.878 127.372 319.995 127.537 320.146 127.657C320.3 127.774 320.485 127.833 320.703 127.833C320.93 127.833 321.121 127.772 321.274 127.651C321.428 127.528 321.543 127.36 321.621 127.148C321.7 126.934 321.74 126.691 321.74 126.418C321.74 126.147 321.701 125.907 321.624 125.697C321.546 125.486 321.43 125.322 321.277 125.202C321.124 125.083 320.932 125.023 320.703 125.023C320.483 125.023 320.297 125.081 320.143 125.197C319.99 125.312 319.874 125.474 319.794 125.682C319.716 125.891 319.678 126.136 319.678 126.418ZM323.669 128.6V124.236H324.666V124.964H324.712C324.791 124.712 324.928 124.518 325.121 124.381C325.316 124.243 325.538 124.174 325.788 124.174C325.845 124.174 325.909 124.177 325.979 124.182C326.051 124.186 326.11 124.193 326.158 124.202V125.148C326.114 125.133 326.045 125.12 325.95 125.109C325.857 125.095 325.768 125.089 325.68 125.089C325.493 125.089 325.324 125.129 325.175 125.211C325.027 125.29 324.911 125.401 324.825 125.543C324.74 125.685 324.697 125.849 324.697 126.035V128.6H323.669ZM326.841 128.6V124.236H327.869V128.6H326.841ZM327.358 123.617C327.195 123.617 327.055 123.563 326.938 123.455C326.82 123.345 326.761 123.214 326.761 123.06C326.761 122.905 326.82 122.773 326.938 122.665C327.055 122.555 327.195 122.501 327.358 122.501C327.523 122.501 327.663 122.555 327.778 122.665C327.896 122.773 327.955 122.905 327.955 123.06C327.955 123.214 327.896 123.345 327.778 123.455C327.663 123.563 327.523 123.617 327.358 123.617ZM332.376 125.39L331.438 125.492C331.412 125.397 331.365 125.308 331.299 125.225C331.235 125.142 331.147 125.074 331.038 125.023C330.928 124.972 330.793 124.947 330.634 124.947C330.42 124.947 330.24 124.993 330.094 125.086C329.951 125.179 329.879 125.299 329.881 125.447C329.879 125.573 329.926 125.677 330.021 125.756C330.117 125.836 330.276 125.901 330.498 125.952L331.242 126.111C331.655 126.2 331.962 126.341 332.163 126.535C332.365 126.728 332.468 126.981 332.469 127.293C332.468 127.568 332.387 127.81 332.228 128.02C332.071 128.229 331.852 128.392 331.572 128.509C331.291 128.627 330.969 128.685 330.606 128.685C330.072 128.685 329.642 128.573 329.316 128.35C328.99 128.125 328.796 127.811 328.734 127.41L329.737 127.313C329.782 127.51 329.879 127.659 330.026 127.759C330.174 127.859 330.366 127.91 330.603 127.91C330.847 127.91 331.043 127.859 331.191 127.759C331.341 127.659 331.415 127.535 331.415 127.387C331.415 127.262 331.367 127.159 331.271 127.077C331.176 126.996 331.028 126.933 330.827 126.89L330.083 126.734C329.665 126.646 329.355 126.5 329.154 126.293C328.953 126.085 328.854 125.822 328.856 125.503C328.854 125.234 328.927 125.002 329.075 124.805C329.224 124.606 329.432 124.452 329.697 124.344C329.964 124.234 330.272 124.18 330.62 124.18C331.131 124.18 331.534 124.288 331.827 124.506C332.123 124.724 332.306 125.019 332.376 125.39ZM335.249 128.685C334.812 128.685 334.434 128.594 334.116 128.412C333.799 128.229 333.556 127.969 333.386 127.634C333.215 127.297 333.13 126.9 333.13 126.444C333.13 125.995 333.215 125.601 333.386 125.262C333.558 124.921 333.799 124.656 334.107 124.466C334.416 124.275 334.779 124.18 335.195 124.18C335.464 124.18 335.718 124.223 335.957 124.31C336.197 124.395 336.409 124.528 336.593 124.708C336.779 124.888 336.924 125.117 337.031 125.395C337.137 125.672 337.19 126.002 337.19 126.384V126.699H333.613V126.006H336.204C336.202 125.809 336.159 125.634 336.076 125.481C335.993 125.325 335.876 125.203 335.727 125.114C335.579 125.025 335.406 124.981 335.21 124.981C334.999 124.981 334.815 125.032 334.656 125.134C334.496 125.234 334.372 125.367 334.283 125.532C334.196 125.695 334.152 125.874 334.15 126.069V126.674C334.15 126.928 334.196 127.145 334.289 127.327C334.382 127.507 334.512 127.645 334.678 127.742C334.845 127.837 335.04 127.884 335.263 127.884C335.413 127.884 335.549 127.863 335.67 127.822C335.791 127.778 335.896 127.715 335.985 127.631C336.074 127.548 336.141 127.445 336.187 127.322L337.147 127.43C337.086 127.683 336.971 127.905 336.8 128.094C336.632 128.282 336.416 128.428 336.153 128.532C335.889 128.634 335.588 128.685 335.249 128.685Z" fill="#525252"/>
<path d="M301.195 151.691V140.782H301.893V151.691H301.195ZM302.878 144.489C302.849 144.177 302.723 143.934 302.499 143.761C302.277 143.584 301.96 143.496 301.548 143.496C301.276 143.496 301.048 143.532 300.866 143.603C300.685 143.674 300.548 143.772 300.457 143.897C300.366 144.019 300.32 144.16 300.317 144.319C300.311 144.449 300.337 144.564 300.393 144.664C300.453 144.763 300.538 144.851 300.649 144.928C300.763 145.002 300.899 145.067 301.058 145.124C301.217 145.181 301.396 145.231 301.595 145.273L302.345 145.444C302.777 145.538 303.158 145.663 303.487 145.819C303.82 145.975 304.098 146.161 304.322 146.377C304.55 146.593 304.722 146.841 304.838 147.123C304.955 147.404 305.014 147.719 305.017 148.069C305.014 148.62 304.875 149.093 304.599 149.488C304.324 149.883 303.928 150.185 303.411 150.395C302.896 150.606 302.276 150.711 301.548 150.711C300.818 150.711 300.182 150.601 299.639 150.383C299.097 150.164 298.675 149.832 298.374 149.386C298.072 148.939 297.918 148.376 297.909 147.694H299.929C299.946 147.975 300.021 148.209 300.155 148.397C300.288 148.584 300.472 148.726 300.705 148.823C300.94 148.92 301.213 148.968 301.523 148.968C301.807 148.968 302.048 148.93 302.247 148.853C302.449 148.776 302.604 148.67 302.712 148.533C302.82 148.397 302.875 148.241 302.878 148.064C302.875 147.9 302.824 147.759 302.724 147.643C302.625 147.523 302.472 147.421 302.264 147.336C302.06 147.248 301.798 147.167 301.48 147.093L300.568 146.88C299.812 146.707 299.217 146.427 298.783 146.04C298.348 145.651 298.132 145.126 298.135 144.464C298.132 143.924 298.277 143.451 298.57 143.045C298.862 142.638 299.267 142.322 299.784 142.094C300.301 141.867 300.891 141.753 301.553 141.753C302.229 141.753 302.815 141.868 303.312 142.099C303.812 142.326 304.2 142.645 304.476 143.057C304.751 143.469 304.892 143.947 304.898 144.489H302.878ZM309.351 141.753C309.828 141.753 310.284 141.832 310.719 141.988C311.153 142.141 311.541 142.387 311.882 142.725C312.223 143.06 312.491 143.502 312.688 144.05C312.884 144.599 312.982 145.268 312.982 146.057C312.984 146.785 312.899 147.437 312.726 148.013C312.553 148.587 312.304 149.076 311.98 149.479C311.659 149.883 311.273 150.191 310.821 150.404C310.369 150.614 309.865 150.719 309.308 150.719C308.695 150.719 308.153 150.601 307.685 150.366C307.219 150.127 306.845 149.806 306.564 149.403C306.286 148.999 306.119 148.547 306.065 148.047H308.141C308.206 148.337 308.344 148.556 308.554 148.704C308.764 148.849 309.016 148.921 309.308 148.921C309.842 148.921 310.241 148.689 310.506 148.226C310.77 147.763 310.902 147.134 310.902 146.339H310.851C310.729 146.6 310.555 146.824 310.331 147.012C310.109 147.199 309.852 147.343 309.56 147.442C309.267 147.542 308.959 147.591 308.635 147.591C308.112 147.591 307.651 147.472 307.25 147.234C306.852 146.995 306.54 146.667 306.312 146.249C306.088 145.832 305.974 145.354 305.972 144.817C305.969 144.215 306.109 143.684 306.393 143.224C306.678 142.761 307.074 142.4 307.582 142.141C308.091 141.88 308.68 141.751 309.351 141.753ZM309.364 143.373C309.102 143.373 308.869 143.434 308.665 143.556C308.463 143.678 308.304 143.843 308.188 144.05C308.071 144.258 308.014 144.491 308.017 144.749C308.02 145.008 308.078 145.241 308.192 145.448C308.308 145.655 308.466 145.82 308.665 145.942C308.866 146.064 309.097 146.126 309.355 146.126C309.548 146.126 309.727 146.09 309.892 146.019C310.057 145.948 310.2 145.85 310.322 145.725C310.445 145.597 310.54 145.449 310.608 145.282C310.679 145.114 310.713 144.935 310.71 144.745C310.707 144.492 310.648 144.262 310.531 144.055C310.415 143.847 310.254 143.682 310.05 143.56C309.848 143.435 309.619 143.373 309.364 143.373ZM317.425 141.753C317.902 141.753 318.358 141.832 318.793 141.988C319.228 142.141 319.615 142.387 319.956 142.725C320.297 143.06 320.566 143.502 320.762 144.05C320.958 144.599 321.056 145.268 321.056 146.057C321.059 146.785 320.973 147.437 320.8 148.013C320.627 148.587 320.378 149.076 320.054 149.479C319.733 149.883 319.347 150.191 318.895 150.404C318.444 150.614 317.939 150.719 317.382 150.719C316.769 150.719 316.228 150.601 315.759 150.366C315.293 150.127 314.919 149.806 314.638 149.403C314.36 148.999 314.194 148.547 314.14 148.047H316.215C316.28 148.337 316.418 148.556 316.628 148.704C316.838 148.849 317.09 148.921 317.382 148.921C317.917 148.921 318.316 148.689 318.58 148.226C318.844 147.763 318.976 147.134 318.976 146.339H318.925C318.803 146.6 318.63 146.824 318.405 147.012C318.184 147.199 317.926 147.343 317.634 147.442C317.341 147.542 317.033 147.591 316.709 147.591C316.186 147.591 315.725 147.472 315.324 147.234C314.926 146.995 314.614 146.667 314.387 146.249C314.162 145.832 314.049 145.354 314.046 144.817C314.043 144.215 314.184 143.684 314.468 143.224C314.752 142.761 315.148 142.4 315.657 142.141C316.165 141.88 316.755 141.751 317.425 141.753ZM317.438 143.373C317.176 143.373 316.944 143.434 316.739 143.556C316.537 143.678 316.378 143.843 316.262 144.05C316.145 144.258 316.088 144.491 316.091 144.749C316.094 145.008 316.152 145.241 316.266 145.448C316.382 145.655 316.54 145.82 316.739 145.942C316.941 146.064 317.171 146.126 317.429 146.126C317.623 146.126 317.801 146.09 317.966 146.019C318.131 145.948 318.275 145.85 318.397 145.725C318.519 145.597 318.614 145.449 318.682 145.282C318.753 145.114 318.787 144.935 318.784 144.745C318.782 144.492 318.722 144.262 318.605 144.055C318.489 143.847 318.328 143.682 318.124 143.56C317.922 143.435 317.694 143.373 317.438 143.373Z" fill="#525252"/>
<path d="M329.287 143.009L327.412 149.975H326.653L328.528 143.009H329.287ZM330.009 149.1V144.736H330.824V145.447H330.878C330.969 145.206 331.117 145.019 331.324 144.884C331.53 144.748 331.777 144.68 332.065 144.68C332.357 144.68 332.601 144.748 332.798 144.884C332.997 145.02 333.144 145.208 333.239 145.447H333.284C333.388 145.214 333.554 145.028 333.781 144.89C334.009 144.75 334.279 144.68 334.594 144.68C334.99 144.68 335.312 144.804 335.562 145.052C335.814 145.3 335.94 145.674 335.94 146.174V149.1H335.091V146.253C335.091 145.958 335.01 145.744 334.849 145.611C334.688 145.479 334.496 145.413 334.273 145.413C333.996 145.413 333.781 145.498 333.628 145.668C333.474 145.837 333.398 146.054 333.398 146.319V149.1H332.551V146.199C332.551 145.963 332.477 145.772 332.33 145.628C332.182 145.484 331.99 145.413 331.753 145.413C331.592 145.413 331.443 145.455 331.307 145.54C331.172 145.624 331.063 145.74 330.98 145.89C330.899 146.039 330.858 146.213 330.858 146.41V149.1H330.009ZM338.917 149.188C338.508 149.188 338.151 149.094 337.846 148.907C337.541 148.719 337.304 148.457 337.136 148.12C336.967 147.783 336.883 147.389 336.883 146.938C336.883 146.485 336.967 146.09 337.136 145.751C337.304 145.412 337.541 145.148 337.846 144.961C338.151 144.773 338.508 144.68 338.917 144.68C339.326 144.68 339.683 144.773 339.988 144.961C340.293 145.148 340.53 145.412 340.698 145.751C340.867 146.09 340.951 146.485 340.951 146.938C340.951 147.389 340.867 147.783 340.698 148.12C340.53 148.457 340.293 148.719 339.988 148.907C339.683 149.094 339.326 149.188 338.917 149.188ZM338.92 148.475C339.185 148.475 339.405 148.405 339.579 148.265C339.753 148.125 339.882 147.938 339.965 147.705C340.05 147.472 340.093 147.216 340.093 146.935C340.093 146.657 340.05 146.401 339.965 146.168C339.882 145.933 339.753 145.745 339.579 145.603C339.405 145.461 339.185 145.39 338.92 145.39C338.653 145.39 338.431 145.461 338.255 145.603C338.081 145.745 337.951 145.933 337.866 146.168C337.782 146.401 337.741 146.657 337.741 146.935C337.741 147.216 337.782 147.472 337.866 147.705C337.951 147.938 338.081 148.125 338.255 148.265C338.431 148.405 338.653 148.475 338.92 148.475Z" fill="#C5C5CC"/>
<path fill-rule="evenodd" clip-rule="evenodd" d="M300.5 162.6C299.395 162.6 298.5 163.495 298.5 164.6C298.5 165.705 299.395 166.6 300.5 166.6C301.605 166.6 302.5 165.705 302.5 164.6C302.5 163.495 301.605 162.6 300.5 162.6ZM298 164.6C298 163.219 299.119 162.1 300.5 162.1C301.881 162.1 303 163.219 303 164.6C303 165.981 301.881 167.1 300.5 167.1C299.119 167.1 298 165.981 298 164.6ZM301.427 163.923C301.524 164.021 301.524 164.179 301.427 164.277L300.427 165.277C300.329 165.374 300.171 165.374 300.073 165.277L299.448 164.652C299.351 164.554 299.351 164.396 299.448 164.298C299.546 164.201 299.704 164.201 299.802 164.298L300.25 164.746L301.073 163.923C301.171 163.826 301.329 163.826 301.427 163.923Z" fill="#C5C5CC"/>
<path d="M307.5 164.6H357.5" stroke="#C5C5CC" stroke-width="1.5" stroke-linecap="round"/>
<path fill-rule="evenodd" clip-rule="evenodd" d="M300.5 173.6C299.395 173.6 298.5 174.495 298.5 175.6C298.5 176.705 299.395 177.6 300.5 177.6C301.605 177.6 302.5 176.705 302.5 175.6C302.5 174.495 301.605 173.6 300.5 173.6ZM298 175.6C298 174.219 299.119 173.1 300.5 173.1C301.881 173.1 303 174.219 303 175.6C303 176.981 301.881 178.1 300.5 178.1C299.119 178.1 298 176.981 298 175.6ZM301.427 174.923C301.524 175.021 301.524 175.179 301.427 175.277L300.427 176.277C300.329 176.374 300.171 176.374 300.073 176.277L299.448 175.652C299.351 175.554 299.351 175.396 299.448 175.298C299.546 175.201 299.704 175.201 299.802 175.298L300.25 175.746L301.073 174.923C301.171 174.826 301.329 174.826 301.427 174.923Z" fill="#C5C5CC"/>
<path d="M307.5 175.6H347.5" stroke="#C5C5CC" stroke-width="1.5" stroke-linecap="round"/>
<path fill-rule="evenodd" clip-rule="evenodd" d="M300.5 184.6C299.395 184.6 298.5 185.495 298.5 186.6C298.5 187.705 299.395 188.6 300.5 188.6C301.605 188.6 302.5 187.705 302.5 186.6C302.5 185.495 301.605 184.6 300.5 184.6ZM298 186.6C298 185.219 299.119 184.1 300.5 184.1C301.881 184.1 303 185.219 303 186.6C303 187.981 301.881 189.1 300.5 189.1C299.119 189.1 298 187.981 298 186.6ZM301.427 185.923C301.524 186.021 301.524 186.179 301.427 186.277L300.427 187.277C300.329 187.374 300.171 187.374 300.073 187.277L299.448 186.652C299.351 186.554 299.351 186.396 299.448 186.298C299.546 186.201 299.704 186.201 299.802 186.298L300.25 186.746L301.073 185.923C301.171 185.826 301.329 185.826 301.427 185.923Z" fill="#C5C5CC"/>
<path d="M307.5 186.6H354.5" stroke="#C5C5CC" stroke-width="1.5" stroke-linecap="round"/>
<rect x="298.2" y="198.3" width="70.6" height="16.6" rx="5.3" stroke="#C5C5CC" stroke-width="1.4"/>
<path d="M324.5 206.6H342.5" stroke="#C5C5CC" stroke-width="2" stroke-linecap="round"/>
</g>
<defs>
<clipPath id="clip0_3464_2566">
<rect width="451.33" height="281" fill="white"/>
</clipPath>
</defs>
</svg>
