<svg width="452" height="281" viewBox="0 0 452 281" fill="none" xmlns="http://www.w3.org/2000/svg">
<g clip-path="url(#clip0_385_1542)">
<path d="M451.33 0H0V281H451.33V0Z" fill="#F4F4F6"/>
<path d="M33.8497 0V281" stroke="#E2E2E6" stroke-width="0.8"/>
<path d="M417.48 0V281" stroke="#E2E2E6" stroke-width="0.8"/>
<path d="M0 31.6123H451.33" stroke="#E2E2E6" stroke-width="0.8"/>
<path d="M0 249.388H451.33" stroke="#E2E2E6" stroke-width="0.8"/>
<rect x="33.5" y="29.5" width="384" height="222" rx="11.5" fill="white"/>
<rect x="33.5" y="29.5" width="384" height="222" rx="11.5" stroke="#E2E0E0"/>
<rect x="141.5" y="49.5" width="168" height="182" rx="11.5" fill="#FBFBFB"/>
<rect x="141.5" y="49.5" width="168" height="182" rx="11.5" stroke="#EBEBEF"/>
<path d="M161.459 67.3281H159.592C159.558 67.0866 159.489 66.8722 159.384 66.6847C159.278 66.4943 159.143 66.3324 158.979 66.1989C158.814 66.0653 158.624 65.9631 158.408 65.892C158.195 65.821 157.963 65.7855 157.713 65.7855C157.261 65.7855 156.868 65.8977 156.533 66.1222C156.197 66.3437 155.938 66.6676 155.753 67.0938C155.568 67.517 155.476 68.0312 155.476 68.6364C155.476 69.2585 155.568 69.7812 155.753 70.2045C155.94 70.6278 156.202 70.9474 156.537 71.1634C156.872 71.3793 157.26 71.4872 157.7 71.4872C157.947 71.4872 158.176 71.4545 158.386 71.3892C158.599 71.3239 158.788 71.2287 158.953 71.1037C159.118 70.9759 159.254 70.821 159.362 70.6392C159.473 70.4574 159.55 70.25 159.592 70.017L161.459 70.0256C161.411 70.4261 161.29 70.8125 161.097 71.1847C160.906 71.554 160.649 71.8849 160.325 72.1776C160.004 72.4673 159.621 72.6974 159.175 72.8679C158.732 73.0355 158.23 73.1193 157.67 73.1193C156.892 73.1193 156.196 72.9432 155.582 72.5909C154.972 72.2386 154.489 71.7287 154.134 71.0611C153.781 70.3935 153.605 69.5852 153.605 68.6364C153.605 67.6847 153.784 66.875 154.142 66.2074C154.5 65.5398 154.986 65.0312 155.599 64.6818C156.213 64.3295 156.903 64.1534 157.67 64.1534C158.176 64.1534 158.645 64.2244 159.077 64.3665C159.511 64.5085 159.896 64.7159 160.232 64.9886C160.567 65.2585 160.839 65.5895 161.05 65.9815C161.263 66.3736 161.399 66.8224 161.459 67.3281ZM162.748 73V66.4545H164.508V67.5966H164.576C164.695 67.1903 164.896 66.8835 165.177 66.6761C165.458 66.4659 165.782 66.3608 166.148 66.3608C166.239 66.3608 166.337 66.3665 166.442 66.3778C166.548 66.3892 166.64 66.4048 166.719 66.4247V68.0355C166.634 68.0099 166.516 67.9872 166.366 67.9673C166.215 67.9474 166.077 67.9375 165.952 67.9375C165.685 67.9375 165.447 67.9957 165.237 68.1122C165.029 68.2259 164.864 68.3849 164.742 68.5895C164.623 68.794 164.563 69.0298 164.563 69.2969V73H162.748ZM170.336 73.1278C169.663 73.1278 169.083 72.9915 168.598 72.7188C168.115 72.4432 167.743 72.054 167.481 71.5511C167.22 71.0455 167.089 70.4474 167.089 69.7571C167.089 69.0838 167.22 68.4929 167.481 67.9844C167.743 67.4759 168.11 67.0795 168.585 66.7955C169.062 66.5114 169.622 66.3693 170.264 66.3693C170.696 66.3693 171.098 66.4389 171.47 66.5781C171.845 66.7145 172.172 66.9205 172.45 67.196C172.731 67.4716 172.95 67.8182 173.106 68.2358C173.262 68.6506 173.341 69.1364 173.341 69.6932V70.1918H167.814V69.0668H171.632C171.632 68.8054 171.575 68.5739 171.461 68.3722C171.348 68.1705 171.19 68.0128 170.988 67.8991C170.789 67.7827 170.558 67.7244 170.294 67.7244C170.018 67.7244 169.774 67.7884 169.561 67.9162C169.35 68.0412 169.186 68.2102 169.066 68.4233C168.947 68.6335 168.886 68.8679 168.883 69.1264V70.196C168.883 70.5199 168.943 70.7997 169.062 71.0355C169.184 71.2713 169.356 71.4531 169.578 71.581C169.799 71.7088 170.062 71.7727 170.366 71.7727C170.568 71.7727 170.752 71.7443 170.92 71.6875C171.088 71.6307 171.231 71.5455 171.35 71.4318C171.47 71.3182 171.561 71.179 171.623 71.0142L173.302 71.125C173.217 71.5284 173.042 71.8807 172.778 72.1818C172.517 72.4801 172.179 72.7131 171.764 72.8807C171.352 73.0455 170.876 73.1278 170.336 73.1278ZM176.392 73.1236C175.974 73.1236 175.602 73.0511 175.275 72.9062C174.949 72.7585 174.69 72.5412 174.5 72.2543C174.312 71.9645 174.218 71.6037 174.218 71.1719C174.218 70.8082 174.285 70.5028 174.419 70.2557C174.552 70.0085 174.734 69.8097 174.964 69.6591C175.194 69.5085 175.456 69.3949 175.748 69.3182C176.044 69.2415 176.353 69.1875 176.677 69.1562C177.058 69.1165 177.365 69.0795 177.598 69.0455C177.831 69.0085 178 68.9545 178.105 68.8835C178.21 68.8125 178.262 68.7074 178.262 68.5682V68.5426C178.262 68.2727 178.177 68.0639 178.007 67.9162C177.839 67.7685 177.6 67.6946 177.291 67.6946C176.964 67.6946 176.704 67.767 176.511 67.9119C176.318 68.054 176.19 68.233 176.127 68.4489L174.449 68.3125C174.534 67.9148 174.701 67.571 174.951 67.2812C175.201 66.9886 175.524 66.7642 175.919 66.608C176.316 66.4489 176.777 66.3693 177.299 66.3693C177.663 66.3693 178.011 66.4119 178.343 66.4972C178.679 66.5824 178.975 66.7145 179.234 66.8935C179.495 67.0724 179.701 67.3026 179.852 67.5838C180.002 67.8622 180.078 68.196 180.078 68.5852V73H178.356V72.0923H178.305C178.2 72.2969 178.059 72.4773 177.883 72.6335C177.707 72.7869 177.495 72.9077 177.248 72.9957C177.001 73.081 176.716 73.1236 176.392 73.1236ZM176.912 71.8707C177.179 71.8707 177.414 71.8182 177.619 71.7131C177.824 71.6051 177.984 71.4602 178.1 71.2784C178.217 71.0966 178.275 70.8906 178.275 70.6605V69.9659C178.218 70.0028 178.14 70.0369 178.041 70.0682C177.944 70.0966 177.835 70.1236 177.713 70.1491C177.591 70.1719 177.468 70.1932 177.346 70.2131C177.224 70.2301 177.113 70.2457 177.014 70.2599C176.801 70.2912 176.615 70.3409 176.456 70.4091C176.297 70.4773 176.173 70.5696 176.085 70.6861C175.997 70.7997 175.953 70.9418 175.953 71.1122C175.953 71.3594 176.042 71.5483 176.221 71.679C176.403 71.8068 176.633 71.8707 176.912 71.8707ZM184.968 66.4545V67.8182H181.026V66.4545H184.968ZM181.921 64.8864H183.736V70.9886C183.736 71.1562 183.762 71.2869 183.813 71.3807C183.864 71.4716 183.935 71.5355 184.026 71.5724C184.12 71.6094 184.228 71.6278 184.35 71.6278C184.435 71.6278 184.52 71.6207 184.605 71.6065C184.691 71.5895 184.756 71.5767 184.801 71.5682L185.087 72.919C184.996 72.9474 184.868 72.9801 184.703 73.017C184.539 73.0568 184.338 73.081 184.103 73.0895C183.665 73.1065 183.282 73.0483 182.952 72.9148C182.625 72.7812 182.371 72.5739 182.189 72.2926C182.007 72.0114 181.918 71.6562 181.921 71.2273V64.8864ZM189.063 73.1278C188.39 73.1278 187.81 72.9915 187.324 72.7188C186.841 72.4432 186.469 72.054 186.208 71.5511C185.946 71.0455 185.816 70.4474 185.816 69.7571C185.816 69.0838 185.946 68.4929 186.208 67.9844C186.469 67.4759 186.837 67.0795 187.311 66.7955C187.789 66.5114 188.348 66.3693 188.99 66.3693C189.422 66.3693 189.824 66.4389 190.196 66.5781C190.571 66.7145 190.898 66.9205 191.176 67.196C191.458 67.4716 191.676 67.8182 191.833 68.2358C191.989 68.6506 192.067 69.1364 192.067 69.6932V70.1918H186.54V69.0668H190.358C190.358 68.8054 190.301 68.5739 190.188 68.3722C190.074 68.1705 189.917 68.0128 189.715 67.8991C189.516 67.7827 189.284 67.7244 189.02 67.7244C188.745 67.7244 188.5 67.7884 188.287 67.9162C188.077 68.0412 187.912 68.2102 187.793 68.4233C187.674 68.6335 187.613 68.8679 187.61 69.1264V70.196C187.61 70.5199 187.669 70.7997 187.789 71.0355C187.911 71.2713 188.083 71.4531 188.304 71.581C188.526 71.7088 188.789 71.7727 189.093 71.7727C189.294 71.7727 189.479 71.7443 189.647 71.6875C189.814 71.6307 189.958 71.5455 190.077 71.4318C190.196 71.3182 190.287 71.179 190.35 71.0142L192.029 71.125C191.944 71.5284 191.769 71.8807 191.505 72.1818C191.243 72.4801 190.905 72.7131 190.49 72.8807C190.078 73.0455 189.603 73.1278 189.063 73.1278ZM197.896 73.1236C197.478 73.1236 197.106 73.0511 196.779 72.9062C196.452 72.7585 196.194 72.5412 196.004 72.2543C195.816 71.9645 195.722 71.6037 195.722 71.1719C195.722 70.8082 195.789 70.5028 195.923 70.2557C196.056 70.0085 196.238 69.8097 196.468 69.6591C196.698 69.5085 196.96 69.3949 197.252 69.3182C197.548 69.2415 197.857 69.1875 198.181 69.1562C198.562 69.1165 198.869 69.0795 199.102 69.0455C199.335 69.0085 199.504 68.9545 199.609 68.8835C199.714 68.8125 199.766 68.7074 199.766 68.5682V68.5426C199.766 68.2727 199.681 68.0639 199.511 67.9162C199.343 67.7685 199.104 67.6946 198.795 67.6946C198.468 67.6946 198.208 67.767 198.015 67.9119C197.822 68.054 197.694 68.233 197.631 68.4489L195.952 68.3125C196.038 67.9148 196.205 67.571 196.455 67.2812C196.705 66.9886 197.028 66.7642 197.423 66.608C197.82 66.4489 198.281 66.3693 198.803 66.3693C199.167 66.3693 199.515 66.4119 199.847 66.4972C200.183 66.5824 200.479 66.7145 200.738 66.8935C200.999 67.0724 201.205 67.3026 201.356 67.5838C201.506 67.8622 201.582 68.196 201.582 68.5852V73H199.86V72.0923H199.809C199.704 72.2969 199.563 72.4773 199.387 72.6335C199.211 72.7869 198.999 72.9077 198.752 72.9957C198.505 73.081 198.219 73.1236 197.896 73.1236ZM198.415 71.8707C198.683 71.8707 198.918 71.8182 199.123 71.7131C199.327 71.6051 199.488 71.4602 199.604 71.2784C199.721 71.0966 199.779 70.8906 199.779 70.6605V69.9659C199.722 70.0028 199.644 70.0369 199.545 70.0682C199.448 70.0966 199.339 70.1236 199.217 70.1491C199.094 70.1719 198.972 70.1932 198.85 70.2131C198.728 70.2301 198.617 70.2457 198.518 70.2599C198.305 70.2912 198.119 70.3409 197.96 70.4091C197.8 70.4773 197.677 70.5696 197.589 70.6861C197.501 70.7997 197.457 70.9418 197.457 71.1122C197.457 71.3594 197.546 71.5483 197.725 71.679C197.907 71.8068 198.137 71.8707 198.415 71.8707ZM204.805 69.2159V73H202.99V66.4545H204.72V67.6094H204.797C204.942 67.2287 205.185 66.9276 205.526 66.706C205.866 66.4815 206.28 66.3693 206.766 66.3693C207.22 66.3693 207.616 66.4688 207.955 66.6676C208.293 66.8665 208.555 67.1506 208.743 67.5199C208.93 67.8864 209.024 68.3239 209.024 68.8324V73H207.209V69.1562C207.212 68.7557 207.109 68.4432 206.902 68.2188C206.695 67.9915 206.409 67.8778 206.045 67.8778C205.801 67.8778 205.585 67.9304 205.398 68.0355C205.213 68.1406 205.068 68.294 204.963 68.4957C204.861 68.6946 204.808 68.9347 204.805 69.2159ZM215.099 73.1236C214.681 73.1236 214.309 73.0511 213.982 72.9062C213.656 72.7585 213.397 72.5412 213.207 72.2543C213.019 71.9645 212.925 71.6037 212.925 71.1719C212.925 70.8082 212.992 70.5028 213.126 70.2557C213.259 70.0085 213.441 69.8097 213.671 69.6591C213.901 69.5085 214.163 69.3949 214.455 69.3182C214.751 69.2415 215.06 69.1875 215.384 69.1562C215.765 69.1165 216.072 69.0795 216.305 69.0455C216.538 69.0085 216.707 68.9545 216.812 68.8835C216.917 68.8125 216.969 68.7074 216.969 68.5682V68.5426C216.969 68.2727 216.884 68.0639 216.714 67.9162C216.546 67.7685 216.308 67.6946 215.998 67.6946C215.671 67.6946 215.411 67.767 215.218 67.9119C215.025 68.054 214.897 68.233 214.835 68.4489L213.156 68.3125C213.241 67.9148 213.408 67.571 213.658 67.2812C213.908 66.9886 214.231 66.7642 214.626 66.608C215.023 66.4489 215.484 66.3693 216.006 66.3693C216.37 66.3693 216.718 66.4119 217.05 66.4972C217.386 66.5824 217.683 66.7145 217.941 66.8935C218.202 67.0724 218.408 67.3026 218.559 67.5838C218.71 67.8622 218.785 68.196 218.785 68.5852V73H217.063V72.0923H217.012C216.907 72.2969 216.766 72.4773 216.59 72.6335C216.414 72.7869 216.202 72.9077 215.955 72.9957C215.708 73.081 215.423 73.1236 215.099 73.1236ZM215.619 71.8707C215.886 71.8707 216.121 71.8182 216.326 71.7131C216.531 71.6051 216.691 71.4602 216.808 71.2784C216.924 71.0966 216.982 70.8906 216.982 70.6605V69.9659C216.925 70.0028 216.847 70.0369 216.748 70.0682C216.651 70.0966 216.542 70.1236 216.42 70.1491C216.298 70.1719 216.175 70.1932 216.053 70.2131C215.931 70.2301 215.82 70.2457 215.721 70.2599C215.508 70.2912 215.322 70.3409 215.163 70.4091C215.004 70.4773 214.88 70.5696 214.792 70.6861C214.704 70.7997 214.66 70.9418 214.66 71.1122C214.66 71.3594 214.749 71.5483 214.928 71.679C215.11 71.8068 215.34 71.8707 215.619 71.8707ZM223.151 73.1278C222.48 73.1278 221.903 72.9858 221.42 72.7017C220.94 72.4148 220.571 72.017 220.312 71.5085C220.057 71 219.929 70.4148 219.929 69.7528C219.929 69.0824 220.058 68.4943 220.317 67.9886C220.578 67.4801 220.949 67.0838 221.429 66.7997C221.909 66.5128 222.48 66.3693 223.142 66.3693C223.713 66.3693 224.213 66.473 224.642 66.6804C225.071 66.8878 225.411 67.179 225.661 67.554C225.911 67.929 226.048 68.3693 226.074 68.875H224.361C224.313 68.5483 224.185 68.2855 223.977 68.0866C223.773 67.8849 223.504 67.7841 223.172 67.7841C222.891 67.7841 222.645 67.8608 222.435 68.0142C222.227 68.1648 222.065 68.3849 221.949 68.6747C221.832 68.9645 221.774 69.3153 221.774 69.7273C221.774 70.1449 221.831 70.5 221.945 70.7926C222.061 71.0852 222.224 71.3082 222.435 71.4616C222.645 71.6151 222.891 71.6918 223.172 71.6918C223.379 71.6918 223.565 71.6491 223.73 71.5639C223.898 71.4787 224.036 71.3551 224.143 71.1932C224.254 71.0284 224.327 70.831 224.361 70.6009H226.074C226.045 71.1009 225.909 71.5412 225.665 71.9219C225.423 72.2997 225.089 72.5952 224.663 72.8082C224.237 73.0213 223.733 73.1278 223.151 73.1278ZM230.194 73.1278C229.523 73.1278 228.946 72.9858 228.463 72.7017C227.983 72.4148 227.614 72.017 227.355 71.5085C227.1 71 226.972 70.4148 226.972 69.7528C226.972 69.0824 227.101 68.4943 227.36 67.9886C227.621 67.4801 227.992 67.0838 228.472 66.7997C228.952 66.5128 229.523 66.3693 230.185 66.3693C230.756 66.3693 231.256 66.473 231.685 66.6804C232.114 66.8878 232.453 67.179 232.703 67.554C232.953 67.929 233.091 68.3693 233.117 68.875H231.404C231.355 68.5483 231.228 68.2855 231.02 68.0866C230.816 67.8849 230.547 67.7841 230.215 67.7841C229.934 67.7841 229.688 67.8608 229.478 68.0142C229.27 68.1648 229.108 68.3849 228.992 68.6747C228.875 68.9645 228.817 69.3153 228.817 69.7273C228.817 70.1449 228.874 70.5 228.988 70.7926C229.104 71.0852 229.267 71.3082 229.478 71.4616C229.688 71.6151 229.934 71.6918 230.215 71.6918C230.422 71.6918 230.608 71.6491 230.773 71.5639C230.941 71.4787 231.078 71.3551 231.186 71.1932C231.297 71.0284 231.37 70.831 231.404 70.6009H233.117C233.088 71.1009 232.952 71.5412 232.708 71.9219C232.466 72.2997 232.132 72.5952 231.706 72.8082C231.28 73.0213 230.776 73.1278 230.194 73.1278ZM237.237 73.1278C236.575 73.1278 236.002 72.9872 235.519 72.706C235.039 72.4219 234.668 72.027 234.407 71.5213C234.146 71.0128 234.015 70.4233 234.015 69.7528C234.015 69.0767 234.146 68.4858 234.407 67.9801C234.668 67.4716 235.039 67.0767 235.519 66.7955C236.002 66.5114 236.575 66.3693 237.237 66.3693C237.898 66.3693 238.469 66.5114 238.95 66.7955C239.433 67.0767 239.805 67.4716 240.066 67.9801C240.327 68.4858 240.458 69.0767 240.458 69.7528C240.458 70.4233 240.327 71.0128 240.066 71.5213C239.805 72.027 239.433 72.4219 238.95 72.706C238.469 72.9872 237.898 73.1278 237.237 73.1278ZM237.245 71.7216C237.546 71.7216 237.798 71.6364 237.999 71.4659C238.201 71.2926 238.353 71.0568 238.455 70.7585C238.56 70.4602 238.613 70.1207 238.613 69.7401C238.613 69.3594 238.56 69.0199 238.455 68.7216C238.353 68.4233 238.201 68.1875 237.999 68.0142C237.798 67.8409 237.546 67.7543 237.245 67.7543C236.941 67.7543 236.685 67.8409 236.478 68.0142C236.273 68.1875 236.119 68.4233 236.013 68.7216C235.911 69.0199 235.86 69.3594 235.86 69.7401C235.86 70.1207 235.911 70.4602 236.013 70.7585C236.119 71.0568 236.273 71.2926 236.478 71.4659C236.685 71.6364 236.941 71.7216 237.245 71.7216ZM245.836 70.2131V66.4545H247.651V73H245.908V71.8111H245.84C245.692 72.1946 245.447 72.5028 245.103 72.7358C244.762 72.9687 244.346 73.0852 243.854 73.0852C243.417 73.0852 243.032 72.9858 242.7 72.7869C242.367 72.5881 242.107 72.3054 241.92 71.9389C241.735 71.5724 241.641 71.1335 241.638 70.6222V66.4545H243.454V70.2983C243.457 70.6847 243.56 70.9901 243.765 71.2145C243.969 71.4389 244.244 71.5511 244.587 71.5511C244.806 71.5511 245.011 71.5014 245.201 71.402C245.391 71.2997 245.545 71.1491 245.661 70.9503C245.781 70.7514 245.839 70.5057 245.836 70.2131ZM250.919 69.2159V73H249.103V66.4545H250.833V67.6094H250.91C251.055 67.2287 251.298 66.9276 251.639 66.706C251.98 66.4815 252.393 66.3693 252.879 66.3693C253.333 66.3693 253.73 66.4688 254.068 66.6676C254.406 66.8665 254.669 67.1506 254.856 67.5199C255.044 67.8864 255.137 68.3239 255.137 68.8324V73H253.322V69.1562C253.325 68.7557 253.223 68.4432 253.015 68.2188C252.808 67.9915 252.522 67.8778 252.159 67.8778C251.914 67.8778 251.699 67.9304 251.511 68.0355C251.326 68.1406 251.181 68.294 251.076 68.4957C250.974 68.6946 250.922 68.9347 250.919 69.2159ZM260.05 66.4545V67.8182H256.108V66.4545H260.05ZM257.003 64.8864H258.818V70.9886C258.818 71.1562 258.844 71.2869 258.895 71.3807C258.946 71.4716 259.017 71.5355 259.108 71.5724C259.202 71.6094 259.31 71.6278 259.432 71.6278C259.517 71.6278 259.602 71.6207 259.688 71.6065C259.773 71.5895 259.838 71.5767 259.884 71.5682L260.169 72.919C260.078 72.9474 259.95 72.9801 259.786 73.017C259.621 73.0568 259.42 73.081 259.185 73.0895C258.747 73.1065 258.364 73.0483 258.034 72.9148C257.707 72.7812 257.453 72.5739 257.271 72.2926C257.089 72.0114 257 71.6562 257.003 71.2273V64.8864Z" fill="#525252"/>
<rect x="153.5" y="88.833" width="144" height="21" rx="7.5" fill="#FAFAFC"/>
<rect x="153.5" y="88.833" width="144" height="21" rx="7.5" stroke="#E2E2E6"/>
<rect x="161" y="98.333" width="28" height="2" rx="1" fill="#E2E2E6"/>
<rect x="153.5" y="118.833" width="144" height="21" rx="7.5" fill="#FAFAFC"/>
<rect x="153.5" y="118.833" width="144" height="21" rx="7.5" stroke="#E2E2E6"/>
<rect x="161" y="128.333" width="28" height="2" rx="1" fill="#E2E2E6"/>
<rect x="153.5" y="148.833" width="144" height="21" rx="7.5" fill="#FAFAFC"/>
<rect x="153.5" y="148.833" width="144" height="21" rx="7.5" stroke="#E2E2E6"/>
<rect x="161" y="158.333" width="28" height="2" rx="1" fill="#E2E2E6"/>
<rect x="153" y="182.667" width="106" height="3" rx="1.5" fill="#E2E2E6"/>
<rect x="153" y="198" width="145" height="22" rx="6" fill="#303030"/>
<path d="M216.5 209H234.5" stroke="white" stroke-width="2" stroke-linecap="round"/>
</g>
<defs>
<clipPath id="clip0_385_1542">
<rect width="451.33" height="281" fill="white"/>
</clipPath>
</defs>
</svg>
