<svg width="452" height="281" viewBox="0 0 452 281" fill="none" xmlns="http://www.w3.org/2000/svg">
<g clip-path="url(#clip0_417_532)">
<path d="M451.33 0H0V281H451.33V0Z" fill="#F4F4F6"/>
<path d="M33.8497 0V281" stroke="#E2E2E6" stroke-width="0.8"/>
<path d="M417.48 0V281" stroke="#E2E2E6" stroke-width="0.8"/>
<path d="M0 31.6125H451.33" stroke="#E2E2E6" stroke-width="0.8"/>
<path d="M0 249.387H451.33" stroke="#E2E2E6" stroke-width="0.8"/>
<rect x="33.5" y="29.5" width="384" height="222" rx="11.5" fill="white"/>
<rect x="33.5" y="29.5" width="384" height="222" rx="11.5" stroke="#E2E0E0"/>
<path fill-rule="evenodd" clip-rule="evenodd" d="M217.5 101.5C217.5 100.395 218.395 99.5 219.5 99.5H222.5C223.605 99.5 224.5 100.395 224.5 101.5V106.5C224.5 107.826 223.973 109.098 223.036 110.036C222.098 110.973 220.826 111.5 219.5 111.5H218.5C217.948 111.5 217.5 111.052 217.5 110.5C217.5 109.948 217.948 109.5 218.5 109.5H219.5C220.296 109.5 221.059 109.184 221.621 108.621C222.184 108.059 222.5 107.296 222.5 106.5H219.5C218.395 106.5 217.5 105.605 217.5 104.5V101.5ZM222.5 101.5H219.5V104.5H222.5V101.5ZM226.5 101.5C226.5 100.395 227.395 99.5 228.5 99.5H231.5C232.605 99.5 233.5 100.395 233.5 101.5V106.5C233.5 107.826 232.973 109.098 232.036 110.036C231.098 110.973 229.826 111.5 228.5 111.5H227.5C226.948 111.5 226.5 111.052 226.5 110.5C226.5 109.948 226.948 109.5 227.5 109.5H228.5C229.296 109.5 230.059 109.184 230.621 108.621C231.184 108.059 231.5 107.296 231.5 106.5H228.5C227.395 106.5 226.5 105.605 226.5 104.5V101.5ZM231.5 101.5H228.5V104.5H231.5V101.5Z" fill="#D2D3D4"/>
<rect x="93.5" y="129.5" width="264" height="4" rx="2" fill="#E2E2E6"/>
<rect x="130" y="143.5" width="191" height="4" rx="2" fill="#E2E2E6"/>
<rect x="170" y="157.5" width="111" height="4" rx="2" fill="#E2E2E6"/>
<rect x="194.5" y="173.5" width="14" height="14" rx="7" fill="#F3F4F6"/>
<path d="M201.5 179.833C202.236 179.833 202.833 179.236 202.833 178.5C202.833 177.764 202.236 177.167 201.5 177.167C200.764 177.167 200.167 177.764 200.167 178.5C200.167 179.236 200.764 179.833 201.5 179.833Z" fill="#B2B2B2"/>
<path opacity="0.5" d="M204.167 182.333C204.167 183.162 204.167 183.833 201.5 183.833C198.833 183.833 198.833 183.162 198.833 182.333C198.833 181.505 200.027 180.833 201.5 180.833C202.973 180.833 204.167 181.505 204.167 182.333Z" fill="#B2B2B2"/>
<path d="M215.821 183.5H214.696L216.744 177.682H218.045L220.097 183.5H218.972L217.418 178.875H217.372L215.821 183.5ZM215.858 181.219H218.926V182.065H215.858V181.219ZM221.846 177.682V183.5H220.817V177.682H221.846ZM224.835 183.585C224.398 183.585 224.02 183.494 223.702 183.312C223.385 183.129 223.142 182.869 222.972 182.534C222.801 182.197 222.716 181.8 222.716 181.344C222.716 180.895 222.801 180.501 222.972 180.162C223.144 179.821 223.384 179.556 223.693 179.366C224.002 179.175 224.365 179.08 224.781 179.08C225.05 179.08 225.304 179.123 225.543 179.21C225.783 179.295 225.995 179.428 226.179 179.608C226.365 179.788 226.51 180.017 226.616 180.295C226.723 180.572 226.776 180.902 226.776 181.284V181.599H223.199V180.906H225.79C225.788 180.709 225.745 180.534 225.662 180.381C225.579 180.225 225.462 180.103 225.312 180.014C225.165 179.925 224.992 179.881 224.795 179.881C224.585 179.881 224.401 179.932 224.241 180.034C224.082 180.134 223.958 180.267 223.869 180.432C223.782 180.595 223.738 180.774 223.736 180.969V181.574C223.736 181.828 223.782 182.045 223.875 182.227C223.968 182.407 224.098 182.545 224.264 182.642C224.431 182.737 224.626 182.784 224.849 182.784C224.999 182.784 225.134 182.763 225.256 182.722C225.377 182.678 225.482 182.615 225.571 182.531C225.66 182.448 225.727 182.345 225.773 182.222L226.733 182.33C226.672 182.583 226.557 182.805 226.386 182.994C226.218 183.182 226.002 183.328 225.739 183.432C225.475 183.534 225.174 183.585 224.835 183.585ZM228.393 179.136L229.273 180.747L230.168 179.136H231.256L229.941 181.318L231.279 183.5H230.197L229.273 181.929L228.359 183.5H227.268L228.597 181.318L227.302 179.136H228.393ZM237.244 179.281C237.217 179.033 237.105 178.84 236.908 178.702C236.713 178.563 236.46 178.494 236.147 178.494C235.927 178.494 235.739 178.527 235.582 178.594C235.424 178.66 235.304 178.75 235.221 178.864C235.138 178.977 235.095 179.107 235.093 179.253C235.093 179.374 235.121 179.479 235.175 179.568C235.232 179.657 235.309 179.733 235.406 179.795C235.502 179.856 235.609 179.907 235.727 179.949C235.844 179.991 235.962 180.026 236.082 180.054L236.627 180.19C236.847 180.241 237.058 180.311 237.261 180.398C237.465 180.485 237.648 180.595 237.809 180.727C237.972 180.86 238.101 181.02 238.195 181.207C238.29 181.395 238.337 181.615 238.337 181.866C238.337 182.207 238.25 182.508 238.076 182.767C237.902 183.025 237.65 183.226 237.32 183.372C236.993 183.516 236.596 183.588 236.13 183.588C235.677 183.588 235.284 183.518 234.951 183.378C234.62 183.238 234.36 183.033 234.173 182.764C233.987 182.495 233.887 182.168 233.871 181.781H234.908C234.924 181.984 234.986 182.152 235.096 182.287C235.206 182.421 235.349 182.522 235.525 182.588C235.703 182.654 235.902 182.688 236.121 182.688C236.351 182.688 236.551 182.653 236.724 182.585C236.898 182.515 237.034 182.419 237.133 182.295C237.231 182.17 237.281 182.025 237.283 181.858C237.281 181.706 237.237 181.581 237.15 181.483C237.063 181.383 236.941 181.299 236.783 181.233C236.628 181.165 236.446 181.104 236.238 181.051L235.576 180.881C235.097 180.758 234.718 180.571 234.44 180.321C234.163 180.069 234.025 179.735 234.025 179.318C234.025 178.975 234.118 178.675 234.303 178.418C234.491 178.16 234.746 177.96 235.067 177.818C235.389 177.674 235.754 177.602 236.161 177.602C236.574 177.602 236.936 177.674 237.246 177.818C237.559 177.96 237.804 178.158 237.982 178.412C238.16 178.664 238.252 178.954 238.258 179.281H237.244ZM239.232 183.5V179.136H240.214V179.878H240.266C240.357 179.628 240.507 179.433 240.717 179.293C240.928 179.151 241.179 179.08 241.47 179.08C241.766 179.08 242.015 179.152 242.217 179.295C242.422 179.437 242.566 179.632 242.649 179.878H242.695C242.791 179.635 242.954 179.442 243.183 179.298C243.414 179.152 243.688 179.08 244.004 179.08C244.406 179.08 244.733 179.206 244.987 179.46C245.241 179.714 245.368 180.084 245.368 180.571V183.5H244.337V180.73C244.337 180.459 244.265 180.261 244.121 180.136C243.977 180.009 243.801 179.946 243.592 179.946C243.344 179.946 243.15 180.024 243.01 180.179C242.872 180.332 242.803 180.532 242.803 180.778V183.5H241.794V180.688C241.794 180.462 241.726 180.282 241.589 180.148C241.455 180.013 241.279 179.946 241.061 179.946C240.913 179.946 240.779 179.984 240.658 180.06C240.536 180.134 240.44 180.239 240.368 180.375C240.296 180.509 240.26 180.667 240.26 180.847V183.5H239.232ZM246.411 183.5V179.136H247.44V183.5H246.411ZM246.928 178.517C246.765 178.517 246.625 178.463 246.508 178.355C246.39 178.245 246.332 178.114 246.332 177.96C246.332 177.805 246.39 177.673 246.508 177.565C246.625 177.455 246.765 177.401 246.928 177.401C247.093 177.401 247.233 177.455 247.349 177.565C247.466 177.673 247.525 177.805 247.525 177.96C247.525 178.114 247.466 178.245 247.349 178.355C247.233 178.463 247.093 178.517 246.928 178.517ZM250.676 179.136V179.932H248.168V179.136H250.676ZM248.787 178.091H249.815V182.188C249.815 182.326 249.836 182.432 249.878 182.506C249.921 182.578 249.978 182.627 250.048 182.653C250.118 182.68 250.196 182.693 250.281 182.693C250.346 182.693 250.404 182.688 250.457 182.679C250.512 182.67 250.554 182.661 250.582 182.653L250.756 183.457C250.701 183.476 250.622 183.497 250.52 183.52C250.42 183.543 250.296 183.556 250.151 183.56C249.893 183.567 249.661 183.528 249.455 183.443C249.248 183.356 249.084 183.222 248.963 183.04C248.844 182.858 248.785 182.631 248.787 182.358V178.091ZM252.658 180.943V183.5H251.63V177.682H252.636V179.878H252.687C252.789 179.632 252.947 179.437 253.161 179.295C253.377 179.152 253.652 179.08 253.985 179.08C254.288 179.08 254.552 179.143 254.778 179.27C255.003 179.397 255.177 179.582 255.3 179.827C255.425 180.071 255.488 180.369 255.488 180.722V183.5H254.46V180.881C254.46 180.587 254.384 180.359 254.232 180.196C254.083 180.031 253.872 179.949 253.602 179.949C253.42 179.949 253.257 179.989 253.113 180.068C252.971 180.146 252.859 180.259 252.778 180.406C252.698 180.554 252.658 180.733 252.658 180.943Z" fill="#525252"/>
</g>
<defs>
<clipPath id="clip0_417_532">
<rect width="451.33" height="281" fill="white"/>
</clipPath>
</defs>
</svg>
