<svg width="452" height="281" viewBox="0 0 452 281" fill="none" xmlns="http://www.w3.org/2000/svg">
<g clip-path="url(#clip0_425_2292)">
<path d="M451.33 0H0V281H451.33V0Z" fill="#F4F4F6"/>
<path d="M33.8499 0V281" stroke="#E2E2E6" stroke-width="0.8"/>
<path d="M417.48 0V281" stroke="#E2E2E6" stroke-width="0.8"/>
<path d="M0 31.6123H451.33" stroke="#E2E2E6" stroke-width="0.8"/>
<path d="M0 249.388H451.33" stroke="#E2E2E6" stroke-width="0.8"/>
<rect x="33.5" y="29.5" width="384" height="222" rx="11.5" fill="white"/>
<rect x="33.5" y="29.5" width="384" height="222" rx="11.5" stroke="#E2E0E0"/>
<path d="M157.068 54.392V52.3636H166.625V54.392H163.062V64H160.631V54.392H157.068ZM170.831 64.1705C169.948 64.1705 169.185 63.983 168.541 63.608C167.901 63.2292 167.407 62.7027 167.058 62.0284C166.71 61.3504 166.536 60.5644 166.536 59.6705C166.536 58.7689 166.71 57.9811 167.058 57.3068C167.407 56.6288 167.901 56.1023 168.541 55.7273C169.185 55.3485 169.948 55.1591 170.831 55.1591C171.714 55.1591 172.475 55.3485 173.115 55.7273C173.759 56.1023 174.255 56.6288 174.604 57.3068C174.952 57.9811 175.126 58.7689 175.126 59.6705C175.126 60.5644 174.952 61.3504 174.604 62.0284C174.255 62.7027 173.759 63.2292 173.115 63.608C172.475 63.983 171.714 64.1705 170.831 64.1705ZM170.842 62.2955C171.244 62.2955 171.579 62.1818 171.848 61.9545C172.117 61.7235 172.32 61.4091 172.456 61.0114C172.596 60.6136 172.666 60.161 172.666 59.6534C172.666 59.1458 172.596 58.6932 172.456 58.2955C172.32 57.8977 172.117 57.5833 171.848 57.3523C171.579 57.1212 171.244 57.0057 170.842 57.0057C170.437 57.0057 170.096 57.1212 169.82 57.3523C169.547 57.5833 169.34 57.8977 169.2 58.2955C169.064 58.6932 168.996 59.1458 168.996 59.6534C168.996 60.161 169.064 60.6136 169.2 61.0114C169.34 61.4091 169.547 61.7235 169.82 61.9545C170.096 62.1818 170.437 62.2955 170.842 62.2955ZM179.916 64.142C179.253 64.142 178.653 63.9716 178.115 63.6307C177.581 63.286 177.157 62.7803 176.842 62.1136C176.532 61.4432 176.376 60.6212 176.376 59.6477C176.376 58.6477 176.537 57.8163 176.859 57.1534C177.181 56.4867 177.609 55.9886 178.143 55.6591C178.681 55.3258 179.27 55.1591 179.911 55.1591C180.399 55.1591 180.806 55.2424 181.132 55.4091C181.462 55.572 181.727 55.7765 181.928 56.0227C182.132 56.2652 182.287 56.5038 182.393 56.7386H182.467V52.3636H184.882V64H182.496V62.6023H182.393C182.28 62.8447 182.119 63.0852 181.911 63.3239C181.706 63.5587 181.439 63.7538 181.109 63.9091C180.784 64.0644 180.386 64.142 179.916 64.142ZM180.683 62.2159C181.073 62.2159 181.403 62.1098 181.672 61.8977C181.945 61.6818 182.153 61.3807 182.297 60.9943C182.445 60.608 182.518 60.1553 182.518 59.6364C182.518 59.1174 182.446 58.6667 182.303 58.2841C182.159 57.9015 181.95 57.6061 181.678 57.3977C181.405 57.1894 181.073 57.0852 180.683 57.0852C180.286 57.0852 179.95 57.1932 179.678 57.4091C179.405 57.625 179.198 57.9242 179.058 58.3068C178.918 58.6894 178.848 59.1326 178.848 59.6364C178.848 60.1439 178.918 60.5928 179.058 60.983C179.202 61.3693 179.409 61.6723 179.678 61.892C179.95 62.108 180.286 62.2159 180.683 62.2159ZM189.361 64.1648C188.804 64.1648 188.308 64.0682 187.872 63.875C187.437 63.678 187.092 63.3883 186.838 63.0057C186.588 62.6193 186.463 62.1383 186.463 61.5625C186.463 61.0777 186.552 60.6705 186.73 60.3409C186.908 60.0114 187.151 59.7462 187.457 59.5455C187.764 59.3447 188.113 59.1932 188.503 59.0909C188.897 58.9886 189.31 58.9167 189.741 58.875C190.249 58.822 190.658 58.7727 190.969 58.7273C191.279 58.678 191.505 58.6061 191.645 58.5114C191.785 58.4167 191.855 58.2765 191.855 58.0909V58.0568C191.855 57.697 191.741 57.4186 191.514 57.2216C191.291 57.0246 190.973 56.9261 190.56 56.9261C190.124 56.9261 189.777 57.0227 189.52 57.2159C189.262 57.4053 189.092 57.6439 189.009 57.9318L186.77 57.75C186.884 57.2197 187.107 56.7614 187.44 56.375C187.774 55.9848 188.204 55.6856 188.73 55.4773C189.26 55.2652 189.874 55.1591 190.571 55.1591C191.056 55.1591 191.52 55.2159 191.963 55.3295C192.41 55.4432 192.806 55.6193 193.151 55.858C193.499 56.0966 193.774 56.4034 193.974 56.7784C194.175 57.1496 194.276 57.5947 194.276 58.1136V64H191.98V62.7898H191.912C191.772 63.0625 191.584 63.303 191.349 63.5114C191.115 63.7159 190.832 63.8769 190.503 63.9943C190.173 64.108 189.793 64.1648 189.361 64.1648ZM190.054 62.4943C190.41 62.4943 190.724 62.4242 190.997 62.2841C191.27 62.1402 191.484 61.947 191.639 61.7045C191.795 61.4621 191.872 61.1875 191.872 60.8807V59.9545C191.796 60.0038 191.692 60.0492 191.56 60.0909C191.431 60.1288 191.285 60.1648 191.122 60.1989C190.959 60.2292 190.796 60.2576 190.634 60.2841C190.471 60.3068 190.323 60.3277 190.19 60.3466C189.906 60.3883 189.658 60.4545 189.446 60.5455C189.234 60.6364 189.069 60.7595 188.952 60.9148C188.834 61.0663 188.776 61.2557 188.776 61.483C188.776 61.8125 188.895 62.0644 189.134 62.2386C189.376 62.4091 189.683 62.4943 190.054 62.4943ZM197.335 67.2727C197.028 67.2727 196.741 67.2481 196.472 67.1989C196.206 67.1534 195.987 67.0947 195.812 67.0227L196.358 65.2159C196.642 65.303 196.898 65.3504 197.125 65.358C197.356 65.3655 197.555 65.3125 197.722 65.1989C197.892 65.0852 198.03 64.892 198.136 64.6193L198.278 64.25L195.148 55.2727H197.693L199.5 61.6818H199.591L201.415 55.2727H203.977L200.585 64.9432C200.422 65.4129 200.201 65.822 199.92 66.1705C199.644 66.5227 199.294 66.7936 198.869 66.983C198.445 67.1761 197.934 67.2727 197.335 67.2727ZM206.773 52.3636V56.7841H205.045V52.3636H206.773ZM215.821 57.7614L213.605 57.8977C213.567 57.7083 213.486 57.5379 213.361 57.3864C213.236 57.2311 213.071 57.108 212.866 57.017C212.666 56.9223 212.425 56.875 212.145 56.875C211.77 56.875 211.454 56.9545 211.196 57.1136C210.938 57.2689 210.81 57.4773 210.81 57.7386C210.81 57.947 210.893 58.1231 211.06 58.267C211.226 58.411 211.512 58.5265 211.918 58.6136L213.497 58.9318C214.346 59.1061 214.978 59.3864 215.395 59.7727C215.812 60.1591 216.02 60.6667 216.02 61.2955C216.02 61.8674 215.851 62.3693 215.514 62.8011C215.181 63.233 214.723 63.5701 214.139 63.8125C213.56 64.0511 212.891 64.1705 212.134 64.1705C210.978 64.1705 210.058 63.9299 209.372 63.4489C208.69 62.964 208.291 62.3049 208.173 61.4716L210.554 61.3466C210.626 61.6989 210.8 61.9678 211.077 62.1534C211.353 62.3352 211.707 62.4261 212.139 62.4261C212.563 62.4261 212.904 62.3447 213.162 62.1818C213.423 62.0152 213.556 61.8011 213.56 61.5398C213.556 61.3201 213.463 61.1402 213.281 61C213.099 60.8561 212.819 60.7462 212.44 60.6705L210.929 60.3693C210.077 60.1989 209.442 59.9034 209.026 59.483C208.613 59.0625 208.406 58.5265 208.406 57.875C208.406 57.3144 208.558 56.8314 208.861 56.4261C209.168 56.0208 209.598 55.7083 210.151 55.4886C210.707 55.2689 211.359 55.1591 212.105 55.1591C213.207 55.1591 214.075 55.392 214.707 55.858C215.344 56.3239 215.715 56.9583 215.821 57.7614ZM227.605 55.7102C227.56 55.2519 227.365 54.8958 227.02 54.642C226.675 54.3883 226.207 54.2614 225.616 54.2614C225.215 54.2614 224.876 54.3182 224.599 54.4318C224.323 54.5417 224.111 54.6951 223.963 54.892C223.819 55.089 223.747 55.3125 223.747 55.5625C223.74 55.7708 223.783 55.9527 223.878 56.108C223.976 56.2633 224.111 56.3977 224.281 56.5114C224.452 56.6212 224.649 56.7178 224.872 56.8011C225.096 56.8807 225.334 56.9489 225.588 57.0057L226.634 57.2557C227.141 57.3693 227.607 57.5208 228.031 57.7102C228.455 57.8996 228.823 58.1326 229.134 58.4091C229.444 58.6856 229.685 59.0114 229.855 59.3864C230.029 59.7614 230.118 60.1913 230.122 60.6761C230.118 61.3883 229.937 62.0057 229.577 62.5284C229.221 63.0473 228.705 63.4508 228.031 63.7386C227.361 64.0227 226.552 64.1648 225.605 64.1648C224.666 64.1648 223.848 64.0208 223.151 63.733C222.457 63.4451 221.916 63.0189 221.526 62.4545C221.139 61.8864 220.937 61.1837 220.918 60.3466H223.298C223.325 60.7367 223.437 61.0625 223.634 61.3239C223.834 61.5814 224.101 61.7765 224.435 61.9091C224.772 62.0379 225.152 62.1023 225.577 62.1023C225.993 62.1023 226.355 62.0417 226.662 61.9205C226.973 61.7992 227.213 61.6307 227.384 61.4148C227.554 61.1989 227.639 60.9508 227.639 60.6705C227.639 60.4091 227.562 60.1894 227.406 60.0114C227.255 59.8333 227.031 59.6818 226.736 59.5568C226.444 59.4318 226.086 59.3182 225.662 59.2159L224.395 58.8977C223.414 58.6591 222.639 58.286 222.071 57.7784C221.503 57.2708 221.221 56.5871 221.224 55.7273C221.221 55.0227 221.408 54.4072 221.787 53.8807C222.17 53.3542 222.694 52.9432 223.361 52.6477C224.027 52.3523 224.785 52.2045 225.634 52.2045C226.497 52.2045 227.251 52.3523 227.895 52.6477C228.543 52.9432 229.046 53.3542 229.406 53.8807C229.766 54.4072 229.952 55.017 229.963 55.7102H227.605ZM235.675 64.1705C234.781 64.1705 234.012 63.9811 233.368 63.6023C232.728 63.2197 232.235 62.6894 231.891 62.0114C231.55 61.3333 231.379 60.553 231.379 59.6705C231.379 58.7765 231.552 57.9924 231.896 57.3182C232.245 56.6402 232.739 56.1117 233.379 55.733C234.019 55.3504 234.781 55.1591 235.663 55.1591C236.425 55.1591 237.091 55.2973 237.663 55.5739C238.235 55.8504 238.688 56.2386 239.021 56.7386C239.355 57.2386 239.538 57.8258 239.572 58.5H237.288C237.224 58.0644 237.054 57.714 236.777 57.4489C236.504 57.1799 236.146 57.0455 235.703 57.0455C235.328 57.0455 235 57.1477 234.72 57.3523C234.444 57.553 234.228 57.8466 234.072 58.233C233.917 58.6193 233.839 59.0871 233.839 59.6364C233.839 60.1932 233.915 60.6667 234.067 61.0568C234.222 61.447 234.44 61.7443 234.72 61.9489C235 62.1534 235.328 62.2557 235.703 62.2557C235.98 62.2557 236.228 62.1989 236.447 62.0852C236.671 61.9716 236.855 61.8068 236.999 61.5909C237.146 61.3712 237.243 61.108 237.288 60.8011H239.572C239.535 61.4678 239.353 62.0549 239.027 62.5625C238.705 63.0663 238.26 63.4602 237.692 63.7443C237.124 64.0284 236.451 64.1705 235.675 64.1705ZM243.543 58.9545V64H241.122V52.3636H243.474V56.8125H243.577C243.774 56.2973 244.092 55.8939 244.531 55.6023C244.971 55.3068 245.522 55.1591 246.185 55.1591C246.791 55.1591 247.319 55.2917 247.77 55.5568C248.224 55.8182 248.577 56.1951 248.827 56.6875C249.08 57.1761 249.205 57.7614 249.202 58.4432V64H246.781V58.875C246.785 58.3371 246.649 57.9186 246.372 57.6193C246.099 57.3201 245.717 57.1705 245.224 57.1705C244.895 57.1705 244.603 57.2405 244.349 57.3807C244.099 57.5208 243.902 57.7254 243.759 57.9943C243.618 58.2595 243.546 58.5795 243.543 58.9545ZM255.084 64.1705C254.186 64.1705 253.413 63.9886 252.766 63.625C252.122 63.2576 251.625 62.7386 251.277 62.0682C250.929 61.3939 250.754 60.5966 250.754 59.6761C250.754 58.7784 250.929 57.9905 251.277 57.3125C251.625 56.6345 252.116 56.1061 252.749 55.7273C253.385 55.3485 254.131 55.1591 254.987 55.1591C255.563 55.1591 256.099 55.2519 256.595 55.4375C257.095 55.6193 257.531 55.8939 257.902 56.2614C258.277 56.6288 258.569 57.0909 258.777 57.6477C258.985 58.2008 259.089 58.8485 259.089 59.5909V60.2557H251.72V58.7557H256.811C256.811 58.4072 256.735 58.0985 256.584 57.8295C256.432 57.5606 256.222 57.3504 255.953 57.1989C255.688 57.0436 255.379 56.9659 255.027 56.9659C254.66 56.9659 254.334 57.0511 254.05 57.2216C253.769 57.3883 253.55 57.6136 253.391 57.8977C253.232 58.178 253.15 58.4905 253.146 58.8352V60.2614C253.146 60.6932 253.226 61.0663 253.385 61.3807C253.548 61.6951 253.777 61.9375 254.072 62.108C254.368 62.2784 254.718 62.3636 255.124 62.3636C255.393 62.3636 255.639 62.3258 255.862 62.25C256.086 62.1742 256.277 62.0606 256.436 61.9091C256.595 61.7576 256.716 61.572 256.8 61.3523L259.038 61.5C258.925 62.0379 258.692 62.5076 258.339 62.9091C257.991 63.3068 257.54 63.6174 256.987 63.8409C256.438 64.0606 255.804 64.1705 255.084 64.1705ZM263.885 64.142C263.222 64.142 262.622 63.9716 262.084 63.6307C261.55 63.286 261.125 62.7803 260.811 62.1136C260.5 61.4432 260.345 60.6212 260.345 59.6477C260.345 58.6477 260.506 57.8163 260.828 57.1534C261.15 56.4867 261.578 55.9886 262.112 55.6591C262.65 55.3258 263.239 55.1591 263.879 55.1591C264.368 55.1591 264.775 55.2424 265.101 55.4091C265.43 55.572 265.696 55.7765 265.896 56.0227C266.101 56.2652 266.256 56.5038 266.362 56.7386H266.436V52.3636H268.851V64H266.464V62.6023H266.362C266.249 62.8447 266.088 63.0852 265.879 63.3239C265.675 63.5587 265.408 63.7538 265.078 63.9091C264.752 64.0644 264.355 64.142 263.885 64.142ZM264.652 62.2159C265.042 62.2159 265.372 62.1098 265.641 61.8977C265.913 61.6818 266.122 61.3807 266.266 60.9943C266.413 60.608 266.487 60.1553 266.487 59.6364C266.487 59.1174 266.415 58.6667 266.271 58.2841C266.127 57.9015 265.919 57.6061 265.646 57.3977C265.374 57.1894 265.042 57.0852 264.652 57.0852C264.254 57.0852 263.919 57.1932 263.646 57.4091C263.374 57.625 263.167 57.9242 263.027 58.3068C262.887 58.6894 262.817 59.1326 262.817 59.6364C262.817 60.1439 262.887 60.5928 263.027 60.983C263.171 61.3693 263.377 61.6723 263.646 61.892C263.919 62.108 264.254 62.2159 264.652 62.2159ZM276.438 60.2841V55.2727H278.858V64H276.534V62.4148H276.443C276.246 62.9261 275.919 63.3371 275.46 63.6477C275.006 63.9583 274.451 64.1136 273.795 64.1136C273.212 64.1136 272.699 63.9811 272.256 63.7159C271.813 63.4508 271.466 63.0739 271.216 62.5852C270.97 62.0966 270.845 61.5114 270.841 60.8295V55.2727H273.261V60.3977C273.265 60.9129 273.403 61.3201 273.676 61.6193C273.949 61.9186 274.314 62.0682 274.773 62.0682C275.064 62.0682 275.337 62.0019 275.591 61.8693C275.845 61.733 276.049 61.5322 276.205 61.267C276.364 61.0019 276.441 60.6742 276.438 60.2841ZM283.214 52.3636V64H280.794V52.3636H283.214ZM289.131 64.1705C288.233 64.1705 287.46 63.9886 286.812 63.625C286.169 63.2576 285.672 62.7386 285.324 62.0682C284.975 61.3939 284.801 60.5966 284.801 59.6761C284.801 58.7784 284.975 57.9905 285.324 57.3125C285.672 56.6345 286.163 56.1061 286.795 55.7273C287.432 55.3485 288.178 55.1591 289.034 55.1591C289.61 55.1591 290.146 55.2519 290.642 55.4375C291.142 55.6193 291.578 55.8939 291.949 56.2614C292.324 56.6288 292.616 57.0909 292.824 57.6477C293.032 58.2008 293.136 58.8485 293.136 59.5909V60.2557H285.767V58.7557H290.858C290.858 58.4072 290.782 58.0985 290.631 57.8295C290.479 57.5606 290.269 57.3504 290 57.1989C289.735 57.0436 289.426 56.9659 289.074 56.9659C288.706 56.9659 288.381 57.0511 288.097 57.2216C287.816 57.3883 287.597 57.6136 287.438 57.8977C287.278 58.178 287.197 58.4905 287.193 58.8352V60.2614C287.193 60.6932 287.273 61.0663 287.432 61.3807C287.595 61.6951 287.824 61.9375 288.119 62.108C288.415 62.2784 288.765 62.3636 289.17 62.3636C289.439 62.3636 289.686 62.3258 289.909 62.25C290.133 62.1742 290.324 62.0606 290.483 61.9091C290.642 61.7576 290.763 61.572 290.847 61.3523L293.085 61.5C292.972 62.0379 292.739 62.5076 292.386 62.9091C292.038 63.3068 291.587 63.6174 291.034 63.8409C290.485 64.0606 289.85 64.1705 289.131 64.1705Z" fill="#525252"/>
<rect x="129" y="82" width="193" height="4" rx="2" fill="#E2E2E6"/>
<rect x="173" y="94" width="105" height="4" rx="2" fill="#E2E2E6"/>
<path d="M53 147H398" stroke="#F4F4F5"/>
<path d="M161.415 159H280.415" stroke="#B2B2B2" stroke-width="3" stroke-linecap="round"/>
<path d="M53 171H398" stroke="#F4F4F5"/>
<path d="M161.415 183H303.415" stroke="#B2B2B2" stroke-width="3" stroke-linecap="round"/>
<path d="M53 122H398" stroke="#F4F4F5"/>
<path d="M161.415 134H261.415" stroke="#B2B2B2" stroke-width="3" stroke-linecap="round"/>
<path d="M53 195H398" stroke="#F4F4F5"/>
<path d="M53 219H398" stroke="#F4F4F5"/>
<path d="M161.415 207H255.415" stroke="#B2B2B2" stroke-width="3" stroke-linecap="round"/>
<path fill-rule="evenodd" clip-rule="evenodd" d="M58.5001 131.333C57.0273 131.333 55.8334 132.527 55.8334 134C55.8334 135.473 57.0273 136.667 58.5001 136.667C59.9728 136.667 61.1667 135.473 61.1667 134C61.1667 132.527 59.9728 131.333 58.5001 131.333ZM55.1667 134C55.1667 132.159 56.6591 130.667 58.5001 130.667C60.341 130.667 61.8334 132.159 61.8334 134C61.8334 135.841 60.341 137.333 58.5001 137.333C56.6591 137.333 55.1667 135.841 55.1667 134ZM58.5001 132.333C58.6842 132.333 58.8334 132.482 58.8334 132.667V133.862L59.7358 134.764C59.866 134.894 59.866 135.105 59.7358 135.236C59.6056 135.366 59.3946 135.366 59.2644 135.236L58.2644 134.236C58.2019 134.173 58.1667 134.088 58.1667 134V132.667C58.1667 132.482 58.316 132.333 58.5001 132.333Z" fill="#D9DADB"/>
<path d="M68.4389 136.572C68.1023 136.571 67.8146 136.482 67.576 136.306C67.3374 136.13 67.1548 135.874 67.0284 135.537C66.902 135.2 66.8388 134.795 66.8388 134.32C66.8388 133.847 66.902 133.443 67.0284 133.108C67.1563 132.773 67.3395 132.517 67.5781 132.341C67.8182 132.165 68.1051 132.077 68.4389 132.077C68.7727 132.077 69.0589 132.165 69.2976 132.343C69.5362 132.519 69.7188 132.775 69.8452 133.11C69.973 133.444 70.0369 133.847 70.0369 134.32C70.0369 134.796 69.9737 135.202 69.8473 135.539C69.7209 135.874 69.5384 136.131 69.2997 136.308C69.0611 136.484 68.7741 136.572 68.4389 136.572ZM68.4389 136.004C68.7344 136.004 68.9652 135.859 69.1314 135.571C69.299 135.283 69.3828 134.866 69.3828 134.32C69.3828 133.958 69.3445 133.652 69.2678 133.402C69.1925 133.151 69.0838 132.96 68.9418 132.831C68.8011 132.7 68.6335 132.635 68.4389 132.635C68.1449 132.635 67.9141 132.78 67.7464 133.07C67.5788 133.359 67.4943 133.776 67.4929 134.32C67.4929 134.684 67.5305 134.991 67.6058 135.243C67.6825 135.493 67.7912 135.683 67.9318 135.812C68.0724 135.94 68.2415 136.004 68.4389 136.004ZM72.2438 132.077C72.4384 132.078 72.6301 132.114 72.8191 132.183C73.008 132.253 73.1784 132.366 73.3304 132.524C73.4838 132.682 73.606 132.895 73.6969 133.163C73.7892 133.43 73.8361 133.763 73.8375 134.161C73.8375 134.543 73.7992 134.883 73.7225 135.181C73.6458 135.478 73.5357 135.729 73.3922 135.933C73.2502 136.138 73.0776 136.293 72.8745 136.4C72.6713 136.506 72.4426 136.56 72.1884 136.56C71.9284 136.56 71.6976 136.509 71.4959 136.406C71.2942 136.304 71.1301 136.163 71.0037 135.982C70.8773 135.8 70.7985 135.592 70.7672 135.356H71.4171C71.4597 135.543 71.5463 135.695 71.677 135.812C71.8091 135.927 71.9796 135.984 72.1884 135.984C72.508 135.984 72.7573 135.845 72.9363 135.567C73.1152 135.287 73.2054 134.896 73.2069 134.395H73.1728C73.0989 134.517 73.0066 134.622 72.8958 134.71C72.7864 134.798 72.6635 134.866 72.5272 134.915C72.3908 134.963 72.2452 134.987 72.0904 134.987C71.839 134.987 71.6103 134.925 71.4043 134.802C71.1983 134.678 71.0343 134.509 70.9121 134.293C70.79 134.077 70.7289 133.83 70.7289 133.553C70.7289 133.278 70.7914 133.028 70.9164 132.803C71.0428 132.579 71.2189 132.401 71.4448 132.271C71.6721 132.138 71.9384 132.074 72.2438 132.077ZM72.2459 132.631C72.0797 132.631 71.9299 132.672 71.7963 132.754C71.6642 132.835 71.5598 132.945 71.4831 133.085C71.4064 133.222 71.3681 133.376 71.3681 133.545C71.3681 133.714 71.405 133.867 71.4789 134.005C71.5542 134.141 71.6564 134.25 71.7857 134.331C71.9164 134.411 72.0655 134.45 72.2331 134.45C72.3581 134.45 72.4746 134.426 72.5826 134.378C72.6905 134.33 72.785 134.263 72.8659 134.178C72.9469 134.091 73.0101 133.993 73.0556 133.884C73.101 133.774 73.1238 133.659 73.1238 133.538C73.1238 133.378 73.0854 133.229 73.0087 133.091C72.9334 132.953 72.8297 132.842 72.6976 132.759C72.5655 132.673 72.415 132.631 72.2459 132.631ZM75.0355 135.959C74.919 135.959 74.8189 135.918 74.7351 135.835C74.6513 135.751 74.6094 135.651 74.6094 135.533C74.6094 135.416 74.6513 135.317 74.7351 135.234C74.8189 135.151 74.919 135.109 75.0355 135.109C75.152 135.109 75.2521 135.151 75.3359 135.234C75.4197 135.317 75.4616 135.416 75.4616 135.533C75.4616 135.611 75.4418 135.683 75.402 135.748C75.3636 135.812 75.3125 135.863 75.2486 135.901C75.1847 135.94 75.1136 135.959 75.0355 135.959ZM75.0355 133.773C74.919 133.773 74.8189 133.732 74.7351 133.649C74.6513 133.565 74.6094 133.464 74.6094 133.347C74.6094 133.23 74.6513 133.131 74.7351 133.048C74.8189 132.964 74.919 132.923 75.0355 132.923C75.152 132.923 75.2521 132.964 75.3359 133.048C75.4197 133.131 75.4616 133.23 75.4616 133.347C75.4616 133.425 75.4418 133.496 75.402 133.562C75.3636 133.626 75.3125 133.677 75.2486 133.715C75.1847 133.754 75.1136 133.773 75.0355 133.773ZM77.8256 136.572C77.489 136.571 77.2013 136.482 76.9627 136.306C76.7241 136.13 76.5415 135.874 76.4151 135.537C76.2887 135.2 76.2255 134.795 76.2255 134.32C76.2255 133.847 76.2887 133.443 76.4151 133.108C76.543 132.773 76.7262 132.517 76.9648 132.341C77.2049 132.165 77.4918 132.077 77.8256 132.077C78.1594 132.077 78.4457 132.165 78.6843 132.343C78.9229 132.519 79.1055 132.775 79.2319 133.11C79.3597 133.444 79.4237 133.847 79.4237 134.32C79.4237 134.796 79.3604 135.202 79.234 135.539C79.1076 135.874 78.9251 136.131 78.6864 136.308C78.4478 136.484 78.1609 136.572 77.8256 136.572ZM77.8256 136.004C78.1211 136.004 78.3519 135.859 78.5181 135.571C78.6857 135.283 78.7695 134.866 78.7695 134.32C78.7695 133.958 78.7312 133.652 78.6545 133.402C78.5792 133.151 78.4705 132.96 78.3285 132.831C78.1879 132.7 78.0202 132.635 77.8256 132.635C77.5316 132.635 77.3008 132.78 77.1332 133.07C76.9656 133.359 76.881 133.776 76.8796 134.32C76.8796 134.684 76.9173 134.991 76.9925 135.243C77.0692 135.493 77.1779 135.683 77.3185 135.812C77.4592 135.94 77.6282 136.004 77.8256 136.004ZM81.6987 136.572C81.362 136.571 81.0744 136.482 80.8358 136.306C80.5971 136.13 80.4146 135.874 80.2882 135.537C80.1618 135.2 80.0985 134.795 80.0985 134.32C80.0985 133.847 80.1618 133.443 80.2882 133.108C80.416 132.773 80.5993 132.517 80.8379 132.341C81.0779 132.165 81.3649 132.077 81.6987 132.077C82.0325 132.077 82.3187 132.165 82.5574 132.343C82.796 132.519 82.9785 132.775 83.1049 133.11C83.2328 133.444 83.2967 133.847 83.2967 134.32C83.2967 134.796 83.2335 135.202 83.1071 135.539C82.9806 135.874 82.7981 136.131 82.5595 136.308C82.3208 136.484 82.0339 136.572 81.6987 136.572ZM81.6987 136.004C81.9941 136.004 82.225 135.859 82.3912 135.571C82.5588 135.283 82.6426 134.866 82.6426 134.32C82.6426 133.958 82.6042 133.652 82.5275 133.402C82.4522 133.151 82.3436 132.96 82.2015 132.831C82.0609 132.7 81.8933 132.635 81.6987 132.635C81.4047 132.635 81.1738 132.78 81.0062 133.07C80.8386 133.359 80.7541 133.776 80.7527 134.32C80.7527 134.684 80.7903 134.991 80.8656 135.243C80.9423 135.493 81.051 135.683 81.1916 135.812C81.3322 135.94 81.5012 136.004 81.6987 136.004ZM86.0687 136.5H85.3699L86.9402 132.136H87.7008L89.2711 136.5H88.5723L87.3386 132.929H87.3045L86.0687 136.5ZM86.1859 134.791H88.4529V135.345H86.1859V134.791ZM89.9013 132.136H90.7003L92.0895 135.528H92.1406L93.5298 132.136H94.3288V136.5H93.7024V133.342H93.6619L92.375 136.494H91.8551L90.5682 133.34H90.5277V136.5H89.9013V132.136ZM98.7511 134.041V134.595H96.8164V134.041H98.7511ZM102.835 132.136V136.5H102.175V132.797H102.149L101.105 133.479V132.848L102.194 132.136H102.835ZM105.535 136.572C105.198 136.571 104.91 136.482 104.672 136.306C104.433 136.13 104.251 135.874 104.124 135.537C103.998 135.2 103.934 134.795 103.934 134.32C103.934 133.847 103.998 133.443 104.124 133.108C104.252 132.773 104.435 132.517 104.674 132.341C104.914 132.165 105.201 132.077 105.535 132.077C105.868 132.077 106.155 132.165 106.393 132.343C106.632 132.519 106.814 132.775 106.941 133.11C107.069 133.444 107.133 133.847 107.133 134.32C107.133 134.796 107.069 135.202 106.943 135.539C106.817 135.874 106.634 136.131 106.395 136.308C106.157 136.484 105.87 136.572 105.535 136.572ZM105.535 136.004C105.83 136.004 106.061 135.859 106.227 135.571C106.395 135.283 106.479 134.866 106.479 134.32C106.479 133.958 106.44 133.652 106.363 133.402C106.288 133.151 106.18 132.96 106.037 132.831C105.897 132.7 105.729 132.635 105.535 132.635C105.241 132.635 105.01 132.78 104.842 133.07C104.675 133.359 104.59 133.776 104.589 134.32C104.589 134.684 104.626 134.991 104.702 135.243C104.778 135.493 104.887 135.683 105.028 135.812C105.168 135.94 105.337 136.004 105.535 136.004ZM108.317 135.959C108.2 135.959 108.1 135.918 108.016 135.835C107.933 135.751 107.891 135.651 107.891 135.533C107.891 135.416 107.933 135.317 108.016 135.234C108.1 135.151 108.2 135.109 108.317 135.109C108.433 135.109 108.533 135.151 108.617 135.234C108.701 135.317 108.743 135.416 108.743 135.533C108.743 135.611 108.723 135.683 108.683 135.748C108.645 135.812 108.594 135.863 108.53 135.901C108.466 135.94 108.395 135.959 108.317 135.959ZM108.317 133.773C108.2 133.773 108.1 133.732 108.016 133.649C107.933 133.565 107.891 133.464 107.891 133.347C107.891 133.23 107.933 133.131 108.016 133.048C108.1 132.964 108.2 132.923 108.317 132.923C108.433 132.923 108.533 132.964 108.617 133.048C108.701 133.131 108.743 133.23 108.743 133.347C108.743 133.425 108.723 133.496 108.683 133.562C108.645 133.626 108.594 133.677 108.53 133.715C108.466 133.754 108.395 133.773 108.317 133.773ZM111.107 136.572C110.77 136.571 110.483 136.482 110.244 136.306C110.005 136.13 109.823 135.874 109.696 135.537C109.57 135.2 109.507 134.795 109.507 134.32C109.507 133.847 109.57 133.443 109.696 133.108C109.824 132.773 110.007 132.517 110.246 132.341C110.486 132.165 110.773 132.077 111.107 132.077C111.441 132.077 111.727 132.165 111.966 132.343C112.204 132.519 112.387 132.775 112.513 133.11C112.641 133.444 112.705 133.847 112.705 134.32C112.705 134.796 112.642 135.202 112.515 135.539C112.389 135.874 112.206 136.131 111.968 136.308C111.729 136.484 111.442 136.572 111.107 136.572ZM111.107 136.004C111.402 136.004 111.633 135.859 111.799 135.571C111.967 135.283 112.051 134.866 112.051 134.32C112.051 133.958 112.012 133.652 111.936 133.402C111.86 133.151 111.752 132.96 111.61 132.831C111.469 132.7 111.301 132.635 111.107 132.635C110.813 132.635 110.582 132.78 110.414 133.07C110.247 133.359 110.162 133.776 110.161 134.32C110.161 134.684 110.199 134.991 110.274 135.243C110.35 135.493 110.459 135.683 110.6 135.812C110.74 135.94 110.909 136.004 111.107 136.004ZM114.98 136.572C114.643 136.571 114.356 136.482 114.117 136.306C113.878 136.13 113.696 135.874 113.569 135.537C113.443 135.2 113.38 134.795 113.38 134.32C113.38 133.847 113.443 133.443 113.569 133.108C113.697 132.773 113.881 132.517 114.119 132.341C114.359 132.165 114.646 132.077 114.98 132.077C115.314 132.077 115.6 132.165 115.839 132.343C116.077 132.519 116.26 132.775 116.386 133.11C116.514 133.444 116.578 133.847 116.578 134.32C116.578 134.796 116.515 135.202 116.388 135.539C116.262 135.874 116.079 136.131 115.841 136.308C115.602 136.484 115.315 136.572 114.98 136.572ZM114.98 136.004C115.275 136.004 115.506 135.859 115.672 135.571C115.84 135.283 115.924 134.866 115.924 134.32C115.924 133.958 115.885 133.652 115.809 133.402C115.733 133.151 115.625 132.96 115.483 132.831C115.342 132.7 115.175 132.635 114.98 132.635C114.686 132.635 114.455 132.78 114.287 133.07C114.12 133.359 114.035 133.776 114.034 134.32C114.034 134.684 114.072 134.991 114.147 135.243C114.224 135.493 114.332 135.683 114.473 135.812C114.613 135.94 114.782 136.004 114.98 136.004ZM119.35 136.5H118.651L120.221 132.136H120.982L122.552 136.5H121.854L120.62 132.929H120.586L119.35 136.5ZM119.467 134.791H121.734V135.345H119.467V134.791ZM123.183 132.136H123.982L125.371 135.528H125.422L126.811 132.136H127.61V136.5H126.984V133.342H126.943L125.656 136.494H125.136L123.849 133.34H123.809V136.5H123.183V132.136Z" fill="#C8C8C8"/>
<path fill-rule="evenodd" clip-rule="evenodd" d="M58.5001 156.333C57.0273 156.333 55.8334 157.527 55.8334 159C55.8334 160.473 57.0273 161.667 58.5001 161.667C59.9728 161.667 61.1667 160.473 61.1667 159C61.1667 157.527 59.9728 156.333 58.5001 156.333ZM55.1667 159C55.1667 157.159 56.6591 155.667 58.5001 155.667C60.341 155.667 61.8334 157.159 61.8334 159C61.8334 160.841 60.341 162.333 58.5001 162.333C56.6591 162.333 55.1667 160.841 55.1667 159ZM58.5001 157.333C58.6842 157.333 58.8334 157.482 58.8334 157.667V158.862L59.7358 159.764C59.866 159.894 59.866 160.105 59.7358 160.236C59.6056 160.366 59.3946 160.366 59.2644 160.236L58.2644 159.236C58.2019 159.173 58.1667 159.088 58.1667 159V157.667C58.1667 157.482 58.316 157.333 58.5001 157.333Z" fill="#D9DADB"/>
<path d="M68.5753 157.136V161.5H67.9148V157.797H67.8892L66.8452 158.479V157.848L67.9339 157.136H68.5753ZM71.2749 161.572C70.9382 161.571 70.6506 161.482 70.4119 161.306C70.1733 161.13 69.9908 160.874 69.8643 160.537C69.7379 160.2 69.6747 159.795 69.6747 159.32C69.6747 158.847 69.7379 158.443 69.8643 158.108C69.9922 157.773 70.1754 157.517 70.4141 157.341C70.6541 157.165 70.9411 157.077 71.2749 157.077C71.6087 157.077 71.8949 157.165 72.1335 157.343C72.3722 157.519 72.5547 157.775 72.6811 158.11C72.8089 158.444 72.8729 158.847 72.8729 159.32C72.8729 159.796 72.8097 160.202 72.6832 160.539C72.5568 160.874 72.3743 161.131 72.1357 161.308C71.897 161.484 71.6101 161.572 71.2749 161.572ZM71.2749 161.004C71.5703 161.004 71.8011 160.859 71.9673 160.571C72.1349 160.283 72.2188 159.866 72.2188 159.32C72.2188 158.958 72.1804 158.652 72.1037 158.402C72.0284 158.151 71.9197 157.96 71.7777 157.831C71.6371 157.7 71.4695 157.635 71.2749 157.635C70.9808 157.635 70.75 157.78 70.5824 158.07C70.4148 158.359 70.3303 158.776 70.3288 159.32C70.3288 159.684 70.3665 159.991 70.4418 160.243C70.5185 160.493 70.6271 160.683 70.7678 160.812C70.9084 160.94 71.0774 161.004 71.2749 161.004ZM74.057 160.959C73.9405 160.959 73.8404 160.918 73.7566 160.835C73.6728 160.751 73.6309 160.651 73.6309 160.533C73.6309 160.416 73.6728 160.317 73.7566 160.234C73.8404 160.151 73.9405 160.109 74.057 160.109C74.1735 160.109 74.2736 160.151 74.3574 160.234C74.4412 160.317 74.4831 160.416 74.4831 160.533C74.4831 160.611 74.4632 160.683 74.4235 160.748C74.3851 160.812 74.334 160.863 74.2701 160.901C74.2061 160.94 74.1351 160.959 74.057 160.959ZM74.057 158.773C73.9405 158.773 73.8404 158.732 73.7566 158.649C73.6728 158.565 73.6309 158.464 73.6309 158.347C73.6309 158.23 73.6728 158.131 73.7566 158.048C73.8404 157.964 73.9405 157.923 74.057 157.923C74.1735 157.923 74.2736 157.964 74.3574 158.048C74.4412 158.131 74.4831 158.23 74.4831 158.347C74.4831 158.425 74.4632 158.496 74.4235 158.562C74.3851 158.626 74.334 158.677 74.2701 158.715C74.2061 158.754 74.1351 158.773 74.057 158.773ZM76.8471 161.572C76.5105 161.571 76.2228 161.482 75.9842 161.306C75.7456 161.13 75.563 160.874 75.4366 160.537C75.3102 160.2 75.247 159.795 75.247 159.32C75.247 158.847 75.3102 158.443 75.4366 158.108C75.5645 157.773 75.7477 157.517 75.9863 157.341C76.2264 157.165 76.5133 157.077 76.8471 157.077C77.1809 157.077 77.4672 157.165 77.7058 157.343C77.9444 157.519 78.127 157.775 78.2534 158.11C78.3812 158.444 78.4451 158.847 78.4451 159.32C78.4451 159.796 78.3819 160.202 78.2555 160.539C78.1291 160.874 77.9466 161.131 77.7079 161.308C77.4693 161.484 77.1824 161.572 76.8471 161.572ZM76.8471 161.004C77.1426 161.004 77.3734 160.859 77.5396 160.571C77.7072 160.283 77.791 159.866 77.791 159.32C77.791 158.958 77.7527 158.652 77.676 158.402C77.6007 158.151 77.492 157.96 77.35 157.831C77.2093 157.7 77.0417 157.635 76.8471 157.635C76.5531 157.635 76.3223 157.78 76.1547 158.07C75.987 158.359 75.9025 158.776 75.9011 159.32C75.9011 159.684 75.9387 159.991 76.014 160.243C76.0907 160.493 76.1994 160.683 76.34 160.812C76.4806 160.94 76.6497 161.004 76.8471 161.004ZM80.7202 161.572C80.3835 161.571 80.0959 161.482 79.8572 161.306C79.6186 161.13 79.4361 160.874 79.3097 160.537C79.1832 160.2 79.12 159.795 79.12 159.32C79.12 158.847 79.1832 158.443 79.3097 158.108C79.4375 157.773 79.6207 157.517 79.8594 157.341C80.0994 157.165 80.3864 157.077 80.7202 157.077C81.054 157.077 81.3402 157.165 81.5788 157.343C81.8175 157.519 82 157.775 82.1264 158.11C82.2543 158.444 82.3182 158.847 82.3182 159.32C82.3182 159.796 82.255 160.202 82.1286 160.539C82.0021 160.874 81.8196 161.131 81.581 161.308C81.3423 161.484 81.0554 161.572 80.7202 161.572ZM80.7202 161.004C81.0156 161.004 81.2464 160.859 81.4126 160.571C81.5803 160.283 81.6641 159.866 81.6641 159.32C81.6641 158.958 81.6257 158.652 81.549 158.402C81.4737 158.151 81.3651 157.96 81.223 157.831C81.0824 157.7 80.9148 157.635 80.7202 157.635C80.4261 157.635 80.1953 157.78 80.0277 158.07C79.8601 158.359 79.7756 158.776 79.7741 159.32C79.7741 159.684 79.8118 159.991 79.8871 160.243C79.9638 160.493 80.0724 160.683 80.2131 160.812C80.3537 160.94 80.5227 161.004 80.7202 161.004ZM85.0902 161.5H84.3913L85.9616 157.136H86.7223L88.2926 161.5H87.5938L86.3601 157.929H86.326L85.0902 161.5ZM85.2074 159.791H87.4744V160.345H85.2074V159.791ZM88.9228 157.136H89.7218L91.111 160.528H91.1621L92.5513 157.136H93.3503V161.5H92.7239V158.342H92.6834L91.3965 161.494H90.8766L89.5897 158.34H89.5492V161.5H88.9228V157.136ZM97.7725 159.041V159.595H95.8379V159.041H97.7725ZM101.857 157.136V161.5H101.196V157.797H101.17L100.126 158.479V157.848L101.215 157.136H101.857ZM104.692 157.136V161.5H104.032V157.797H104.006L102.962 158.479V157.848L104.051 157.136H104.692ZM106.301 160.959C106.185 160.959 106.085 160.918 106.001 160.835C105.917 160.751 105.875 160.651 105.875 160.533C105.875 160.416 105.917 160.317 106.001 160.234C106.085 160.151 106.185 160.109 106.301 160.109C106.418 160.109 106.518 160.151 106.602 160.234C106.685 160.317 106.727 160.416 106.727 160.533C106.727 160.611 106.707 160.683 106.668 160.748C106.629 160.812 106.578 160.863 106.514 160.901C106.45 160.94 106.379 160.959 106.301 160.959ZM106.301 158.773C106.185 158.773 106.085 158.732 106.001 158.649C105.917 158.565 105.875 158.464 105.875 158.347C105.875 158.23 105.917 158.131 106.001 158.048C106.085 157.964 106.185 157.923 106.301 157.923C106.418 157.923 106.518 157.964 106.602 158.048C106.685 158.131 106.727 158.23 106.727 158.347C106.727 158.425 106.707 158.496 106.668 158.562C106.629 158.626 106.578 158.677 106.514 158.715C106.45 158.754 106.379 158.773 106.301 158.773ZM109.091 161.572C108.755 161.571 108.467 161.482 108.228 161.306C107.99 161.13 107.807 160.874 107.681 160.537C107.554 160.2 107.491 159.795 107.491 159.32C107.491 158.847 107.554 158.443 107.681 158.108C107.809 157.773 107.992 157.517 108.23 157.341C108.471 157.165 108.757 157.077 109.091 157.077C109.425 157.077 109.711 157.165 109.95 157.343C110.189 157.519 110.371 157.775 110.498 158.11C110.625 158.444 110.689 158.847 110.689 159.32C110.689 159.796 110.626 160.202 110.5 160.539C110.373 160.874 110.191 161.131 109.952 161.308C109.713 161.484 109.426 161.572 109.091 161.572ZM109.091 161.004C109.387 161.004 109.618 160.859 109.784 160.571C109.951 160.283 110.035 159.866 110.035 159.32C110.035 158.958 109.997 158.652 109.92 158.402C109.845 158.151 109.736 157.96 109.594 157.831C109.453 157.7 109.286 157.635 109.091 157.635C108.797 157.635 108.566 157.78 108.399 158.07C108.231 158.359 108.147 158.776 108.145 159.32C108.145 159.684 108.183 159.991 108.258 160.243C108.335 160.493 108.444 160.683 108.584 160.812C108.725 160.94 108.894 161.004 109.091 161.004ZM112.964 161.572C112.628 161.571 112.34 161.482 112.101 161.306C111.863 161.13 111.68 160.874 111.554 160.537C111.427 160.2 111.364 159.795 111.364 159.32C111.364 158.847 111.427 158.443 111.554 158.108C111.682 157.773 111.865 157.517 112.104 157.341C112.344 157.165 112.631 157.077 112.964 157.077C113.298 157.077 113.584 157.165 113.823 157.343C114.062 157.519 114.244 157.775 114.371 158.11C114.498 158.444 114.562 158.847 114.562 159.32C114.562 159.796 114.499 160.202 114.373 160.539C114.246 160.874 114.064 161.131 113.825 161.308C113.586 161.484 113.3 161.572 112.964 161.572ZM112.964 161.004C113.26 161.004 113.491 160.859 113.657 160.571C113.824 160.283 113.908 159.866 113.908 159.32C113.908 158.958 113.87 158.652 113.793 158.402C113.718 158.151 113.609 157.96 113.467 157.831C113.327 157.7 113.159 157.635 112.964 157.635C112.67 157.635 112.439 157.78 112.272 158.07C112.104 158.359 112.02 158.776 112.018 159.32C112.018 159.684 112.056 159.991 112.131 160.243C112.208 160.493 112.317 160.683 112.457 160.812C112.598 160.94 112.767 161.004 112.964 161.004ZM117.334 161.5H116.635L118.206 157.136H118.966L120.537 161.5H119.838L118.604 157.929H118.57L117.334 161.5ZM117.452 159.791H119.719V160.345H117.452V159.791ZM121.167 157.136H121.966L123.355 160.528H123.406L124.795 157.136H125.594V161.5H124.968V158.342H124.928L123.641 161.494H123.121L121.834 158.34H121.793V161.5H121.167V157.136Z" fill="#C8C8C8"/>
<path fill-rule="evenodd" clip-rule="evenodd" d="M58.5001 180.333C57.0273 180.333 55.8334 181.527 55.8334 183C55.8334 184.473 57.0273 185.667 58.5001 185.667C59.9728 185.667 61.1667 184.473 61.1667 183C61.1667 181.527 59.9728 180.333 58.5001 180.333ZM55.1667 183C55.1667 181.159 56.6591 179.667 58.5001 179.667C60.341 179.667 61.8334 181.159 61.8334 183C61.8334 184.841 60.341 186.333 58.5001 186.333C56.6591 186.333 55.1667 184.841 55.1667 183ZM58.5001 181.333C58.6842 181.333 58.8334 181.482 58.8334 181.667V182.862L59.7358 183.764C59.866 183.894 59.866 184.105 59.7358 184.236C59.6056 184.366 59.3946 184.366 59.2644 184.236L58.2644 183.236C58.2019 183.173 58.1667 183.088 58.1667 183V181.667C58.1667 181.482 58.316 181.333 58.5001 181.333Z" fill="#D9DADB"/>
<path d="M68.5753 181.136V185.5H67.9148V181.797H67.8892L66.8452 182.479V181.848L67.9339 181.136H68.5753ZM71.4112 181.136V185.5H70.7507V181.797H70.7251L69.6811 182.479V181.848L70.7699 181.136H71.4112ZM73.0199 184.959C72.9034 184.959 72.8033 184.918 72.7195 184.835C72.6357 184.751 72.5938 184.651 72.5938 184.533C72.5938 184.416 72.6357 184.317 72.7195 184.234C72.8033 184.151 72.9034 184.109 73.0199 184.109C73.1364 184.109 73.2365 184.151 73.3203 184.234C73.4041 184.317 73.446 184.416 73.446 184.533C73.446 184.611 73.4261 184.683 73.3864 184.748C73.348 184.812 73.2969 184.863 73.233 184.901C73.169 184.94 73.098 184.959 73.0199 184.959ZM73.0199 182.773C72.9034 182.773 72.8033 182.732 72.7195 182.649C72.6357 182.565 72.5938 182.464 72.5938 182.347C72.5938 182.23 72.6357 182.131 72.7195 182.048C72.8033 181.964 72.9034 181.923 73.0199 181.923C73.1364 181.923 73.2365 181.964 73.3203 182.048C73.4041 182.131 73.446 182.23 73.446 182.347C73.446 182.425 73.4261 182.496 73.3864 182.562C73.348 182.626 73.2969 182.677 73.233 182.715C73.169 182.754 73.098 182.773 73.0199 182.773ZM75.81 185.572C75.4734 185.571 75.1857 185.482 74.9471 185.306C74.7085 185.13 74.5259 184.874 74.3995 184.537C74.2731 184.2 74.2099 183.795 74.2099 183.32C74.2099 182.847 74.2731 182.443 74.3995 182.108C74.5273 181.773 74.7106 181.517 74.9492 181.341C75.1893 181.165 75.4762 181.077 75.81 181.077C76.1438 181.077 76.43 181.165 76.6687 181.343C76.9073 181.519 77.0898 181.775 77.2163 182.11C77.3441 182.444 77.408 182.847 77.408 183.32C77.408 183.796 77.3448 184.202 77.2184 184.539C77.092 184.874 76.9094 185.131 76.6708 185.308C76.4322 185.484 76.1452 185.572 75.81 185.572ZM75.81 185.004C76.1055 185.004 76.3363 184.859 76.5025 184.571C76.6701 184.283 76.7539 183.866 76.7539 183.32C76.7539 182.958 76.7156 182.652 76.6388 182.402C76.5636 182.151 76.4549 181.96 76.3129 181.831C76.1722 181.7 76.0046 181.635 75.81 181.635C75.516 181.635 75.2852 181.78 75.1175 182.07C74.9499 182.359 74.8654 182.776 74.864 183.32C74.864 183.684 74.9016 183.991 74.9769 184.243C75.0536 184.493 75.1623 184.683 75.3029 184.812C75.4435 184.94 75.6126 185.004 75.81 185.004ZM79.6831 185.572C79.3464 185.571 79.0588 185.482 78.8201 185.306C78.5815 185.13 78.399 184.874 78.2725 184.537C78.1461 184.2 78.0829 183.795 78.0829 183.32C78.0829 182.847 78.1461 182.443 78.2725 182.108C78.4004 181.773 78.5836 181.517 78.8223 181.341C79.0623 181.165 79.3493 181.077 79.6831 181.077C80.0169 181.077 80.3031 181.165 80.5417 181.343C80.7804 181.519 80.9629 181.775 81.0893 182.11C81.2172 182.444 81.2811 182.847 81.2811 183.32C81.2811 183.796 81.2179 184.202 81.0914 184.539C80.965 184.874 80.7825 185.131 80.5439 185.308C80.3052 185.484 80.0183 185.572 79.6831 185.572ZM79.6831 185.004C79.9785 185.004 80.2093 184.859 80.3755 184.571C80.5431 184.283 80.627 183.866 80.627 183.32C80.627 182.958 80.5886 182.652 80.5119 182.402C80.4366 182.151 80.3279 181.96 80.1859 181.831C80.0453 181.7 79.8777 181.635 79.6831 181.635C79.389 181.635 79.1582 181.78 78.9906 182.07C78.823 182.359 78.7385 182.776 78.737 183.32C78.737 183.684 78.7747 183.991 78.85 184.243C78.9267 184.493 79.0353 184.683 79.176 184.812C79.3166 184.94 79.4856 185.004 79.6831 185.004ZM84.0531 185.5H83.3542L84.9245 181.136H85.6852L87.2555 185.5H86.5566L85.323 181.929H85.2889L84.0531 185.5ZM84.1703 183.791H86.4373V184.345H84.1703V183.791ZM87.8857 181.136H88.6847L90.0739 184.528H90.125L91.5142 181.136H92.3132V185.5H91.6868V182.342H91.6463L90.3594 185.494H89.8395L88.5526 182.34H88.5121V185.5H87.8857V181.136ZM96.7354 183.041V183.595H94.8008V183.041H96.7354ZM100.819 181.136V185.5H100.159V181.797H100.133L99.0893 182.479V181.848L100.178 181.136H100.819ZM102 185.5V185.023L103.476 183.493C103.634 183.327 103.764 183.181 103.866 183.056C103.97 182.93 104.047 182.81 104.099 182.696C104.15 182.582 104.175 182.462 104.175 182.334C104.175 182.189 104.141 182.064 104.073 181.959C104.005 181.852 103.912 181.771 103.794 181.714C103.676 181.656 103.543 181.626 103.395 181.626C103.239 181.626 103.103 181.658 102.986 181.722C102.87 181.786 102.78 181.876 102.718 181.993C102.655 182.109 102.624 182.246 102.624 182.402H101.996C101.996 182.136 102.057 181.904 102.179 181.705C102.301 181.506 102.469 181.352 102.682 181.243C102.895 181.132 103.137 181.077 103.408 181.077C103.682 181.077 103.924 181.131 104.133 181.241C104.343 181.349 104.507 181.496 104.625 181.684C104.743 181.87 104.802 182.08 104.802 182.315C104.802 182.477 104.771 182.635 104.71 182.79C104.65 182.945 104.546 183.117 104.397 183.308C104.248 183.496 104.04 183.726 103.775 183.996L102.907 184.903V184.935H104.872V185.5H102ZM106.108 184.959C105.991 184.959 105.891 184.918 105.807 184.835C105.724 184.751 105.682 184.651 105.682 184.533C105.682 184.416 105.724 184.317 105.807 184.234C105.891 184.151 105.991 184.109 106.108 184.109C106.224 184.109 106.324 184.151 106.408 184.234C106.492 184.317 106.534 184.416 106.534 184.533C106.534 184.611 106.514 184.683 106.474 184.748C106.436 184.812 106.385 184.863 106.321 184.901C106.257 184.94 106.186 184.959 106.108 184.959ZM106.108 182.773C105.991 182.773 105.891 182.732 105.807 182.649C105.724 182.565 105.682 182.464 105.682 182.347C105.682 182.23 105.724 182.131 105.807 182.048C105.891 181.964 105.991 181.923 106.108 181.923C106.224 181.923 106.324 181.964 106.408 182.048C106.492 182.131 106.534 182.23 106.534 182.347C106.534 182.425 106.514 182.496 106.474 182.562C106.436 182.626 106.385 182.677 106.321 182.715C106.257 182.754 106.186 182.773 106.108 182.773ZM108.898 185.572C108.561 185.571 108.274 185.482 108.035 185.306C107.796 185.13 107.614 184.874 107.487 184.537C107.361 184.2 107.298 183.795 107.298 183.32C107.298 182.847 107.361 182.443 107.487 182.108C107.615 181.773 107.798 181.517 108.037 181.341C108.277 181.165 108.564 181.077 108.898 181.077C109.232 181.077 109.518 181.165 109.757 181.343C109.995 181.519 110.178 181.775 110.304 182.11C110.432 182.444 110.496 182.847 110.496 183.32C110.496 183.796 110.433 184.202 110.306 184.539C110.18 184.874 109.997 185.131 109.759 185.308C109.52 185.484 109.233 185.572 108.898 185.572ZM108.898 185.004C109.193 185.004 109.424 184.859 109.59 184.571C109.758 184.283 109.842 183.866 109.842 183.32C109.842 182.958 109.803 182.652 109.727 182.402C109.651 182.151 109.543 181.96 109.401 181.831C109.26 181.7 109.093 181.635 108.898 181.635C108.604 181.635 108.373 181.78 108.205 182.07C108.038 182.359 107.953 182.776 107.952 183.32C107.952 183.684 107.99 183.991 108.065 184.243C108.142 184.493 108.25 184.683 108.391 184.812C108.531 184.94 108.7 185.004 108.898 185.004ZM112.771 185.572C112.434 185.571 112.147 185.482 111.908 185.306C111.669 185.13 111.487 184.874 111.36 184.537C111.234 184.2 111.171 183.795 111.171 183.32C111.171 182.847 111.234 182.443 111.36 182.108C111.488 181.773 111.672 181.517 111.91 181.341C112.15 181.165 112.437 181.077 112.771 181.077C113.105 181.077 113.391 181.165 113.63 181.343C113.868 181.519 114.051 181.775 114.177 182.11C114.305 182.444 114.369 182.847 114.369 183.32C114.369 183.796 114.306 184.202 114.179 184.539C114.053 184.874 113.87 185.131 113.632 185.308C113.393 185.484 113.106 185.572 112.771 185.572ZM112.771 185.004C113.066 185.004 113.297 184.859 113.463 184.571C113.631 184.283 113.715 183.866 113.715 183.32C113.715 182.958 113.676 182.652 113.6 182.402C113.525 182.151 113.416 181.96 113.274 181.831C113.133 181.7 112.966 181.635 112.771 181.635C112.477 181.635 112.246 181.78 112.078 182.07C111.911 182.359 111.826 182.776 111.825 183.32C111.825 183.684 111.863 183.991 111.938 184.243C112.015 184.493 112.123 184.683 112.264 184.812C112.404 184.94 112.574 185.004 112.771 185.004ZM116.772 185.5V181.136H118.328C118.667 181.136 118.949 181.198 119.172 181.322C119.395 181.445 119.561 181.614 119.672 181.829C119.783 182.042 119.838 182.282 119.838 182.549C119.838 182.817 119.782 183.059 119.67 183.273C119.559 183.487 119.392 183.656 119.167 183.781C118.944 183.904 118.664 183.966 118.326 183.966H117.256V183.408H118.266C118.48 183.408 118.654 183.371 118.788 183.297C118.922 183.222 119.02 183.119 119.082 182.99C119.145 182.861 119.176 182.714 119.176 182.549C119.176 182.384 119.145 182.238 119.082 182.11C119.02 181.982 118.921 181.882 118.786 181.81C118.652 181.737 118.476 181.701 118.257 181.701H117.431V185.5H116.772ZM120.61 181.136H121.409L122.798 184.528H122.85L124.239 181.136H125.038V185.5H124.411V182.342H124.371L123.084 185.494H122.564L121.277 182.34H121.237V185.5H120.61V181.136Z" fill="#C8C8C8"/>
<path fill-rule="evenodd" clip-rule="evenodd" d="M58.5001 204.333C57.0273 204.333 55.8334 205.527 55.8334 207C55.8334 208.473 57.0273 209.667 58.5001 209.667C59.9728 209.667 61.1667 208.473 61.1667 207C61.1667 205.527 59.9728 204.333 58.5001 204.333ZM55.1667 207C55.1667 205.159 56.6591 203.667 58.5001 203.667C60.341 203.667 61.8334 205.159 61.8334 207C61.8334 208.841 60.341 210.333 58.5001 210.333C56.6591 210.333 55.1667 208.841 55.1667 207ZM58.5001 205.333C58.6842 205.333 58.8334 205.482 58.8334 205.667V206.862L59.7358 207.764C59.866 207.894 59.866 208.105 59.7358 208.236C59.6056 208.366 59.3946 208.366 59.2644 208.236L58.2644 207.236C58.2019 207.173 58.1667 207.088 58.1667 207V205.667C58.1667 205.482 58.316 205.333 58.5001 205.333Z" fill="#D9DADB"/>
<path d="M68.5753 205.136V209.5H67.9148V205.797H67.8892L66.8452 206.479V205.848L67.9339 205.136H68.5753ZM69.7557 209.5V209.023L71.2322 207.493C71.3899 207.327 71.5199 207.181 71.6222 207.056C71.7259 206.93 71.8033 206.81 71.8544 206.696C71.9055 206.582 71.9311 206.462 71.9311 206.334C71.9311 206.189 71.897 206.064 71.8288 205.959C71.7607 205.852 71.6676 205.771 71.5497 205.714C71.4318 205.656 71.299 205.626 71.1513 205.626C70.995 205.626 70.8587 205.658 70.7422 205.722C70.6257 205.786 70.5362 205.876 70.4737 205.993C70.4112 206.109 70.38 206.246 70.38 206.402H69.7514C69.7514 206.136 69.8125 205.904 69.9347 205.705C70.0568 205.506 70.2244 205.352 70.4375 205.243C70.6506 205.132 70.8928 205.077 71.1641 205.077C71.4382 205.077 71.6797 205.131 71.8885 205.241C72.0987 205.349 72.2628 205.496 72.3807 205.684C72.4986 205.87 72.5575 206.08 72.5575 206.315C72.5575 206.477 72.527 206.635 72.4659 206.79C72.4063 206.945 72.3018 207.117 72.1527 207.308C72.0036 207.496 71.7962 207.726 71.5305 207.996L70.6634 208.903V208.935H72.6278V209.5H69.7557ZM73.8636 208.959C73.7472 208.959 73.647 208.918 73.5632 208.835C73.4794 208.751 73.4375 208.651 73.4375 208.533C73.4375 208.416 73.4794 208.317 73.5632 208.234C73.647 208.151 73.7472 208.109 73.8636 208.109C73.9801 208.109 74.0803 208.151 74.1641 208.234C74.2479 208.317 74.2898 208.416 74.2898 208.533C74.2898 208.611 74.2699 208.683 74.2301 208.748C74.1918 208.812 74.1406 208.863 74.0767 208.901C74.0128 208.94 73.9418 208.959 73.8636 208.959ZM73.8636 206.773C73.7472 206.773 73.647 206.732 73.5632 206.649C73.4794 206.565 73.4375 206.464 73.4375 206.347C73.4375 206.23 73.4794 206.131 73.5632 206.048C73.647 205.964 73.7472 205.923 73.8636 205.923C73.9801 205.923 74.0803 205.964 74.1641 206.048C74.2479 206.131 74.2898 206.23 74.2898 206.347C74.2898 206.425 74.2699 206.496 74.2301 206.562C74.1918 206.626 74.1406 206.677 74.0767 206.715C74.0128 206.754 73.9418 206.773 73.8636 206.773ZM76.6538 209.572C76.3171 209.571 76.0295 209.482 75.7908 209.306C75.5522 209.13 75.3697 208.874 75.2433 208.537C75.1168 208.2 75.0536 207.795 75.0536 207.32C75.0536 206.847 75.1168 206.443 75.2433 206.108C75.3711 205.773 75.5543 205.517 75.793 205.341C76.033 205.165 76.32 205.077 76.6538 205.077C76.9876 205.077 77.2738 205.165 77.5124 205.343C77.7511 205.519 77.9336 205.775 78.06 206.11C78.1879 206.444 78.2518 206.847 78.2518 207.32C78.2518 207.796 78.1886 208.202 78.0621 208.539C77.9357 208.874 77.7532 209.131 77.5146 209.308C77.2759 209.484 76.989 209.572 76.6538 209.572ZM76.6538 209.004C76.9492 209.004 77.18 208.859 77.3462 208.571C77.5138 208.283 77.5977 207.866 77.5977 207.32C77.5977 206.958 77.5593 206.652 77.4826 206.402C77.4073 206.151 77.2987 205.96 77.1566 205.831C77.016 205.7 76.8484 205.635 76.6538 205.635C76.3597 205.635 76.1289 205.78 75.9613 206.07C75.7937 206.359 75.7092 206.776 75.7077 207.32C75.7077 207.684 75.7454 207.991 75.8207 208.243C75.8974 208.493 76.006 208.683 76.1467 208.812C76.2873 208.94 76.4563 209.004 76.6538 209.004ZM80.5268 209.572C80.1902 209.571 79.9025 209.482 79.6639 209.306C79.4252 209.13 79.2427 208.874 79.1163 208.537C78.9899 208.2 78.9267 207.795 78.9267 207.32C78.9267 206.847 78.9899 206.443 79.1163 206.108C79.2441 205.773 79.4274 205.517 79.666 205.341C79.9061 205.165 80.193 205.077 80.5268 205.077C80.8606 205.077 81.1468 205.165 81.3855 205.343C81.6241 205.519 81.8066 205.775 81.9331 206.11C82.0609 206.444 82.1248 206.847 82.1248 207.32C82.1248 207.796 82.0616 208.202 81.9352 208.539C81.8088 208.874 81.6262 209.131 81.3876 209.308C81.149 209.484 80.862 209.572 80.5268 209.572ZM80.5268 209.004C80.8223 209.004 81.0531 208.859 81.2193 208.571C81.3869 208.283 81.4707 207.866 81.4707 207.32C81.4707 206.958 81.4324 206.652 81.3556 206.402C81.2804 206.151 81.1717 205.96 81.0297 205.831C80.889 205.7 80.7214 205.635 80.5268 205.635C80.2328 205.635 80.002 205.78 79.8343 206.07C79.6667 206.359 79.5822 206.776 79.5808 207.32C79.5808 207.684 79.6184 207.991 79.6937 208.243C79.7704 208.493 79.8791 208.683 80.0197 208.812C80.1603 208.94 80.3294 209.004 80.5268 209.004ZM84.5282 209.5V205.136H86.0836C86.4231 205.136 86.7044 205.198 86.9274 205.322C87.1504 205.445 87.3173 205.614 87.4281 205.829C87.5389 206.042 87.5943 206.282 87.5943 206.549C87.5943 206.817 87.5382 207.059 87.426 207.273C87.3152 207.487 87.1475 207.656 86.9231 207.781C86.7001 207.904 86.4196 207.966 86.0815 207.966H85.0119V207.408H86.0218C86.2363 207.408 86.4103 207.371 86.5439 207.297C86.6774 207.222 86.7754 207.119 86.8379 206.99C86.9004 206.861 86.9316 206.714 86.9316 206.549C86.9316 206.384 86.9004 206.238 86.8379 206.11C86.7754 205.982 86.6767 205.882 86.5417 205.81C86.4082 205.737 86.2321 205.701 86.0133 205.701H85.1866V209.5H84.5282ZM88.3661 205.136H89.1651L90.5543 208.528H90.6055L91.9947 205.136H92.7937V209.5H92.1673V206.342H92.1268L90.8398 209.494H90.32L89.033 206.34H88.9925V209.5H88.3661V205.136ZM97.2159 207.041V207.595H95.2812V207.041H97.2159ZM101.3 205.136V209.5H100.639V205.797H100.614L99.5698 206.479V205.848L100.659 205.136H101.3ZM103.999 209.56C103.707 209.56 103.445 209.509 103.215 209.408C102.987 209.308 102.806 209.168 102.672 208.989C102.54 208.808 102.469 208.599 102.459 208.362H103.128C103.137 208.491 103.18 208.604 103.258 208.699C103.338 208.793 103.441 208.865 103.569 208.916C103.697 208.967 103.839 208.993 103.995 208.993C104.167 208.993 104.319 208.963 104.451 208.903C104.585 208.844 104.689 208.761 104.764 208.654C104.84 208.546 104.877 208.422 104.877 208.281C104.877 208.135 104.84 208.006 104.764 207.896C104.691 207.783 104.582 207.695 104.438 207.631C104.296 207.567 104.124 207.536 103.923 207.536H103.554V206.999H103.923C104.085 206.999 104.227 206.969 104.349 206.911C104.472 206.853 104.569 206.772 104.639 206.668C104.708 206.563 104.743 206.44 104.743 206.3C104.743 206.165 104.713 206.048 104.651 205.948C104.592 205.847 104.507 205.768 104.396 205.712C104.286 205.655 104.157 205.626 104.008 205.626C103.866 205.626 103.733 205.653 103.61 205.705C103.487 205.756 103.388 205.83 103.311 205.927C103.235 206.022 103.193 206.136 103.188 206.27H102.551C102.558 206.034 102.627 205.827 102.759 205.648C102.893 205.469 103.069 205.329 103.288 205.228C103.507 205.127 103.749 205.077 104.017 205.077C104.296 205.077 104.538 205.131 104.741 205.241C104.945 205.349 105.103 205.493 105.214 205.673C105.326 205.854 105.382 206.051 105.38 206.266C105.382 206.51 105.313 206.717 105.176 206.888C105.039 207.058 104.857 207.173 104.63 207.231V207.265C104.92 207.309 105.144 207.424 105.303 207.61C105.464 207.796 105.544 208.027 105.542 208.303C105.544 208.543 105.477 208.758 105.342 208.948C105.208 209.138 105.026 209.288 104.794 209.398C104.563 209.506 104.298 209.56 103.999 209.56ZM106.776 208.959C106.659 208.959 106.559 208.918 106.475 208.835C106.392 208.751 106.35 208.651 106.35 208.533C106.35 208.416 106.392 208.317 106.475 208.234C106.559 208.151 106.659 208.109 106.776 208.109C106.892 208.109 106.992 208.151 107.076 208.234C107.16 208.317 107.202 208.416 107.202 208.533C107.202 208.611 107.182 208.683 107.142 208.748C107.104 208.812 107.053 208.863 106.989 208.901C106.925 208.94 106.854 208.959 106.776 208.959ZM106.776 206.773C106.659 206.773 106.559 206.732 106.475 206.649C106.392 206.565 106.35 206.464 106.35 206.347C106.35 206.23 106.392 206.131 106.475 206.048C106.559 205.964 106.659 205.923 106.776 205.923C106.892 205.923 106.992 205.964 107.076 206.048C107.16 206.131 107.202 206.23 107.202 206.347C107.202 206.425 107.182 206.496 107.142 206.562C107.104 206.626 107.053 206.677 106.989 206.715C106.925 206.754 106.854 206.773 106.776 206.773ZM109.566 209.572C109.229 209.571 108.942 209.482 108.703 209.306C108.464 209.13 108.282 208.874 108.155 208.537C108.029 208.2 107.966 207.795 107.966 207.32C107.966 206.847 108.029 206.443 108.155 206.108C108.283 205.773 108.466 205.517 108.705 205.341C108.945 205.165 109.232 205.077 109.566 205.077C109.9 205.077 110.186 205.165 110.425 205.343C110.663 205.519 110.846 205.775 110.972 206.11C111.1 206.444 111.164 206.847 111.164 207.32C111.164 207.796 111.101 208.202 110.974 208.539C110.848 208.874 110.665 209.131 110.427 209.308C110.188 209.484 109.901 209.572 109.566 209.572ZM109.566 209.004C109.861 209.004 110.092 208.859 110.258 208.571C110.426 208.283 110.51 207.866 110.51 207.32C110.51 206.958 110.471 206.652 110.395 206.402C110.319 206.151 110.211 205.96 110.069 205.831C109.928 205.7 109.76 205.635 109.566 205.635C109.272 205.635 109.041 205.78 108.873 206.07C108.706 206.359 108.621 206.776 108.62 207.32C108.62 207.684 108.657 207.991 108.733 208.243C108.809 208.493 108.918 208.683 109.059 208.812C109.199 208.94 109.368 209.004 109.566 209.004ZM113.439 209.572C113.102 209.571 112.815 209.482 112.576 209.306C112.337 209.13 112.155 208.874 112.028 208.537C111.902 208.2 111.839 207.795 111.839 207.32C111.839 206.847 111.902 206.443 112.028 206.108C112.156 205.773 112.339 205.517 112.578 205.341C112.818 205.165 113.105 205.077 113.439 205.077C113.773 205.077 114.059 205.165 114.298 205.343C114.536 205.519 114.719 205.775 114.845 206.11C114.973 206.444 115.037 206.847 115.037 207.32C115.037 207.796 114.974 208.202 114.847 208.539C114.721 208.874 114.538 209.131 114.3 209.308C114.061 209.484 113.774 209.572 113.439 209.572ZM113.439 209.004C113.734 209.004 113.965 208.859 114.131 208.571C114.299 208.283 114.383 207.866 114.383 207.32C114.383 206.958 114.344 206.652 114.268 206.402C114.192 206.151 114.084 205.96 113.942 205.831C113.801 205.7 113.634 205.635 113.439 205.635C113.145 205.635 112.914 205.78 112.746 206.07C112.579 206.359 112.494 206.776 112.493 207.32C112.493 207.684 112.531 207.991 112.606 208.243C112.683 208.493 112.791 208.683 112.932 208.812C113.072 208.94 113.241 209.004 113.439 209.004ZM117.44 209.5V205.136H118.996C119.335 205.136 119.616 205.198 119.839 205.322C120.063 205.445 120.229 205.614 120.34 205.829C120.451 206.042 120.506 206.282 120.506 206.549C120.506 206.817 120.45 207.059 120.338 207.273C120.227 207.487 120.06 207.656 119.835 207.781C119.612 207.904 119.332 207.966 118.994 207.966H117.924V207.408H118.934C119.148 207.408 119.322 207.371 119.456 207.297C119.589 207.222 119.688 207.119 119.75 206.99C119.812 206.861 119.844 206.714 119.844 206.549C119.844 206.384 119.812 206.238 119.75 206.11C119.688 205.982 119.589 205.882 119.454 205.81C119.32 205.737 119.144 205.701 118.925 205.701H118.099V209.5H117.44ZM121.278 205.136H122.077L123.466 208.528H123.518L124.907 205.136H125.706V209.5H125.079V206.342H125.039L123.752 209.494H123.232L121.945 206.34H121.905V209.5H121.278V205.136Z" fill="#C8C8C8"/>
</g>
<defs>
<clipPath id="clip0_425_2292">
<rect width="451.33" height="281" fill="white"/>
</clipPath>
</defs>
</svg>
