<svg width="452" height="281" viewBox="0 0 452 281" fill="none" xmlns="http://www.w3.org/2000/svg">
<g clip-path="url(#clip0_404_730)">
<path d="M451.33 0H0V281H451.33V0Z" fill="#F4F4F6"/>
<path d="M33.8497 0V281" stroke="#E2E2E6" stroke-width="0.8"/>
<path d="M417.48 0V281" stroke="#E2E2E6" stroke-width="0.8"/>
<path d="M0 31.6125H451.33" stroke="#E2E2E6" stroke-width="0.8"/>
<path d="M0 249.387H451.33" stroke="#E2E2E6" stroke-width="0.8"/>
<rect x="33.5" y="29.5" width="384" height="222" rx="11.5" fill="white"/>
<rect x="33.5" y="29.5" width="384" height="222" rx="11.5" stroke="#E2E0E0"/>
<path d="M212.429 91.5H205.571C204.151 91.5 203 92.6513 203 94.0714V100.929C203 102.349 204.151 103.5 205.571 103.5H212.429C213.849 103.5 215 102.349 215 100.929V94.0714C215 92.6513 213.849 91.5 212.429 91.5Z" fill="#303030"/>
<path d="M206.1 96.1006L208.672 97.5292L206.1 98.9577" stroke="white" stroke-linecap="round" stroke-linejoin="round"/>
<path d="M209.386 98.9561H211.814" stroke="white" stroke-linecap="round"/>
<path d="M220.284 95.696V94.6818H225.062V95.696H223.281V100.5H222.065V95.696H220.284ZM226.074 102.136C225.92 102.136 225.777 102.124 225.642 102.099C225.509 102.077 225.4 102.047 225.312 102.011L225.585 101.108C225.727 101.152 225.855 101.175 225.969 101.179C226.084 101.183 226.184 101.156 226.267 101.099C226.352 101.043 226.421 100.946 226.474 100.81L226.545 100.625L224.98 96.1364H226.253L227.156 99.3409H227.202L228.114 96.1364H229.395L227.699 100.972C227.617 101.206 227.507 101.411 227.366 101.585C227.228 101.761 227.053 101.897 226.841 101.991C226.629 102.088 226.373 102.136 226.074 102.136ZM230.014 102.136V96.1364H231.207V96.8693H231.261C231.314 96.7519 231.391 96.6326 231.491 96.5114C231.594 96.3883 231.726 96.286 231.889 96.2045C232.054 96.1212 232.259 96.0795 232.503 96.0795C232.821 96.0795 233.115 96.1629 233.384 96.3295C233.652 96.4943 233.867 96.7434 234.028 97.0767C234.189 97.4081 234.27 97.8239 234.27 98.3239C234.27 98.8106 234.191 99.2216 234.034 99.5568C233.879 99.8902 233.667 100.143 233.398 100.315C233.131 100.486 232.831 100.571 232.5 100.571C232.265 100.571 232.065 100.532 231.901 100.455C231.738 100.377 231.604 100.279 231.5 100.162C231.396 100.043 231.316 99.9223 231.261 99.8011H231.224V102.136H230.014ZM231.199 98.3182C231.199 98.5777 231.235 98.804 231.307 98.9972C231.379 99.1903 231.483 99.3409 231.619 99.4489C231.756 99.5549 231.921 99.608 232.116 99.608C232.313 99.608 232.48 99.554 232.616 99.446C232.753 99.3362 232.856 99.1847 232.926 98.9915C232.998 98.7964 233.034 98.572 233.034 98.3182C233.034 98.0663 232.999 97.8447 232.929 97.6534C232.859 97.4621 232.756 97.3125 232.619 97.2045C232.483 97.0966 232.315 97.0426 232.116 97.0426C231.92 97.0426 231.753 97.0947 231.616 97.1989C231.482 97.303 231.379 97.4508 231.307 97.642C231.235 97.8333 231.199 98.0587 231.199 98.3182ZM237.065 100.585C236.616 100.585 236.23 100.494 235.906 100.312C235.584 100.129 235.336 99.8693 235.162 99.5341C234.988 99.197 234.901 98.7983 234.901 98.3381C234.901 97.8892 234.988 97.4953 235.162 97.1562C235.336 96.8172 235.581 96.553 235.898 96.3636C236.216 96.1742 236.589 96.0795 237.017 96.0795C237.305 96.0795 237.573 96.1259 237.821 96.2188C238.071 96.3097 238.289 96.447 238.474 96.6307C238.662 96.8144 238.808 97.0455 238.912 97.3239C239.016 97.6004 239.068 97.9242 239.068 98.2955V98.6278H235.384V97.8778H237.929C237.929 97.7036 237.891 97.5492 237.815 97.4148C237.74 97.2803 237.634 97.1752 237.5 97.0994C237.367 97.0218 237.213 96.983 237.037 96.983C236.853 96.983 236.69 97.0256 236.548 97.1108C236.408 97.1941 236.298 97.3068 236.219 97.4489C236.139 97.589 236.098 97.7453 236.097 97.9176V98.6307C236.097 98.8466 236.136 99.0331 236.216 99.1903C236.297 99.3475 236.412 99.4688 236.56 99.554C236.707 99.6392 236.883 99.6818 237.085 99.6818C237.22 99.6818 237.343 99.6629 237.455 99.625C237.566 99.5871 237.662 99.5303 237.741 99.4545C237.821 99.3788 237.882 99.286 237.923 99.1761L239.043 99.25C238.986 99.5189 238.869 99.7538 238.693 99.9545C238.519 100.153 238.294 100.309 238.017 100.42C237.742 100.53 237.425 100.585 237.065 100.585ZM243.474 94.6818H244.705V98.4602C244.705 98.8845 244.603 99.2557 244.401 99.5739C244.2 99.892 243.919 100.14 243.557 100.318C243.195 100.494 242.774 100.582 242.293 100.582C241.81 100.582 241.387 100.494 241.026 100.318C240.664 100.14 240.383 99.892 240.182 99.5739C239.981 99.2557 239.881 98.8845 239.881 98.4602V94.6818H241.111V98.3551C241.111 98.5767 241.159 98.7737 241.256 98.946C241.354 99.1184 241.492 99.2538 241.67 99.3523C241.848 99.4508 242.056 99.5 242.293 99.5C242.531 99.5 242.739 99.4508 242.915 99.3523C243.093 99.2538 243.23 99.1184 243.327 98.946C243.425 98.7737 243.474 98.5767 243.474 98.3551V94.6818ZM246.947 94.6818V100.5H245.717V94.6818H246.947Z" fill="#525252"/>
<rect x="142" y="123.5" width="167" height="4" rx="2" fill="#E2E2E6"/>
<rect x="175" y="135.5" width="101" height="4" rx="2" fill="#E2E2E6"/>
<rect x="134" y="159.5" width="22.2" height="3" rx="1.5" fill="#C5C5CC"/>
<rect x="174.2" y="159.5" width="22.2" height="3" rx="1.5" fill="#C5C5CC"/>
<rect x="214.4" y="159.5" width="22.2" height="3" rx="1.5" fill="#C5C5CC"/>
<rect x="254.6" y="159.5" width="22.2" height="3" rx="1.5" fill="#C5C5CC"/>
<rect x="294.8" y="159.5" width="22.2" height="3" rx="1.5" fill="#C5C5CC"/>
<path d="M177.519 186.318C177.519 186.089 177.575 185.881 177.688 185.692C177.8 185.503 177.95 185.353 178.137 185.242C178.326 185.13 178.535 185.074 178.763 185.074C178.962 185.074 179.146 185.117 179.315 185.204C179.484 185.289 179.624 185.406 179.735 185.555C179.846 185.705 179.913 185.872 179.938 186.058H179.384C179.358 185.926 179.286 185.818 179.166 185.734C179.048 185.649 178.914 185.607 178.763 185.607C178.633 185.607 178.513 185.638 178.406 185.702C178.298 185.766 178.212 185.852 178.148 185.96C178.084 186.067 178.052 186.186 178.052 186.318C178.052 186.449 178.084 186.568 178.148 186.676C178.212 186.784 178.298 186.87 178.406 186.934C178.513 186.998 178.633 187.03 178.763 187.03C178.914 187.03 179.043 186.988 179.149 186.904C179.256 186.819 179.322 186.71 179.349 186.578H179.903C179.879 186.764 179.815 186.932 179.71 187.081C179.604 187.23 179.47 187.348 179.307 187.435C179.143 187.52 178.962 187.562 178.763 187.562C178.535 187.562 178.326 187.507 178.137 187.396C177.95 187.284 177.8 187.134 177.688 186.945C177.575 186.756 177.519 186.547 177.519 186.318ZM178.744 188.568C178.435 188.568 178.143 188.51 177.871 188.393C177.599 188.277 177.36 188.116 177.153 187.91C176.947 187.702 176.785 187.463 176.667 187.192C176.55 186.92 176.493 186.629 176.494 186.318C176.496 186.007 176.555 185.716 176.671 185.445C176.789 185.173 176.951 184.935 177.157 184.729C177.363 184.521 177.602 184.359 177.873 184.243C178.144 184.126 178.435 184.068 178.744 184.068C179.055 184.068 179.347 184.126 179.618 184.243C179.891 184.359 180.129 184.521 180.334 184.729C180.54 184.935 180.701 185.173 180.817 185.445C180.934 185.716 180.993 186.007 180.994 186.318C180.996 186.629 180.938 186.92 180.822 187.192C180.705 187.463 180.544 187.702 180.338 187.91C180.132 188.116 179.893 188.277 179.62 188.393C179.347 188.51 179.055 188.568 178.744 188.568ZM178.744 188.001C178.977 188.001 179.196 187.958 179.401 187.871C179.605 187.785 179.784 187.665 179.938 187.511C180.092 187.357 180.213 187.178 180.3 186.974C180.386 186.77 180.429 186.552 180.428 186.32C180.428 186.087 180.384 185.869 180.295 185.664C180.209 185.46 180.088 185.281 179.933 185.127C179.78 184.972 179.602 184.852 179.398 184.765C179.195 184.678 178.977 184.635 178.744 184.635C178.513 184.635 178.295 184.678 178.092 184.765C177.889 184.852 177.71 184.972 177.555 185.127C177.402 185.282 177.281 185.462 177.193 185.666C177.105 185.869 177.061 186.087 177.061 186.32C177.06 186.55 177.102 186.768 177.189 186.972C177.277 187.175 177.398 187.354 177.551 187.509C177.706 187.663 177.885 187.783 178.088 187.871C178.293 187.958 178.511 188.001 178.744 188.001ZM183.498 188.5V188.023L184.974 186.493C185.132 186.327 185.262 186.181 185.364 186.056C185.468 185.93 185.545 185.81 185.597 185.696C185.648 185.582 185.673 185.462 185.673 185.334C185.673 185.189 185.639 185.064 185.571 184.959C185.503 184.852 185.41 184.771 185.292 184.714C185.174 184.656 185.041 184.626 184.893 184.626C184.737 184.626 184.601 184.658 184.484 184.722C184.368 184.786 184.278 184.876 184.216 184.993C184.153 185.109 184.122 185.246 184.122 185.402H183.494C183.494 185.136 183.555 184.904 183.677 184.705C183.799 184.506 183.967 184.352 184.18 184.243C184.393 184.132 184.635 184.077 184.906 184.077C185.18 184.077 185.422 184.131 185.631 184.241C185.841 184.349 186.005 184.496 186.123 184.684C186.241 184.87 186.3 185.08 186.3 185.315C186.3 185.477 186.269 185.635 186.208 185.79C186.148 185.945 186.044 186.117 185.895 186.308C185.746 186.496 185.538 186.726 185.273 186.996L184.406 187.903V187.935H186.37V188.5H183.498ZM188.697 188.572C188.36 188.571 188.072 188.482 187.834 188.306C187.595 188.13 187.413 187.874 187.286 187.537C187.16 187.2 187.097 186.795 187.097 186.32C187.097 185.847 187.16 185.443 187.286 185.108C187.414 184.773 187.597 184.517 187.836 184.341C188.076 184.165 188.363 184.077 188.697 184.077C189.031 184.077 189.317 184.165 189.555 184.343C189.794 184.519 189.977 184.775 190.103 185.11C190.231 185.444 190.295 185.847 190.295 186.32C190.295 186.796 190.232 187.202 190.105 187.539C189.979 187.874 189.796 188.131 189.558 188.308C189.319 188.484 189.032 188.572 188.697 188.572ZM188.697 188.004C188.992 188.004 189.223 187.859 189.389 187.571C189.557 187.283 189.641 186.866 189.641 186.32C189.641 185.958 189.602 185.652 189.526 185.402C189.45 185.151 189.342 184.96 189.2 184.831C189.059 184.7 188.891 184.635 188.697 184.635C188.403 184.635 188.172 184.78 188.004 185.07C187.837 185.359 187.752 185.776 187.751 186.32C187.751 186.684 187.788 186.991 187.864 187.243C187.94 187.493 188.049 187.683 188.19 187.812C188.33 187.94 188.499 188.004 188.697 188.004ZM191.051 188.5V188.023L192.527 186.493C192.685 186.327 192.815 186.181 192.917 186.056C193.021 185.93 193.098 185.81 193.149 185.696C193.2 185.582 193.226 185.462 193.226 185.334C193.226 185.189 193.192 185.064 193.124 184.959C193.056 184.852 192.963 184.771 192.845 184.714C192.727 184.656 192.594 184.626 192.446 184.626C192.29 184.626 192.154 184.658 192.037 184.722C191.921 184.786 191.831 184.876 191.769 184.993C191.706 185.109 191.675 185.246 191.675 185.402H191.046C191.046 185.136 191.107 184.904 191.23 184.705C191.352 184.506 191.519 184.352 191.732 184.243C191.945 184.132 192.188 184.077 192.459 184.077C192.733 184.077 192.975 184.131 193.183 184.241C193.394 184.349 193.558 184.496 193.676 184.684C193.794 184.87 193.852 185.08 193.852 185.315C193.852 185.477 193.822 185.635 193.761 185.79C193.701 185.945 193.597 186.117 193.448 186.308C193.298 186.496 193.091 186.726 192.825 186.996L191.958 187.903V187.935H193.923V188.5H191.051ZM196.254 188.56C196.059 188.557 195.867 188.521 195.678 188.453C195.491 188.385 195.32 188.271 195.167 188.112C195.014 187.953 194.891 187.739 194.798 187.471C194.708 187.202 194.662 186.867 194.662 186.465C194.662 186.085 194.7 185.746 194.775 185.451C194.852 185.156 194.962 184.906 195.105 184.703C195.249 184.499 195.422 184.343 195.625 184.237C195.828 184.13 196.056 184.077 196.309 184.077C196.569 184.077 196.8 184.128 197.002 184.23C197.203 184.332 197.367 184.474 197.492 184.654C197.618 184.835 197.698 185.04 197.732 185.27H197.083C197.039 185.088 196.951 184.94 196.82 184.825C196.69 184.71 196.519 184.652 196.309 184.652C195.99 184.652 195.74 184.791 195.561 185.07C195.384 185.348 195.294 185.735 195.293 186.231H195.325C195.4 186.107 195.492 186.002 195.602 185.915C195.713 185.827 195.836 185.76 195.972 185.713C196.11 185.665 196.255 185.641 196.407 185.641C196.66 185.641 196.889 185.702 197.093 185.826C197.299 185.948 197.463 186.117 197.585 186.333C197.708 186.549 197.769 186.796 197.769 187.075C197.769 187.353 197.705 187.605 197.579 187.831C197.454 188.057 197.278 188.236 197.051 188.368C196.823 188.499 196.558 188.562 196.254 188.56ZM196.252 188.006C196.419 188.006 196.569 187.964 196.701 187.882C196.833 187.8 196.938 187.689 197.014 187.55C197.091 187.411 197.129 187.255 197.129 187.083C197.129 186.915 197.092 186.763 197.017 186.625C196.943 186.487 196.84 186.378 196.71 186.297C196.58 186.216 196.433 186.175 196.267 186.175C196.14 186.175 196.023 186.2 195.915 186.248C195.808 186.296 195.715 186.363 195.634 186.448C195.553 186.533 195.489 186.631 195.442 186.742C195.396 186.852 195.374 186.967 195.374 187.089C195.374 187.253 195.411 187.404 195.487 187.543C195.563 187.683 195.668 187.795 195.8 187.88C195.933 187.964 196.084 188.006 196.252 188.006ZM201.669 185.227V185.739H199.881V185.227H201.669ZM200.361 184.443H200.998V187.539C200.998 187.663 201.016 187.756 201.053 187.818C201.09 187.879 201.138 187.921 201.196 187.944C201.256 187.965 201.32 187.976 201.39 187.976C201.441 187.976 201.486 187.972 201.524 187.965C201.562 187.958 201.592 187.952 201.613 187.948L201.729 188.474C201.692 188.489 201.639 188.503 201.571 188.517C201.503 188.533 201.417 188.541 201.315 188.543C201.148 188.545 200.991 188.516 200.846 188.453C200.702 188.391 200.584 188.294 200.495 188.163C200.405 188.033 200.361 187.869 200.361 187.671V184.443ZM202.776 189.727C202.681 189.727 202.594 189.719 202.516 189.704C202.438 189.69 202.38 189.674 202.342 189.657L202.495 189.135C202.612 189.166 202.715 189.18 202.806 189.175C202.897 189.171 202.977 189.137 203.047 189.073C203.118 189.009 203.18 188.905 203.234 188.76L203.313 188.543L202.116 185.227H202.798L203.626 187.767H203.661L204.489 185.227H205.173L203.825 188.937C203.762 189.107 203.683 189.251 203.586 189.369C203.489 189.489 203.374 189.578 203.241 189.638C203.107 189.697 202.952 189.727 202.776 189.727ZM205.772 189.727V185.227H206.394V185.758H206.447C206.484 185.69 206.538 185.611 206.607 185.521C206.677 185.432 206.773 185.354 206.897 185.287C207.021 185.219 207.184 185.185 207.387 185.185C207.651 185.185 207.887 185.251 208.094 185.385C208.302 185.518 208.464 185.711 208.582 185.962C208.702 186.214 208.761 186.516 208.761 186.87C208.761 187.224 208.702 187.527 208.585 187.78C208.467 188.031 208.305 188.225 208.099 188.362C207.893 188.496 207.658 188.564 207.393 188.564C207.195 188.564 207.032 188.531 206.906 188.464C206.781 188.397 206.683 188.319 206.612 188.229C206.54 188.14 206.486 188.06 206.447 187.991H206.409V189.727H205.772ZM206.396 186.864C206.396 187.094 206.43 187.295 206.496 187.469C206.563 187.642 206.66 187.778 206.786 187.876C206.913 187.972 207.067 188.021 207.251 188.021C207.441 188.021 207.6 187.97 207.728 187.869C207.856 187.767 207.952 187.629 208.018 187.454C208.085 187.279 208.118 187.082 208.118 186.864C208.118 186.648 208.085 186.454 208.02 186.282C207.956 186.11 207.859 185.974 207.73 185.875C207.602 185.776 207.442 185.726 207.251 185.726C207.066 185.726 206.91 185.773 206.782 185.869C206.656 185.964 206.56 186.097 206.494 186.267C206.429 186.437 206.396 186.636 206.396 186.864ZM210.886 188.566C210.563 188.566 210.286 188.497 210.053 188.359C209.821 188.22 209.642 188.025 209.516 187.773C209.391 187.521 209.328 187.224 209.328 186.885C209.328 186.55 209.391 186.254 209.516 185.999C209.642 185.743 209.818 185.543 210.044 185.4C210.271 185.256 210.537 185.185 210.841 185.185C211.026 185.185 211.205 185.215 211.378 185.276C211.551 185.337 211.707 185.433 211.844 185.564C211.982 185.695 212.091 185.864 212.17 186.073C212.25 186.281 212.29 186.533 212.29 186.83V187.055H209.688V186.578H211.665C211.665 186.411 211.631 186.262 211.563 186.133C211.495 186.002 211.399 185.899 211.276 185.824C211.153 185.749 211.01 185.711 210.845 185.711C210.666 185.711 210.51 185.755 210.376 185.843C210.244 185.93 210.142 186.043 210.07 186.184C209.999 186.323 209.963 186.474 209.963 186.638V187.011C209.963 187.229 210.001 187.415 210.078 187.569C210.156 187.722 210.265 187.839 210.404 187.92C210.543 188 210.706 188.04 210.892 188.04C211.013 188.04 211.123 188.023 211.222 187.989C211.322 187.953 211.408 187.901 211.48 187.831C211.553 187.761 211.608 187.675 211.646 187.573L212.249 187.682C212.201 187.859 212.114 188.015 211.989 188.148C211.866 188.281 211.71 188.384 211.523 188.457C211.337 188.53 211.124 188.566 210.886 188.566ZM215.07 187.143V185.227H215.709V188.5H215.083V187.933H215.048C214.973 188.108 214.852 188.254 214.686 188.37C214.521 188.485 214.316 188.543 214.07 188.543C213.86 188.543 213.674 188.496 213.512 188.404C213.352 188.31 213.225 188.172 213.133 187.989C213.042 187.805 212.997 187.579 212.997 187.309V185.227H213.634V187.232C213.634 187.455 213.695 187.633 213.819 187.765C213.943 187.897 214.103 187.963 214.301 187.963C214.42 187.963 214.539 187.933 214.656 187.874C214.776 187.814 214.874 187.724 214.953 187.603C215.032 187.482 215.071 187.329 215.07 187.143ZM216.565 188.5V185.227H217.202V188.5H216.565ZM216.887 184.722C216.776 184.722 216.681 184.685 216.601 184.612C216.523 184.536 216.484 184.447 216.484 184.343C216.484 184.238 216.523 184.148 216.601 184.075C216.681 183.999 216.776 183.962 216.887 183.962C216.998 183.962 217.092 183.999 217.17 184.075C217.25 184.148 217.289 184.238 217.289 184.343C217.289 184.447 217.25 184.536 217.17 184.612C217.092 184.685 216.998 184.722 216.887 184.722ZM218.479 188.54C218.362 188.54 218.262 188.499 218.178 188.417C218.095 188.333 218.053 188.232 218.053 188.114C218.053 187.998 218.095 187.898 218.178 187.816C218.262 187.732 218.362 187.69 218.479 187.69C218.595 187.69 218.695 187.732 218.779 187.816C218.863 187.898 218.905 187.998 218.905 188.114C218.905 188.192 218.885 188.264 218.845 188.33C218.807 188.393 218.756 188.445 218.692 188.483C218.628 188.521 218.557 188.54 218.479 188.54ZM221.696 188.5H220.997L222.567 184.136H223.328L224.898 188.5H224.199L222.966 184.929H222.931L221.696 188.5ZM221.813 186.791H224.08V187.345H221.813V186.791ZM226.114 184.136V188.5H225.477V184.136H226.114ZM227.608 184.136V188.5H226.971V184.136H227.608ZM230.053 188.5V185.227H230.669V185.747H230.703C230.763 185.571 230.868 185.433 231.018 185.332C231.17 185.229 231.342 185.178 231.534 185.178C231.574 185.178 231.621 185.18 231.675 185.183C231.73 185.185 231.773 185.189 231.805 185.193V185.803C231.779 185.795 231.734 185.788 231.668 185.779C231.603 185.769 231.538 185.764 231.472 185.764C231.322 185.764 231.188 185.796 231.07 185.86C230.953 185.923 230.861 186.01 230.793 186.122C230.724 186.233 230.69 186.359 230.69 186.501V188.5H230.053ZM232.356 188.5V185.227H232.993V188.5H232.356ZM232.678 184.722C232.567 184.722 232.472 184.685 232.392 184.612C232.314 184.536 232.275 184.447 232.275 184.343C232.275 184.238 232.314 184.148 232.392 184.075C232.472 183.999 232.567 183.962 232.678 183.962C232.789 183.962 232.883 183.999 232.961 184.075C233.041 184.148 233.08 184.238 233.08 184.343C233.08 184.447 233.041 184.536 232.961 184.612C232.883 184.685 232.789 184.722 232.678 184.722ZM235.222 189.795C234.962 189.795 234.739 189.761 234.551 189.693C234.365 189.625 234.213 189.535 234.095 189.423C233.977 189.31 233.889 189.188 233.831 189.054L234.379 188.828C234.417 188.891 234.468 188.957 234.532 189.026C234.597 189.097 234.685 189.158 234.796 189.207C234.908 189.257 235.053 189.282 235.229 189.282C235.47 189.282 235.67 189.223 235.827 189.105C235.985 188.989 236.064 188.803 236.064 188.547V187.903H236.023C235.985 187.973 235.93 188.05 235.857 188.136C235.786 188.221 235.688 188.295 235.563 188.357C235.438 188.42 235.276 188.451 235.075 188.451C234.817 188.451 234.584 188.391 234.376 188.27C234.17 188.148 234.007 187.968 233.886 187.731C233.767 187.492 233.707 187.199 233.707 186.851C233.707 186.503 233.766 186.205 233.884 185.956C234.004 185.707 234.167 185.517 234.374 185.385C234.582 185.251 234.817 185.185 235.08 185.185C235.283 185.185 235.447 185.219 235.572 185.287C235.697 185.354 235.794 185.432 235.864 185.521C235.935 185.611 235.989 185.69 236.028 185.758H236.075V185.227H236.699V188.572C236.699 188.854 236.634 189.085 236.503 189.265C236.372 189.445 236.195 189.579 235.972 189.665C235.751 189.752 235.501 189.795 235.222 189.795ZM235.216 187.923C235.399 187.923 235.554 187.88 235.68 187.795C235.808 187.708 235.905 187.585 235.97 187.424C236.037 187.262 236.07 187.068 236.07 186.842C236.07 186.622 236.038 186.428 235.972 186.261C235.907 186.093 235.811 185.962 235.685 185.869C235.558 185.773 235.402 185.726 235.216 185.726C235.024 185.726 234.864 185.776 234.737 185.875C234.609 185.973 234.512 186.107 234.447 186.276C234.383 186.445 234.351 186.634 234.351 186.842C234.351 187.057 234.384 187.245 234.449 187.407C234.514 187.569 234.611 187.695 234.739 187.786C234.868 187.877 235.027 187.923 235.216 187.923ZM238.19 186.557V188.5H237.553V184.136H238.182V185.76H238.222C238.299 185.584 238.416 185.444 238.574 185.34C238.732 185.237 238.938 185.185 239.192 185.185C239.416 185.185 239.612 185.231 239.78 185.323C239.949 185.415 240.08 185.553 240.172 185.737C240.266 185.918 240.312 186.146 240.312 186.418V188.5H239.675V186.495C239.675 186.255 239.614 186.069 239.49 185.937C239.366 185.803 239.195 185.737 238.974 185.737C238.824 185.737 238.689 185.768 238.57 185.832C238.452 185.896 238.359 185.99 238.29 186.114C238.224 186.236 238.19 186.384 238.19 186.557ZM242.69 185.227V185.739H240.903V185.227H242.69ZM241.382 184.443H242.019V187.539C242.019 187.663 242.038 187.756 242.075 187.818C242.112 187.879 242.159 187.921 242.217 187.944C242.277 187.965 242.342 187.976 242.411 187.976C242.462 187.976 242.507 187.972 242.545 187.965C242.584 187.958 242.614 187.952 242.635 187.948L242.75 188.474C242.713 188.489 242.661 188.503 242.592 188.517C242.524 188.533 242.439 188.541 242.337 188.543C242.169 188.545 242.013 188.516 241.868 188.453C241.723 188.391 241.606 188.294 241.516 188.163C241.427 188.033 241.382 187.869 241.382 187.671V184.443ZM245.795 186.026L245.217 186.129C245.193 186.055 245.155 185.984 245.102 185.918C245.051 185.851 244.982 185.796 244.893 185.754C244.805 185.711 244.695 185.69 244.563 185.69C244.383 185.69 244.232 185.73 244.112 185.811C243.991 185.891 243.93 185.994 243.93 186.12C243.93 186.229 243.971 186.317 244.052 186.384C244.133 186.451 244.263 186.506 244.444 186.548L244.964 186.668C245.265 186.737 245.489 186.844 245.637 186.989C245.785 187.134 245.859 187.322 245.859 187.554C245.859 187.75 245.802 187.925 245.688 188.078C245.576 188.23 245.419 188.349 245.217 188.436C245.017 188.523 244.785 188.566 244.521 188.566C244.154 188.566 243.855 188.488 243.624 188.332C243.392 188.174 243.25 187.95 243.197 187.661L243.813 187.567C243.852 187.727 243.93 187.849 244.05 187.931C244.169 188.012 244.325 188.053 244.516 188.053C244.725 188.053 244.892 188.009 245.017 187.923C245.142 187.835 245.205 187.727 245.205 187.601C245.205 187.499 245.166 187.413 245.089 187.343C245.014 187.273 244.898 187.221 244.742 187.185L244.188 187.064C243.883 186.994 243.657 186.884 243.511 186.732C243.366 186.58 243.293 186.387 243.293 186.154C243.293 185.961 243.347 185.792 243.455 185.647C243.563 185.502 243.712 185.389 243.903 185.308C244.093 185.226 244.311 185.185 244.557 185.185C244.911 185.185 245.189 185.261 245.392 185.415C245.595 185.567 245.729 185.771 245.795 186.026ZM248.147 188.5V185.227H248.763V185.747H248.797C248.857 185.571 248.962 185.433 249.112 185.332C249.264 185.229 249.436 185.178 249.628 185.178C249.668 185.178 249.714 185.18 249.768 185.183C249.824 185.185 249.867 185.189 249.898 185.193V185.803C249.873 185.795 249.827 185.788 249.762 185.779C249.697 185.769 249.631 185.764 249.566 185.764C249.415 185.764 249.281 185.796 249.163 185.86C249.047 185.923 248.955 186.01 248.886 186.122C248.818 186.233 248.784 186.359 248.784 186.501V188.5H248.147ZM251.743 188.566C251.421 188.566 251.143 188.497 250.91 188.359C250.678 188.22 250.499 188.025 250.373 187.773C250.248 187.521 250.186 187.224 250.186 186.885C250.186 186.55 250.248 186.254 250.373 185.999C250.499 185.743 250.676 185.543 250.901 185.4C251.129 185.256 251.394 185.185 251.698 185.185C251.883 185.185 252.062 185.215 252.235 185.276C252.409 185.337 252.564 185.433 252.702 185.564C252.84 185.695 252.948 185.864 253.028 186.073C253.107 186.281 253.147 186.533 253.147 186.83V187.055H250.546V186.578H252.523C252.523 186.411 252.489 186.262 252.421 186.133C252.352 186.002 252.257 185.899 252.133 185.824C252.011 185.749 251.867 185.711 251.703 185.711C251.524 185.711 251.367 185.755 251.234 185.843C251.102 185.93 250.999 186.043 250.927 186.184C250.856 186.323 250.82 186.474 250.82 186.638V187.011C250.82 187.229 250.859 187.415 250.936 187.569C251.014 187.722 251.122 187.839 251.262 187.92C251.401 188 251.563 188.04 251.749 188.04C251.87 188.04 251.98 188.023 252.08 187.989C252.179 187.953 252.265 187.901 252.338 187.831C252.41 187.761 252.465 187.675 252.504 187.573L253.107 187.682C253.058 187.859 252.972 188.015 252.847 188.148C252.723 188.281 252.568 188.384 252.38 188.457C252.194 188.53 251.982 188.566 251.743 188.566ZM256.306 186.026L255.729 186.129C255.705 186.055 255.667 185.984 255.614 185.918C255.563 185.851 255.493 185.796 255.405 185.754C255.317 185.711 255.207 185.69 255.075 185.69C254.895 185.69 254.744 185.73 254.623 185.811C254.502 185.891 254.442 185.994 254.442 186.12C254.442 186.229 254.483 186.317 254.564 186.384C254.645 186.451 254.775 186.506 254.956 186.548L255.475 186.668C255.777 186.737 256.001 186.844 256.149 186.989C256.297 187.134 256.37 187.322 256.37 187.554C256.37 187.75 256.314 187.925 256.2 188.078C256.088 188.23 255.931 188.349 255.729 188.436C255.529 188.523 255.297 188.566 255.032 188.566C254.666 188.566 254.367 188.488 254.135 188.332C253.904 188.174 253.762 187.95 253.709 187.661L254.325 187.567C254.363 187.727 254.442 187.849 254.561 187.931C254.681 188.012 254.836 188.053 255.028 188.053C255.237 188.053 255.404 188.009 255.529 187.923C255.654 187.835 255.716 187.727 255.716 187.601C255.716 187.499 255.678 187.413 255.601 187.343C255.526 187.273 255.41 187.221 255.254 187.185L254.7 187.064C254.395 186.994 254.169 186.884 254.022 186.732C253.877 186.58 253.805 186.387 253.805 186.154C253.805 185.961 253.859 185.792 253.967 185.647C254.075 185.502 254.224 185.389 254.414 185.308C254.605 185.226 254.823 185.185 255.069 185.185C255.422 185.185 255.701 185.261 255.904 185.415C256.107 185.567 256.241 185.771 256.306 186.026ZM258.481 188.566C258.159 188.566 257.881 188.497 257.648 188.359C257.417 188.22 257.238 188.025 257.111 187.773C256.986 187.521 256.924 187.224 256.924 186.885C256.924 186.55 256.986 186.254 257.111 185.999C257.238 185.743 257.414 185.543 257.64 185.4C257.867 185.256 258.133 185.185 258.437 185.185C258.621 185.185 258.8 185.215 258.974 185.276C259.147 185.337 259.302 185.433 259.44 185.564C259.578 185.695 259.687 185.864 259.766 186.073C259.846 186.281 259.885 186.533 259.885 186.83V187.055H257.284V186.578H259.261C259.261 186.411 259.227 186.262 259.159 186.133C259.091 186.002 258.995 185.899 258.871 185.824C258.749 185.749 258.606 185.711 258.441 185.711C258.262 185.711 258.106 185.755 257.972 185.843C257.84 185.93 257.738 186.043 257.665 186.184C257.594 186.323 257.559 186.474 257.559 186.638V187.011C257.559 187.229 257.597 187.415 257.674 187.569C257.752 187.722 257.861 187.839 258 187.92C258.139 188 258.302 188.04 258.488 188.04C258.608 188.04 258.719 188.023 258.818 187.989C258.917 187.953 259.003 187.901 259.076 187.831C259.148 187.761 259.204 187.675 259.242 187.573L259.845 187.682C259.797 187.859 259.71 188.015 259.585 188.148C259.461 188.281 259.306 188.384 259.118 188.457C258.932 188.53 258.72 188.566 258.481 188.566ZM260.592 188.5V185.227H261.208V185.747H261.242C261.302 185.571 261.407 185.433 261.558 185.332C261.71 185.229 261.881 185.178 262.073 185.178C262.113 185.178 262.16 185.18 262.214 185.183C262.269 185.185 262.312 185.189 262.344 185.193V185.803C262.318 185.795 262.273 185.788 262.207 185.779C262.142 185.769 262.077 185.764 262.011 185.764C261.861 185.764 261.727 185.796 261.609 185.86C261.492 185.923 261.4 186.01 261.332 186.122C261.263 186.233 261.229 186.359 261.229 186.501V188.5H260.592ZM265.794 185.227L264.608 188.5H263.926L262.737 185.227H263.421L264.25 187.746H264.284L265.11 185.227H265.794ZM267.692 188.566C267.37 188.566 267.092 188.497 266.859 188.359C266.628 188.22 266.449 188.025 266.322 187.773C266.197 187.521 266.135 187.224 266.135 186.885C266.135 186.55 266.197 186.254 266.322 185.999C266.449 185.743 266.625 185.543 266.851 185.4C267.078 185.256 267.344 185.185 267.648 185.185C267.832 185.185 268.011 185.215 268.184 185.276C268.358 185.337 268.513 185.433 268.651 185.564C268.789 185.695 268.898 185.864 268.977 186.073C269.057 186.281 269.096 186.533 269.096 186.83V187.055H266.495V186.578H268.472C268.472 186.411 268.438 186.262 268.37 186.133C268.302 186.002 268.206 185.899 268.082 185.824C267.96 185.749 267.817 185.711 267.652 185.711C267.473 185.711 267.317 185.755 267.183 185.843C267.051 185.93 266.949 186.043 266.876 186.184C266.805 186.323 266.77 186.474 266.77 186.638V187.011C266.77 187.229 266.808 187.415 266.885 187.569C266.963 187.722 267.072 187.839 267.211 187.92C267.35 188 267.513 188.04 267.699 188.04C267.819 188.04 267.93 188.023 268.029 187.989C268.128 187.953 268.214 187.901 268.287 187.831C268.359 187.761 268.415 187.675 268.453 187.573L269.056 187.682C269.008 187.859 268.921 188.015 268.796 188.148C268.672 188.281 268.517 188.384 268.329 188.457C268.143 188.53 267.931 188.566 267.692 188.566ZM271.028 188.564C270.764 188.564 270.528 188.496 270.321 188.362C270.115 188.225 269.953 188.031 269.835 187.78C269.719 187.527 269.661 187.224 269.661 186.87C269.661 186.516 269.719 186.214 269.837 185.962C269.957 185.711 270.12 185.518 270.327 185.385C270.535 185.251 270.77 185.185 271.033 185.185C271.236 185.185 271.399 185.219 271.523 185.287C271.648 185.354 271.744 185.432 271.812 185.521C271.882 185.611 271.936 185.69 271.974 185.758H272.013V184.136H272.65V188.5H272.028V187.991H271.974C271.936 188.06 271.881 188.14 271.808 188.229C271.737 188.319 271.639 188.397 271.514 188.464C271.389 188.531 271.227 188.564 271.028 188.564ZM271.169 188.021C271.352 188.021 271.507 187.972 271.634 187.876C271.761 187.778 271.858 187.642 271.923 187.469C271.99 187.295 272.023 187.094 272.023 186.864C272.023 186.636 271.991 186.437 271.925 186.267C271.86 186.097 271.764 185.964 271.638 185.869C271.511 185.773 271.355 185.726 271.169 185.726C270.977 185.726 270.817 185.776 270.69 185.875C270.562 185.974 270.465 186.11 270.4 186.282C270.336 186.454 270.304 186.648 270.304 186.864C270.304 187.082 270.337 187.279 270.402 187.454C270.467 187.629 270.564 187.767 270.692 187.869C270.821 187.97 270.98 188.021 271.169 188.021ZM273.979 188.54C273.862 188.54 273.762 188.499 273.678 188.417C273.595 188.333 273.553 188.232 273.553 188.114C273.553 187.998 273.595 187.898 273.678 187.816C273.762 187.732 273.862 187.69 273.979 187.69C274.095 187.69 274.195 187.732 274.279 187.816C274.363 187.898 274.405 187.998 274.405 188.114C274.405 188.192 274.385 188.264 274.345 188.33C274.307 188.393 274.256 188.445 274.192 188.483C274.128 188.521 274.057 188.54 273.979 188.54Z" fill="#C5C5CC"/>
</g>
<defs>
<clipPath id="clip0_404_730">
<rect width="451.33" height="281" fill="white"/>
</clipPath>
</defs>
</svg>
