<svg width="452" height="281" viewBox="0 0 452 281" fill="none" xmlns="http://www.w3.org/2000/svg">
<g clip-path="url(#clip0_421_675)">
<path d="M451.33 0H0V281H451.33V0Z" fill="#F4F4F6"/>
<path d="M33.8499 0V281" stroke="#E2E2E6" stroke-width="0.8"/>
<path d="M417.48 0V281" stroke="#E2E2E6" stroke-width="0.8"/>
<path d="M0 31.6123H451.33" stroke="#E2E2E6" stroke-width="0.8"/>
<path d="M0 249.388H451.33" stroke="#E2E2E6" stroke-width="0.8"/>
<rect x="33.5" y="29.5" width="384" height="222" rx="11.5" fill="white"/>
<rect x="33.5" y="29.5" width="384" height="222" rx="11.5" stroke="#E2E0E0"/>
<path d="M53.8829 70.593V68.8182H62.2451V70.593H59.1279V79H57.0001V70.593H53.8829ZM62.7895 79V71.3636H64.8428V72.696H64.9223C65.0615 72.2221 65.2952 71.8641 65.6233 71.6222C65.9514 71.3769 66.3293 71.2543 66.7568 71.2543C66.8629 71.2543 66.9772 71.2609 67.0999 71.2741C67.2225 71.2874 67.3302 71.3056 67.423 71.3288V73.2081C67.3236 73.1783 67.1861 73.1518 67.0104 73.1286C66.8347 73.1054 66.674 73.0938 66.5281 73.0938C66.2166 73.0938 65.9382 73.1617 65.6929 73.2976C65.451 73.4302 65.2587 73.6158 65.1162 73.8544C64.977 74.093 64.9074 74.3681 64.9074 74.6797V79H62.7895ZM71.6427 79.1491C70.8572 79.1491 70.181 78.9901 69.6143 78.6719C69.0508 78.3504 68.6166 77.8963 68.3117 77.3097C68.0068 76.7197 67.8543 76.022 67.8543 75.2166C67.8543 74.4311 68.0068 73.7417 68.3117 73.1484C68.6166 72.5552 69.0458 72.0928 69.5993 71.7614C70.1562 71.4299 70.8091 71.2642 71.5581 71.2642C72.0619 71.2642 72.5309 71.3454 72.9651 71.5078C73.4026 71.6669 73.7838 71.9072 74.1086 72.2287C74.4367 72.5502 74.6919 72.9545 74.8742 73.4418C75.0565 73.9257 75.1476 74.4924 75.1476 75.142V75.7237H68.6995V74.4112H73.154C73.154 74.1063 73.0877 73.8362 72.9552 73.6009C72.8226 73.3655 72.6386 73.1816 72.4033 73.049C72.1713 72.9131 71.9012 72.8452 71.593 72.8452C71.2715 72.8452 70.9864 72.9197 70.7378 73.0689C70.4926 73.2147 70.3003 73.4119 70.1611 73.6605C70.0219 73.9058 69.9507 74.1792 69.9474 74.4808V75.7287C69.9474 76.1065 70.017 76.433 70.1562 76.7081C70.2987 76.9832 70.4992 77.1953 70.7577 77.3445C71.0162 77.4936 71.3228 77.5682 71.6775 77.5682C71.9128 77.5682 72.1282 77.535 72.3238 77.4688C72.5193 77.4025 72.6867 77.303 72.8259 77.1705C72.9651 77.0379 73.0712 76.8755 73.1441 76.6832L75.1029 76.8125C75.0035 77.2831 74.7996 77.6941 74.4914 78.0455C74.1865 78.3935 73.7921 78.6652 73.3081 78.8608C72.8276 79.053 72.2724 79.1491 71.6427 79.1491ZM78.6476 74.5852V79H76.5297V71.3636H78.5482V72.7109H78.6377C78.8067 72.2668 79.0901 71.9155 79.4878 71.657C79.8856 71.3951 80.3678 71.2642 80.9346 71.2642C81.4649 71.2642 81.9272 71.3802 82.3216 71.6122C82.7161 71.8442 83.0226 72.1757 83.2414 72.6065C83.4601 73.0341 83.5695 73.5445 83.5695 74.1378V79H81.4516V74.5156C81.4549 74.0483 81.3356 73.6837 81.0937 73.4219C80.8517 73.1567 80.5186 73.0241 80.0944 73.0241C79.8093 73.0241 79.5574 73.0855 79.3387 73.2081C79.1233 73.3307 78.9542 73.5097 78.8316 73.745C78.7123 73.977 78.651 74.2571 78.6476 74.5852ZM88.0526 79.1243C87.4726 79.1243 86.9473 78.9751 86.4767 78.6768C86.0093 78.3752 85.6381 77.9328 85.363 77.3494C85.0912 76.7628 84.9553 76.0436 84.9553 75.1918C84.9553 74.3168 85.0962 73.5893 85.3779 73.0092C85.6597 72.4259 86.0342 71.9901 86.5015 71.7017C86.9722 71.41 87.4875 71.2642 88.0477 71.2642C88.4752 71.2642 88.8315 71.3371 89.1166 71.483C89.4049 71.6255 89.6369 71.8045 89.8126 72.0199C89.9916 72.232 90.1275 72.4408 90.2203 72.6463H90.2849V68.8182H92.3978V79H90.3097V77.777H90.2203C90.1208 77.9891 89.98 78.1996 89.7977 78.4084C89.6187 78.6139 89.385 78.7846 89.0967 78.9205C88.8116 79.0563 88.4636 79.1243 88.0526 79.1243ZM88.7238 77.4389C89.0652 77.4389 89.3535 77.3461 89.5889 77.1605C89.8275 76.9716 90.0098 76.7081 90.1357 76.37C90.265 76.032 90.3296 75.6359 90.3296 75.1818C90.3296 74.7277 90.2667 74.3333 90.1407 73.9986C90.0148 73.6638 89.8325 73.4053 89.5938 73.223C89.3552 73.0407 89.0652 72.9496 88.7238 72.9496C88.3758 72.9496 88.0825 73.044 87.8438 73.233C87.6052 73.4219 87.4246 73.6837 87.3019 74.0185C87.1793 74.3532 87.118 74.741 87.118 75.1818C87.118 75.6259 87.1793 76.0187 87.3019 76.3601C87.4279 76.6982 87.6085 76.9633 87.8438 77.1555C88.0825 77.3445 88.3758 77.4389 88.7238 77.4389ZM94.1391 79V71.3636H96.257V79H94.1391ZM95.203 70.3793C94.8882 70.3793 94.618 70.2749 94.3927 70.0661C94.1706 69.8539 94.0596 69.6004 94.0596 69.3054C94.0596 69.0137 94.1706 68.7635 94.3927 68.5547C94.618 68.3426 94.8882 68.2365 95.203 68.2365C95.5179 68.2365 95.7864 68.3426 96.0084 68.5547C96.2338 68.7635 96.3465 69.0137 96.3465 69.3054C96.3465 69.6004 96.2338 69.8539 96.0084 70.0661C95.7864 70.2749 95.5179 70.3793 95.203 70.3793ZM100.071 74.5852V79H97.9536V71.3636H99.972V72.7109H100.062C100.231 72.2668 100.514 71.9155 100.912 71.657C101.309 71.3951 101.792 71.2642 102.358 71.2642C102.889 71.2642 103.351 71.3802 103.745 71.6122C104.14 71.8442 104.446 72.1757 104.665 72.6065C104.884 73.0341 104.993 73.5445 104.993 74.1378V79H102.875V74.5156C102.879 74.0483 102.759 73.6837 102.517 73.4219C102.276 73.1567 101.942 73.0241 101.518 73.0241C101.233 73.0241 100.981 73.0855 100.763 73.2081C100.547 73.3307 100.378 73.5097 100.255 73.745C100.136 73.977 100.075 74.2571 100.071 74.5852ZM110.103 82.0227C109.417 82.0227 108.829 81.9283 108.338 81.7393C107.851 81.5537 107.463 81.3002 107.175 80.9787C106.886 80.6572 106.699 80.2959 106.613 79.8949L108.572 79.6314C108.631 79.7839 108.726 79.9264 108.855 80.0589C108.984 80.1915 109.155 80.2976 109.367 80.3771C109.583 80.46 109.844 80.5014 110.153 80.5014C110.613 80.5014 110.993 80.3887 111.291 80.1634C111.593 79.9413 111.744 79.5684 111.744 79.0447V77.6477H111.654C111.561 77.8598 111.422 78.0604 111.236 78.2493C111.051 78.4382 110.812 78.5923 110.521 78.7116C110.229 78.831 109.881 78.8906 109.476 78.8906C108.903 78.8906 108.381 78.758 107.91 78.4929C107.443 78.2244 107.07 77.8151 106.792 77.2649C106.517 76.7114 106.379 76.0121 106.379 75.1669C106.379 74.3018 106.52 73.5793 106.802 72.9993C107.083 72.4193 107.458 71.9851 107.925 71.6967C108.396 71.4084 108.911 71.2642 109.472 71.2642C109.899 71.2642 110.257 71.3371 110.545 71.483C110.834 71.6255 111.066 71.8045 111.241 72.0199C111.42 72.232 111.558 72.4408 111.654 72.6463H111.734V71.3636H113.837V79.0746C113.837 79.7242 113.677 80.2678 113.359 80.7053C113.041 81.1428 112.6 81.4709 112.037 81.6896C111.477 81.9117 110.832 82.0227 110.103 82.0227ZM110.148 77.2997C110.489 77.2997 110.777 77.2152 111.013 77.0462C111.251 76.8738 111.434 76.6286 111.56 76.3104C111.689 75.9889 111.753 75.6044 111.753 75.157C111.753 74.7095 111.69 74.3217 111.565 73.9936C111.439 73.6622 111.256 73.4053 111.018 73.223C110.779 73.0407 110.489 72.9496 110.148 72.9496C109.8 72.9496 109.506 73.044 109.268 73.233C109.029 73.4186 108.848 73.6771 108.726 74.0085C108.603 74.34 108.542 74.7228 108.542 75.157C108.542 75.5978 108.603 75.9789 108.726 76.3004C108.852 76.6186 109.032 76.8655 109.268 77.0412C109.506 77.2135 109.8 77.2997 110.148 77.2997ZM122.824 71.3636V72.9545H118.225V71.3636H122.824ZM119.269 69.5341H121.387V76.6534C121.387 76.849 121.417 77.0014 121.477 77.1108C121.536 77.2169 121.619 77.2914 121.725 77.3345C121.835 77.3776 121.961 77.3991 122.103 77.3991C122.203 77.3991 122.302 77.3909 122.401 77.3743C122.501 77.3544 122.577 77.3395 122.63 77.3295L122.963 78.9055C122.857 78.9387 122.708 78.9768 122.516 79.0199C122.323 79.0663 122.09 79.0945 121.815 79.1044C121.304 79.1243 120.857 79.0563 120.472 78.9006C120.091 78.7448 119.795 78.5028 119.582 78.1747C119.37 77.8466 119.266 77.4323 119.269 76.9318V69.5341ZM127.572 79.1491C126.8 79.1491 126.132 78.9851 125.568 78.657C125.008 78.3255 124.576 77.8648 124.271 77.2749C123.966 76.6816 123.813 75.9938 123.813 75.2116C123.813 74.4228 123.966 73.7334 124.271 73.1435C124.576 72.5502 125.008 72.0895 125.568 71.7614C126.132 71.4299 126.8 71.2642 127.572 71.2642C128.344 71.2642 129.01 71.4299 129.57 71.7614C130.134 72.0895 130.568 72.5502 130.873 73.1435C131.178 73.7334 131.33 74.4228 131.33 75.2116C131.33 75.9938 131.178 76.6816 130.873 77.2749C130.568 77.8648 130.134 78.3255 129.57 78.657C129.01 78.9851 128.344 79.1491 127.572 79.1491ZM127.582 77.5085C127.933 77.5085 128.226 77.4091 128.462 77.2102C128.697 77.008 128.874 76.733 128.994 76.3849C129.116 76.0369 129.178 75.6409 129.178 75.1967C129.178 74.7526 129.116 74.3565 128.994 74.0085C128.874 73.6605 128.697 73.3854 128.462 73.1832C128.226 72.9811 127.933 72.88 127.582 72.88C127.227 72.88 126.929 72.9811 126.687 73.1832C126.448 73.3854 126.268 73.6605 126.145 74.0085C126.026 74.3565 125.966 74.7526 125.966 75.1967C125.966 75.6409 126.026 76.0369 126.145 76.3849C126.268 76.733 126.448 77.008 126.687 77.2102C126.929 77.4091 127.227 77.5085 127.582 77.5085ZM132.707 81.8636V71.3636H134.796V72.6463H134.89C134.983 72.4408 135.117 72.232 135.293 72.0199C135.472 71.8045 135.704 71.6255 135.989 71.483C136.277 71.3371 136.635 71.2642 137.063 71.2642C137.619 71.2642 138.133 71.41 138.604 71.7017C139.074 71.9901 139.451 72.4259 139.732 73.0092C140.014 73.5893 140.155 74.3168 140.155 75.1918C140.155 76.0436 140.017 76.7628 139.742 77.3494C139.47 77.9328 139.099 78.3752 138.629 78.6768C138.161 78.9751 137.638 79.1243 137.058 79.1243C136.647 79.1243 136.297 79.0563 136.009 78.9205C135.724 78.7846 135.49 78.6139 135.308 78.4084C135.125 78.1996 134.986 77.9891 134.89 77.777H134.825V81.8636H132.707ZM134.781 75.1818C134.781 75.6359 134.844 76.032 134.97 76.37C135.095 76.7081 135.278 76.9716 135.516 77.1605C135.755 77.3461 136.045 77.4389 136.386 77.4389C136.731 77.4389 137.023 77.3445 137.261 77.1555C137.5 76.9633 137.681 76.6982 137.803 76.3601C137.929 76.0187 137.992 75.6259 137.992 75.1818C137.992 74.741 137.931 74.3532 137.808 74.0185C137.686 73.6837 137.505 73.4219 137.266 73.233C137.028 73.044 136.734 72.9496 136.386 72.9496C136.042 72.9496 135.75 73.0407 135.511 73.223C135.276 73.4053 135.095 73.6638 134.97 73.9986C134.844 74.3333 134.781 74.7277 134.781 75.1818ZM141.567 79V71.3636H143.685V79H141.567ZM142.631 70.3793C142.316 70.3793 142.046 70.2749 141.82 70.0661C141.598 69.8539 141.487 69.6004 141.487 69.3054C141.487 69.0137 141.598 68.7635 141.82 68.5547C142.046 68.3426 142.316 68.2365 142.631 68.2365C142.946 68.2365 143.214 68.3426 143.436 68.5547C143.662 68.7635 143.774 69.0137 143.774 69.3054C143.774 69.6004 143.662 69.8539 143.436 70.0661C143.214 70.2749 142.946 70.3793 142.631 70.3793ZM148.832 79.1491C148.049 79.1491 147.377 78.9834 146.813 78.652C146.253 78.3172 145.822 77.8532 145.521 77.2599C145.222 76.6667 145.073 75.9839 145.073 75.2116C145.073 74.4295 145.224 73.7434 145.525 73.1534C145.83 72.5601 146.263 72.0978 146.823 71.7663C147.383 71.4316 148.049 71.2642 148.822 71.2642C149.488 71.2642 150.071 71.3852 150.572 71.6271C151.072 71.8691 151.468 72.2088 151.76 72.6463C152.052 73.0838 152.212 73.5975 152.242 74.1875H150.244C150.187 73.8063 150.038 73.4998 149.796 73.2678C149.557 73.0324 149.244 72.9148 148.856 72.9148C148.528 72.9148 148.242 73.0043 147.996 73.1832C147.754 73.3589 147.565 73.6158 147.43 73.9538C147.294 74.2919 147.226 74.7012 147.226 75.1818C147.226 75.669 147.292 76.0833 147.425 76.4247C147.561 76.7661 147.751 77.0263 147.996 77.2053C148.242 77.3842 148.528 77.4737 148.856 77.4737C149.098 77.4737 149.315 77.424 149.508 77.3246C149.703 77.2251 149.864 77.081 149.99 76.892C150.119 76.6998 150.204 76.4695 150.244 76.201H152.242C152.209 76.7843 152.05 77.2981 151.765 77.7422C151.483 78.183 151.094 78.5277 150.597 78.7763C150.099 79.0249 149.511 79.1491 148.832 79.1491ZM159.952 73.5412L158.013 73.6605C157.98 73.4948 157.908 73.3456 157.799 73.2131C157.69 73.0772 157.546 72.9695 157.367 72.8899C157.191 72.8071 156.98 72.7656 156.735 72.7656C156.407 72.7656 156.13 72.8352 155.905 72.9744C155.68 73.1103 155.567 73.2926 155.567 73.5213C155.567 73.7036 155.64 73.8577 155.786 73.9837C155.931 74.1096 156.182 74.2107 156.536 74.2869L157.918 74.5653C158.661 74.7178 159.214 74.9631 159.579 75.3011C159.944 75.6392 160.126 76.0833 160.126 76.6335C160.126 77.134 159.978 77.5732 159.683 77.951C159.392 78.3288 158.991 78.6238 158.48 78.8359C157.973 79.0447 157.388 79.1491 156.725 79.1491C155.714 79.1491 154.909 78.9387 154.309 78.5178C153.712 78.0935 153.363 77.5168 153.26 76.7876L155.343 76.6783C155.406 76.9865 155.559 77.2218 155.801 77.3842C156.042 77.5433 156.352 77.6229 156.73 77.6229C157.101 77.6229 157.4 77.5516 157.625 77.4091C157.854 77.2633 157.97 77.076 157.973 76.8473C157.97 76.6551 157.889 76.4976 157.729 76.375C157.57 76.2491 157.325 76.1529 156.994 76.0866L155.671 75.8232C154.926 75.674 154.37 75.4155 154.006 75.0476C153.645 74.6797 153.464 74.2107 153.464 73.6406C153.464 73.1501 153.596 72.7275 153.862 72.3729C154.13 72.0182 154.506 71.7448 154.99 71.5526C155.477 71.3603 156.047 71.2642 156.7 71.2642C157.665 71.2642 158.424 71.468 158.977 71.8757C159.534 72.2834 159.859 72.8385 159.952 73.5412Z" fill="#525252"/>
<rect x="343" y="71.5" width="55" height="4" rx="2" fill="#E2E2E6"/>
<rect x="52.5" y="105.5" width="109.333" height="111" rx="8.5" fill="#FBFBFB"/>
<rect x="52.5" y="105.5" width="109.333" height="111" rx="8.5" stroke="#EBEBEF"/>
<path d="M67.7122 126H65.7406V120.182H67.752C68.3296 120.182 68.8258 120.298 69.2406 120.531C69.6573 120.762 69.9774 121.095 70.2008 121.528C70.4243 121.962 70.5361 122.481 70.5361 123.085C70.5361 123.691 70.4234 124.212 70.198 124.648C69.9745 125.083 69.6516 125.418 69.2292 125.651C68.8088 125.884 68.3031 126 67.7122 126ZM66.7946 125.088H67.6611C68.0664 125.088 68.4044 125.014 68.6753 124.866C68.9461 124.717 69.1497 124.494 69.2861 124.199C69.4224 123.902 69.4906 123.53 69.4906 123.085C69.4906 122.64 69.4224 122.271 69.2861 121.977C69.1497 121.682 68.948 121.461 68.681 121.315C68.4158 121.168 68.0863 121.094 67.6923 121.094H66.7946V125.088ZM73.4239 126.085C72.9864 126.085 72.6085 125.994 72.2903 125.812C71.974 125.629 71.7307 125.369 71.5602 125.034C71.3898 124.697 71.3045 124.3 71.3045 123.844C71.3045 123.395 71.3898 123.001 71.5602 122.662C71.7326 122.321 71.9731 122.056 72.2818 121.866C72.5905 121.675 72.9532 121.58 73.3699 121.58C73.6388 121.58 73.8926 121.623 74.1312 121.71C74.3718 121.795 74.5839 121.928 74.7676 122.108C74.9532 122.288 75.099 122.517 75.2051 122.795C75.3112 123.072 75.3642 123.402 75.3642 123.784V124.099H71.7875V123.406H74.3784C74.3765 123.209 74.3339 123.034 74.2506 122.881C74.1672 122.725 74.0507 122.603 73.9011 122.514C73.7534 122.425 73.581 122.381 73.3841 122.381C73.1739 122.381 72.9892 122.432 72.8301 122.534C72.671 122.634 72.547 122.767 72.4579 122.932C72.3708 123.095 72.3263 123.274 72.3244 123.469V124.074C72.3244 124.328 72.3708 124.545 72.4636 124.727C72.5564 124.907 72.6862 125.045 72.8528 125.142C73.0195 125.237 73.2146 125.284 73.4381 125.284C73.5877 125.284 73.7231 125.263 73.8443 125.222C73.9655 125.178 74.0706 125.115 74.1596 125.031C74.2487 124.948 74.3159 124.845 74.3614 124.722L75.3216 124.83C75.261 125.083 75.1454 125.305 74.975 125.494C74.8064 125.682 74.5905 125.828 74.3273 125.932C74.064 126.034 73.7629 126.085 73.4239 126.085ZM79.6831 122.79L78.7456 122.892C78.7191 122.797 78.6727 122.708 78.6064 122.625C78.542 122.542 78.4549 122.474 78.345 122.423C78.2352 122.372 78.1007 122.347 77.9416 122.347C77.7276 122.347 77.5477 122.393 77.4018 122.486C77.2579 122.579 77.1869 122.699 77.1888 122.847C77.1869 122.973 77.2333 123.077 77.328 123.156C77.4246 123.236 77.5837 123.301 77.8052 123.352L78.5496 123.511C78.9624 123.6 79.2693 123.741 79.47 123.935C79.6727 124.128 79.7749 124.381 79.7768 124.693C79.7749 124.968 79.6944 125.21 79.5354 125.42C79.3782 125.629 79.1594 125.792 78.8791 125.909C78.5988 126.027 78.2768 126.085 77.9132 126.085C77.3791 126.085 76.9492 125.973 76.6234 125.75C76.2977 125.525 76.1035 125.211 76.041 124.81L77.0439 124.713C77.0893 124.91 77.1859 125.059 77.3337 125.159C77.4814 125.259 77.6736 125.31 77.9104 125.31C78.1547 125.31 78.3507 125.259 78.4984 125.159C78.648 125.059 78.7229 124.935 78.7229 124.787C78.7229 124.662 78.6746 124.559 78.578 124.477C78.4833 124.396 78.3355 124.333 78.1348 124.29L77.3905 124.134C76.9719 124.046 76.6622 123.9 76.4615 123.693C76.2607 123.485 76.1613 123.222 76.1632 122.903C76.1613 122.634 76.2342 122.402 76.3819 122.205C76.5316 122.006 76.739 121.852 77.0041 121.744C77.2712 121.634 77.5789 121.58 77.9274 121.58C78.4388 121.58 78.8412 121.688 79.1348 121.906C79.4302 122.124 79.613 122.419 79.6831 122.79ZM80.6248 126V121.636H81.6533V126H80.6248ZM81.1419 121.017C80.979 121.017 80.8389 120.963 80.7214 120.855C80.604 120.745 80.5453 120.614 80.5453 120.46C80.5453 120.305 80.604 120.173 80.7214 120.065C80.8389 119.955 80.979 119.901 81.1419 119.901C81.3067 119.901 81.4468 119.955 81.5623 120.065C81.6798 120.173 81.7385 120.305 81.7385 120.46C81.7385 120.614 81.6798 120.745 81.5623 120.855C81.4468 120.963 81.3067 121.017 81.1419 121.017ZM84.6085 127.727C84.2392 127.727 83.922 127.677 83.6568 127.577C83.3917 127.478 83.1786 127.346 83.0176 127.179C82.8566 127.012 82.7449 126.828 82.6824 126.625L83.6085 126.401C83.6502 126.486 83.7108 126.57 83.7903 126.653C83.8699 126.739 83.9769 126.809 84.1114 126.864C84.2477 126.92 84.4191 126.949 84.6256 126.949C84.9172 126.949 85.1587 126.878 85.35 126.736C85.5413 126.596 85.6369 126.365 85.6369 126.043V125.216H85.5858C85.5328 125.322 85.4551 125.431 85.3528 125.543C85.2524 125.654 85.1189 125.748 84.9523 125.824C84.7875 125.9 84.5801 125.938 84.3301 125.938C83.9949 125.938 83.6909 125.859 83.4182 125.702C83.1473 125.543 82.9314 125.306 82.7704 124.991C82.6114 124.675 82.5318 124.279 82.5318 123.804C82.5318 123.325 82.6114 122.92 82.7704 122.591C82.9314 122.259 83.1483 122.009 83.421 121.838C83.6937 121.666 83.9977 121.58 84.3329 121.58C84.5886 121.58 84.7989 121.623 84.9636 121.71C85.1303 121.795 85.2629 121.899 85.3614 122.02C85.4598 122.139 85.5346 122.252 85.5858 122.358H85.6426V121.636H86.6568V126.071C86.6568 126.444 86.5678 126.753 86.3898 126.997C86.2117 127.241 85.9684 127.424 85.6596 127.545C85.3509 127.667 85.0006 127.727 84.6085 127.727ZM84.617 125.131C84.8348 125.131 85.0204 125.078 85.1739 124.972C85.3273 124.866 85.4437 124.713 85.5233 124.514C85.6028 124.315 85.6426 124.077 85.6426 123.798C85.6426 123.524 85.6028 123.283 85.5233 123.077C85.4456 122.87 85.3301 122.71 85.1767 122.597C85.0252 122.481 84.8386 122.423 84.617 122.423C84.3879 122.423 84.1966 122.483 84.0432 122.602C83.8898 122.722 83.7742 122.885 83.6966 123.094C83.6189 123.3 83.5801 123.535 83.5801 123.798C83.5801 124.065 83.6189 124.299 83.6966 124.5C83.7761 124.699 83.8926 124.854 84.046 124.966C84.2013 125.076 84.3917 125.131 84.617 125.131ZM88.7392 123.443V126H87.7108V121.636H88.6937V122.378H88.7449C88.8453 122.134 89.0053 121.939 89.225 121.795C89.4466 121.652 89.7203 121.58 90.046 121.58C90.3471 121.58 90.6095 121.644 90.8329 121.773C91.0583 121.902 91.2326 122.088 91.3557 122.332C91.4807 122.577 91.5422 122.873 91.5403 123.222V126H90.5119V123.381C90.5119 123.089 90.4362 122.861 90.2846 122.696C90.135 122.531 89.9276 122.449 89.6625 122.449C89.4826 122.449 89.3225 122.489 89.1824 122.568C89.0441 122.646 88.9352 122.759 88.8557 122.906C88.778 123.054 88.7392 123.233 88.7392 123.443Z" fill="#525252"/>
<rect x="123.667" y="118.5" width="25" height="9" rx="2.5" stroke="#C5C5CC"/>
<path d="M130.167 123H142.167" stroke="#C5C5CC" stroke-linecap="round"/>
<rect x="65" y="140" width="74" height="4" rx="2" fill="#E2E2E6"/>
<rect x="65" y="152" width="64" height="4" rx="2" fill="#E2E2E6"/>
<rect x="65" y="164" width="75" height="4" rx="2" fill="#E2E2E6"/>
<rect x="65" y="176" width="55" height="4" rx="2" fill="#E2E2E6"/>
<rect x="65" y="188" width="73" height="4" rx="2" fill="#E2E2E6"/>
<rect x="65" y="200" width="56" height="4" rx="2" fill="#E2E2E6"/>
<rect x="170.833" y="105.5" width="109.333" height="111" rx="8.5" fill="#FBFBFB"/>
<rect x="170.833" y="105.5" width="109.333" height="111" rx="8.5" stroke="#EBEBEF"/>
<path d="M183.907 126V120.182H187.691V121.065H184.961V122.645H187.495V123.528H184.961V125.116H187.714V126H183.907ZM189.749 123.443V126H188.721V121.636H189.704V122.378H189.755C189.856 122.134 190.016 121.939 190.235 121.795C190.457 121.652 190.731 121.58 191.056 121.58C191.357 121.58 191.62 121.644 191.843 121.773C192.069 121.902 192.243 122.088 192.366 122.332C192.491 122.577 192.552 122.873 192.551 123.222V126H191.522V123.381C191.522 123.089 191.446 122.861 191.295 122.696C191.145 122.531 190.938 122.449 190.673 122.449C190.493 122.449 190.333 122.489 190.193 122.568C190.054 122.646 189.945 122.759 189.866 122.906C189.788 123.054 189.749 123.233 189.749 123.443ZM195.494 127.727C195.124 127.727 194.807 127.677 194.542 127.577C194.277 127.478 194.064 127.346 193.903 127.179C193.742 127.012 193.63 126.828 193.568 126.625L194.494 126.401C194.535 126.486 194.596 126.57 194.676 126.653C194.755 126.739 194.862 126.809 194.997 126.864C195.133 126.92 195.304 126.949 195.511 126.949C195.802 126.949 196.044 126.878 196.235 126.736C196.427 126.596 196.522 126.365 196.522 126.043V125.216H196.471C196.418 125.322 196.34 125.431 196.238 125.543C196.138 125.654 196.004 125.748 195.838 125.824C195.673 125.9 195.465 125.938 195.215 125.938C194.88 125.938 194.576 125.859 194.303 125.702C194.033 125.543 193.817 125.306 193.656 124.991C193.497 124.675 193.417 124.279 193.417 123.804C193.417 123.325 193.497 122.92 193.656 122.591C193.817 122.259 194.034 122.009 194.306 121.838C194.579 121.666 194.883 121.58 195.218 121.58C195.474 121.58 195.684 121.623 195.849 121.71C196.016 121.795 196.148 121.899 196.247 122.02C196.345 122.139 196.42 122.252 196.471 122.358H196.528V121.636H197.542V126.071C197.542 126.444 197.453 126.753 197.275 126.997C197.097 127.241 196.854 127.424 196.545 127.545C196.236 127.667 195.886 127.727 195.494 127.727ZM195.502 125.131C195.72 125.131 195.906 125.078 196.059 124.972C196.213 124.866 196.329 124.713 196.409 124.514C196.488 124.315 196.528 124.077 196.528 123.798C196.528 123.524 196.488 123.283 196.409 123.077C196.331 122.87 196.215 122.71 196.062 122.597C195.91 122.481 195.724 122.423 195.502 122.423C195.273 122.423 195.082 122.483 194.928 122.602C194.775 122.722 194.659 122.885 194.582 123.094C194.504 123.3 194.465 123.535 194.465 123.798C194.465 124.065 194.504 124.299 194.582 124.5C194.661 124.699 194.778 124.854 194.931 124.966C195.087 125.076 195.277 125.131 195.502 125.131ZM198.596 126V121.636H199.624V126H198.596ZM199.113 121.017C198.95 121.017 198.81 120.963 198.693 120.855C198.575 120.745 198.516 120.614 198.516 120.46C198.516 120.305 198.575 120.173 198.693 120.065C198.81 119.955 198.95 119.901 199.113 119.901C199.278 119.901 199.418 119.955 199.534 120.065C199.651 120.173 199.71 120.305 199.71 120.46C199.71 120.614 199.651 120.745 199.534 120.855C199.418 120.963 199.278 121.017 199.113 121.017ZM201.71 123.443V126H200.682V121.636H201.665V122.378H201.716C201.816 122.134 201.976 121.939 202.196 121.795C202.418 121.652 202.691 121.58 203.017 121.58C203.318 121.58 203.581 121.644 203.804 121.773C204.03 121.902 204.204 122.088 204.327 122.332C204.452 122.577 204.513 122.873 204.512 123.222V126H203.483V123.381C203.483 123.089 203.407 122.861 203.256 122.696C203.106 122.531 202.899 122.449 202.634 122.449C202.454 122.449 202.294 122.489 202.154 122.568C202.015 122.646 201.906 122.759 201.827 122.906C201.749 123.054 201.71 123.233 201.71 123.443ZM207.489 126.085C207.051 126.085 206.673 125.994 206.355 125.812C206.039 125.629 205.796 125.369 205.625 125.034C205.455 124.697 205.369 124.3 205.369 123.844C205.369 123.395 205.455 123.001 205.625 122.662C205.798 122.321 206.038 122.056 206.347 121.866C206.655 121.675 207.018 121.58 207.435 121.58C207.704 121.58 207.958 121.623 208.196 121.71C208.437 121.795 208.649 121.928 208.833 122.108C209.018 122.288 209.164 122.517 209.27 122.795C209.376 123.072 209.429 123.402 209.429 123.784V124.099H205.852V123.406H208.443C208.441 123.209 208.399 123.034 208.315 122.881C208.232 122.725 208.116 122.603 207.966 122.514C207.818 122.425 207.646 122.381 207.449 122.381C207.239 122.381 207.054 122.432 206.895 122.534C206.736 122.634 206.612 122.767 206.523 122.932C206.436 123.095 206.391 123.274 206.389 123.469V124.074C206.389 124.328 206.436 124.545 206.529 124.727C206.621 124.907 206.751 125.045 206.918 125.142C207.084 125.237 207.28 125.284 207.503 125.284C207.653 125.284 207.788 125.263 207.909 125.222C208.03 125.178 208.136 125.115 208.225 125.031C208.314 124.948 208.381 124.845 208.426 124.722L209.387 124.83C209.326 125.083 209.21 125.305 209.04 125.494C208.871 125.682 208.655 125.828 208.392 125.932C208.129 126.034 207.828 126.085 207.489 126.085ZM212.231 126.085C211.793 126.085 211.416 125.994 211.097 125.812C210.781 125.629 210.538 125.369 210.367 125.034C210.197 124.697 210.112 124.3 210.112 123.844C210.112 123.395 210.197 123.001 210.367 122.662C210.54 122.321 210.78 122.056 211.089 121.866C211.398 121.675 211.76 121.58 212.177 121.58C212.446 121.58 212.7 121.623 212.938 121.71C213.179 121.795 213.391 121.928 213.575 122.108C213.76 122.288 213.906 122.517 214.012 122.795C214.118 123.072 214.171 123.402 214.171 123.784V124.099H210.595V123.406H213.186C213.184 123.209 213.141 123.034 213.058 122.881C212.974 122.725 212.858 122.603 212.708 122.514C212.561 122.425 212.388 122.381 212.191 122.381C211.981 122.381 211.796 122.432 211.637 122.534C211.478 122.634 211.354 122.767 211.265 122.932C211.178 123.095 211.133 123.274 211.132 123.469V124.074C211.132 124.328 211.178 124.545 211.271 124.727C211.364 124.907 211.493 125.045 211.66 125.142C211.827 125.237 212.022 125.284 212.245 125.284C212.395 125.284 212.53 125.263 212.651 125.222C212.773 125.178 212.878 125.115 212.967 125.031C213.056 124.948 213.123 124.845 213.168 124.722L214.129 124.83C214.068 125.083 213.953 125.305 213.782 125.494C213.614 125.682 213.398 125.828 213.134 125.932C212.871 126.034 212.57 126.085 212.231 126.085ZM215.041 126V121.636H216.039V122.364H216.084C216.164 122.112 216.3 121.918 216.493 121.781C216.688 121.643 216.911 121.574 217.161 121.574C217.217 121.574 217.281 121.577 217.351 121.582C217.423 121.586 217.483 121.593 217.53 121.602V122.548C217.486 122.533 217.417 122.52 217.323 122.509C217.23 122.495 217.14 122.489 217.053 122.489C216.865 122.489 216.697 122.529 216.547 122.611C216.399 122.69 216.283 122.801 216.198 122.943C216.112 123.085 216.07 123.249 216.07 123.435V126H215.041ZM218.213 126V121.636H219.242V126H218.213ZM218.73 121.017C218.567 121.017 218.427 120.963 218.31 120.855C218.192 120.745 218.134 120.614 218.134 120.46C218.134 120.305 218.192 120.173 218.31 120.065C218.427 119.955 218.567 119.901 218.73 119.901C218.895 119.901 219.035 119.955 219.151 120.065C219.268 120.173 219.327 120.305 219.327 120.46C219.327 120.614 219.268 120.745 219.151 120.855C219.035 120.963 218.895 121.017 218.73 121.017ZM221.328 123.443V126H220.299V121.636H221.282V122.378H221.333C221.434 122.134 221.594 121.939 221.813 121.795C222.035 121.652 222.309 121.58 222.634 121.58C222.936 121.58 223.198 121.644 223.421 121.773C223.647 121.902 223.821 122.088 223.944 122.332C224.069 122.577 224.131 122.873 224.129 123.222V126H223.1V123.381C223.1 123.089 223.025 122.861 222.873 122.696C222.723 122.531 222.516 122.449 222.251 122.449C222.071 122.449 221.911 122.489 221.771 122.568C221.632 122.646 221.524 122.759 221.444 122.906C221.366 123.054 221.328 123.233 221.328 123.443ZM227.072 127.727C226.703 127.727 226.385 127.677 226.12 127.577C225.855 127.478 225.642 127.346 225.481 127.179C225.32 127.012 225.208 126.828 225.146 126.625L226.072 126.401C226.114 126.486 226.174 126.57 226.254 126.653C226.333 126.739 226.44 126.809 226.575 126.864C226.711 126.92 226.882 126.949 227.089 126.949C227.381 126.949 227.622 126.878 227.813 126.736C228.005 126.596 228.1 126.365 228.1 126.043V125.216H228.049C227.996 125.322 227.918 125.431 227.816 125.543C227.716 125.654 227.582 125.748 227.416 125.824C227.251 125.9 227.043 125.938 226.793 125.938C226.458 125.938 226.154 125.859 225.882 125.702C225.611 125.543 225.395 125.306 225.234 124.991C225.075 124.675 224.995 124.279 224.995 123.804C224.995 123.325 225.075 122.92 225.234 122.591C225.395 122.259 225.612 122.009 225.884 121.838C226.157 121.666 226.461 121.58 226.796 121.58C227.052 121.58 227.262 121.623 227.427 121.71C227.594 121.795 227.726 121.899 227.825 122.02C227.923 122.139 227.998 122.252 228.049 122.358H228.106V121.636H229.12V126.071C229.12 126.444 229.031 126.753 228.853 126.997C228.675 127.241 228.432 127.424 228.123 127.545C227.814 127.667 227.464 127.727 227.072 127.727ZM227.08 125.131C227.298 125.131 227.484 125.078 227.637 124.972C227.791 124.866 227.907 124.713 227.987 124.514C228.066 124.315 228.106 124.077 228.106 123.798C228.106 123.524 228.066 123.283 227.987 123.077C227.909 122.87 227.793 122.71 227.64 122.597C227.489 122.481 227.302 122.423 227.08 122.423C226.851 122.423 226.66 122.483 226.507 122.602C226.353 122.722 226.238 122.885 226.16 123.094C226.082 123.3 226.043 123.535 226.043 123.798C226.043 124.065 226.082 124.299 226.16 124.5C226.24 124.699 226.356 124.854 226.509 124.966C226.665 125.076 226.855 125.131 227.08 125.131Z" fill="#525252"/>
<rect x="242.167" y="118.5" width="25" height="9" rx="2.5" stroke="#C5C5CC"/>
<path d="M248.667 123H260.667" stroke="#C5C5CC" stroke-linecap="round"/>
<rect x="183.333" y="140" width="50" height="4" rx="2" fill="#E2E2E6"/>
<rect x="183.333" y="152" width="71" height="4" rx="2" fill="#E2E2E6"/>
<rect x="183.333" y="164" width="75" height="4" rx="2" fill="#E2E2E6"/>
<rect x="183.333" y="176" width="81" height="4" rx="2" fill="#E2E2E6"/>
<rect x="183.333" y="188" width="64" height="4" rx="2" fill="#E2E2E6"/>
<rect x="183.333" y="200" width="56" height="4" rx="2" fill="#E2E2E6"/>
<rect x="289.167" y="105.5" width="109.333" height="111" rx="8.5" fill="#FBFBFB"/>
<rect x="289.167" y="105.5" width="109.333" height="111" rx="8.5" stroke="#EBEBEF"/>
<path d="M301.985 121.065V120.182H306.627V121.065H304.829V126H303.783V121.065H301.985ZM308.775 126.085C308.338 126.085 307.96 125.994 307.642 125.812C307.326 125.629 307.082 125.369 306.912 125.034C306.741 124.697 306.656 124.3 306.656 123.844C306.656 123.395 306.741 123.001 306.912 122.662C307.084 122.321 307.325 122.056 307.633 121.866C307.942 121.675 308.305 121.58 308.721 121.58C308.99 121.58 309.244 121.623 309.483 121.71C309.723 121.795 309.935 121.928 310.119 122.108C310.305 122.288 310.451 122.517 310.557 122.795C310.663 123.072 310.716 123.402 310.716 123.784V124.099H307.139V123.406H309.73C309.728 123.209 309.685 123.034 309.602 122.881C309.519 122.725 309.402 122.603 309.253 122.514C309.105 122.425 308.933 122.381 308.736 122.381C308.525 122.381 308.341 122.432 308.182 122.534C308.023 122.634 307.899 122.767 307.81 122.932C307.722 123.095 307.678 123.274 307.676 123.469V124.074C307.676 124.328 307.722 124.545 307.815 124.727C307.908 124.907 308.038 125.045 308.204 125.142C308.371 125.237 308.566 125.284 308.79 125.284C308.939 125.284 309.075 125.263 309.196 125.222C309.317 125.178 309.422 125.115 309.511 125.031C309.6 124.948 309.667 124.845 309.713 124.722L310.673 124.83C310.613 125.083 310.497 125.305 310.327 125.494C310.158 125.682 309.942 125.828 309.679 125.932C309.416 126.034 309.114 126.085 308.775 126.085ZM313.489 126.085C313.054 126.085 312.68 125.99 312.367 125.798C312.056 125.607 311.817 125.343 311.648 125.006C311.482 124.667 311.398 124.277 311.398 123.835C311.398 123.392 311.484 123.001 311.654 122.662C311.824 122.321 312.065 122.056 312.376 121.866C312.688 121.675 313.057 121.58 313.484 121.58C313.838 121.58 314.151 121.645 314.424 121.776C314.698 121.904 314.917 122.087 315.08 122.324C315.243 122.559 315.336 122.833 315.359 123.148H314.376C314.336 122.937 314.241 122.762 314.091 122.622C313.944 122.48 313.746 122.409 313.498 122.409C313.287 122.409 313.103 122.466 312.944 122.58C312.785 122.691 312.661 122.852 312.572 123.062C312.484 123.273 312.441 123.525 312.441 123.818C312.441 124.116 312.484 124.371 312.572 124.585C312.659 124.797 312.781 124.961 312.938 125.077C313.097 125.19 313.284 125.247 313.498 125.247C313.649 125.247 313.785 125.219 313.904 125.162C314.025 125.103 314.127 125.019 314.208 124.909C314.289 124.799 314.345 124.666 314.376 124.509H315.359C315.334 124.817 315.243 125.091 315.086 125.33C314.929 125.566 314.715 125.752 314.444 125.886C314.173 126.019 313.855 126.085 313.489 126.085ZM317.231 123.443V126H316.203V120.182H317.209V122.378H317.26C317.362 122.132 317.52 121.937 317.734 121.795C317.95 121.652 318.225 121.58 318.558 121.58C318.861 121.58 319.125 121.643 319.351 121.77C319.576 121.897 319.75 122.082 319.873 122.327C319.998 122.571 320.061 122.869 320.061 123.222V126H319.033V123.381C319.033 123.087 318.957 122.859 318.805 122.696C318.656 122.531 318.445 122.449 318.175 122.449C317.993 122.449 317.83 122.489 317.686 122.568C317.544 122.646 317.432 122.759 317.351 122.906C317.271 123.054 317.231 123.233 317.231 123.443Z" fill="#525252"/>
<rect x="360.5" y="118.5" width="25" height="9" rx="2.5" stroke="#C5C5CC"/>
<path d="M367 123H379" stroke="#C5C5CC" stroke-linecap="round"/>
<rect x="301.667" y="140" width="81" height="4" rx="2" fill="#E2E2E6"/>
<rect x="301.667" y="152" width="53" height="4" rx="2" fill="#E2E2E6"/>
<rect x="301.667" y="164" width="63" height="4" rx="2" fill="#E2E2E6"/>
<rect x="301.667" y="176" width="79" height="4" rx="2" fill="#E2E2E6"/>
<rect x="301.667" y="188" width="73" height="4" rx="2" fill="#E2E2E6"/>
<rect x="301.667" y="200" width="56" height="4" rx="2" fill="#E2E2E6"/>
</g>
<defs>
<clipPath id="clip0_421_675">
<rect width="451.33" height="281" fill="white"/>
</clipPath>
</defs>
</svg>
