<svg width="452" height="281" viewBox="0 0 452 281" fill="none" xmlns="http://www.w3.org/2000/svg">
<g clip-path="url(#clip0_387_2301)">
<path d="M451.33 0H0V281H451.33V0Z" fill="#F4F4F6"/>
<path d="M33.8499 0V281" stroke="#E2E2E6" stroke-width="0.8"/>
<path d="M417.48 0V281" stroke="#E2E2E6" stroke-width="0.8"/>
<path d="M0 31.6123H451.33" stroke="#E2E2E6" stroke-width="0.8"/>
<path d="M0 249.388H451.33" stroke="#E2E2E6" stroke-width="0.8"/>
<rect x="33.5" y="29.5" width="384" height="222" rx="11.5" fill="white"/>
<rect x="33.5" y="29.5" width="384" height="222" rx="11.5" stroke="#E2E0E0"/>
<rect x="141.5" y="61" width="168" height="159" rx="11.5" fill="#FBFBFB"/>
<rect x="141.5" y="61" width="168" height="159" rx="11.5" stroke="#EBEBEF"/>
<path d="M155.723 84.5L153.226 75.7727H155.241L156.686 81.8366H156.759L158.352 75.7727H160.078L161.668 81.8494H161.744L163.189 75.7727H165.205L162.707 84.5H160.909L159.247 78.794H159.179L157.521 84.5H155.723ZM168.438 84.6278C167.765 84.6278 167.185 84.4915 166.699 84.2188C166.216 83.9432 165.844 83.554 165.583 83.0511C165.321 82.5455 165.191 81.9474 165.191 81.2571C165.191 80.5838 165.321 79.9929 165.583 79.4844C165.844 78.9759 166.212 78.5795 166.686 78.2955C167.164 78.0114 167.723 77.8693 168.365 77.8693C168.797 77.8693 169.199 77.9389 169.571 78.0781C169.946 78.2145 170.273 78.4205 170.551 78.696C170.833 78.9716 171.051 79.3182 171.208 79.7358C171.364 80.1506 171.442 80.6364 171.442 81.1932V81.6918H165.915V80.5668H169.733C169.733 80.3054 169.676 80.0739 169.563 79.8722C169.449 79.6705 169.292 79.5128 169.09 79.3991C168.891 79.2827 168.659 79.2244 168.395 79.2244C168.12 79.2244 167.875 79.2884 167.662 79.4162C167.452 79.5412 167.287 79.7102 167.168 79.9233C167.049 80.1335 166.988 80.3679 166.985 80.6264V81.696C166.985 82.0199 167.044 82.2997 167.164 82.5355C167.286 82.7713 167.458 82.9531 167.679 83.081C167.901 83.2088 168.164 83.2727 168.468 83.2727C168.669 83.2727 168.854 83.2443 169.022 83.1875C169.189 83.1307 169.333 83.0455 169.452 82.9318C169.571 82.8182 169.662 82.679 169.725 82.5142L171.404 82.625C171.319 83.0284 171.144 83.3807 170.88 83.6818C170.618 83.9801 170.28 84.2131 169.865 84.3807C169.453 84.5455 168.978 84.6278 168.438 84.6278ZM174.442 75.7727V84.5H172.627V75.7727H174.442ZM178.854 84.6278C178.183 84.6278 177.607 84.4858 177.124 84.2017C176.643 83.9148 176.274 83.517 176.016 83.0085C175.76 82.5 175.632 81.9148 175.632 81.2528C175.632 80.5824 175.761 79.9943 176.02 79.4886C176.281 78.9801 176.652 78.5838 177.132 78.2997C177.612 78.0128 178.183 77.8693 178.845 77.8693C179.416 77.8693 179.916 77.973 180.345 78.1804C180.774 78.3878 181.114 78.679 181.364 79.054C181.614 79.429 181.751 79.8693 181.777 80.375H180.064C180.016 80.0483 179.888 79.7855 179.68 79.5866C179.476 79.3849 179.207 79.2841 178.875 79.2841C178.594 79.2841 178.348 79.3608 178.138 79.5142C177.93 79.6648 177.768 79.8849 177.652 80.1747C177.536 80.4645 177.477 80.8153 177.477 81.2273C177.477 81.6449 177.534 82 177.648 82.2926C177.764 82.5852 177.928 82.8082 178.138 82.9616C178.348 83.1151 178.594 83.1918 178.875 83.1918C179.082 83.1918 179.268 83.1491 179.433 83.0639C179.601 82.9787 179.739 82.8551 179.847 82.6932C179.957 82.5284 180.03 82.331 180.064 82.1009H181.777C181.749 82.6009 181.612 83.0412 181.368 83.4219C181.126 83.7997 180.793 84.0952 180.366 84.3082C179.94 84.5213 179.436 84.6278 178.854 84.6278ZM185.897 84.6278C185.235 84.6278 184.662 84.4872 184.179 84.206C183.699 83.9219 183.328 83.527 183.067 83.0213C182.806 82.5128 182.675 81.9233 182.675 81.2528C182.675 80.5767 182.806 79.9858 183.067 79.4801C183.328 78.9716 183.699 78.5767 184.179 78.2955C184.662 78.0114 185.235 77.8693 185.897 77.8693C186.559 77.8693 187.13 78.0114 187.61 78.2955C188.093 78.5767 188.465 78.9716 188.726 79.4801C188.988 79.9858 189.118 80.5767 189.118 81.2528C189.118 81.9233 188.988 82.5128 188.726 83.0213C188.465 83.527 188.093 83.9219 187.61 84.206C187.13 84.4872 186.559 84.6278 185.897 84.6278ZM185.905 83.2216C186.206 83.2216 186.458 83.1364 186.659 82.9659C186.861 82.7926 187.013 82.5568 187.115 82.2585C187.221 81.9602 187.273 81.6207 187.273 81.2401C187.273 80.8594 187.221 80.5199 187.115 80.2216C187.013 79.9233 186.861 79.6875 186.659 79.5142C186.458 79.3409 186.206 79.2543 185.905 79.2543C185.601 79.2543 185.346 79.3409 185.138 79.5142C184.934 79.6875 184.779 79.9233 184.674 80.2216C184.571 80.5199 184.52 80.8594 184.52 81.2401C184.52 81.6207 184.571 81.9602 184.674 82.2585C184.779 82.5568 184.934 82.7926 185.138 82.9659C185.346 83.1364 185.601 83.2216 185.905 83.2216ZM190.299 84.5V77.9545H192.029V79.1094H192.105C192.242 78.7259 192.469 78.4233 192.787 78.2017C193.105 77.9801 193.486 77.8693 193.929 77.8693C194.378 77.8693 194.76 77.9815 195.076 78.206C195.391 78.4276 195.601 78.7287 195.706 79.1094H195.775C195.908 78.7344 196.15 78.4347 196.499 78.2102C196.851 77.983 197.267 77.8693 197.748 77.8693C198.358 77.8693 198.854 78.0639 199.235 78.4531C199.618 78.8395 199.81 79.3878 199.81 80.098V84.5H197.999V80.456C197.999 80.0923 197.902 79.8196 197.709 79.6378C197.516 79.456 197.275 79.3651 196.985 79.3651C196.655 79.3651 196.398 79.4702 196.213 79.6804C196.029 79.8878 195.936 80.1619 195.936 80.5028V84.5H194.176V80.4176C194.176 80.0966 194.084 79.8409 193.9 79.6506C193.718 79.4602 193.478 79.3651 193.179 79.3651C192.978 79.3651 192.796 79.4162 192.634 79.5185C192.475 79.6179 192.348 79.7585 192.255 79.9403C192.161 80.1193 192.114 80.3295 192.114 80.571V84.5H190.299ZM204.227 84.6278C203.554 84.6278 202.974 84.4915 202.488 84.2188C202.005 83.9432 201.633 83.554 201.372 83.0511C201.11 82.5455 200.98 81.9474 200.98 81.2571C200.98 80.5838 201.11 79.9929 201.372 79.4844C201.633 78.9759 202.001 78.5795 202.475 78.2955C202.953 78.0114 203.512 77.8693 204.154 77.8693C204.586 77.8693 204.988 77.9389 205.36 78.0781C205.735 78.2145 206.062 78.4205 206.341 78.696C206.622 78.9716 206.841 79.3182 206.997 79.7358C207.153 80.1506 207.231 80.6364 207.231 81.1932V81.6918H201.704V80.5668H205.522C205.522 80.3054 205.466 80.0739 205.352 79.8722C205.238 79.6705 205.081 79.5128 204.879 79.3991C204.68 79.2827 204.449 79.2244 204.184 79.2244C203.909 79.2244 203.664 79.2884 203.451 79.4162C203.241 79.5412 203.076 79.7102 202.957 79.9233C202.838 80.1335 202.777 80.3679 202.774 80.6264V81.696C202.774 82.0199 202.833 82.2997 202.953 82.5355C203.075 82.7713 203.247 82.9531 203.468 83.081C203.69 83.2088 203.953 83.2727 204.257 83.2727C204.458 83.2727 204.643 83.2443 204.811 83.1875C204.978 83.1307 205.122 83.0455 205.241 82.9318C205.36 82.8182 205.451 82.679 205.514 82.5142L207.193 82.625C207.108 83.0284 206.933 83.3807 206.669 83.6818C206.407 83.9801 206.069 84.2131 205.654 84.3807C205.243 84.5455 204.767 84.6278 204.227 84.6278ZM211.227 84.5V75.7727H213.043V79.054H213.098C213.178 78.8778 213.293 78.6989 213.443 78.517C213.597 78.3324 213.795 78.179 214.04 78.0568C214.287 77.9318 214.594 77.8693 214.96 77.8693C215.438 77.8693 215.878 77.9943 216.281 78.2443C216.685 78.4915 217.007 78.8651 217.249 79.3651C217.49 79.8622 217.611 80.4858 217.611 81.2358C217.611 81.9659 217.493 82.5824 217.257 83.0852C217.024 83.5852 216.706 83.9645 216.303 84.223C215.902 84.4787 215.453 84.6065 214.956 84.6065C214.604 84.6065 214.304 84.5483 214.057 84.4318C213.812 84.3153 213.612 84.169 213.456 83.9929C213.3 83.8139 213.18 83.6335 213.098 83.4517H213.017V84.5H211.227ZM213.004 81.2273C213.004 81.6165 213.058 81.956 213.166 82.2457C213.274 82.5355 213.43 82.7614 213.635 82.9233C213.839 83.0824 214.088 83.1619 214.381 83.1619C214.676 83.1619 214.926 83.081 215.131 82.919C215.335 82.7543 215.49 82.527 215.595 82.2372C215.703 81.9446 215.757 81.608 215.757 81.2273C215.757 80.8494 215.705 80.517 215.599 80.2301C215.494 79.9432 215.339 79.7187 215.135 79.5568C214.93 79.3949 214.679 79.3139 214.381 79.3139C214.085 79.3139 213.835 79.392 213.631 79.5483C213.429 79.7045 213.274 79.9261 213.166 80.2131C213.058 80.5 213.004 80.8381 213.004 81.2273ZM220.689 84.6236C220.271 84.6236 219.899 84.5511 219.572 84.4062C219.245 84.2585 218.987 84.0412 218.797 83.7543C218.609 83.4645 218.515 83.1037 218.515 82.6719C218.515 82.3082 218.582 82.0028 218.716 81.7557C218.849 81.5085 219.031 81.3097 219.261 81.1591C219.491 81.0085 219.752 80.8949 220.045 80.8182C220.341 80.7415 220.65 80.6875 220.974 80.6562C221.355 80.6165 221.662 80.5795 221.895 80.5455C222.127 80.5085 222.297 80.4545 222.402 80.3835C222.507 80.3125 222.559 80.2074 222.559 80.0682V80.0426C222.559 79.7727 222.474 79.5639 222.304 79.4162C222.136 79.2685 221.897 79.1946 221.588 79.1946C221.261 79.1946 221.001 79.267 220.808 79.4119C220.615 79.554 220.487 79.733 220.424 79.9489L218.745 79.8125C218.831 79.4148 218.998 79.071 219.248 78.7812C219.498 78.4886 219.821 78.2642 220.216 78.108C220.613 77.9489 221.074 77.8693 221.596 77.8693C221.96 77.8693 222.308 77.9119 222.64 77.9972C222.975 78.0824 223.272 78.2145 223.531 78.3935C223.792 78.5724 223.998 78.8026 224.149 79.0838C224.299 79.3622 224.375 79.696 224.375 80.0852V84.5H222.653V83.5923H222.602C222.497 83.7969 222.356 83.9773 222.18 84.1335C222.004 84.2869 221.792 84.4077 221.545 84.4957C221.298 84.581 221.012 84.6236 220.689 84.6236ZM221.208 83.3707C221.475 83.3707 221.711 83.3182 221.916 83.2131C222.12 83.1051 222.281 82.9602 222.397 82.7784C222.514 82.5966 222.572 82.3906 222.572 82.1605V81.4659C222.515 81.5028 222.437 81.5369 222.338 81.5682C222.241 81.5966 222.132 81.6236 222.01 81.6491C221.887 81.6719 221.765 81.6932 221.643 81.7131C221.521 81.7301 221.41 81.7457 221.311 81.7599C221.098 81.7912 220.912 81.8409 220.752 81.9091C220.593 81.9773 220.47 82.0696 220.382 82.1861C220.294 82.2997 220.25 82.4418 220.25 82.6122C220.25 82.8594 220.339 83.0483 220.518 83.179C220.7 83.3068 220.93 83.3707 221.208 83.3707ZM228.74 84.6278C228.07 84.6278 227.493 84.4858 227.01 84.2017C226.53 83.9148 226.161 83.517 225.902 83.0085C225.647 82.5 225.519 81.9148 225.519 81.2528C225.519 80.5824 225.648 79.9943 225.907 79.4886C226.168 78.9801 226.539 78.5838 227.019 78.2997C227.499 78.0128 228.07 77.8693 228.732 77.8693C229.303 77.8693 229.803 77.973 230.232 78.1804C230.661 78.3878 231 78.679 231.25 79.054C231.5 79.429 231.638 79.8693 231.664 80.375H229.951C229.902 80.0483 229.775 79.7855 229.567 79.5866C229.363 79.3849 229.094 79.2841 228.762 79.2841C228.48 79.2841 228.235 79.3608 228.025 79.5142C227.817 79.6648 227.655 79.8849 227.539 80.1747C227.422 80.4645 227.364 80.8153 227.364 81.2273C227.364 81.6449 227.421 82 227.534 82.2926C227.651 82.5852 227.814 82.8082 228.025 82.9616C228.235 83.1151 228.48 83.1918 228.762 83.1918C228.969 83.1918 229.155 83.1491 229.32 83.0639C229.488 82.9787 229.625 82.8551 229.733 82.6932C229.844 82.5284 229.917 82.331 229.951 82.1009H231.664C231.635 82.6009 231.499 83.0412 231.255 83.4219C231.013 83.7997 230.679 84.0952 230.253 84.3082C229.827 84.5213 229.323 84.6278 228.74 84.6278ZM234.471 82.6165L234.475 80.4389H234.739L236.836 77.9545H238.92L236.103 81.2443H235.673L234.471 82.6165ZM232.826 84.5V75.7727H234.641V84.5H232.826ZM236.917 84.5L234.991 81.6491L236.201 80.3665L239.043 84.5H236.917Z" fill="#525252"/>
<rect x="153.5" y="102.667" width="144" height="21" rx="7.5" fill="#FAFAFC"/>
<rect x="153.5" y="102.667" width="144" height="21" rx="7.5" stroke="#E2E2E6"/>
<rect x="161" y="112.167" width="28" height="2" rx="1" fill="#E2E2E6"/>
<rect x="153.5" y="132.667" width="144" height="21" rx="7.5" fill="#FAFAFC"/>
<rect x="153.5" y="132.667" width="144" height="21" rx="7.5" stroke="#E2E2E6"/>
<rect x="161" y="142.167" width="28" height="2" rx="1" fill="#E2E2E6"/>
<rect x="153" y="168.833" width="59" height="3" rx="1.5" fill="#E2E2E6"/>
<rect x="265" y="168.833" width="33" height="3" rx="1.5" fill="#E2E2E6"/>
<rect x="153" y="186.5" width="145" height="22" rx="6" fill="#303030"/>
<path d="M216.5 197.5H234.5" stroke="white" stroke-width="2" stroke-linecap="round"/>
</g>
<defs>
<clipPath id="clip0_387_2301">
<rect width="451.33" height="281" fill="white"/>
</clipPath>
</defs>
</svg>
