<svg width="452" height="281" viewBox="0 0 452 281" fill="none" xmlns="http://www.w3.org/2000/svg">
<g clip-path="url(#clip0_434_698)">
<path d="M451.33 0H0V281H451.33V0Z" fill="#F4F4F6"/>
<path d="M33.8497 0V281" stroke="#E2E2E6" stroke-width="0.8"/>
<path d="M417.48 0V281" stroke="#E2E2E6" stroke-width="0.8"/>
<path d="M0 31.6123H451.33" stroke="#E2E2E6" stroke-width="0.8"/>
<path d="M0 249.388H451.33" stroke="#E2E2E6" stroke-width="0.8"/>
<rect x="33.5" y="29.5" width="384" height="222" rx="11.5" fill="white"/>
<rect x="33.5" y="29.5" width="384" height="222" rx="11.5" stroke="#E2E0E0"/>
<path d="M138.3 90.8182H140.427V97.9176C140.427 98.5739 140.28 99.1439 139.985 99.6278C139.693 100.112 139.287 100.485 138.767 100.746C138.247 101.008 137.642 101.139 136.952 101.139C136.339 101.139 135.782 101.031 135.282 100.816C134.785 100.597 134.39 100.266 134.099 99.8217C133.807 99.3743 133.663 98.8125 133.666 98.1364H135.809C135.815 98.4048 135.87 98.6352 135.973 98.8274C136.079 99.0163 136.223 99.1622 136.405 99.2649C136.591 99.3643 136.81 99.4141 137.062 99.4141C137.327 99.4141 137.55 99.3577 137.733 99.245C137.918 99.129 138.059 98.96 138.155 98.7379C138.251 98.5159 138.3 98.2424 138.3 97.9176V90.8182ZM145.618 101.149C144.845 101.149 144.178 100.985 143.614 100.657C143.054 100.326 142.622 99.8648 142.317 99.2749C142.012 98.6816 141.859 97.9938 141.859 97.2116C141.859 96.4228 142.012 95.7334 142.317 95.1435C142.622 94.5502 143.054 94.0895 143.614 93.7614C144.178 93.4299 144.845 93.2642 145.618 93.2642C146.39 93.2642 147.056 93.4299 147.616 93.7614C148.18 94.0895 148.614 94.5502 148.919 95.1435C149.224 95.7334 149.376 96.4228 149.376 97.2116C149.376 97.9938 149.224 98.6816 148.919 99.2749C148.614 99.8648 148.18 100.326 147.616 100.657C147.056 100.985 146.39 101.149 145.618 101.149ZM145.628 99.5085C145.979 99.5085 146.272 99.4091 146.508 99.2102C146.743 99.008 146.92 98.733 147.04 98.3849C147.162 98.0369 147.224 97.6409 147.224 97.1967C147.224 96.7526 147.162 96.3565 147.04 96.0085C146.92 95.6605 146.743 95.3854 146.508 95.1832C146.272 94.9811 145.979 94.88 145.628 94.88C145.273 94.88 144.975 94.9811 144.733 95.1832C144.494 95.3854 144.314 95.6605 144.191 96.0085C144.072 96.3565 144.012 96.7526 144.012 97.1967C144.012 97.6409 144.072 98.0369 144.191 98.3849C144.314 98.733 144.494 99.008 144.733 99.2102C144.975 99.4091 145.273 99.5085 145.628 99.5085ZM150.753 101V93.3636H152.871V101H150.753ZM151.817 92.3793C151.502 92.3793 151.232 92.2749 151.007 92.0661C150.785 91.8539 150.674 91.6004 150.674 91.3054C150.674 91.0137 150.785 90.7635 151.007 90.5547C151.232 90.3426 151.502 90.2365 151.817 90.2365C152.132 90.2365 152.401 90.3426 152.623 90.5547C152.848 90.7635 152.961 91.0137 152.961 91.3054C152.961 91.6004 152.848 91.8539 152.623 92.0661C152.401 92.2749 152.132 92.3793 151.817 92.3793ZM156.686 96.5852V101H154.568V93.3636H156.586V94.7109H156.676C156.845 94.2668 157.128 93.9155 157.526 93.657C157.924 93.3951 158.406 93.2642 158.973 93.2642C159.503 93.2642 159.965 93.3802 160.36 93.6122C160.754 93.8442 161.061 94.1757 161.279 94.6065C161.498 95.0341 161.608 95.5445 161.608 96.1378V101H159.49V96.5156C159.493 96.0483 159.374 95.6837 159.132 95.4219C158.89 95.1567 158.557 95.0241 158.132 95.0241C157.847 95.0241 157.596 95.0855 157.377 95.2081C157.161 95.3307 156.992 95.5097 156.87 95.745C156.75 95.977 156.689 96.2571 156.686 96.5852ZM169.967 101.149C169.195 101.149 168.527 100.985 167.964 100.657C167.404 100.326 166.971 99.8648 166.666 99.2749C166.361 98.6816 166.209 97.9938 166.209 97.2116C166.209 96.4228 166.361 95.7334 166.666 95.1435C166.971 94.5502 167.404 94.0895 167.964 93.7614C168.527 93.4299 169.195 93.2642 169.967 93.2642C170.74 93.2642 171.406 93.4299 171.966 93.7614C172.529 94.0895 172.964 94.5502 173.268 95.1435C173.573 95.7334 173.726 96.4228 173.726 97.2116C173.726 97.9938 173.573 98.6816 173.268 99.2749C172.964 99.8648 172.529 100.326 171.966 100.657C171.406 100.985 170.74 101.149 169.967 101.149ZM169.977 99.5085C170.329 99.5085 170.622 99.4091 170.857 99.2102C171.093 99.008 171.27 98.733 171.389 98.3849C171.512 98.0369 171.573 97.6409 171.573 97.1967C171.573 96.7526 171.512 96.3565 171.389 96.0085C171.27 95.6605 171.093 95.3854 170.857 95.1832C170.622 94.9811 170.329 94.88 169.977 94.88C169.623 94.88 169.324 94.9811 169.082 95.1832C168.844 95.3854 168.663 95.6605 168.54 96.0085C168.421 96.3565 168.362 96.7526 168.362 97.1967C168.362 97.6409 168.421 98.0369 168.54 98.3849C168.663 98.733 168.844 99.008 169.082 99.2102C169.324 99.4091 169.623 99.5085 169.977 99.5085ZM180 97.7486V93.3636H182.118V101H180.085V99.6129H180.005C179.833 100.06 179.546 100.42 179.145 100.692C178.747 100.964 178.262 101.099 177.688 101.099C177.178 101.099 176.729 100.983 176.341 100.751C175.953 100.519 175.65 100.19 175.431 99.7621C175.216 99.3345 175.106 98.8224 175.103 98.2259V93.3636H177.221V97.848C177.224 98.2988 177.345 98.6551 177.584 98.9169C177.822 99.1787 178.142 99.3097 178.543 99.3097C178.799 99.3097 179.037 99.2517 179.259 99.1357C179.481 99.0163 179.66 98.8407 179.796 98.6087C179.935 98.3767 180.003 98.09 180 97.7486ZM183.812 101V93.3636H185.865V94.696H185.945C186.084 94.2221 186.318 93.8641 186.646 93.6222C186.974 93.3769 187.352 93.2543 187.779 93.2543C187.885 93.2543 188 93.2609 188.122 93.2741C188.245 93.2874 188.353 93.3056 188.445 93.3288V95.2081C188.346 95.1783 188.209 95.1518 188.033 95.1286C187.857 95.1054 187.696 95.0938 187.551 95.0938C187.239 95.0938 186.961 95.1617 186.715 95.2976C186.473 95.4302 186.281 95.6158 186.139 95.8544C185.999 96.093 185.93 96.3681 185.93 96.6797V101H183.812ZM194.287 101L192.209 93.3636H194.352L195.535 98.4943H195.605L196.838 93.3636H198.941L200.193 98.4645H200.258L201.421 93.3636H203.559L201.486 101H199.244L197.931 96.1974H197.837L196.524 101H194.287ZM207.978 101.149C207.192 101.149 206.516 100.99 205.949 100.672C205.386 100.35 204.952 99.8963 204.647 99.3097C204.342 98.7197 204.189 98.022 204.189 97.2166C204.189 96.4311 204.342 95.7417 204.647 95.1484C204.952 94.5552 205.381 94.0928 205.934 93.7614C206.491 93.4299 207.144 93.2642 207.893 93.2642C208.397 93.2642 208.866 93.3454 209.3 93.5078C209.738 93.6669 210.119 93.9072 210.444 94.2287C210.772 94.5502 211.027 94.9545 211.209 95.4418C211.391 95.9257 211.483 96.4924 211.483 97.142V97.7237H205.034V96.4112H209.489C209.489 96.1063 209.423 95.8362 209.29 95.6009C209.158 95.3655 208.974 95.1816 208.738 95.049C208.506 94.9131 208.236 94.8452 207.928 94.8452C207.606 94.8452 207.321 94.9197 207.073 95.0689C206.828 95.2147 206.635 95.4119 206.496 95.6605C206.357 95.9058 206.286 96.1792 206.282 96.4808V97.7287C206.282 98.1065 206.352 98.433 206.491 98.7081C206.634 98.9832 206.834 99.1953 207.093 99.3445C207.351 99.4936 207.658 99.5682 208.012 99.5682C208.248 99.5682 208.463 99.535 208.659 99.4688C208.854 99.4025 209.022 99.303 209.161 99.1705C209.3 99.0379 209.406 98.8755 209.479 98.6832L211.438 98.8125C211.338 99.2831 211.135 99.6941 210.826 100.045C210.521 100.393 210.127 100.665 209.643 100.861C209.163 101.053 208.607 101.149 207.978 101.149ZM216.345 101.149C215.559 101.149 214.883 100.99 214.316 100.672C213.753 100.35 213.319 99.8963 213.014 99.3097C212.709 98.7197 212.556 98.022 212.556 97.2166C212.556 96.4311 212.709 95.7417 213.014 95.1484C213.319 94.5552 213.748 94.0928 214.301 93.7614C214.858 93.4299 215.511 93.2642 216.26 93.2642C216.764 93.2642 217.233 93.3454 217.667 93.5078C218.105 93.6669 218.486 93.9072 218.811 94.2287C219.139 94.5502 219.394 94.9545 219.576 95.4418C219.759 95.9257 219.85 96.4924 219.85 97.142V97.7237H213.402V96.4112H217.856C217.856 96.1063 217.79 95.8362 217.657 95.6009C217.525 95.3655 217.341 95.1816 217.105 95.049C216.873 94.9131 216.603 94.8452 216.295 94.8452C215.974 94.8452 215.689 94.9197 215.44 95.0689C215.195 95.2147 215.002 95.4119 214.863 95.6605C214.724 95.9058 214.653 96.1792 214.65 96.4808V97.7287C214.65 98.1065 214.719 98.433 214.858 98.7081C215.001 98.9832 215.201 99.1953 215.46 99.3445C215.718 99.4936 216.025 99.5682 216.38 99.5682C216.615 99.5682 216.83 99.535 217.026 99.4688C217.221 99.4025 217.389 99.303 217.528 99.1705C217.667 99.0379 217.773 98.8755 217.846 98.6832L219.805 98.8125C219.706 99.2831 219.502 99.6941 219.194 100.045C218.889 100.393 218.494 100.665 218.01 100.861C217.53 101.053 216.975 101.149 216.345 101.149ZM223.151 98.8026L223.156 96.2621H223.464L225.91 93.3636H228.341L225.055 97.2017H224.553L223.151 98.8026ZM221.232 101V90.8182H223.35V101H221.232ZM226.005 101L223.757 97.674L225.169 96.1776L228.485 101H226.005ZM231.498 90.8182V101H229.38V90.8182H231.498ZM234.502 103.864C234.234 103.864 233.982 103.842 233.747 103.799C233.515 103.759 233.322 103.708 233.17 103.645L233.647 102.064C233.896 102.14 234.119 102.182 234.318 102.188C234.521 102.195 234.695 102.148 234.84 102.049C234.99 101.95 235.11 101.781 235.203 101.542L235.328 101.219L232.588 93.3636H234.816L236.396 98.9716H236.476L238.072 93.3636H240.314L237.346 101.825C237.204 102.236 237.01 102.594 236.764 102.899C236.522 103.207 236.216 103.444 235.845 103.61C235.473 103.779 235.026 103.864 234.502 103.864ZM246.756 96.5852V101H244.638V93.3636H246.657V94.7109H246.746C246.915 94.2668 247.199 93.9155 247.596 93.657C247.994 93.3951 248.476 93.2642 249.043 93.2642C249.573 93.2642 250.036 93.3802 250.43 93.6122C250.824 93.8442 251.131 94.1757 251.35 94.6065C251.569 95.0341 251.678 95.5445 251.678 96.1378V101H249.56V96.5156C249.563 96.0483 249.444 95.6837 249.202 95.4219C248.96 95.1567 248.627 95.0241 248.203 95.0241C247.918 95.0241 247.666 95.0855 247.447 95.2081C247.232 95.3307 247.063 95.5097 246.94 95.745C246.821 95.977 246.759 96.2571 246.756 96.5852ZM256.827 101.149C256.042 101.149 255.366 100.99 254.799 100.672C254.235 100.35 253.801 99.8963 253.496 99.3097C253.191 98.7197 253.039 98.022 253.039 97.2166C253.039 96.4311 253.191 95.7417 253.496 95.1484C253.801 94.5552 254.23 94.0928 254.784 93.7614C255.341 93.4299 255.994 93.2642 256.743 93.2642C257.247 93.2642 257.715 93.3454 258.15 93.5078C258.587 93.6669 258.968 93.9072 259.293 94.2287C259.621 94.5502 259.876 94.9545 260.059 95.4418C260.241 95.9257 260.332 96.4924 260.332 97.142V97.7237H253.884V96.4112H258.339C258.339 96.1063 258.272 95.8362 258.14 95.6009C258.007 95.3655 257.823 95.1816 257.588 95.049C257.356 94.9131 257.086 94.8452 256.778 94.8452C256.456 94.8452 256.171 94.9197 255.922 95.0689C255.677 95.2147 255.485 95.4119 255.346 95.6605C255.206 95.9058 255.135 96.1792 255.132 96.4808V97.7287C255.132 98.1065 255.202 98.433 255.341 98.7081C255.483 98.9832 255.684 99.1953 255.942 99.3445C256.201 99.4936 256.507 99.5682 256.862 99.5682C257.097 99.5682 257.313 99.535 257.508 99.4688C257.704 99.4025 257.871 99.303 258.01 99.1705C258.15 99.0379 258.256 98.8755 258.329 98.6832L260.287 98.8125C260.188 99.2831 259.984 99.6941 259.676 100.045C259.371 100.393 258.977 100.665 258.493 100.861C258.012 101.053 257.457 101.149 256.827 101.149ZM263.166 101L261.088 93.3636H263.231L264.414 98.4943H264.483L265.716 93.3636H267.819L269.072 98.4645H269.137L270.3 93.3636H272.438L270.365 101H268.123L266.81 96.1974H266.716L265.403 101H263.166ZM279.922 95.5412L277.983 95.6605C277.949 95.4948 277.878 95.3456 277.769 95.2131C277.659 95.0772 277.515 94.9695 277.336 94.8899C277.161 94.8071 276.95 94.7656 276.705 94.7656C276.377 94.7656 276.1 94.8352 275.875 94.9744C275.649 95.1103 275.537 95.2926 275.537 95.5213C275.537 95.7036 275.609 95.8577 275.755 95.9837C275.901 96.1096 276.151 96.2107 276.506 96.2869L277.888 96.5653C278.631 96.7178 279.184 96.9631 279.549 97.3011C279.913 97.6392 280.096 98.0833 280.096 98.6335C280.096 99.134 279.948 99.5732 279.653 99.951C279.361 100.329 278.96 100.624 278.45 100.836C277.943 101.045 277.358 101.149 276.695 101.149C275.684 101.149 274.879 100.939 274.279 100.518C273.682 100.094 273.333 99.5168 273.23 98.7876L275.313 98.6783C275.376 98.9865 275.528 99.2218 275.77 99.3842C276.012 99.5433 276.322 99.6229 276.7 99.6229C277.071 99.6229 277.369 99.5516 277.595 99.4091C277.824 99.2633 277.94 99.076 277.943 98.8473C277.94 98.6551 277.858 98.4976 277.699 98.375C277.54 98.2491 277.295 98.1529 276.963 98.0866L275.641 97.8232C274.895 97.674 274.34 97.4155 273.975 97.0476C273.614 96.6797 273.434 96.2107 273.434 95.6406C273.434 95.1501 273.566 94.7275 273.831 94.3729C274.1 94.0182 274.476 93.7448 274.96 93.5526C275.447 93.3603 276.017 93.2642 276.67 93.2642C277.635 93.2642 278.394 93.468 278.947 93.8757C279.504 94.2834 279.829 94.8385 279.922 95.5412ZM283.547 90.8182V101H281.429V90.8182H283.547ZM288.724 101.149C287.938 101.149 287.262 100.99 286.695 100.672C286.132 100.35 285.698 99.8963 285.393 99.3097C285.088 98.7197 284.935 98.022 284.935 97.2166C284.935 96.4311 285.088 95.7417 285.393 95.1484C285.698 94.5552 286.127 94.0928 286.68 93.7614C287.237 93.4299 287.89 93.2642 288.639 93.2642C289.143 93.2642 289.612 93.3454 290.046 93.5078C290.484 93.6669 290.865 93.9072 291.19 94.2287C291.518 94.5502 291.773 94.9545 291.955 95.4418C292.138 95.9257 292.229 96.4924 292.229 97.142V97.7237H285.781V96.4112H290.235C290.235 96.1063 290.169 95.8362 290.036 95.6009C289.904 95.3655 289.72 95.1816 289.484 95.049C289.252 94.9131 288.982 94.8452 288.674 94.8452C288.353 94.8452 288.067 94.9197 287.819 95.0689C287.574 95.2147 287.381 95.4119 287.242 95.6605C287.103 95.9058 287.032 96.1792 287.028 96.4808V97.7287C287.028 98.1065 287.098 98.433 287.237 98.7081C287.38 98.9832 287.58 99.1953 287.839 99.3445C288.097 99.4936 288.404 99.5682 288.759 99.5682C288.994 99.5682 289.209 99.535 289.405 99.4688C289.6 99.4025 289.768 99.303 289.907 99.1705C290.046 99.0379 290.152 98.8755 290.225 98.6832L292.184 98.8125C292.085 99.2831 291.881 99.6941 291.572 100.045C291.268 100.393 290.873 100.665 290.389 100.861C289.909 101.053 289.353 101.149 288.724 101.149ZM297.673 93.3636V94.9545H293.074V93.3636H297.673ZM294.118 91.5341H296.236V98.6534C296.236 98.849 296.266 99.0014 296.325 99.1108C296.385 99.2169 296.468 99.2914 296.574 99.3345C296.683 99.3776 296.809 99.3991 296.952 99.3991C297.051 99.3991 297.151 99.3909 297.25 99.3743C297.349 99.3544 297.426 99.3395 297.479 99.3295L297.812 100.906C297.706 100.939 297.557 100.977 297.364 101.02C297.172 101.066 296.938 101.094 296.663 101.104C296.153 101.124 295.705 101.056 295.321 100.901C294.94 100.745 294.643 100.503 294.431 100.175C294.219 99.8466 294.115 99.4323 294.118 98.9318V91.5341ZM303.114 93.3636V94.9545H298.515V93.3636H303.114ZM299.559 91.5341H301.677V98.6534C301.677 98.849 301.707 99.0014 301.767 99.1108C301.826 99.2169 301.909 99.2914 302.015 99.3345C302.125 99.3776 302.251 99.3991 302.393 99.3991C302.493 99.3991 302.592 99.3909 302.691 99.3743C302.791 99.3544 302.867 99.3395 302.92 99.3295L303.253 100.906C303.147 100.939 302.998 100.977 302.806 101.02C302.614 101.066 302.38 101.094 302.105 101.104C301.594 101.124 301.147 101.056 300.762 100.901C300.381 100.745 300.085 100.503 299.873 100.175C299.66 99.8466 299.556 99.4323 299.559 98.9318V91.5341ZM307.892 101.149C307.106 101.149 306.43 100.99 305.863 100.672C305.3 100.35 304.866 99.8963 304.561 99.3097C304.256 98.7197 304.103 98.022 304.103 97.2166C304.103 96.4311 304.256 95.7417 304.561 95.1484C304.866 94.5552 305.295 94.0928 305.848 93.7614C306.405 93.4299 307.058 93.2642 307.807 93.2642C308.311 93.2642 308.78 93.3454 309.214 93.5078C309.652 93.6669 310.033 93.9072 310.358 94.2287C310.686 94.5502 310.941 94.9545 311.123 95.4418C311.306 95.9257 311.397 96.4924 311.397 97.142V97.7237H304.949V96.4112H309.403C309.403 96.1063 309.337 95.8362 309.204 95.6009C309.072 95.3655 308.888 95.1816 308.652 95.049C308.42 94.9131 308.15 94.8452 307.842 94.8452C307.52 94.8452 307.235 94.9197 306.987 95.0689C306.742 95.2147 306.549 95.4119 306.41 95.6605C306.271 95.9058 306.2 96.1792 306.196 96.4808V97.7287C306.196 98.1065 306.266 98.433 306.405 98.7081C306.548 98.9832 306.748 99.1953 307.007 99.3445C307.265 99.4936 307.572 99.5682 307.926 99.5682C308.162 99.5682 308.377 99.535 308.573 99.4688C308.768 99.4025 308.936 99.303 309.075 99.1705C309.214 99.0379 309.32 98.8755 309.393 98.6832L311.352 98.8125C311.252 99.2831 311.049 99.6941 310.74 100.045C310.435 100.393 310.041 100.665 309.557 100.861C309.077 101.053 308.521 101.149 307.892 101.149ZM312.779 101V93.3636H314.832V94.696H314.912C315.051 94.2221 315.284 93.8641 315.613 93.6222C315.941 93.3769 316.319 93.2543 316.746 93.2543C316.852 93.2543 316.967 93.2609 317.089 93.2741C317.212 93.2874 317.319 93.3056 317.412 93.3288V95.2081C317.313 95.1783 317.175 95.1518 317 95.1286C316.824 95.1054 316.663 95.0938 316.517 95.0938C316.206 95.0938 315.927 95.1617 315.682 95.2976C315.44 95.4302 315.248 95.6158 315.105 95.8544C314.966 96.093 314.897 96.3681 314.897 96.6797V101H312.779Z" fill="#525252"/>
<rect x="152" y="124" width="147" height="4" rx="2" fill="#E2E2E6"/>
<rect x="185" y="136" width="81" height="4" rx="2" fill="#E2E2E6"/>
<rect x="118.5" y="172.5" width="155" height="21" rx="7.5" fill="#FAFAFC"/>
<rect x="118.5" y="172.5" width="155" height="21" rx="7.5" stroke="#E2E2E6"/>
<path fill-rule="evenodd" clip-rule="evenodd" d="M130.167 179.667C128.786 179.667 127.667 180.786 127.667 182.167C127.667 183.548 128.786 184.667 130.167 184.667C131.547 184.667 132.667 183.548 132.667 182.167C132.667 180.786 131.547 179.667 130.167 179.667ZM126.833 182.167C126.833 180.326 128.326 178.833 130.167 178.833C132.008 178.833 133.5 180.326 133.5 182.167C133.5 184.008 132.008 185.5 130.167 185.5C128.326 185.5 126.833 184.008 126.833 182.167ZM132.997 184.997C133.16 184.834 133.424 184.834 133.586 184.997L135.045 186.456C135.207 186.618 135.207 186.882 135.045 187.045C134.882 187.208 134.618 187.208 134.455 187.045L132.997 185.586C132.834 185.424 132.834 185.16 132.997 184.997Z" fill="#E2E2E6"/>
<rect x="144" y="182" width="61" height="2" rx="1" fill="#E2E2E6"/>
<rect x="284" y="172" width="49" height="22" rx="6" fill="#303030"/>
<path d="M299.5 183H317.5" stroke="white" stroke-width="2" stroke-linecap="round"/>
</g>
<defs>
<clipPath id="clip0_434_698">
<rect width="451.33" height="281" fill="white"/>
</clipPath>
</defs>
</svg>
