<svg width="452" height="281" viewBox="0 0 452 281" fill="none" xmlns="http://www.w3.org/2000/svg">
<g clip-path="url(#clip0_3033_1134)">
<path d="M451.33 0H0V281H451.33V0Z" fill="#F4F4F6"/>
<path d="M33.8497 0V281" stroke="#E2E2E6" stroke-width="0.8"/>
<path d="M417.48 0V281" stroke="#E2E2E6" stroke-width="0.8"/>
<path d="M0 31.6125H451.33" stroke="#E2E2E6" stroke-width="0.8"/>
<path d="M0 249.387H451.33" stroke="#E2E2E6" stroke-width="0.8"/>
<rect x="33.5" y="29.5" width="384" height="222" rx="11.5" fill="white"/>
<rect x="33.5" y="29.5" width="384" height="222" rx="11.5" stroke="#E2E0E0"/>
<path d="M161.404 53.392V51.3636H170.961V53.392H167.398V63H164.967V53.392H161.404ZM174.91 57.9545V63H172.489V51.3636H174.842V55.8125H174.944C175.141 55.2973 175.459 54.8939 175.898 54.6023C176.338 54.3068 176.889 54.1591 177.552 54.1591C178.158 54.1591 178.686 54.2917 179.137 54.5568C179.592 54.8182 179.944 55.1951 180.194 55.6875C180.448 56.1761 180.573 56.7614 180.569 57.4432V63H178.148V57.875C178.152 57.3371 178.016 56.9186 177.739 56.6193C177.467 56.3201 177.084 56.1705 176.592 56.1705C176.262 56.1705 175.97 56.2405 175.717 56.3807C175.467 56.5208 175.27 56.7254 175.126 56.9943C174.986 57.2595 174.914 57.5795 174.91 57.9545ZM186.451 63.1705C185.553 63.1705 184.781 62.9886 184.133 62.625C183.489 62.2576 182.993 61.7386 182.644 61.0682C182.296 60.3939 182.121 59.5966 182.121 58.6761C182.121 57.7784 182.296 56.9905 182.644 56.3125C182.993 55.6345 183.483 55.1061 184.116 54.7273C184.752 54.3485 185.498 54.1591 186.354 54.1591C186.93 54.1591 187.466 54.2519 187.962 54.4375C188.462 54.6193 188.898 54.8939 189.269 55.2614C189.644 55.6288 189.936 56.0909 190.144 56.6477C190.353 57.2008 190.457 57.8485 190.457 58.5909V59.2557H183.087V57.7557H188.178C188.178 57.4072 188.103 57.0985 187.951 56.8295C187.799 56.5606 187.589 56.3504 187.32 56.1989C187.055 56.0436 186.746 55.9659 186.394 55.9659C186.027 55.9659 185.701 56.0511 185.417 56.2216C185.137 56.3883 184.917 56.6136 184.758 56.8977C184.599 57.178 184.517 57.4905 184.513 57.8352V59.2614C184.513 59.6932 184.593 60.0663 184.752 60.3807C184.915 60.6951 185.144 60.9375 185.44 61.108C185.735 61.2784 186.085 61.3636 186.491 61.3636C186.76 61.3636 187.006 61.3258 187.229 61.25C187.453 61.1742 187.644 61.0606 187.803 60.9091C187.962 60.7576 188.084 60.572 188.167 60.3523L190.406 60.5C190.292 61.0379 190.059 61.5076 189.707 61.9091C189.358 62.3068 188.907 62.6174 188.354 62.8409C187.805 63.0606 187.171 63.1705 186.451 63.1705ZM198.955 63.142C198.292 63.142 197.692 62.9716 197.154 62.6307C196.62 62.286 196.196 61.7803 195.881 61.1136C195.571 60.4432 195.415 59.6212 195.415 58.6477C195.415 57.6477 195.576 56.8163 195.898 56.1534C196.22 55.4867 196.648 54.9886 197.183 54.6591C197.72 54.3258 198.309 54.1591 198.95 54.1591C199.438 54.1591 199.845 54.2424 200.171 54.4091C200.501 54.572 200.766 54.7765 200.967 55.0227C201.171 55.2652 201.326 55.5038 201.433 55.7386H201.506V51.3636H203.921V63H201.535V61.6023H201.433C201.319 61.8447 201.158 62.0852 200.95 62.3239C200.745 62.5587 200.478 62.7538 200.148 62.9091C199.823 63.0644 199.425 63.142 198.955 63.142ZM199.722 61.2159C200.112 61.2159 200.442 61.1098 200.711 60.8977C200.984 60.6818 201.192 60.3807 201.336 59.9943C201.484 59.608 201.558 59.1553 201.558 58.6364C201.558 58.1174 201.486 57.6667 201.342 57.2841C201.198 56.9015 200.989 56.6061 200.717 56.3977C200.444 56.1894 200.112 56.0852 199.722 56.0852C199.325 56.0852 198.989 56.1932 198.717 56.4091C198.444 56.625 198.237 56.9242 198.097 57.3068C197.957 57.6894 197.887 58.1326 197.887 58.6364C197.887 59.1439 197.957 59.5928 198.097 59.983C198.241 60.3693 198.448 60.6723 198.717 60.892C198.989 61.108 199.325 61.2159 199.722 61.2159ZM209.888 63.1705C208.991 63.1705 208.218 62.9886 207.57 62.625C206.926 62.2576 206.43 61.7386 206.082 61.0682C205.733 60.3939 205.559 59.5966 205.559 58.6761C205.559 57.7784 205.733 56.9905 206.082 56.3125C206.43 55.6345 206.921 55.1061 207.553 54.7273C208.19 54.3485 208.936 54.1591 209.792 54.1591C210.368 54.1591 210.904 54.2519 211.4 54.4375C211.9 54.6193 212.335 54.8939 212.707 55.2614C213.082 55.6288 213.373 56.0909 213.582 56.6477C213.79 57.2008 213.894 57.8485 213.894 58.5909V59.2557H206.525V57.7557H211.616C211.616 57.4072 211.54 57.0985 211.388 56.8295C211.237 56.5606 211.027 56.3504 210.758 56.1989C210.493 56.0436 210.184 55.9659 209.832 55.9659C209.464 55.9659 209.138 56.0511 208.854 56.2216C208.574 56.3883 208.354 56.6136 208.195 56.8977C208.036 57.178 207.955 57.4905 207.951 57.8352V59.2614C207.951 59.6932 208.031 60.0663 208.19 60.3807C208.353 60.6951 208.582 60.9375 208.877 61.108C209.173 61.2784 209.523 61.3636 209.928 61.3636C210.197 61.3636 210.443 61.3258 210.667 61.25C210.89 61.1742 211.082 61.0606 211.241 60.9091C211.4 60.7576 211.521 60.572 211.604 60.3523L213.843 60.5C213.729 61.0379 213.496 61.5076 213.144 61.9091C212.796 62.3068 212.345 62.6174 211.792 62.8409C211.243 63.0606 210.608 63.1705 209.888 63.1705ZM222.735 56.7614L220.519 56.8977C220.481 56.7083 220.4 56.5379 220.275 56.3864C220.15 56.2311 219.985 56.108 219.781 56.017C219.58 55.9223 219.339 55.875 219.059 55.875C218.684 55.875 218.368 55.9545 218.11 56.1136C217.853 56.2689 217.724 56.4773 217.724 56.7386C217.724 56.947 217.807 57.1231 217.974 57.267C218.14 57.411 218.426 57.5265 218.832 57.6136L220.411 57.9318C221.26 58.1061 221.892 58.3864 222.309 58.7727C222.726 59.1591 222.934 59.6667 222.934 60.2955C222.934 60.8674 222.765 61.3693 222.428 61.8011C222.095 62.233 221.637 62.5701 221.053 62.8125C220.474 63.0511 219.805 63.1705 219.048 63.1705C217.892 63.1705 216.972 62.9299 216.286 62.4489C215.604 61.964 215.205 61.3049 215.087 60.4716L217.468 60.3466C217.54 60.6989 217.714 60.9678 217.991 61.1534C218.267 61.3352 218.621 61.4261 219.053 61.4261C219.478 61.4261 219.818 61.3447 220.076 61.1818C220.337 61.0152 220.47 60.8011 220.474 60.5398C220.47 60.3201 220.377 60.1402 220.195 60C220.013 59.8561 219.733 59.7462 219.354 59.6705L217.843 59.3693C216.991 59.1989 216.356 58.9034 215.94 58.483C215.527 58.0625 215.32 57.5265 215.32 56.875C215.32 56.3144 215.472 55.8314 215.775 55.4261C216.082 55.0208 216.512 54.7083 217.065 54.4886C217.621 54.2689 218.273 54.1591 219.019 54.1591C220.121 54.1591 220.989 54.392 221.621 54.858C222.258 55.3239 222.629 55.9583 222.735 56.7614ZM224.458 63V54.2727H226.879V63H224.458ZM225.674 53.1477C225.314 53.1477 225.005 53.0284 224.748 52.7898C224.494 52.5473 224.367 52.2576 224.367 51.9205C224.367 51.5871 224.494 51.3011 224.748 51.0625C225.005 50.8201 225.314 50.6989 225.674 50.6989C226.034 50.6989 226.341 50.8201 226.594 51.0625C226.852 51.3011 226.981 51.5871 226.981 51.9205C226.981 52.2576 226.852 52.5473 226.594 52.7898C226.341 53.0284 226.034 53.1477 225.674 53.1477ZM232.749 66.4545C231.965 66.4545 231.293 66.3466 230.732 66.1307C230.175 65.9186 229.732 65.6288 229.403 65.2614C229.073 64.8939 228.859 64.4811 228.761 64.0227L230.999 63.7216C231.067 63.8958 231.175 64.0587 231.323 64.2102C231.471 64.3617 231.666 64.483 231.908 64.5739C232.155 64.6686 232.454 64.7159 232.806 64.7159C233.333 64.7159 233.766 64.5871 234.107 64.3295C234.452 64.0758 234.624 63.6496 234.624 63.0511V61.4545H234.522C234.416 61.697 234.257 61.9261 234.045 62.142C233.833 62.358 233.56 62.5341 233.227 62.6705C232.893 62.8068 232.496 62.875 232.033 62.875C231.378 62.875 230.781 62.7235 230.244 62.4205C229.71 62.1136 229.283 61.6458 228.965 61.017C228.651 60.3845 228.494 59.5852 228.494 58.6193C228.494 57.6307 228.655 56.8049 228.977 56.142C229.299 55.4792 229.727 54.983 230.261 54.6534C230.799 54.3239 231.388 54.1591 232.028 54.1591C232.516 54.1591 232.925 54.2424 233.255 54.4091C233.585 54.572 233.85 54.7765 234.05 55.0227C234.255 55.2652 234.412 55.5038 234.522 55.7386H234.613V54.2727H237.016V63.0852C237.016 63.8277 236.835 64.4489 236.471 64.9489C236.107 65.4489 235.603 65.8239 234.96 66.0739C234.319 66.3277 233.583 66.4545 232.749 66.4545ZM232.8 61.0568C233.191 61.0568 233.52 60.9602 233.789 60.767C234.062 60.5701 234.27 60.2898 234.414 59.9261C234.562 59.5587 234.636 59.1193 234.636 58.608C234.636 58.0966 234.564 57.6534 234.42 57.2784C234.276 56.8996 234.067 56.6061 233.795 56.3977C233.522 56.1894 233.191 56.0852 232.8 56.0852C232.403 56.0852 232.067 56.1932 231.795 56.4091C231.522 56.6212 231.316 56.9167 231.175 57.2955C231.035 57.6742 230.965 58.1117 230.965 58.608C230.965 59.1117 231.035 59.5473 231.175 59.9148C231.319 60.2784 231.526 60.5606 231.795 60.7614C232.067 60.9583 232.403 61.0568 232.8 61.0568ZM241.363 57.9545V63H238.942V54.2727H241.249V55.8125H241.352C241.545 55.3049 241.869 54.9034 242.323 54.608C242.778 54.3087 243.329 54.1591 243.977 54.1591C244.583 54.1591 245.111 54.2917 245.562 54.5568C246.013 54.822 246.363 55.2008 246.613 55.6932C246.863 56.1818 246.988 56.7652 246.988 57.4432V63H244.567V57.875C244.571 57.3409 244.435 56.9242 244.158 56.625C243.882 56.322 243.501 56.1705 243.016 56.1705C242.691 56.1705 242.403 56.2405 242.153 56.3807C241.906 56.5208 241.713 56.7254 241.573 56.9943C241.437 57.2595 241.367 57.5795 241.363 57.9545ZM255.019 51.3636V63H252.599V51.3636H255.019ZM259.447 63.1648C258.89 63.1648 258.394 63.0682 257.958 62.875C257.522 62.678 257.178 62.3883 256.924 62.0057C256.674 61.6193 256.549 61.1383 256.549 60.5625C256.549 60.0777 256.638 59.6705 256.816 59.3409C256.994 59.0114 257.237 58.7462 257.543 58.5455C257.85 58.3447 258.199 58.1932 258.589 58.0909C258.983 57.9886 259.396 57.9167 259.827 57.875C260.335 57.822 260.744 57.7727 261.055 57.7273C261.365 57.678 261.591 57.6061 261.731 57.5114C261.871 57.4167 261.941 57.2765 261.941 57.0909V57.0568C261.941 56.697 261.827 56.4186 261.6 56.2216C261.377 56.0246 261.058 55.9261 260.646 55.9261C260.21 55.9261 259.863 56.0227 259.606 56.2159C259.348 56.4053 259.178 56.6439 259.094 56.9318L256.856 56.75C256.969 56.2197 257.193 55.7614 257.526 55.375C257.86 54.9848 258.29 54.6856 258.816 54.4773C259.346 54.2652 259.96 54.1591 260.657 54.1591C261.142 54.1591 261.606 54.2159 262.049 54.3295C262.496 54.4432 262.892 54.6193 263.237 54.858C263.585 55.0966 263.86 55.4034 264.06 55.7784C264.261 56.1496 264.362 56.5947 264.362 57.1136V63H262.066V61.7898H261.998C261.858 62.0625 261.67 62.303 261.435 62.5114C261.201 62.7159 260.918 62.8769 260.589 62.9943C260.259 63.108 259.879 63.1648 259.447 63.1648ZM260.14 61.4943C260.496 61.4943 260.81 61.4242 261.083 61.2841C261.356 61.1402 261.57 60.947 261.725 60.7045C261.88 60.4621 261.958 60.1875 261.958 59.8807V58.9545C261.882 59.0038 261.778 59.0492 261.646 59.0909C261.517 59.1288 261.371 59.1648 261.208 59.1989C261.045 59.2292 260.882 59.2576 260.719 59.2841C260.557 59.3068 260.409 59.3277 260.276 59.3466C259.992 59.3883 259.744 59.4545 259.532 59.5455C259.32 59.6364 259.155 59.7595 259.038 59.9148C258.92 60.0663 258.862 60.2557 258.862 60.483C258.862 60.8125 258.981 61.0644 259.219 61.2386C259.462 61.4091 259.769 61.4943 260.14 61.4943ZM267.421 66.2727C267.114 66.2727 266.826 66.2481 266.558 66.1989C266.292 66.1534 266.073 66.0947 265.898 66.0227L266.444 64.2159C266.728 64.303 266.984 64.3504 267.211 64.358C267.442 64.3655 267.641 64.3125 267.808 64.1989C267.978 64.0852 268.116 63.892 268.222 63.6193L268.364 63.25L265.234 54.2727H267.779L269.586 60.6818H269.677L271.501 54.2727H274.063L270.671 63.9432C270.508 64.4129 270.287 64.822 270.006 65.1705C269.73 65.5227 269.379 65.7936 268.955 65.983C268.531 66.1761 268.02 66.2727 267.421 66.2727ZM278.998 63.1705C278.1 63.1705 277.327 62.9886 276.68 62.625C276.036 62.2576 275.54 61.7386 275.191 61.0682C274.843 60.3939 274.668 59.5966 274.668 58.6761C274.668 57.7784 274.843 56.9905 275.191 56.3125C275.54 55.6345 276.03 55.1061 276.663 54.7273C277.299 54.3485 278.045 54.1591 278.901 54.1591C279.477 54.1591 280.013 54.2519 280.509 54.4375C281.009 54.6193 281.445 54.8939 281.816 55.2614C282.191 55.6288 282.483 56.0909 282.691 56.6477C282.899 57.2008 283.004 57.8485 283.004 58.5909V59.2557H275.634V57.7557H280.725C280.725 57.4072 280.649 57.0985 280.498 56.8295C280.346 56.5606 280.136 56.3504 279.867 56.1989C279.602 56.0436 279.293 55.9659 278.941 55.9659C278.574 55.9659 278.248 56.0511 277.964 56.2216C277.683 56.3883 277.464 56.6136 277.305 56.8977C277.146 57.178 277.064 57.4905 277.06 57.8352V59.2614C277.06 59.6932 277.14 60.0663 277.299 60.3807C277.462 60.6951 277.691 60.9375 277.987 61.108C278.282 61.2784 278.632 61.3636 279.038 61.3636C279.307 61.3636 279.553 61.3258 279.776 61.25C280 61.1742 280.191 61.0606 280.35 60.9091C280.509 60.7576 280.63 60.572 280.714 60.3523L282.952 60.5C282.839 61.0379 282.606 61.5076 282.254 61.9091C281.905 62.3068 281.454 62.6174 280.901 62.8409C280.352 63.0606 279.718 63.1705 278.998 63.1705ZM284.583 63V54.2727H286.93V55.7955H287.021C287.18 55.2538 287.447 54.8447 287.822 54.5682C288.197 54.2879 288.629 54.1477 289.117 54.1477C289.238 54.1477 289.369 54.1553 289.509 54.1705C289.649 54.1856 289.772 54.2064 289.879 54.233V56.3807C289.765 56.3466 289.608 56.3163 289.407 56.2898C289.206 56.2633 289.022 56.25 288.856 56.25C288.5 56.25 288.182 56.3277 287.901 56.483C287.625 56.6345 287.405 56.8466 287.242 57.1193C287.083 57.392 287.004 57.7064 287.004 58.0625V63H284.583ZM140.073 73.2727V75.0909H134.687V73.2727H140.073ZM135.92 82V72.642C135.92 72.0095 136.043 71.4848 136.289 71.0682C136.539 70.6515 136.88 70.339 137.312 70.1307C137.744 69.9223 138.234 69.8182 138.783 69.8182C139.155 69.8182 139.494 69.8466 139.8 69.9034C140.111 69.9602 140.342 70.0114 140.494 70.0568L140.062 71.875C139.967 71.8447 139.85 71.8163 139.71 71.7898C139.573 71.7633 139.433 71.75 139.289 71.75C138.933 71.75 138.685 71.8333 138.545 72C138.405 72.1629 138.335 72.392 138.335 72.6875V82H135.92ZM145.183 82.1705C144.3 82.1705 143.537 81.983 142.893 81.608C142.253 81.2292 141.758 80.7027 141.41 80.0284C141.061 79.3504 140.887 78.5644 140.887 77.6705C140.887 76.7689 141.061 75.9811 141.41 75.3068C141.758 74.6288 142.253 74.1023 142.893 73.7273C143.537 73.3485 144.3 73.1591 145.183 73.1591C146.065 73.1591 146.826 73.3485 147.467 73.7273C148.111 74.1023 148.607 74.6288 148.955 75.3068C149.304 75.9811 149.478 76.7689 149.478 77.6705C149.478 78.5644 149.304 79.3504 148.955 80.0284C148.607 80.7027 148.111 81.2292 147.467 81.608C146.826 81.983 146.065 82.1705 145.183 82.1705ZM145.194 80.2955C145.595 80.2955 145.931 80.1818 146.2 79.9545C146.469 79.7235 146.671 79.4091 146.808 79.0114C146.948 78.6136 147.018 78.161 147.018 77.6534C147.018 77.1458 146.948 76.6932 146.808 76.2955C146.671 75.8977 146.469 75.5833 146.2 75.3523C145.931 75.1212 145.595 75.0057 145.194 75.0057C144.789 75.0057 144.448 75.1212 144.171 75.3523C143.898 75.5833 143.692 75.8977 143.552 76.2955C143.415 76.6932 143.347 77.1458 143.347 77.6534C143.347 78.161 143.415 78.6136 143.552 79.0114C143.692 79.4091 143.898 79.7235 144.171 79.9545C144.448 80.1818 144.789 80.2955 145.194 80.2955ZM151.052 82V73.2727H153.398V74.7955H153.489C153.648 74.2538 153.915 73.8447 154.29 73.5682C154.665 73.2879 155.097 73.1477 155.586 73.1477C155.707 73.1477 155.838 73.1553 155.978 73.1705C156.118 73.1856 156.241 73.2064 156.347 73.233V75.3807C156.234 75.3466 156.076 75.3163 155.876 75.2898C155.675 75.2633 155.491 75.25 155.325 75.25C154.969 75.25 154.65 75.3277 154.37 75.483C154.094 75.6345 153.874 75.8466 153.711 76.1193C153.552 76.392 153.472 76.7064 153.472 77.0625V82H151.052ZM162.796 85.2727C162.489 85.2727 162.201 85.2481 161.933 85.1989C161.667 85.1534 161.448 85.0947 161.273 85.0227L161.819 83.2159C162.103 83.303 162.359 83.3504 162.586 83.358C162.817 83.3655 163.016 83.3125 163.183 83.1989C163.353 83.0852 163.491 82.892 163.597 82.6193L163.739 82.25L160.609 73.2727H163.154L164.961 79.6818H165.052L166.876 73.2727H169.438L166.046 82.9432C165.883 83.4129 165.662 83.822 165.381 84.1705C165.105 84.5227 164.754 84.7936 164.33 84.983C163.906 85.1761 163.395 85.2727 162.796 85.2727ZM174.339 82.1705C173.456 82.1705 172.693 81.983 172.049 81.608C171.409 81.2292 170.915 80.7027 170.566 80.0284C170.218 79.3504 170.043 78.5644 170.043 77.6705C170.043 76.7689 170.218 75.9811 170.566 75.3068C170.915 74.6288 171.409 74.1023 172.049 73.7273C172.693 73.3485 173.456 73.1591 174.339 73.1591C175.221 73.1591 175.983 73.3485 176.623 73.7273C177.267 74.1023 177.763 74.6288 178.112 75.3068C178.46 75.9811 178.634 76.7689 178.634 77.6705C178.634 78.5644 178.46 79.3504 178.112 80.0284C177.763 80.7027 177.267 81.2292 176.623 81.608C175.983 81.983 175.221 82.1705 174.339 82.1705ZM174.35 80.2955C174.752 80.2955 175.087 80.1818 175.356 79.9545C175.625 79.7235 175.827 79.4091 175.964 79.0114C176.104 78.6136 176.174 78.161 176.174 77.6534C176.174 77.1458 176.104 76.6932 175.964 76.2955C175.827 75.8977 175.625 75.5833 175.356 75.3523C175.087 75.1212 174.752 75.0057 174.35 75.0057C173.945 75.0057 173.604 75.1212 173.327 75.3523C173.055 75.5833 172.848 75.8977 172.708 76.2955C172.572 76.6932 172.504 77.1458 172.504 77.6534C172.504 78.161 172.572 78.6136 172.708 79.0114C172.848 79.4091 173.055 79.7235 173.327 79.9545C173.604 80.1818 173.945 80.2955 174.35 80.2955ZM185.805 78.2841V73.2727H188.225V82H185.901V80.4148H185.81C185.613 80.9261 185.286 81.3371 184.827 81.6477C184.373 81.9583 183.818 82.1136 183.163 82.1136C182.579 82.1136 182.066 81.9811 181.623 81.7159C181.18 81.4508 180.833 81.0739 180.583 80.5852C180.337 80.0966 180.212 79.5114 180.208 78.8295V73.2727H182.629V78.3977C182.632 78.9129 182.771 79.3201 183.043 79.6193C183.316 79.9186 183.682 80.0682 184.14 80.0682C184.432 80.0682 184.704 80.0019 184.958 79.8693C185.212 79.733 185.416 79.5322 185.572 79.267C185.731 79.0019 185.808 78.6742 185.805 78.2841ZM190.161 82V73.2727H192.508V74.7955H192.599C192.758 74.2538 193.025 73.8447 193.4 73.5682C193.775 73.2879 194.207 73.1477 194.695 73.1477C194.817 73.1477 194.947 73.1553 195.087 73.1705C195.228 73.1856 195.351 73.2064 195.457 73.233V75.3807C195.343 75.3466 195.186 75.3163 194.985 75.2898C194.784 75.2633 194.601 75.25 194.434 75.25C194.078 75.25 193.76 75.3277 193.479 75.483C193.203 75.6345 192.983 75.8466 192.82 76.1193C192.661 76.392 192.582 76.7064 192.582 77.0625V82H190.161ZM202.9 82.1648C202.343 82.1648 201.847 82.0682 201.411 81.875C200.976 81.678 200.631 81.3883 200.377 81.0057C200.127 80.6193 200.002 80.1383 200.002 79.5625C200.002 79.0777 200.091 78.6705 200.269 78.3409C200.447 78.0114 200.69 77.7462 200.996 77.5455C201.303 77.3447 201.652 77.1932 202.042 77.0909C202.436 76.9886 202.849 76.9167 203.281 76.875C203.788 76.822 204.197 76.7727 204.508 76.7273C204.818 76.678 205.044 76.6061 205.184 76.5114C205.324 76.4167 205.394 76.2765 205.394 76.0909V76.0568C205.394 75.697 205.281 75.4186 205.053 75.2216C204.83 75.0246 204.512 74.9261 204.099 74.9261C203.663 74.9261 203.317 75.0227 203.059 75.2159C202.801 75.4053 202.631 75.6439 202.548 75.9318L200.309 75.75C200.423 75.2197 200.646 74.7614 200.979 74.375C201.313 73.9848 201.743 73.6856 202.269 73.4773C202.799 73.2652 203.413 73.1591 204.11 73.1591C204.595 73.1591 205.059 73.2159 205.502 73.3295C205.949 73.4432 206.345 73.6193 206.69 73.858C207.038 74.0966 207.313 74.4034 207.513 74.7784C207.714 75.1496 207.815 75.5947 207.815 76.1136V82H205.519V80.7898H205.451C205.311 81.0625 205.123 81.303 204.888 81.5114C204.654 81.7159 204.371 81.8769 204.042 81.9943C203.712 82.108 203.332 82.1648 202.9 82.1648ZM203.593 80.4943C203.949 80.4943 204.263 80.4242 204.536 80.2841C204.809 80.1402 205.023 79.947 205.178 79.7045C205.334 79.4621 205.411 79.1875 205.411 78.8807V77.9545C205.335 78.0038 205.231 78.0492 205.099 78.0909C204.97 78.1288 204.824 78.1648 204.661 78.1989C204.498 78.2292 204.335 78.2576 204.173 78.2841C204.01 78.3068 203.862 78.3277 203.729 78.3466C203.445 78.3883 203.197 78.4545 202.985 78.5455C202.773 78.6364 202.608 78.7595 202.491 78.9148C202.373 79.0663 202.315 79.2557 202.315 79.483C202.315 79.8125 202.434 80.0644 202.673 80.2386C202.915 80.4091 203.222 80.4943 203.593 80.4943ZM213.624 85.4545C212.84 85.4545 212.168 85.3466 211.607 85.1307C211.05 84.9186 210.607 84.6288 210.278 84.2614C209.948 83.8939 209.734 83.4811 209.636 83.0227L211.874 82.7216C211.942 82.8958 212.05 83.0587 212.198 83.2102C212.346 83.3617 212.541 83.483 212.783 83.5739C213.03 83.6686 213.329 83.7159 213.681 83.7159C214.208 83.7159 214.641 83.5871 214.982 83.3295C215.327 83.0758 215.499 82.6496 215.499 82.0511V80.4545H215.397C215.291 80.697 215.132 80.9261 214.92 81.142C214.708 81.358 214.435 81.5341 214.102 81.6705C213.768 81.8068 213.371 81.875 212.908 81.875C212.253 81.875 211.656 81.7235 211.119 81.4205C210.585 81.1136 210.158 80.6458 209.84 80.017C209.526 79.3845 209.369 78.5852 209.369 77.6193C209.369 76.6307 209.53 75.8049 209.852 75.142C210.174 74.4792 210.602 73.983 211.136 73.6534C211.674 73.3239 212.263 73.1591 212.903 73.1591C213.391 73.1591 213.8 73.2424 214.13 73.4091C214.46 73.572 214.725 73.7765 214.925 74.0227C215.13 74.2652 215.287 74.5038 215.397 74.7386H215.488V73.2727H217.891V82.0852C217.891 82.8277 217.71 83.4489 217.346 83.9489C216.982 84.4489 216.478 84.8239 215.835 85.0739C215.194 85.3277 214.458 85.4545 213.624 85.4545ZM213.675 80.0568C214.066 80.0568 214.395 79.9602 214.664 79.767C214.937 79.5701 215.145 79.2898 215.289 78.9261C215.437 78.5587 215.511 78.1193 215.511 77.608C215.511 77.0966 215.439 76.6534 215.295 76.2784C215.151 75.8996 214.942 75.6061 214.67 75.3977C214.397 75.1894 214.066 75.0852 213.675 75.0852C213.278 75.0852 212.942 75.1932 212.67 75.4091C212.397 75.6212 212.191 75.9167 212.05 76.2955C211.91 76.6742 211.84 77.1117 211.84 77.608C211.84 78.1117 211.91 78.5473 212.05 78.9148C212.194 79.2784 212.401 79.5606 212.67 79.7614C212.942 79.9583 213.278 80.0568 213.675 80.0568ZM223.795 82.1705C222.897 82.1705 222.124 81.9886 221.477 81.625C220.833 81.2576 220.336 80.7386 219.988 80.0682C219.639 79.3939 219.465 78.5966 219.465 77.6761C219.465 76.7784 219.639 75.9905 219.988 75.3125C220.336 74.6345 220.827 74.1061 221.46 73.7273C222.096 73.3485 222.842 73.1591 223.698 73.1591C224.274 73.1591 224.81 73.2519 225.306 73.4375C225.806 73.6193 226.242 73.8939 226.613 74.2614C226.988 74.6288 227.28 75.0909 227.488 75.6477C227.696 76.2008 227.8 76.8485 227.8 77.5909V78.2557H220.431V76.7557H225.522C225.522 76.4072 225.446 76.0985 225.295 75.8295C225.143 75.5606 224.933 75.3504 224.664 75.1989C224.399 75.0436 224.09 74.9659 223.738 74.9659C223.371 74.9659 223.045 75.0511 222.761 75.2216C222.48 75.3883 222.261 75.6136 222.102 75.8977C221.942 76.178 221.861 76.4905 221.857 76.8352V78.2614C221.857 78.6932 221.937 79.0663 222.096 79.3807C222.259 79.6951 222.488 79.9375 222.783 80.108C223.079 80.2784 223.429 80.3636 223.835 80.3636C224.103 80.3636 224.35 80.3258 224.573 80.25C224.797 80.1742 224.988 80.0606 225.147 79.9091C225.306 79.7576 225.427 79.572 225.511 79.3523L227.749 79.5C227.636 80.0379 227.403 80.5076 227.05 80.9091C226.702 81.3068 226.251 81.6174 225.698 81.8409C225.149 82.0606 224.514 82.1705 223.795 82.1705ZM231.8 76.9545V82H229.38V73.2727H231.687V74.8125H231.789C231.982 74.3049 232.306 73.9034 232.761 73.608C233.215 73.3087 233.766 73.1591 234.414 73.1591C235.02 73.1591 235.549 73.2917 235.999 73.5568C236.45 73.822 236.8 74.2008 237.05 74.6932C237.3 75.1818 237.425 75.7652 237.425 76.4432V82H235.005V76.875C235.009 76.3409 234.872 75.9242 234.596 75.625C234.319 75.322 233.939 75.1705 233.454 75.1705C233.128 75.1705 232.84 75.2405 232.59 75.3807C232.344 75.5208 232.151 75.7254 232.011 75.9943C231.874 76.2595 231.804 76.5795 231.8 76.9545ZM243.975 73.2727V75.0909H238.719V73.2727H243.975ZM239.913 71.1818H242.333V79.3182C242.333 79.5417 242.367 79.7159 242.435 79.8409C242.504 79.9621 242.598 80.0473 242.719 80.0966C242.844 80.1458 242.988 80.1705 243.151 80.1705C243.265 80.1705 243.379 80.161 243.492 80.142C243.606 80.1193 243.693 80.1023 243.754 80.0909L244.134 81.892C244.013 81.9299 243.843 81.9735 243.623 82.0227C243.403 82.0758 243.136 82.108 242.822 82.1193C242.238 82.142 241.727 82.0644 241.288 81.8864C240.852 81.7083 240.513 81.4318 240.271 81.0568C240.028 80.6818 239.909 80.2083 239.913 79.6364V71.1818ZM245.552 82V73.2727H247.972V82H245.552ZM246.768 72.1477C246.408 72.1477 246.099 72.0284 245.842 71.7898C245.588 71.5473 245.461 71.2576 245.461 70.9205C245.461 70.5871 245.588 70.3011 245.842 70.0625C246.099 69.8201 246.408 69.6989 246.768 69.6989C247.128 69.6989 247.434 69.8201 247.688 70.0625C247.946 70.3011 248.075 70.5871 248.075 70.9205C248.075 71.2576 247.946 71.5473 247.688 71.7898C247.434 72.0284 247.128 72.1477 246.768 72.1477ZM253.854 82.1705C252.96 82.1705 252.192 81.9811 251.548 81.6023C250.907 81.2197 250.415 80.6894 250.07 80.0114C249.729 79.3333 249.559 78.553 249.559 77.6705C249.559 76.7765 249.731 75.9924 250.076 75.3182C250.424 74.6402 250.919 74.1117 251.559 73.733C252.199 73.3504 252.96 73.1591 253.843 73.1591C254.604 73.1591 255.271 73.2973 255.843 73.5739C256.415 73.8504 256.868 74.2386 257.201 74.7386C257.534 75.2386 257.718 75.8258 257.752 76.5H255.468C255.404 76.0644 255.233 75.714 254.957 75.4489C254.684 75.1799 254.326 75.0455 253.883 75.0455C253.508 75.0455 253.18 75.1477 252.9 75.3523C252.623 75.553 252.407 75.8466 252.252 76.233C252.097 76.6193 252.019 77.0871 252.019 77.6364C252.019 78.1932 252.095 78.6667 252.246 79.0568C252.402 79.447 252.62 79.7443 252.9 79.9489C253.18 80.1534 253.508 80.2557 253.883 80.2557C254.159 80.2557 254.407 80.1989 254.627 80.0852C254.851 79.9716 255.034 79.8068 255.178 79.5909C255.326 79.3712 255.423 79.108 255.468 78.8011H257.752C257.714 79.4678 257.532 80.0549 257.207 80.5625C256.885 81.0663 256.44 81.4602 255.871 81.7443C255.303 82.0284 254.631 82.1705 253.854 82.1705ZM267.647 73.2727V75.0909H262.391V73.2727H267.647ZM263.585 71.1818H266.005V79.3182C266.005 79.5417 266.039 79.7159 266.107 79.8409C266.175 79.9621 266.27 80.0473 266.391 80.0966C266.516 80.1458 266.66 80.1705 266.823 80.1705C266.937 80.1705 267.05 80.161 267.164 80.142C267.278 80.1193 267.365 80.1023 267.425 80.0909L267.806 81.892C267.685 81.9299 267.514 81.9735 267.295 82.0227C267.075 82.0758 266.808 82.108 266.494 82.1193C265.91 82.142 265.399 82.0644 264.96 81.8864C264.524 81.7083 264.185 81.4318 263.942 81.0568C263.7 80.6818 263.581 80.2083 263.585 79.6364V71.1818ZM273.073 82.1705C272.191 82.1705 271.427 81.983 270.783 81.608C270.143 81.2292 269.649 80.7027 269.3 80.0284C268.952 79.3504 268.778 78.5644 268.778 77.6705C268.778 76.7689 268.952 75.9811 269.3 75.3068C269.649 74.6288 270.143 74.1023 270.783 73.7273C271.427 73.3485 272.191 73.1591 273.073 73.1591C273.956 73.1591 274.717 73.3485 275.357 73.7273C276.001 74.1023 276.497 74.6288 276.846 75.3068C277.194 75.9811 277.369 76.7689 277.369 77.6705C277.369 78.5644 277.194 79.3504 276.846 80.0284C276.497 80.7027 276.001 81.2292 275.357 81.608C274.717 81.983 273.956 82.1705 273.073 82.1705ZM273.085 80.2955C273.486 80.2955 273.821 80.1818 274.09 79.9545C274.359 79.7235 274.562 79.4091 274.698 79.0114C274.838 78.6136 274.908 78.161 274.908 77.6534C274.908 77.1458 274.838 76.6932 274.698 76.2955C274.562 75.8977 274.359 75.5833 274.09 75.3523C273.821 75.1212 273.486 75.0057 273.085 75.0057C272.679 75.0057 272.338 75.1212 272.062 75.3523C271.789 75.5833 271.583 75.8977 271.442 76.2955C271.306 76.6932 271.238 77.1458 271.238 77.6534C271.238 78.161 271.306 78.6136 271.442 79.0114C271.583 79.4091 271.789 79.7235 272.062 79.9545C272.338 80.1818 272.679 80.2955 273.085 80.2955ZM282.886 82.1705C282.003 82.1705 281.24 81.983 280.596 81.608C279.956 81.2292 279.461 80.7027 279.113 80.0284C278.764 79.3504 278.59 78.5644 278.59 77.6705C278.59 76.7689 278.764 75.9811 279.113 75.3068C279.461 74.6288 279.956 74.1023 280.596 73.7273C281.24 73.3485 282.003 73.1591 282.886 73.1591C283.768 73.1591 284.53 73.3485 285.17 73.7273C285.814 74.1023 286.31 74.6288 286.658 75.3068C287.007 75.9811 287.181 76.7689 287.181 77.6705C287.181 78.5644 287.007 79.3504 286.658 80.0284C286.31 80.7027 285.814 81.2292 285.17 81.608C284.53 81.983 283.768 82.1705 282.886 82.1705ZM282.897 80.2955C283.299 80.2955 283.634 80.1818 283.903 79.9545C284.172 79.7235 284.374 79.4091 284.511 79.0114C284.651 78.6136 284.721 78.161 284.721 77.6534C284.721 77.1458 284.651 76.6932 284.511 76.2955C284.374 75.8977 284.172 75.5833 283.903 75.3523C283.634 75.1212 283.299 75.0057 282.897 75.0057C282.492 75.0057 282.151 75.1212 281.874 75.3523C281.602 75.5833 281.395 75.8977 281.255 76.2955C281.119 76.6932 281.05 77.1458 281.05 77.6534C281.05 78.161 281.119 78.6136 281.255 79.0114C281.395 79.4091 281.602 79.7235 281.874 79.9545C282.151 80.1818 282.492 80.2955 282.897 80.2955ZM291.175 70.3636V82H288.755V70.3636H291.175ZM293.114 82V73.2727H295.535V82H293.114ZM294.33 72.1477C293.97 72.1477 293.662 72.0284 293.404 71.7898C293.15 71.5473 293.023 71.2576 293.023 70.9205C293.023 70.5871 293.15 70.3011 293.404 70.0625C293.662 69.8201 293.97 69.6989 294.33 69.6989C294.69 69.6989 294.997 69.8201 295.251 70.0625C295.508 70.3011 295.637 70.5871 295.637 70.9205C295.637 71.2576 295.508 71.5473 295.251 71.7898C294.997 72.0284 294.69 72.1477 294.33 72.1477ZM299.894 76.9545V82H297.474V73.2727H299.781V74.8125H299.883C300.076 74.3049 300.4 73.9034 300.854 73.608C301.309 73.3087 301.86 73.1591 302.508 73.1591C303.114 73.1591 303.642 73.2917 304.093 73.5568C304.544 73.822 304.894 74.2008 305.144 74.6932C305.394 75.1818 305.519 75.7652 305.519 76.4432V82H303.099V76.875C303.103 76.3409 302.966 75.9242 302.69 75.625C302.413 75.322 302.032 75.1705 301.548 75.1705C301.222 75.1705 300.934 75.2405 300.684 75.3807C300.438 75.5208 300.245 75.7254 300.104 75.9943C299.968 76.2595 299.898 76.5795 299.894 76.9545ZM311.359 85.4545C310.575 85.4545 309.902 85.3466 309.342 85.1307C308.785 84.9186 308.342 84.6288 308.012 84.2614C307.683 83.8939 307.469 83.4811 307.37 83.0227L309.609 82.7216C309.677 82.8958 309.785 83.0587 309.933 83.2102C310.08 83.3617 310.275 83.483 310.518 83.5739C310.764 83.6686 311.063 83.7159 311.415 83.7159C311.942 83.7159 312.376 83.5871 312.717 83.3295C313.061 83.0758 313.234 82.6496 313.234 82.0511V80.4545H313.131C313.025 80.697 312.866 80.9261 312.654 81.142C312.442 81.358 312.169 81.5341 311.836 81.6705C311.503 81.8068 311.105 81.875 310.643 81.875C309.987 81.875 309.391 81.7235 308.853 81.4205C308.319 81.1136 307.893 80.6458 307.575 80.017C307.26 79.3845 307.103 78.5852 307.103 77.6193C307.103 76.6307 307.264 75.8049 307.586 75.142C307.908 74.4792 308.336 73.983 308.87 73.6534C309.408 73.3239 309.997 73.1591 310.637 73.1591C311.126 73.1591 311.535 73.2424 311.864 73.4091C312.194 73.572 312.459 73.7765 312.66 74.0227C312.864 74.2652 313.022 74.5038 313.131 74.7386H313.222V73.2727H315.626V82.0852C315.626 82.8277 315.444 83.4489 315.08 83.9489C314.717 84.4489 314.213 84.8239 313.569 85.0739C312.929 85.3277 312.192 85.4545 311.359 85.4545ZM311.41 80.0568C311.8 80.0568 312.129 79.9602 312.398 79.767C312.671 79.5701 312.879 79.2898 313.023 78.9261C313.171 78.5587 313.245 78.1193 313.245 77.608C313.245 77.0966 313.173 76.6534 313.029 76.2784C312.885 75.8996 312.677 75.6061 312.404 75.3977C312.131 75.1894 311.8 75.0852 311.41 75.0852C311.012 75.0852 310.677 75.1932 310.404 75.4091C310.131 75.6212 309.925 75.9167 309.785 76.2955C309.645 76.6742 309.575 77.1117 309.575 77.608C309.575 78.1117 309.645 78.5473 309.785 78.9148C309.929 79.2784 310.135 79.5606 310.404 79.7614C310.677 79.9583 311.012 80.0568 311.41 80.0568Z" fill="#525252"/>
<rect x="128" y="106" width="195" height="4" rx="2" fill="#E2E2E6"/>
<rect x="151" y="118" width="149" height="4" rx="2" fill="#E2E2E6"/>
<rect x="171.5" y="142" width="48" height="22" rx="6" fill="#303030"/>
<path d="M186.5 153H204.5" stroke="white" stroke-width="2" stroke-linecap="round"/>
<rect x="232.2" y="142.7" width="46.6" height="20.6" rx="5.3" stroke="#C5C5CC" stroke-width="1.4"/>
<path d="M246.5 153H264.5" stroke="#C5C5CC" stroke-width="2" stroke-linecap="round"/>
<path d="M69 197C69 190.373 74.3726 185 81 185H370C376.627 185 382 190.373 382 197V253H69V197Z" fill="#F3F4F6"/>
<path opacity="0.4" d="M241.968 226.906L236.839 214.911C235.905 212.716 234.512 211.47 232.923 211.389C231.35 211.307 229.826 212.404 228.663 214.502L225.549 220.089C224.894 221.269 223.96 221.974 222.944 222.056C221.912 222.154 220.879 221.613 220.044 220.548L219.683 220.089C218.52 218.631 217.078 217.926 215.603 218.074C214.128 218.221 212.867 219.237 212.031 220.892L209.196 226.545C208.181 228.593 208.279 230.969 209.475 232.903C210.671 234.836 212.752 236 215.03 236H235.938C238.133 236 240.182 234.902 241.394 233.067C242.639 231.232 242.836 228.921 241.968 226.906Z" fill="#B2B2B2"/>
<path d="M217.306 213.077C220.365 213.077 222.844 210.597 222.844 207.538C222.844 204.479 220.365 202 217.306 202C214.247 202 211.768 204.479 211.768 207.538C211.768 210.597 214.247 213.077 217.306 213.077Z" fill="#B2B2B2"/>
</g>
<defs>
<clipPath id="clip0_3033_1134">
<rect width="451.33" height="281" fill="white"/>
</clipPath>
</defs>
</svg>
