<svg width="452" height="281" viewBox="0 0 452 281" fill="none" xmlns="http://www.w3.org/2000/svg">
<g clip-path="url(#clip0_410_2890)">
<path d="M451.33 0H0V281H451.33V0Z" fill="#F4F4F6"/>
<path d="M33.8497 0V281" stroke="#E2E2E6" stroke-width="0.8"/>
<path d="M417.48 0V281" stroke="#E2E2E6" stroke-width="0.8"/>
<path d="M0 31.6125H451.33" stroke="#E2E2E6" stroke-width="0.8"/>
<path d="M0 249.388H451.33" stroke="#E2E2E6" stroke-width="0.8"/>
<rect x="33.5" y="29.5" width="384" height="222" rx="11.5" fill="white"/>
<rect x="33.5" y="29.5" width="384" height="222" rx="11.5" stroke="#E2E0E0"/>
<path d="M115.313 151.455V136.909H116.245V151.455H115.313ZM117.785 141.71C117.739 141.252 117.544 140.896 117.2 140.642C116.855 140.388 116.387 140.261 115.796 140.261C115.395 140.261 115.056 140.318 114.779 140.432C114.503 140.542 114.29 140.695 114.143 140.892C113.999 141.089 113.927 141.312 113.927 141.562C113.919 141.771 113.963 141.953 114.058 142.108C114.156 142.263 114.29 142.398 114.461 142.511C114.631 142.621 114.828 142.718 115.052 142.801C115.275 142.881 115.514 142.949 115.768 143.006L116.813 143.256C117.321 143.369 117.787 143.521 118.211 143.71C118.635 143.9 119.003 144.133 119.313 144.409C119.624 144.686 119.864 145.011 120.035 145.386C120.209 145.761 120.298 146.191 120.302 146.676C120.298 147.388 120.116 148.006 119.756 148.528C119.4 149.047 118.885 149.451 118.211 149.739C117.54 150.023 116.732 150.165 115.785 150.165C114.845 150.165 114.027 150.021 113.33 149.733C112.637 149.445 112.095 149.019 111.705 148.455C111.319 147.886 111.116 147.184 111.097 146.347H113.478C113.504 146.737 113.616 147.062 113.813 147.324C114.014 147.581 114.281 147.777 114.614 147.909C114.951 148.038 115.332 148.102 115.756 148.102C116.173 148.102 116.535 148.042 116.842 147.92C117.152 147.799 117.393 147.631 117.563 147.415C117.734 147.199 117.819 146.951 117.819 146.67C117.819 146.409 117.741 146.189 117.586 146.011C117.434 145.833 117.211 145.682 116.915 145.557C116.624 145.432 116.266 145.318 115.842 145.216L114.575 144.898C113.594 144.659 112.819 144.286 112.251 143.778C111.683 143.271 111.4 142.587 111.404 141.727C111.4 141.023 111.588 140.407 111.967 139.881C112.349 139.354 112.874 138.943 113.54 138.648C114.207 138.352 114.965 138.205 115.813 138.205C116.677 138.205 117.431 138.352 118.075 138.648C118.722 138.943 119.226 139.354 119.586 139.881C119.946 140.407 120.131 141.017 120.143 141.71H117.785ZM121.888 150V148.227L126.031 144.392C126.383 144.051 126.678 143.744 126.917 143.472C127.159 143.199 127.343 142.932 127.468 142.67C127.593 142.405 127.656 142.119 127.656 141.812C127.656 141.472 127.578 141.178 127.423 140.932C127.267 140.682 127.055 140.491 126.786 140.358C126.517 140.222 126.212 140.153 125.871 140.153C125.515 140.153 125.205 140.225 124.94 140.369C124.674 140.513 124.47 140.72 124.326 140.989C124.182 141.258 124.11 141.578 124.11 141.949H121.775C121.775 141.187 121.947 140.527 122.292 139.966C122.637 139.405 123.12 138.972 123.741 138.665C124.362 138.358 125.078 138.205 125.888 138.205C126.722 138.205 127.447 138.352 128.065 138.648C128.686 138.939 129.169 139.345 129.513 139.864C129.858 140.383 130.031 140.977 130.031 141.648C130.031 142.087 129.943 142.521 129.769 142.949C129.599 143.377 129.294 143.852 128.854 144.375C128.415 144.894 127.796 145.517 126.996 146.244L125.298 147.909V147.989H130.184V150H121.888ZM132.035 138.364H135.069L138.273 146.182H138.41L141.614 138.364H144.648V150H142.262V142.426H142.165L139.154 149.943H137.529L134.518 142.398H134.421V150H132.035V138.364ZM150.085 148.227V140.182H152.119V148.227H150.085ZM147.079 145.222V143.188H155.124V145.222H147.079Z" fill="#525252"/>
<rect x="118.5" y="162" width="30" height="4" rx="2" fill="#E2E2E6"/>
<path d="M217.896 138.364V150H215.436V140.699H215.368L212.703 142.369V140.188L215.584 138.364H217.896ZM220.662 150V148.227L224.804 144.392C225.156 144.051 225.452 143.744 225.69 143.472C225.933 143.199 226.116 142.932 226.241 142.67C226.366 142.405 226.429 142.119 226.429 141.812C226.429 141.472 226.351 141.178 226.196 140.932C226.041 140.682 225.829 140.491 225.56 140.358C225.291 140.222 224.986 140.153 224.645 140.153C224.289 140.153 223.978 140.225 223.713 140.369C223.448 140.513 223.243 140.72 223.099 140.989C222.955 141.258 222.884 141.578 222.884 141.949H220.548C220.548 141.187 220.721 140.527 221.065 139.966C221.41 139.405 221.893 138.972 222.514 138.665C223.135 138.358 223.851 138.205 224.662 138.205C225.495 138.205 226.221 138.352 226.838 138.648C227.459 138.939 227.942 139.345 228.287 139.864C228.632 140.383 228.804 140.977 228.804 141.648C228.804 142.087 228.717 142.521 228.543 142.949C228.372 143.377 228.067 143.852 227.628 144.375C227.188 144.894 226.569 145.517 225.77 146.244L224.071 147.909V147.989H228.957V150H220.662ZM232.956 147.489L232.962 144.585H233.314L236.109 141.273H238.888L235.132 145.659H234.558L232.956 147.489ZM230.763 150V138.364H233.183V150H230.763ZM236.217 150L233.649 146.199L235.263 144.489L239.053 150H236.217Z" fill="#525252"/>
<rect x="214" y="162" width="23" height="4" rx="2" fill="#E2E2E6"/>
<path d="M300.814 147.955V146.017L305.672 138.364H307.342V141.045H306.354L303.291 145.892V145.983H310.195V147.955H300.814ZM306.399 150V147.364L306.445 146.506V138.364H308.751V150H306.399ZM316.084 150.159C315.281 150.159 314.565 150.011 313.936 149.716C313.311 149.42 312.815 149.013 312.447 148.494C312.08 147.975 311.889 147.381 311.874 146.71H314.26C314.286 147.161 314.476 147.527 314.828 147.807C315.18 148.087 315.599 148.227 316.084 148.227C316.47 148.227 316.811 148.142 317.107 147.972C317.406 147.797 317.639 147.557 317.805 147.25C317.976 146.939 318.061 146.583 318.061 146.182C318.061 145.773 317.974 145.413 317.8 145.102C317.629 144.792 317.393 144.549 317.089 144.375C316.786 144.201 316.44 144.112 316.05 144.108C315.709 144.108 315.377 144.178 315.055 144.318C314.737 144.458 314.489 144.65 314.311 144.892L312.124 144.5L312.675 138.364H319.788V140.375H314.703L314.402 143.29H314.47C314.675 143.002 314.983 142.763 315.396 142.574C315.809 142.384 316.271 142.29 316.783 142.29C317.483 142.29 318.108 142.455 318.658 142.784C319.207 143.114 319.641 143.566 319.959 144.142C320.277 144.714 320.434 145.373 320.43 146.119C320.434 146.903 320.252 147.6 319.885 148.21C319.521 148.816 319.012 149.294 318.357 149.642C317.705 149.987 316.947 150.159 316.084 150.159ZM328.516 147.818V147.205C328.516 146.739 328.614 146.311 328.811 145.92C329.012 145.527 329.302 145.212 329.68 144.977C330.063 144.739 330.529 144.619 331.078 144.619C331.635 144.619 332.103 144.737 332.482 144.972C332.864 145.206 333.152 145.521 333.345 145.915C333.542 146.305 333.641 146.735 333.641 147.205V147.818C333.641 148.284 333.542 148.714 333.345 149.108C333.148 149.498 332.858 149.811 332.476 150.045C332.093 150.284 331.627 150.403 331.078 150.403C330.521 150.403 330.054 150.284 329.675 150.045C329.296 149.811 329.008 149.498 328.811 149.108C328.614 148.714 328.516 148.284 328.516 147.818ZM330.169 147.205V147.818C330.169 148.087 330.233 148.341 330.362 148.58C330.495 148.818 330.733 148.938 331.078 148.938C331.423 148.938 331.658 148.82 331.783 148.585C331.911 148.35 331.976 148.095 331.976 147.818V147.205C331.976 146.928 331.915 146.67 331.794 146.432C331.673 146.193 331.434 146.074 331.078 146.074C330.737 146.074 330.5 146.193 330.368 146.432C330.235 146.67 330.169 146.928 330.169 147.205ZM322.544 141.159V140.545C322.544 140.076 322.644 139.646 322.845 139.256C323.046 138.862 323.336 138.547 323.714 138.312C324.097 138.078 324.559 137.96 325.101 137.96C325.661 137.96 326.131 138.078 326.51 138.312C326.889 138.547 327.177 138.862 327.374 139.256C327.571 139.646 327.669 140.076 327.669 140.545V141.159C327.669 141.629 327.569 142.059 327.368 142.449C327.171 142.839 326.881 143.152 326.499 143.386C326.12 143.617 325.654 143.733 325.101 143.733C324.548 143.733 324.08 143.616 323.697 143.381C323.319 143.142 323.031 142.83 322.834 142.443C322.641 142.053 322.544 141.625 322.544 141.159ZM324.209 140.545V141.159C324.209 141.436 324.273 141.691 324.402 141.926C324.535 142.161 324.768 142.278 325.101 142.278C325.449 142.278 325.686 142.161 325.811 141.926C325.94 141.691 326.004 141.436 326.004 141.159V140.545C326.004 140.269 325.944 140.011 325.822 139.773C325.701 139.534 325.461 139.415 325.101 139.415C324.764 139.415 324.531 139.536 324.402 139.778C324.273 140.021 324.209 140.277 324.209 140.545ZM323.294 150L331.294 138.364H332.783L324.783 150H323.294Z" fill="#525252"/>
<rect x="298.5" y="162" width="38" height="4" rx="2" fill="#E2E2E6"/>
</g>
<defs>
<clipPath id="clip0_410_2890">
<rect width="451.33" height="281" fill="white"/>
</clipPath>
</defs>
</svg>
